G04*
G04 #@! TF.GenerationSoftware,Altium Limited,Altium Designer,20.2.6 (244)*
G04*
G04 Layer_Color=65535*
%FSLAX43Y43*%
%MOMM*%
G71*
G04*
G04 #@! TF.SameCoordinates,1B96AE11-6956-4914-BCA9-E7287AB91291*
G04*
G04*
G04 #@! TF.FilePolarity,Positive*
G04*
G01*
G75*
%ADD10C,0.200*%
%ADD11C,0.013*%
D10*
X51721Y-52054D02*
X51554Y-51888D01*
X51221D01*
X51055Y-52054D01*
Y-52221D01*
X51221Y-52388D01*
X51554D01*
X51721Y-52554D01*
Y-52721D01*
X51554Y-52887D01*
X51221D01*
X51055Y-52721D01*
X52721Y-51888D02*
X52054D01*
Y-52388D01*
X52388Y-52221D01*
X52554D01*
X52721Y-52388D01*
Y-52721D01*
X52554Y-52887D01*
X52221D01*
X52054Y-52721D01*
X53720Y-51888D02*
X53387Y-52054D01*
X53054Y-52388D01*
Y-52721D01*
X53221Y-52887D01*
X53554D01*
X53720Y-52721D01*
Y-52554D01*
X53554Y-52388D01*
X53054D01*
X127921Y-13954D02*
X127754Y-13788D01*
X127421D01*
X127255Y-13954D01*
Y-14121D01*
X127421Y-14288D01*
X127754D01*
X127921Y-14454D01*
Y-14621D01*
X127754Y-14787D01*
X127421D01*
X127255Y-14621D01*
X128254Y-13954D02*
X128421Y-13788D01*
X128754D01*
X128921Y-13954D01*
Y-14121D01*
X128754Y-14288D01*
X128587D01*
X128754D01*
X128921Y-14454D01*
Y-14621D01*
X128754Y-14787D01*
X128421D01*
X128254Y-14621D01*
X129254Y-13954D02*
X129421Y-13788D01*
X129754D01*
X129920Y-13954D01*
Y-14621D01*
X129754Y-14787D01*
X129421D01*
X129254Y-14621D01*
Y-13954D01*
X-148221D02*
X-148387Y-13788D01*
X-148720D01*
X-148887Y-13954D01*
Y-14121D01*
X-148720Y-14288D01*
X-148387D01*
X-148221Y-14454D01*
Y-14621D01*
X-148387Y-14787D01*
X-148720D01*
X-148887Y-14621D01*
X-147887Y-14787D02*
X-147554D01*
X-147721D01*
Y-13788D01*
X-147887Y-13954D01*
X-146388Y-13788D02*
X-146721Y-13954D01*
X-147054Y-14288D01*
Y-14621D01*
X-146888Y-14787D01*
X-146555D01*
X-146388Y-14621D01*
Y-14454D01*
X-146555Y-14288D01*
X-147054D01*
X128004Y5096D02*
X127838Y5262D01*
X127505D01*
X127338Y5096D01*
Y4929D01*
X127505Y4762D01*
X127838D01*
X128004Y4596D01*
Y4429D01*
X127838Y4263D01*
X127505D01*
X127338Y4429D01*
X128338Y4263D02*
X128671D01*
X128504D01*
Y5262D01*
X128338Y5096D01*
X129837Y5262D02*
X129171D01*
Y4762D01*
X129504Y4929D01*
X129670D01*
X129837Y4762D01*
Y4429D01*
X129670Y4263D01*
X129337D01*
X129171Y4429D01*
X-147637Y5096D02*
X-147804Y5262D01*
X-148137D01*
X-148304Y5096D01*
Y4929D01*
X-148137Y4762D01*
X-147804D01*
X-147637Y4596D01*
Y4429D01*
X-147804Y4263D01*
X-148137D01*
X-148304Y4429D01*
X-147304Y4263D02*
X-146971D01*
X-147138D01*
Y5262D01*
X-147304Y5096D01*
X128088Y-71104D02*
X127921Y-70938D01*
X127588D01*
X127421Y-71104D01*
Y-71271D01*
X127588Y-71438D01*
X127921D01*
X128088Y-71604D01*
Y-71771D01*
X127921Y-71937D01*
X127588D01*
X127421Y-71771D01*
X128421Y-70938D02*
X129087D01*
Y-71104D01*
X128421Y-71771D01*
Y-71937D01*
X129421D02*
X129754D01*
X129587D01*
Y-70938D01*
X129421Y-71104D01*
X99346D02*
X99179Y-70938D01*
X98846D01*
X98680Y-71104D01*
Y-71271D01*
X98846Y-71438D01*
X99179D01*
X99346Y-71604D01*
Y-71771D01*
X99179Y-71937D01*
X98846D01*
X98680Y-71771D01*
X99679Y-70938D02*
X100346D01*
Y-71104D01*
X99679Y-71771D01*
Y-71937D01*
X100679Y-71104D02*
X100846Y-70938D01*
X101179D01*
X101345Y-71104D01*
Y-71771D01*
X101179Y-71937D01*
X100846D01*
X100679Y-71771D01*
Y-71104D01*
X70771D02*
X70604Y-70938D01*
X70271D01*
X70105Y-71104D01*
Y-71271D01*
X70271Y-71438D01*
X70604D01*
X70771Y-71604D01*
Y-71771D01*
X70604Y-71937D01*
X70271D01*
X70105Y-71771D01*
X71771Y-70938D02*
X71438Y-71104D01*
X71104Y-71438D01*
Y-71771D01*
X71271Y-71937D01*
X71604D01*
X71771Y-71771D01*
Y-71604D01*
X71604Y-71438D01*
X71104D01*
X72104Y-71771D02*
X72271Y-71937D01*
X72604D01*
X72770Y-71771D01*
Y-71104D01*
X72604Y-70938D01*
X72271D01*
X72104Y-71104D01*
Y-71271D01*
X72271Y-71438D01*
X72770D01*
X62579Y-81296D02*
X62746Y-81462D01*
X63079D01*
X63245Y-81296D01*
Y-81129D01*
X63079Y-80963D01*
X62746D01*
X62579Y-80796D01*
Y-80629D01*
X62746Y-80463D01*
X63079D01*
X63245Y-80629D01*
X61579Y-81462D02*
X61912Y-81296D01*
X62246Y-80963D01*
Y-80629D01*
X62079Y-80463D01*
X61746D01*
X61579Y-80629D01*
Y-80796D01*
X61746Y-80963D01*
X62246D01*
X61246Y-81296D02*
X61079Y-81462D01*
X60746D01*
X60580Y-81296D01*
Y-81129D01*
X60746Y-80963D01*
X60580Y-80796D01*
Y-80629D01*
X60746Y-80463D01*
X61079D01*
X61246Y-80629D01*
Y-80796D01*
X61079Y-80963D01*
X61246Y-81129D01*
Y-81296D01*
X61079Y-80963D02*
X60746D01*
X13621Y-71104D02*
X13454Y-70938D01*
X13121D01*
X12955Y-71104D01*
Y-71271D01*
X13121Y-71438D01*
X13454D01*
X13621Y-71604D01*
Y-71771D01*
X13454Y-71937D01*
X13121D01*
X12955Y-71771D01*
X14621Y-70938D02*
X14288Y-71104D01*
X13954Y-71438D01*
Y-71771D01*
X14121Y-71937D01*
X14454D01*
X14621Y-71771D01*
Y-71604D01*
X14454Y-71438D01*
X13954D01*
X14954Y-70938D02*
X15620D01*
Y-71104D01*
X14954Y-71771D01*
Y-71937D01*
X-5429Y-71104D02*
X-5596Y-70938D01*
X-5929D01*
X-6095Y-71104D01*
Y-71271D01*
X-5929Y-71438D01*
X-5596D01*
X-5429Y-71604D01*
Y-71771D01*
X-5596Y-71937D01*
X-5929D01*
X-6095Y-71771D01*
X-4429Y-70938D02*
X-4762Y-71104D01*
X-5096Y-71438D01*
Y-71771D01*
X-4929Y-71937D01*
X-4596D01*
X-4429Y-71771D01*
Y-71604D01*
X-4596Y-71438D01*
X-5096D01*
X-3430Y-70938D02*
X-3763Y-71104D01*
X-4096Y-71438D01*
Y-71771D01*
X-3929Y-71937D01*
X-3596D01*
X-3430Y-71771D01*
Y-71604D01*
X-3596Y-71438D01*
X-4096D01*
X-24479Y-71104D02*
X-24646Y-70938D01*
X-24979D01*
X-25145Y-71104D01*
Y-71271D01*
X-24979Y-71438D01*
X-24646D01*
X-24479Y-71604D01*
Y-71771D01*
X-24646Y-71937D01*
X-24979D01*
X-25145Y-71771D01*
X-23479Y-70938D02*
X-23812Y-71104D01*
X-24146Y-71438D01*
Y-71771D01*
X-23979Y-71937D01*
X-23646D01*
X-23479Y-71771D01*
Y-71604D01*
X-23646Y-71438D01*
X-24146D01*
X-22480Y-70938D02*
X-23146D01*
Y-71438D01*
X-22813Y-71271D01*
X-22646D01*
X-22480Y-71438D01*
Y-71771D01*
X-22646Y-71937D01*
X-22979D01*
X-23146Y-71771D01*
X-32671Y-81296D02*
X-32504Y-81462D01*
X-32171D01*
X-32005Y-81296D01*
Y-81129D01*
X-32171Y-80963D01*
X-32504D01*
X-32671Y-80796D01*
Y-80629D01*
X-32504Y-80463D01*
X-32171D01*
X-32005Y-80629D01*
X-33671Y-81462D02*
X-33338Y-81296D01*
X-33004Y-80963D01*
Y-80629D01*
X-33171Y-80463D01*
X-33504D01*
X-33671Y-80629D01*
Y-80796D01*
X-33504Y-80963D01*
X-33004D01*
X-34504Y-80463D02*
Y-81462D01*
X-34004Y-80963D01*
X-34670D01*
X-91154Y-71104D02*
X-91321Y-70938D01*
X-91654D01*
X-91820Y-71104D01*
Y-71271D01*
X-91654Y-71438D01*
X-91321D01*
X-91154Y-71604D01*
Y-71771D01*
X-91321Y-71937D01*
X-91654D01*
X-91820Y-71771D01*
X-90154Y-70938D02*
X-90488Y-71104D01*
X-90821Y-71438D01*
Y-71771D01*
X-90654Y-71937D01*
X-90321D01*
X-90154Y-71771D01*
Y-71604D01*
X-90321Y-71438D01*
X-90821D01*
X-89821Y-71104D02*
X-89654Y-70938D01*
X-89321D01*
X-89155Y-71104D01*
Y-71271D01*
X-89321Y-71438D01*
X-89488D01*
X-89321D01*
X-89155Y-71604D01*
Y-71771D01*
X-89321Y-71937D01*
X-89654D01*
X-89821Y-71771D01*
X-119729Y-71104D02*
X-119896Y-70938D01*
X-120229D01*
X-120395Y-71104D01*
Y-71271D01*
X-120229Y-71438D01*
X-119896D01*
X-119729Y-71604D01*
Y-71771D01*
X-119896Y-71937D01*
X-120229D01*
X-120395Y-71771D01*
X-118729Y-70938D02*
X-119062Y-71104D01*
X-119396Y-71438D01*
Y-71771D01*
X-119229Y-71937D01*
X-118896D01*
X-118729Y-71771D01*
Y-71604D01*
X-118896Y-71438D01*
X-119396D01*
X-117730Y-71937D02*
X-118396D01*
X-117730Y-71271D01*
Y-71104D01*
X-117896Y-70938D01*
X-118229D01*
X-118396Y-71104D01*
X-148137D02*
X-148304Y-70938D01*
X-148637D01*
X-148804Y-71104D01*
Y-71271D01*
X-148637Y-71438D01*
X-148304D01*
X-148137Y-71604D01*
Y-71771D01*
X-148304Y-71937D01*
X-148637D01*
X-148804Y-71771D01*
X-147138Y-70938D02*
X-147471Y-71104D01*
X-147804Y-71438D01*
Y-71771D01*
X-147637Y-71937D01*
X-147304D01*
X-147138Y-71771D01*
Y-71604D01*
X-147304Y-71438D01*
X-147804D01*
X-146804Y-71937D02*
X-146471D01*
X-146638D01*
Y-70938D01*
X-146804Y-71104D01*
X127921Y-52054D02*
X127754Y-51888D01*
X127421D01*
X127255Y-52054D01*
Y-52221D01*
X127421Y-52388D01*
X127754D01*
X127921Y-52554D01*
Y-52721D01*
X127754Y-52887D01*
X127421D01*
X127255Y-52721D01*
X128921Y-51888D02*
X128587Y-52054D01*
X128254Y-52388D01*
Y-52721D01*
X128421Y-52887D01*
X128754D01*
X128921Y-52721D01*
Y-52554D01*
X128754Y-52388D01*
X128254D01*
X129254Y-52054D02*
X129421Y-51888D01*
X129754D01*
X129920Y-52054D01*
Y-52721D01*
X129754Y-52887D01*
X129421D01*
X129254Y-52721D01*
Y-52054D01*
X108871D02*
X108704Y-51888D01*
X108371D01*
X108205Y-52054D01*
Y-52221D01*
X108371Y-52388D01*
X108704D01*
X108871Y-52554D01*
Y-52721D01*
X108704Y-52887D01*
X108371D01*
X108205Y-52721D01*
X109871Y-51888D02*
X109204D01*
Y-52388D01*
X109537Y-52221D01*
X109704D01*
X109871Y-52388D01*
Y-52721D01*
X109704Y-52887D01*
X109371D01*
X109204Y-52721D01*
X110204D02*
X110371Y-52887D01*
X110704D01*
X110870Y-52721D01*
Y-52054D01*
X110704Y-51888D01*
X110371D01*
X110204Y-52054D01*
Y-52221D01*
X110371Y-52388D01*
X110870D01*
X89821Y-52054D02*
X89654Y-51888D01*
X89321D01*
X89155Y-52054D01*
Y-52221D01*
X89321Y-52388D01*
X89654D01*
X89821Y-52554D01*
Y-52721D01*
X89654Y-52887D01*
X89321D01*
X89155Y-52721D01*
X90821Y-51888D02*
X90154D01*
Y-52388D01*
X90488Y-52221D01*
X90654D01*
X90821Y-52388D01*
Y-52721D01*
X90654Y-52887D01*
X90321D01*
X90154Y-52721D01*
X91154Y-52054D02*
X91321Y-51888D01*
X91654D01*
X91820Y-52054D01*
Y-52221D01*
X91654Y-52388D01*
X91820Y-52554D01*
Y-52721D01*
X91654Y-52887D01*
X91321D01*
X91154Y-52721D01*
Y-52554D01*
X91321Y-52388D01*
X91154Y-52221D01*
Y-52054D01*
X91321Y-52388D02*
X91654D01*
X70771Y-52054D02*
X70604Y-51888D01*
X70271D01*
X70105Y-52054D01*
Y-52221D01*
X70271Y-52388D01*
X70604D01*
X70771Y-52554D01*
Y-52721D01*
X70604Y-52887D01*
X70271D01*
X70105Y-52721D01*
X71771Y-51888D02*
X71104D01*
Y-52388D01*
X71438Y-52221D01*
X71604D01*
X71771Y-52388D01*
Y-52721D01*
X71604Y-52887D01*
X71271D01*
X71104Y-52721D01*
X72104Y-51888D02*
X72770D01*
Y-52054D01*
X72104Y-52721D01*
Y-52887D01*
X32671Y-52054D02*
X32504Y-51888D01*
X32171D01*
X32005Y-52054D01*
Y-52221D01*
X32171Y-52388D01*
X32504D01*
X32671Y-52554D01*
Y-52721D01*
X32504Y-52887D01*
X32171D01*
X32005Y-52721D01*
X33671Y-51888D02*
X33004D01*
Y-52388D01*
X33338Y-52221D01*
X33504D01*
X33671Y-52388D01*
Y-52721D01*
X33504Y-52887D01*
X33171D01*
X33004Y-52721D01*
X34670Y-51888D02*
X34004D01*
Y-52388D01*
X34337Y-52221D01*
X34504D01*
X34670Y-52388D01*
Y-52721D01*
X34504Y-52887D01*
X34171D01*
X34004Y-52721D01*
X13621Y-52054D02*
X13454Y-51888D01*
X13121D01*
X12955Y-52054D01*
Y-52221D01*
X13121Y-52388D01*
X13454D01*
X13621Y-52554D01*
Y-52721D01*
X13454Y-52887D01*
X13121D01*
X12955Y-52721D01*
X14621Y-51888D02*
X13954D01*
Y-52388D01*
X14288Y-52221D01*
X14454D01*
X14621Y-52388D01*
Y-52721D01*
X14454Y-52887D01*
X14121D01*
X13954Y-52721D01*
X15454Y-52887D02*
Y-51888D01*
X14954Y-52388D01*
X15620D01*
X-5429Y-52054D02*
X-5596Y-51888D01*
X-5929D01*
X-6095Y-52054D01*
Y-52221D01*
X-5929Y-52388D01*
X-5596D01*
X-5429Y-52554D01*
Y-52721D01*
X-5596Y-52887D01*
X-5929D01*
X-6095Y-52721D01*
X-4429Y-51888D02*
X-5096D01*
Y-52388D01*
X-4762Y-52221D01*
X-4596D01*
X-4429Y-52388D01*
Y-52721D01*
X-4596Y-52887D01*
X-4929D01*
X-5096Y-52721D01*
X-4096Y-52054D02*
X-3929Y-51888D01*
X-3596D01*
X-3430Y-52054D01*
Y-52221D01*
X-3596Y-52388D01*
X-3763D01*
X-3596D01*
X-3430Y-52554D01*
Y-52721D01*
X-3596Y-52887D01*
X-3929D01*
X-4096Y-52721D01*
X-24479Y-52054D02*
X-24646Y-51888D01*
X-24979D01*
X-25145Y-52054D01*
Y-52221D01*
X-24979Y-52388D01*
X-24646D01*
X-24479Y-52554D01*
Y-52721D01*
X-24646Y-52887D01*
X-24979D01*
X-25145Y-52721D01*
X-23479Y-51888D02*
X-24146D01*
Y-52388D01*
X-23812Y-52221D01*
X-23646D01*
X-23479Y-52388D01*
Y-52721D01*
X-23646Y-52887D01*
X-23979D01*
X-24146Y-52721D01*
X-22480Y-52887D02*
X-23146D01*
X-22480Y-52221D01*
Y-52054D01*
X-22646Y-51888D01*
X-22979D01*
X-23146Y-52054D01*
X-43362D02*
X-43529Y-51888D01*
X-43862D01*
X-44029Y-52054D01*
Y-52221D01*
X-43862Y-52388D01*
X-43529D01*
X-43362Y-52554D01*
Y-52721D01*
X-43529Y-52887D01*
X-43862D01*
X-44029Y-52721D01*
X-42363Y-51888D02*
X-43029D01*
Y-52388D01*
X-42696Y-52221D01*
X-42529D01*
X-42363Y-52388D01*
Y-52721D01*
X-42529Y-52887D01*
X-42862D01*
X-43029Y-52721D01*
X-42029Y-52887D02*
X-41696D01*
X-41863D01*
Y-51888D01*
X-42029Y-52054D01*
X-62579D02*
X-62746Y-51888D01*
X-63079D01*
X-63245Y-52054D01*
Y-52221D01*
X-63079Y-52388D01*
X-62746D01*
X-62579Y-52554D01*
Y-52721D01*
X-62746Y-52887D01*
X-63079D01*
X-63245Y-52721D01*
X-61579Y-51888D02*
X-62246D01*
Y-52388D01*
X-61912Y-52221D01*
X-61746D01*
X-61579Y-52388D01*
Y-52721D01*
X-61746Y-52887D01*
X-62079D01*
X-62246Y-52721D01*
X-61246Y-52054D02*
X-61079Y-51888D01*
X-60746D01*
X-60580Y-52054D01*
Y-52721D01*
X-60746Y-52887D01*
X-61079D01*
X-61246Y-52721D01*
Y-52054D01*
X-81629D02*
X-81796Y-51888D01*
X-82129D01*
X-82295Y-52054D01*
Y-52221D01*
X-82129Y-52388D01*
X-81796D01*
X-81629Y-52554D01*
Y-52721D01*
X-81796Y-52887D01*
X-82129D01*
X-82295Y-52721D01*
X-80796Y-52887D02*
Y-51888D01*
X-81296Y-52388D01*
X-80629D01*
X-80296Y-52721D02*
X-80129Y-52887D01*
X-79796D01*
X-79630Y-52721D01*
Y-52054D01*
X-79796Y-51888D01*
X-80129D01*
X-80296Y-52054D01*
Y-52221D01*
X-80129Y-52388D01*
X-79630D01*
X-100679Y-52054D02*
X-100846Y-51888D01*
X-101179D01*
X-101345Y-52054D01*
Y-52221D01*
X-101179Y-52388D01*
X-100846D01*
X-100679Y-52554D01*
Y-52721D01*
X-100846Y-52887D01*
X-101179D01*
X-101345Y-52721D01*
X-99846Y-52887D02*
Y-51888D01*
X-100346Y-52388D01*
X-99679D01*
X-99346Y-52054D02*
X-99179Y-51888D01*
X-98846D01*
X-98680Y-52054D01*
Y-52221D01*
X-98846Y-52388D01*
X-98680Y-52554D01*
Y-52721D01*
X-98846Y-52887D01*
X-99179D01*
X-99346Y-52721D01*
Y-52554D01*
X-99179Y-52388D01*
X-99346Y-52221D01*
Y-52054D01*
X-99179Y-52388D02*
X-98846D01*
X-119729Y-52054D02*
X-119896Y-51888D01*
X-120229D01*
X-120395Y-52054D01*
Y-52221D01*
X-120229Y-52388D01*
X-119896D01*
X-119729Y-52554D01*
Y-52721D01*
X-119896Y-52887D01*
X-120229D01*
X-120395Y-52721D01*
X-118896Y-52887D02*
Y-51888D01*
X-119396Y-52388D01*
X-118729D01*
X-118396Y-51888D02*
X-117730D01*
Y-52054D01*
X-118396Y-52721D01*
Y-52887D01*
X-148304Y-52054D02*
X-148471Y-51888D01*
X-148804D01*
X-148970Y-52054D01*
Y-52221D01*
X-148804Y-52388D01*
X-148471D01*
X-148304Y-52554D01*
Y-52721D01*
X-148471Y-52887D01*
X-148804D01*
X-148970Y-52721D01*
X-147471Y-52887D02*
Y-51888D01*
X-147971Y-52388D01*
X-147304D01*
X-146305Y-51888D02*
X-146638Y-52054D01*
X-146971Y-52388D01*
Y-52721D01*
X-146804Y-52887D01*
X-146471D01*
X-146305Y-52721D01*
Y-52554D01*
X-146471Y-52388D01*
X-146971D01*
X127921Y-33004D02*
X127754Y-32838D01*
X127421D01*
X127255Y-33004D01*
Y-33171D01*
X127421Y-33338D01*
X127754D01*
X127921Y-33504D01*
Y-33671D01*
X127754Y-33837D01*
X127421D01*
X127255Y-33671D01*
X128754Y-33837D02*
Y-32838D01*
X128254Y-33338D01*
X128921D01*
X129920Y-32838D02*
X129254D01*
Y-33338D01*
X129587Y-33171D01*
X129754D01*
X129920Y-33338D01*
Y-33671D01*
X129754Y-33837D01*
X129421D01*
X129254Y-33671D01*
X108871Y-33004D02*
X108704Y-32838D01*
X108371D01*
X108205Y-33004D01*
Y-33171D01*
X108371Y-33338D01*
X108704D01*
X108871Y-33504D01*
Y-33671D01*
X108704Y-33837D01*
X108371D01*
X108205Y-33671D01*
X109704Y-33837D02*
Y-32838D01*
X109204Y-33338D01*
X109871D01*
X110704Y-33837D02*
Y-32838D01*
X110204Y-33338D01*
X110870D01*
X89821Y-33004D02*
X89654Y-32838D01*
X89321D01*
X89155Y-33004D01*
Y-33171D01*
X89321Y-33338D01*
X89654D01*
X89821Y-33504D01*
Y-33671D01*
X89654Y-33837D01*
X89321D01*
X89155Y-33671D01*
X90654Y-33837D02*
Y-32838D01*
X90154Y-33338D01*
X90821D01*
X91154Y-33004D02*
X91321Y-32838D01*
X91654D01*
X91820Y-33004D01*
Y-33171D01*
X91654Y-33338D01*
X91487D01*
X91654D01*
X91820Y-33504D01*
Y-33671D01*
X91654Y-33837D01*
X91321D01*
X91154Y-33671D01*
X70771Y-33004D02*
X70604Y-32838D01*
X70271D01*
X70105Y-33004D01*
Y-33171D01*
X70271Y-33338D01*
X70604D01*
X70771Y-33504D01*
Y-33671D01*
X70604Y-33837D01*
X70271D01*
X70105Y-33671D01*
X71604Y-33837D02*
Y-32838D01*
X71104Y-33338D01*
X71771D01*
X72770Y-33837D02*
X72104D01*
X72770Y-33171D01*
Y-33004D01*
X72604Y-32838D01*
X72271D01*
X72104Y-33004D01*
X51888D02*
X51721Y-32838D01*
X51388D01*
X51221Y-33004D01*
Y-33171D01*
X51388Y-33338D01*
X51721D01*
X51888Y-33504D01*
Y-33671D01*
X51721Y-33837D01*
X51388D01*
X51221Y-33671D01*
X52721Y-33837D02*
Y-32838D01*
X52221Y-33338D01*
X52887D01*
X53221Y-33837D02*
X53554D01*
X53387D01*
Y-32838D01*
X53221Y-33004D01*
X32671D02*
X32504Y-32838D01*
X32171D01*
X32005Y-33004D01*
Y-33171D01*
X32171Y-33338D01*
X32504D01*
X32671Y-33504D01*
Y-33671D01*
X32504Y-33837D01*
X32171D01*
X32005Y-33671D01*
X33504Y-33837D02*
Y-32838D01*
X33004Y-33338D01*
X33671D01*
X34004Y-33004D02*
X34171Y-32838D01*
X34504D01*
X34670Y-33004D01*
Y-33671D01*
X34504Y-33837D01*
X34171D01*
X34004Y-33671D01*
Y-33004D01*
X13621D02*
X13454Y-32838D01*
X13121D01*
X12955Y-33004D01*
Y-33171D01*
X13121Y-33338D01*
X13454D01*
X13621Y-33504D01*
Y-33671D01*
X13454Y-33837D01*
X13121D01*
X12955Y-33671D01*
X13954Y-33004D02*
X14121Y-32838D01*
X14454D01*
X14621Y-33004D01*
Y-33171D01*
X14454Y-33338D01*
X14288D01*
X14454D01*
X14621Y-33504D01*
Y-33671D01*
X14454Y-33837D01*
X14121D01*
X13954Y-33671D01*
X14954D02*
X15121Y-33837D01*
X15454D01*
X15620Y-33671D01*
Y-33004D01*
X15454Y-32838D01*
X15121D01*
X14954Y-33004D01*
Y-33171D01*
X15121Y-33338D01*
X15620D01*
X-5429Y-33004D02*
X-5596Y-32838D01*
X-5929D01*
X-6095Y-33004D01*
Y-33171D01*
X-5929Y-33338D01*
X-5596D01*
X-5429Y-33504D01*
Y-33671D01*
X-5596Y-33837D01*
X-5929D01*
X-6095Y-33671D01*
X-5096Y-33004D02*
X-4929Y-32838D01*
X-4596D01*
X-4429Y-33004D01*
Y-33171D01*
X-4596Y-33338D01*
X-4762D01*
X-4596D01*
X-4429Y-33504D01*
Y-33671D01*
X-4596Y-33837D01*
X-4929D01*
X-5096Y-33671D01*
X-4096Y-33004D02*
X-3929Y-32838D01*
X-3596D01*
X-3430Y-33004D01*
Y-33171D01*
X-3596Y-33338D01*
X-3430Y-33504D01*
Y-33671D01*
X-3596Y-33837D01*
X-3929D01*
X-4096Y-33671D01*
Y-33504D01*
X-3929Y-33338D01*
X-4096Y-33171D01*
Y-33004D01*
X-3929Y-33338D02*
X-3596D01*
X-24479Y-33004D02*
X-24646Y-32838D01*
X-24979D01*
X-25145Y-33004D01*
Y-33171D01*
X-24979Y-33338D01*
X-24646D01*
X-24479Y-33504D01*
Y-33671D01*
X-24646Y-33837D01*
X-24979D01*
X-25145Y-33671D01*
X-24146Y-33004D02*
X-23979Y-32838D01*
X-23646D01*
X-23479Y-33004D01*
Y-33171D01*
X-23646Y-33338D01*
X-23812D01*
X-23646D01*
X-23479Y-33504D01*
Y-33671D01*
X-23646Y-33837D01*
X-23979D01*
X-24146Y-33671D01*
X-23146Y-32838D02*
X-22480D01*
Y-33004D01*
X-23146Y-33671D01*
Y-33837D01*
X-43529Y-33004D02*
X-43696Y-32838D01*
X-44029D01*
X-44195Y-33004D01*
Y-33171D01*
X-44029Y-33338D01*
X-43696D01*
X-43529Y-33504D01*
Y-33671D01*
X-43696Y-33837D01*
X-44029D01*
X-44195Y-33671D01*
X-43196Y-33004D02*
X-43029Y-32838D01*
X-42696D01*
X-42529Y-33004D01*
Y-33171D01*
X-42696Y-33338D01*
X-42862D01*
X-42696D01*
X-42529Y-33504D01*
Y-33671D01*
X-42696Y-33837D01*
X-43029D01*
X-43196Y-33671D01*
X-41530Y-32838D02*
X-41863Y-33004D01*
X-42196Y-33338D01*
Y-33671D01*
X-42029Y-33837D01*
X-41696D01*
X-41530Y-33671D01*
Y-33504D01*
X-41696Y-33338D01*
X-42196D01*
X-62579Y-33004D02*
X-62746Y-32838D01*
X-63079D01*
X-63245Y-33004D01*
Y-33171D01*
X-63079Y-33338D01*
X-62746D01*
X-62579Y-33504D01*
Y-33671D01*
X-62746Y-33837D01*
X-63079D01*
X-63245Y-33671D01*
X-62246Y-33004D02*
X-62079Y-32838D01*
X-61746D01*
X-61579Y-33004D01*
Y-33171D01*
X-61746Y-33338D01*
X-61912D01*
X-61746D01*
X-61579Y-33504D01*
Y-33671D01*
X-61746Y-33837D01*
X-62079D01*
X-62246Y-33671D01*
X-60580Y-32838D02*
X-61246D01*
Y-33338D01*
X-60913Y-33171D01*
X-60746D01*
X-60580Y-33338D01*
Y-33671D01*
X-60746Y-33837D01*
X-61079D01*
X-61246Y-33671D01*
X-81629Y-33004D02*
X-81796Y-32838D01*
X-82129D01*
X-82295Y-33004D01*
Y-33171D01*
X-82129Y-33338D01*
X-81796D01*
X-81629Y-33504D01*
Y-33671D01*
X-81796Y-33837D01*
X-82129D01*
X-82295Y-33671D01*
X-81296Y-33004D02*
X-81129Y-32838D01*
X-80796D01*
X-80629Y-33004D01*
Y-33171D01*
X-80796Y-33338D01*
X-80963D01*
X-80796D01*
X-80629Y-33504D01*
Y-33671D01*
X-80796Y-33837D01*
X-81129D01*
X-81296Y-33671D01*
X-79796Y-33837D02*
Y-32838D01*
X-80296Y-33338D01*
X-79630D01*
X-100679Y-33004D02*
X-100846Y-32838D01*
X-101179D01*
X-101345Y-33004D01*
Y-33171D01*
X-101179Y-33338D01*
X-100846D01*
X-100679Y-33504D01*
Y-33671D01*
X-100846Y-33837D01*
X-101179D01*
X-101345Y-33671D01*
X-100346Y-33004D02*
X-100179Y-32838D01*
X-99846D01*
X-99679Y-33004D01*
Y-33171D01*
X-99846Y-33338D01*
X-100012D01*
X-99846D01*
X-99679Y-33504D01*
Y-33671D01*
X-99846Y-33837D01*
X-100179D01*
X-100346Y-33671D01*
X-99346Y-33004D02*
X-99179Y-32838D01*
X-98846D01*
X-98680Y-33004D01*
Y-33171D01*
X-98846Y-33338D01*
X-99013D01*
X-98846D01*
X-98680Y-33504D01*
Y-33671D01*
X-98846Y-33837D01*
X-99179D01*
X-99346Y-33671D01*
X-119729Y-33004D02*
X-119896Y-32838D01*
X-120229D01*
X-120395Y-33004D01*
Y-33171D01*
X-120229Y-33338D01*
X-119896D01*
X-119729Y-33504D01*
Y-33671D01*
X-119896Y-33837D01*
X-120229D01*
X-120395Y-33671D01*
X-119396Y-33004D02*
X-119229Y-32838D01*
X-118896D01*
X-118729Y-33004D01*
Y-33171D01*
X-118896Y-33338D01*
X-119062D01*
X-118896D01*
X-118729Y-33504D01*
Y-33671D01*
X-118896Y-33837D01*
X-119229D01*
X-119396Y-33671D01*
X-117730Y-33837D02*
X-118396D01*
X-117730Y-33171D01*
Y-33004D01*
X-117896Y-32838D01*
X-118229D01*
X-118396Y-33004D01*
X-148137D02*
X-148304Y-32838D01*
X-148637D01*
X-148804Y-33004D01*
Y-33171D01*
X-148637Y-33338D01*
X-148304D01*
X-148137Y-33504D01*
Y-33671D01*
X-148304Y-33837D01*
X-148637D01*
X-148804Y-33671D01*
X-147804Y-33004D02*
X-147637Y-32838D01*
X-147304D01*
X-147138Y-33004D01*
Y-33171D01*
X-147304Y-33338D01*
X-147471D01*
X-147304D01*
X-147138Y-33504D01*
Y-33671D01*
X-147304Y-33837D01*
X-147637D01*
X-147804Y-33671D01*
X-146804Y-33837D02*
X-146471D01*
X-146638D01*
Y-32838D01*
X-146804Y-33004D01*
X108871Y-13954D02*
X108704Y-13788D01*
X108371D01*
X108205Y-13954D01*
Y-14121D01*
X108371Y-14288D01*
X108704D01*
X108871Y-14454D01*
Y-14621D01*
X108704Y-14787D01*
X108371D01*
X108205Y-14621D01*
X109871Y-14787D02*
X109204D01*
X109871Y-14121D01*
Y-13954D01*
X109704Y-13788D01*
X109371D01*
X109204Y-13954D01*
X110204Y-14621D02*
X110371Y-14787D01*
X110704D01*
X110870Y-14621D01*
Y-13954D01*
X110704Y-13788D01*
X110371D01*
X110204Y-13954D01*
Y-14121D01*
X110371Y-14288D01*
X110870D01*
X89821Y-13954D02*
X89654Y-13788D01*
X89321D01*
X89155Y-13954D01*
Y-14121D01*
X89321Y-14288D01*
X89654D01*
X89821Y-14454D01*
Y-14621D01*
X89654Y-14787D01*
X89321D01*
X89155Y-14621D01*
X90821Y-14787D02*
X90154D01*
X90821Y-14121D01*
Y-13954D01*
X90654Y-13788D01*
X90321D01*
X90154Y-13954D01*
X91154D02*
X91321Y-13788D01*
X91654D01*
X91820Y-13954D01*
Y-14121D01*
X91654Y-14288D01*
X91820Y-14454D01*
Y-14621D01*
X91654Y-14787D01*
X91321D01*
X91154Y-14621D01*
Y-14454D01*
X91321Y-14288D01*
X91154Y-14121D01*
Y-13954D01*
X91321Y-14288D02*
X91654D01*
X70771Y-13954D02*
X70604Y-13788D01*
X70271D01*
X70105Y-13954D01*
Y-14121D01*
X70271Y-14288D01*
X70604D01*
X70771Y-14454D01*
Y-14621D01*
X70604Y-14787D01*
X70271D01*
X70105Y-14621D01*
X71771Y-14787D02*
X71104D01*
X71771Y-14121D01*
Y-13954D01*
X71604Y-13788D01*
X71271D01*
X71104Y-13954D01*
X72104Y-13788D02*
X72770D01*
Y-13954D01*
X72104Y-14621D01*
Y-14787D01*
X51721Y-13954D02*
X51554Y-13788D01*
X51221D01*
X51055Y-13954D01*
Y-14121D01*
X51221Y-14288D01*
X51554D01*
X51721Y-14454D01*
Y-14621D01*
X51554Y-14787D01*
X51221D01*
X51055Y-14621D01*
X52721Y-14787D02*
X52054D01*
X52721Y-14121D01*
Y-13954D01*
X52554Y-13788D01*
X52221D01*
X52054Y-13954D01*
X53720Y-13788D02*
X53387Y-13954D01*
X53054Y-14288D01*
Y-14621D01*
X53221Y-14787D01*
X53554D01*
X53720Y-14621D01*
Y-14454D01*
X53554Y-14288D01*
X53054D01*
X32671Y-13954D02*
X32504Y-13788D01*
X32171D01*
X32005Y-13954D01*
Y-14121D01*
X32171Y-14288D01*
X32504D01*
X32671Y-14454D01*
Y-14621D01*
X32504Y-14787D01*
X32171D01*
X32005Y-14621D01*
X33671Y-14787D02*
X33004D01*
X33671Y-14121D01*
Y-13954D01*
X33504Y-13788D01*
X33171D01*
X33004Y-13954D01*
X34670Y-13788D02*
X34004D01*
Y-14288D01*
X34337Y-14121D01*
X34504D01*
X34670Y-14288D01*
Y-14621D01*
X34504Y-14787D01*
X34171D01*
X34004Y-14621D01*
X13621Y-13954D02*
X13454Y-13788D01*
X13121D01*
X12955Y-13954D01*
Y-14121D01*
X13121Y-14288D01*
X13454D01*
X13621Y-14454D01*
Y-14621D01*
X13454Y-14787D01*
X13121D01*
X12955Y-14621D01*
X14621Y-14787D02*
X13954D01*
X14621Y-14121D01*
Y-13954D01*
X14454Y-13788D01*
X14121D01*
X13954Y-13954D01*
X15454Y-14787D02*
Y-13788D01*
X14954Y-14288D01*
X15620D01*
X-5429Y-13954D02*
X-5596Y-13788D01*
X-5929D01*
X-6095Y-13954D01*
Y-14121D01*
X-5929Y-14288D01*
X-5596D01*
X-5429Y-14454D01*
Y-14621D01*
X-5596Y-14787D01*
X-5929D01*
X-6095Y-14621D01*
X-4429Y-14787D02*
X-5096D01*
X-4429Y-14121D01*
Y-13954D01*
X-4596Y-13788D01*
X-4929D01*
X-5096Y-13954D01*
X-4096D02*
X-3929Y-13788D01*
X-3596D01*
X-3430Y-13954D01*
Y-14121D01*
X-3596Y-14288D01*
X-3763D01*
X-3596D01*
X-3430Y-14454D01*
Y-14621D01*
X-3596Y-14787D01*
X-3929D01*
X-4096Y-14621D01*
X-24479Y-13954D02*
X-24646Y-13788D01*
X-24979D01*
X-25145Y-13954D01*
Y-14121D01*
X-24979Y-14288D01*
X-24646D01*
X-24479Y-14454D01*
Y-14621D01*
X-24646Y-14787D01*
X-24979D01*
X-25145Y-14621D01*
X-23479Y-14787D02*
X-24146D01*
X-23479Y-14121D01*
Y-13954D01*
X-23646Y-13788D01*
X-23979D01*
X-24146Y-13954D01*
X-22480Y-14787D02*
X-23146D01*
X-22480Y-14121D01*
Y-13954D01*
X-22646Y-13788D01*
X-22979D01*
X-23146Y-13954D01*
X-43362D02*
X-43529Y-13788D01*
X-43862D01*
X-44029Y-13954D01*
Y-14121D01*
X-43862Y-14288D01*
X-43529D01*
X-43362Y-14454D01*
Y-14621D01*
X-43529Y-14787D01*
X-43862D01*
X-44029Y-14621D01*
X-42363Y-14787D02*
X-43029D01*
X-42363Y-14121D01*
Y-13954D01*
X-42529Y-13788D01*
X-42862D01*
X-43029Y-13954D01*
X-42029Y-14787D02*
X-41696D01*
X-41863D01*
Y-13788D01*
X-42029Y-13954D01*
X-62579D02*
X-62746Y-13788D01*
X-63079D01*
X-63245Y-13954D01*
Y-14121D01*
X-63079Y-14288D01*
X-62746D01*
X-62579Y-14454D01*
Y-14621D01*
X-62746Y-14787D01*
X-63079D01*
X-63245Y-14621D01*
X-61579Y-14787D02*
X-62246D01*
X-61579Y-14121D01*
Y-13954D01*
X-61746Y-13788D01*
X-62079D01*
X-62246Y-13954D01*
X-61246D02*
X-61079Y-13788D01*
X-60746D01*
X-60580Y-13954D01*
Y-14621D01*
X-60746Y-14787D01*
X-61079D01*
X-61246Y-14621D01*
Y-13954D01*
X-81546D02*
X-81712Y-13788D01*
X-82045D01*
X-82212Y-13954D01*
Y-14121D01*
X-82045Y-14288D01*
X-81712D01*
X-81546Y-14454D01*
Y-14621D01*
X-81712Y-14787D01*
X-82045D01*
X-82212Y-14621D01*
X-81212Y-14787D02*
X-80879D01*
X-81046D01*
Y-13788D01*
X-81212Y-13954D01*
X-80379Y-14621D02*
X-80213Y-14787D01*
X-79880D01*
X-79713Y-14621D01*
Y-13954D01*
X-79880Y-13788D01*
X-80213D01*
X-80379Y-13954D01*
Y-14121D01*
X-80213Y-14288D01*
X-79713D01*
X-100596Y-13954D02*
X-100762Y-13788D01*
X-101095D01*
X-101262Y-13954D01*
Y-14121D01*
X-101095Y-14288D01*
X-100762D01*
X-100596Y-14454D01*
Y-14621D01*
X-100762Y-14787D01*
X-101095D01*
X-101262Y-14621D01*
X-100262Y-14787D02*
X-99929D01*
X-100096D01*
Y-13788D01*
X-100262Y-13954D01*
X-99429D02*
X-99263Y-13788D01*
X-98930D01*
X-98763Y-13954D01*
Y-14121D01*
X-98930Y-14288D01*
X-98763Y-14454D01*
Y-14621D01*
X-98930Y-14787D01*
X-99263D01*
X-99429Y-14621D01*
Y-14454D01*
X-99263Y-14288D01*
X-99429Y-14121D01*
Y-13954D01*
X-99263Y-14288D02*
X-98930D01*
X-119646Y-13954D02*
X-119812Y-13788D01*
X-120145D01*
X-120312Y-13954D01*
Y-14121D01*
X-120145Y-14288D01*
X-119812D01*
X-119646Y-14454D01*
Y-14621D01*
X-119812Y-14787D01*
X-120145D01*
X-120312Y-14621D01*
X-119312Y-14787D02*
X-118979D01*
X-119146D01*
Y-13788D01*
X-119312Y-13954D01*
X-118479Y-13788D02*
X-117813D01*
Y-13954D01*
X-118479Y-14621D01*
Y-14787D01*
X108954Y5096D02*
X108788Y5262D01*
X108455D01*
X108288Y5096D01*
Y4929D01*
X108455Y4762D01*
X108788D01*
X108954Y4596D01*
Y4429D01*
X108788Y4263D01*
X108455D01*
X108288Y4429D01*
X109288Y4263D02*
X109621D01*
X109454D01*
Y5262D01*
X109288Y5096D01*
X110620Y4263D02*
Y5262D01*
X110121Y4762D01*
X110787D01*
X89904Y5096D02*
X89738Y5262D01*
X89405D01*
X89238Y5096D01*
Y4929D01*
X89405Y4762D01*
X89738D01*
X89904Y4596D01*
Y4429D01*
X89738Y4263D01*
X89405D01*
X89238Y4429D01*
X90238Y4263D02*
X90571D01*
X90404D01*
Y5262D01*
X90238Y5096D01*
X91071D02*
X91237Y5262D01*
X91570D01*
X91737Y5096D01*
Y4929D01*
X91570Y4762D01*
X91404D01*
X91570D01*
X91737Y4596D01*
Y4429D01*
X91570Y4263D01*
X91237D01*
X91071Y4429D01*
X70854Y5096D02*
X70688Y5262D01*
X70355D01*
X70188Y5096D01*
Y4929D01*
X70355Y4762D01*
X70688D01*
X70854Y4596D01*
Y4429D01*
X70688Y4263D01*
X70355D01*
X70188Y4429D01*
X71188Y4263D02*
X71521D01*
X71354D01*
Y5262D01*
X71188Y5096D01*
X72687Y4263D02*
X72021D01*
X72687Y4929D01*
Y5096D01*
X72520Y5262D01*
X72187D01*
X72021Y5096D01*
X51971D02*
X51804Y5262D01*
X51471D01*
X51305Y5096D01*
Y4929D01*
X51471Y4762D01*
X51804D01*
X51971Y4596D01*
Y4429D01*
X51804Y4263D01*
X51471D01*
X51305Y4429D01*
X52304Y4263D02*
X52637D01*
X52471D01*
Y5262D01*
X52304Y5096D01*
X53137Y4263D02*
X53470D01*
X53304D01*
Y5262D01*
X53137Y5096D01*
X32754D02*
X32588Y5262D01*
X32255D01*
X32088Y5096D01*
Y4929D01*
X32255Y4762D01*
X32588D01*
X32754Y4596D01*
Y4429D01*
X32588Y4263D01*
X32255D01*
X32088Y4429D01*
X33088Y4263D02*
X33421D01*
X33254D01*
Y5262D01*
X33088Y5096D01*
X33921D02*
X34087Y5262D01*
X34420D01*
X34587Y5096D01*
Y4429D01*
X34420Y4263D01*
X34087D01*
X33921Y4429D01*
Y5096D01*
X14121D02*
X13954Y5262D01*
X13621D01*
X13454Y5096D01*
Y4929D01*
X13621Y4762D01*
X13954D01*
X14121Y4596D01*
Y4429D01*
X13954Y4263D01*
X13621D01*
X13454Y4429D01*
X14454D02*
X14621Y4263D01*
X14954D01*
X15121Y4429D01*
Y5096D01*
X14954Y5262D01*
X14621D01*
X14454Y5096D01*
Y4929D01*
X14621Y4762D01*
X15121D01*
X-4929Y5096D02*
X-5096Y5262D01*
X-5429D01*
X-5596Y5096D01*
Y4929D01*
X-5429Y4762D01*
X-5096D01*
X-4929Y4596D01*
Y4429D01*
X-5096Y4263D01*
X-5429D01*
X-5596Y4429D01*
X-4596Y5096D02*
X-4429Y5262D01*
X-4096D01*
X-3929Y5096D01*
Y4929D01*
X-4096Y4762D01*
X-3929Y4596D01*
Y4429D01*
X-4096Y4263D01*
X-4429D01*
X-4596Y4429D01*
Y4596D01*
X-4429Y4762D01*
X-4596Y4929D01*
Y5096D01*
X-4429Y4762D02*
X-4096D01*
X-23979Y5096D02*
X-24146Y5262D01*
X-24479D01*
X-24646Y5096D01*
Y4929D01*
X-24479Y4762D01*
X-24146D01*
X-23979Y4596D01*
Y4429D01*
X-24146Y4263D01*
X-24479D01*
X-24646Y4429D01*
X-23646Y5262D02*
X-22979D01*
Y5096D01*
X-23646Y4429D01*
Y4263D01*
X-43029Y5096D02*
X-43196Y5262D01*
X-43529D01*
X-43696Y5096D01*
Y4929D01*
X-43529Y4762D01*
X-43196D01*
X-43029Y4596D01*
Y4429D01*
X-43196Y4263D01*
X-43529D01*
X-43696Y4429D01*
X-42029Y5262D02*
X-42363Y5096D01*
X-42696Y4762D01*
Y4429D01*
X-42529Y4263D01*
X-42196D01*
X-42029Y4429D01*
Y4596D01*
X-42196Y4762D01*
X-42696D01*
X-62079Y5096D02*
X-62246Y5262D01*
X-62579D01*
X-62746Y5096D01*
Y4929D01*
X-62579Y4762D01*
X-62246D01*
X-62079Y4596D01*
Y4429D01*
X-62246Y4263D01*
X-62579D01*
X-62746Y4429D01*
X-61079Y5262D02*
X-61746D01*
Y4762D01*
X-61413Y4929D01*
X-61246D01*
X-61079Y4762D01*
Y4429D01*
X-61246Y4263D01*
X-61579D01*
X-61746Y4429D01*
X-81129Y5096D02*
X-81296Y5262D01*
X-81629D01*
X-81796Y5096D01*
Y4929D01*
X-81629Y4762D01*
X-81296D01*
X-81129Y4596D01*
Y4429D01*
X-81296Y4263D01*
X-81629D01*
X-81796Y4429D01*
X-80296Y4263D02*
Y5262D01*
X-80796Y4762D01*
X-80129D01*
X-100179Y5096D02*
X-100346Y5262D01*
X-100679D01*
X-100846Y5096D01*
Y4929D01*
X-100679Y4762D01*
X-100346D01*
X-100179Y4596D01*
Y4429D01*
X-100346Y4263D01*
X-100679D01*
X-100846Y4429D01*
X-99846Y5096D02*
X-99679Y5262D01*
X-99346D01*
X-99179Y5096D01*
Y4929D01*
X-99346Y4762D01*
X-99513D01*
X-99346D01*
X-99179Y4596D01*
Y4429D01*
X-99346Y4263D01*
X-99679D01*
X-99846Y4429D01*
X-119229Y5096D02*
X-119396Y5262D01*
X-119729D01*
X-119896Y5096D01*
Y4929D01*
X-119729Y4762D01*
X-119396D01*
X-119229Y4596D01*
Y4429D01*
X-119396Y4263D01*
X-119729D01*
X-119896Y4429D01*
X-118229Y4263D02*
X-118896D01*
X-118229Y4929D01*
Y5096D01*
X-118396Y5262D01*
X-118729D01*
X-118896Y5096D01*
X151775Y5900D02*
G03*
X148775Y8900I-3000J0D01*
G01*
Y-85098D02*
G03*
X151775Y-82098I0J3000D01*
G01*
X145083Y-84870D02*
G03*
X145718Y-85098I636J772D01*
G01*
X145083Y-84870D02*
G03*
X138727Y-84870I-3178J-3860D01*
G01*
X138092Y-85098D02*
G03*
X138727Y-84870I0J1000D01*
G01*
X55083D02*
G03*
X55718Y-85098I636J772D01*
G01*
X55083Y-84870D02*
G03*
X48727Y-84870I-3178J-3860D01*
G01*
X48092Y-85098D02*
G03*
X48727Y-84870I0J1000D01*
G01*
X-48727D02*
G03*
X-48092Y-85098I636J772D01*
G01*
X-48727Y-84870D02*
G03*
X-55083Y-84870I-3178J-3860D01*
G01*
X-55718Y-85098D02*
G03*
X-55083Y-84870I0J1000D01*
G01*
X-138727D02*
G03*
X-138092Y-85098I636J772D01*
G01*
X-138727Y-84870D02*
G03*
X-145083Y-84870I-3178J-3860D01*
G01*
X-145718Y-85098D02*
G03*
X-145083Y-84870I0J1000D01*
G01*
X-151775Y-82098D02*
G03*
X-148775Y-85098I3000J0D01*
G01*
Y8900D02*
G03*
X-151775Y5900I0J-3000D01*
G01*
X-145085Y8672D02*
G03*
X-145721Y8900I-636J-772D01*
G01*
X-145085Y8672D02*
G03*
X-138725Y8672I3180J3858D01*
G01*
X-138089Y8900D02*
G03*
X-138725Y8672I0J-1000D01*
G01*
X-55085D02*
G03*
X-48725Y8672I3180J3858D01*
G01*
X-48089Y8900D02*
G03*
X-48725Y8672I0J-1000D01*
G01*
X48725D02*
G03*
X48089Y8900I-636J-772D01*
G01*
X48725Y8672D02*
G03*
X55085Y8672I3180J3858D01*
G01*
X55721Y8900D02*
G03*
X55085Y8672I0J-1000D01*
G01*
X138725D02*
G03*
X138089Y8900I-636J-772D01*
G01*
X138725Y8672D02*
G03*
X145085Y8672I3180J3858D01*
G01*
X145721Y8900D02*
G03*
X145085Y8672I0J-1000D01*
G01*
X-4325Y9620D02*
G03*
X-4825Y9120I0J-500D01*
G01*
X4825Y9120D02*
G03*
X4325Y9620I-500J0D01*
G01*
X4825Y8900D02*
Y9120D01*
X151775Y-82098D02*
Y5900D01*
X145718Y-85098D02*
X148775D01*
X-151775Y-82098D02*
Y5900D01*
X-148775Y8900D02*
X-145721D01*
X-4825D02*
Y9120D01*
X-4325Y9620D02*
X4325D01*
X4825Y8900D02*
X48089D01*
X-48092Y-85098D02*
X48092D01*
X-138092D02*
X-55718D01*
X-148775D02*
X-145718D01*
X55718D02*
X138092D01*
X-48089Y8900D02*
X-4825D01*
X-138089D02*
X-55721D01*
X145721D02*
X148775D01*
X55721D02*
X138089D01*
D11*
X-55085Y8672D02*
G03*
X-55721Y8900I-636J-772D01*
G01*
M02*
