G04*
G04 #@! TF.GenerationSoftware,Altium Limited,Altium Designer,20.2.6 (244)*
G04*
G04 Layer_Color=16711935*
%FSLAX43Y43*%
%MOMM*%
G71*
G04*
G04 #@! TF.SameCoordinates,FBA5710F-A01C-4517-A5A6-22E0ABBBF171*
G04*
G04*
G04 #@! TF.FilePolarity,Positive*
G04*
G01*
G75*
%ADD10C,0.200*%
%ADD11C,0.013*%
%ADD71C,0.100*%
%ADD75R,0.363X1.350*%
%ADD76R,1.350X0.363*%
%ADD77R,4.500X0.725*%
D10*
X151775Y5900D02*
G03*
X148775Y8900I-3000J0D01*
G01*
Y-85098D02*
G03*
X151775Y-82098I0J3000D01*
G01*
X145083Y-84870D02*
G03*
X145718Y-85098I636J772D01*
G01*
X145083Y-84870D02*
G03*
X138727Y-84870I-3178J-3860D01*
G01*
X138092Y-85098D02*
G03*
X138727Y-84870I0J1000D01*
G01*
X55083D02*
G03*
X55718Y-85098I636J772D01*
G01*
X55083Y-84870D02*
G03*
X48727Y-84870I-3178J-3860D01*
G01*
X48092Y-85098D02*
G03*
X48727Y-84870I0J1000D01*
G01*
X-48727D02*
G03*
X-48092Y-85098I636J772D01*
G01*
X-48727Y-84870D02*
G03*
X-55083Y-84870I-3178J-3860D01*
G01*
X-55718Y-85098D02*
G03*
X-55083Y-84870I0J1000D01*
G01*
X-138727D02*
G03*
X-138092Y-85098I636J772D01*
G01*
X-138727Y-84870D02*
G03*
X-145083Y-84870I-3178J-3860D01*
G01*
X-145718Y-85098D02*
G03*
X-145083Y-84870I0J1000D01*
G01*
X-151775Y-82098D02*
G03*
X-148775Y-85098I3000J0D01*
G01*
Y8900D02*
G03*
X-151775Y5900I0J-3000D01*
G01*
X-145085Y8672D02*
G03*
X-145721Y8900I-636J-772D01*
G01*
X-145085Y8672D02*
G03*
X-138725Y8672I3180J3858D01*
G01*
X-138089Y8900D02*
G03*
X-138725Y8672I0J-1000D01*
G01*
X-55085D02*
G03*
X-48725Y8672I3180J3858D01*
G01*
X-48089Y8900D02*
G03*
X-48725Y8672I0J-1000D01*
G01*
X48725D02*
G03*
X48089Y8900I-636J-772D01*
G01*
X48725Y8672D02*
G03*
X55085Y8672I3180J3858D01*
G01*
X55721Y8900D02*
G03*
X55085Y8672I0J-1000D01*
G01*
X138725D02*
G03*
X138089Y8900I-636J-772D01*
G01*
X138725Y8672D02*
G03*
X145085Y8672I3180J3858D01*
G01*
X145721Y8900D02*
G03*
X145085Y8672I0J-1000D01*
G01*
X-4325Y9620D02*
G03*
X-4825Y9120I0J-500D01*
G01*
X4825Y9120D02*
G03*
X4325Y9620I-500J0D01*
G01*
X4825Y8900D02*
Y9120D01*
X151775Y-82098D02*
Y5900D01*
X145718Y-85098D02*
X148775D01*
X-151775Y-82098D02*
Y5900D01*
X-148775Y8900D02*
X-145721D01*
X-4825D02*
Y9120D01*
X-4325Y9620D02*
X4325D01*
X4825Y8900D02*
X48089D01*
X-48092Y-85098D02*
X48092D01*
X-138092D02*
X-55718D01*
X-148775D02*
X-145718D01*
X55718D02*
X138092D01*
X-48089Y8900D02*
X-4825D01*
X-138089D02*
X-55721D01*
X145721D02*
X148775D01*
X55721D02*
X138089D01*
D11*
X-55085Y8672D02*
G03*
X-55721Y8900I-636J-772D01*
G01*
D71*
X-11175Y-25325D02*
G03*
X-11175Y-25325I-500J0D01*
G01*
X8175Y-46950D02*
X10875D01*
X8175Y-48300D02*
X10875D01*
Y-46950D01*
X8175Y-48300D02*
Y-46950D01*
X-21900Y-30425D02*
Y-29075D01*
X-24600Y-30425D02*
Y-29075D01*
X-21900D01*
X-24600Y-30425D02*
X-21900D01*
X-29925Y-29250D02*
Y-27900D01*
X-27225Y-29250D02*
Y-27900D01*
X-29925Y-29250D02*
X-27225D01*
X-29925Y-27900D02*
X-27225D01*
X-10200Y-10050D02*
X-7300D01*
Y-8450D01*
X-10200D02*
X-7300D01*
X-10200Y-10050D02*
Y-8450D01*
X-10325Y-1350D02*
Y1350D01*
X-11675Y-1350D02*
Y1350D01*
Y-1350D02*
X-10325D01*
X-11675Y1350D02*
X-10325D01*
X27150Y-54825D02*
X29850D01*
X27150Y-56175D02*
X29850D01*
Y-54825D01*
X27150Y-56175D02*
Y-54825D01*
X23360Y-52925D02*
Y-44075D01*
X38640D01*
Y-52925D02*
Y-44075D01*
X23360Y-52925D02*
X38640D01*
X-49350Y-51325D02*
X-46650D01*
X-49350Y-52675D02*
X-46650D01*
Y-51325D01*
X-49350Y-52675D02*
Y-51325D01*
X-67850D02*
X-65150D01*
X-67850Y-52675D02*
X-65150D01*
Y-51325D01*
X-67850Y-52675D02*
Y-51325D01*
X-106350D02*
X-103650D01*
X-106350Y-52675D02*
X-103650D01*
Y-51325D01*
X-106350Y-52675D02*
Y-51325D01*
X-87350D02*
X-84650D01*
X-87350Y-52675D02*
X-84650D01*
Y-51325D01*
X-87350Y-52675D02*
Y-51325D01*
X-9000Y-22250D02*
Y-21250D01*
X-9500Y-22250D02*
Y-21250D01*
Y-22250D02*
X-9000D01*
X-9500Y-21250D02*
X-9000D01*
X-10875Y-48300D02*
Y-46950D01*
X-8175Y-48300D02*
Y-46950D01*
X-10875Y-48300D02*
X-8175D01*
X-10875Y-46950D02*
X-8175D01*
X84375Y-48300D02*
Y-46950D01*
X87075Y-48300D02*
Y-46950D01*
X84375Y-48300D02*
X87075D01*
X84375Y-46950D02*
X87075D01*
X46275Y-48300D02*
Y-46950D01*
X48975Y-48300D02*
Y-46950D01*
X46275Y-48300D02*
X48975D01*
X46275Y-46950D02*
X48975D01*
X65325Y-48300D02*
Y-46950D01*
X68025Y-48300D02*
Y-46950D01*
X65325Y-48300D02*
X68025D01*
X65325Y-46950D02*
X68025D01*
X-66250Y-6000D02*
Y-5500D01*
X-67250Y-6000D02*
Y-5500D01*
X-66250D01*
X-67250Y-6000D02*
X-66250D01*
X-67350Y1350D02*
X-66000D01*
X-67350Y-1350D02*
X-66000D01*
X-67350D02*
Y1350D01*
X-66000Y-1350D02*
Y1350D01*
X-38100Y-10175D02*
Y-8825D01*
X-35400Y-10175D02*
Y-8825D01*
X-38100Y-10175D02*
X-35400D01*
X-38100Y-8825D02*
X-35400D01*
X-28000Y-5750D02*
Y-5250D01*
X-29000Y-5750D02*
Y-5250D01*
X-28000D01*
X-29000Y-5750D02*
X-28000D01*
X-9025Y-14850D02*
Y-13150D01*
X-9975Y-14850D02*
Y-13150D01*
Y-14850D02*
X-9025D01*
X-9975Y-13150D02*
X-9025D01*
X-7275Y-14850D02*
Y-13150D01*
X-8225Y-14850D02*
Y-13150D01*
Y-14850D02*
X-7275D01*
X-8225Y-13150D02*
X-7275D01*
X27900Y1350D02*
X29250D01*
X27900Y-1350D02*
X29250D01*
X27900D02*
Y1350D01*
X29250Y-1350D02*
Y1350D01*
X67000Y-6000D02*
Y-5500D01*
X66000Y-6000D02*
Y-5500D01*
X67000D01*
X66000Y-6000D02*
X67000D01*
X95750D02*
Y-5500D01*
X94750Y-6000D02*
Y-5500D01*
X95750D01*
X94750Y-6000D02*
X95750D01*
X113625Y-68025D02*
X114975D01*
X113625Y-65325D02*
X114975D01*
Y-68025D02*
Y-65325D01*
X113625Y-68025D02*
Y-65325D01*
X-3500Y-25000D02*
X-2500D01*
X-3500Y-24500D02*
X-2500D01*
X-3500Y-25000D02*
Y-24500D01*
X-2500Y-25000D02*
Y-24500D01*
X-1850Y-29200D02*
Y-25800D01*
Y-29200D02*
X850D01*
Y-25800D01*
X-1850D02*
X850D01*
X8150Y-32925D02*
Y-31575D01*
X10850Y-32925D02*
Y-31575D01*
X8150Y-32925D02*
X10850D01*
X8150Y-31575D02*
X10850D01*
X2550Y-29075D02*
X3950D01*
X2550Y-26925D02*
X3950D01*
Y-29075D02*
Y-26925D01*
X2550Y-29075D02*
Y-26925D01*
X3250Y-25950D02*
Y-23050D01*
X6750D01*
Y-25950D02*
Y-23050D01*
X3250Y-25950D02*
X6750D01*
X8175Y-10200D02*
Y-8850D01*
X10875Y-10200D02*
Y-8850D01*
X8175Y-10200D02*
X10875D01*
X8175Y-8850D02*
X10875D01*
X-1350Y-10200D02*
Y-8850D01*
X1350Y-10200D02*
Y-8850D01*
X-1350Y-10200D02*
X1350D01*
X-1350Y-8850D02*
X1350D01*
X-8000Y-22250D02*
Y-21250D01*
X-8500Y-22250D02*
Y-21250D01*
Y-22250D02*
X-8000D01*
X-8500Y-21250D02*
X-8000D01*
X-11000Y-22250D02*
Y-21250D01*
X-11500Y-22250D02*
Y-21250D01*
Y-22250D02*
X-11000D01*
X-11500Y-21250D02*
X-11000D01*
X-15250Y-25000D02*
X-14250D01*
X-15250Y-25500D02*
X-14250D01*
Y-25000D01*
X-15250Y-25500D02*
Y-25000D01*
Y-26000D02*
X-14250D01*
X-15250Y-26500D02*
X-14250D01*
Y-26000D01*
X-15250Y-26500D02*
Y-26000D01*
X-5425Y-31575D02*
Y-24425D01*
X-12575Y-31575D02*
Y-24425D01*
Y-31575D02*
X-5425D01*
X-12575Y-24425D02*
X-5425D01*
X-6750Y-33250D02*
X-5750D01*
X-6750Y-32750D02*
X-5750D01*
X-6750Y-33250D02*
Y-32750D01*
X-5750Y-33250D02*
Y-32750D01*
X-15000Y-30000D02*
X-14000D01*
X-15000Y-30500D02*
X-14000D01*
Y-30000D01*
X-15000Y-30500D02*
Y-30000D01*
X141525Y-66000D02*
X144225D01*
X141525Y-67350D02*
X144225D01*
Y-66000D01*
X141525Y-67350D02*
Y-66000D01*
X-48975Y-29250D02*
Y-27900D01*
X-46275Y-29250D02*
Y-27900D01*
X-48975Y-29250D02*
X-46275D01*
X-48975Y-27900D02*
X-46275D01*
X-29250Y1350D02*
X-27900D01*
X-29250Y-1350D02*
X-27900D01*
X-29250D02*
Y1350D01*
X-27900Y-1350D02*
Y1350D01*
X-48300D02*
X-46950D01*
X-48300Y-1350D02*
X-46950D01*
X-48300D02*
Y1350D01*
X-46950Y-1350D02*
Y1350D01*
X-86400D02*
X-85050D01*
X-86400Y-1350D02*
X-85050D01*
X-86400D02*
Y1350D01*
X-85050Y-1350D02*
Y1350D01*
X-105450D02*
X-104100D01*
X-105450Y-1350D02*
X-104100D01*
X-105450D02*
Y1350D01*
X-104100Y-1350D02*
Y1350D01*
X-129175Y2350D02*
X-127825D01*
X-129175Y-350D02*
X-127825D01*
X-129175D02*
Y2350D01*
X-127825Y-350D02*
Y2350D01*
X-68025Y-29250D02*
Y-27900D01*
X-65325Y-29250D02*
Y-27900D01*
X-68025Y-29250D02*
X-65325D01*
X-68025Y-27900D02*
X-65325D01*
X104100Y1350D02*
X105450D01*
X104100Y-1350D02*
X105450D01*
X104100D02*
Y1350D01*
X105450Y-1350D02*
Y1350D01*
X85050D02*
X86400D01*
X85050Y-1350D02*
X86400D01*
X85050D02*
Y1350D01*
X86400Y-1350D02*
Y1350D01*
X66000D02*
X67350D01*
X66000Y-1350D02*
X67350D01*
X66000D02*
Y1350D01*
X67350Y-1350D02*
Y1350D01*
X46950D02*
X48300D01*
X46950Y-1350D02*
X48300D01*
X46950D02*
Y1350D01*
X48300Y-1350D02*
Y1350D01*
X-87075Y-10200D02*
Y-8850D01*
X-84375Y-10200D02*
Y-8850D01*
X-87075Y-10200D02*
X-84375D01*
X-87075Y-8850D02*
X-84375D01*
X-106125Y-10200D02*
Y-8850D01*
X-103425Y-10200D02*
Y-8850D01*
X-106125Y-10200D02*
X-103425D01*
X-106125Y-8850D02*
X-103425D01*
X-134700Y-10200D02*
Y-8850D01*
X-132000Y-10200D02*
Y-8850D01*
X-134700Y-10200D02*
X-132000D01*
X-134700Y-8850D02*
X-132000D01*
X146825Y1350D02*
X148175D01*
X146825Y-1350D02*
X148175D01*
X146825D02*
Y1350D01*
X148175Y-1350D02*
Y1350D01*
X123150D02*
X124500D01*
X123150Y-1350D02*
X124500D01*
X123150D02*
Y1350D01*
X124500Y-1350D02*
Y1350D01*
X-20400Y-10200D02*
Y-8850D01*
X-17700Y-10200D02*
Y-8850D01*
X-20400Y-10200D02*
X-17700D01*
X-20400Y-8850D02*
X-17700D01*
X-48975Y-10200D02*
Y-8850D01*
X-46275Y-10200D02*
Y-8850D01*
X-48975Y-10200D02*
X-46275D01*
X-48975Y-8850D02*
X-46275D01*
X-77550Y-10200D02*
Y-8850D01*
X-74850Y-10200D02*
Y-8850D01*
X-77550Y-10200D02*
X-74850D01*
X-77550Y-8850D02*
X-74850D01*
X103425Y-10200D02*
Y-8850D01*
X106125Y-10200D02*
Y-8850D01*
X103425Y-10200D02*
X106125D01*
X103425Y-8850D02*
X106125D01*
X84375D02*
X87075D01*
X84375Y-10200D02*
X87075D01*
Y-8850D01*
X84375Y-10200D02*
Y-8850D01*
X55800Y-10200D02*
Y-8850D01*
X58500Y-10200D02*
Y-8850D01*
X55800Y-10200D02*
X58500D01*
X55800Y-8850D02*
X58500D01*
X46275Y-10200D02*
Y-8850D01*
X48975Y-10200D02*
Y-8850D01*
X46275Y-10200D02*
X48975D01*
X46275Y-8850D02*
X48975D01*
X17700Y-10200D02*
Y-8850D01*
X20400Y-10200D02*
Y-8850D01*
X17700Y-10200D02*
X20400D01*
X17700Y-8850D02*
X20400D01*
X-87075Y-29250D02*
Y-27900D01*
X-84375Y-29250D02*
Y-27900D01*
X-87075Y-29250D02*
X-84375D01*
X-87075Y-27900D02*
X-84375D01*
X-106125Y-29250D02*
Y-27900D01*
X-103425Y-29250D02*
Y-27900D01*
X-106125Y-29250D02*
X-103425D01*
X-106125Y-27900D02*
X-103425D01*
X-134700Y-29250D02*
Y-27900D01*
X-132000Y-29250D02*
Y-27900D01*
X-134700Y-29250D02*
X-132000D01*
X-134700Y-27900D02*
X-132000D01*
X141525Y-10200D02*
Y-8850D01*
X144225Y-10200D02*
Y-8850D01*
X141525Y-10200D02*
X144225D01*
X141525Y-8850D02*
X144225D01*
X112950Y-10200D02*
Y-8850D01*
X115650Y-10200D02*
Y-8850D01*
X112950Y-10200D02*
X115650D01*
X112950Y-8850D02*
X115650D01*
X85050Y-68025D02*
X86400D01*
X85050Y-65325D02*
X86400D01*
Y-68025D02*
Y-65325D01*
X85050Y-68025D02*
Y-65325D01*
X46275Y-67350D02*
Y-66000D01*
X48975Y-67350D02*
Y-66000D01*
X46275Y-67350D02*
X48975D01*
X46275Y-66000D02*
X48975D01*
X17700Y-67350D02*
Y-66000D01*
X20400Y-67350D02*
Y-66000D01*
X17700Y-67350D02*
X20400D01*
X17700Y-66000D02*
X20400D01*
X8175Y-67350D02*
Y-66000D01*
X10875Y-67350D02*
Y-66000D01*
X8175Y-67350D02*
X10875D01*
X8175Y-66000D02*
X10875D01*
X-10875Y-67350D02*
Y-66000D01*
X-8175Y-67350D02*
Y-66000D01*
X-10875Y-67350D02*
X-8175D01*
X-10875Y-66000D02*
X-8175D01*
X-48975Y-67350D02*
Y-66000D01*
X-46275Y-67350D02*
Y-66000D01*
X-48975Y-67350D02*
X-46275D01*
X-48975Y-66000D02*
X-46275D01*
X-77550D02*
X-74850D01*
X-77550Y-67350D02*
X-74850D01*
Y-66000D01*
X-77550Y-67350D02*
Y-66000D01*
X-106125Y-67350D02*
Y-66000D01*
X-103425Y-67350D02*
Y-66000D01*
X-106125Y-67350D02*
X-103425D01*
X-106125Y-66000D02*
X-103425D01*
X-134700Y-67350D02*
Y-66000D01*
X-132000Y-67350D02*
Y-66000D01*
X-134700Y-67350D02*
X-132000D01*
X-134700Y-66000D02*
X-132000D01*
X141525Y-48300D02*
Y-46950D01*
X144225Y-48300D02*
Y-46950D01*
X141525Y-48300D02*
X144225D01*
X141525Y-46950D02*
X144225D01*
X122475Y-48300D02*
Y-46950D01*
X125175Y-48300D02*
Y-46950D01*
X122475Y-48300D02*
X125175D01*
X122475Y-46950D02*
X125175D01*
X103425Y-48300D02*
Y-46950D01*
X106125Y-48300D02*
Y-46950D01*
X103425Y-48300D02*
X106125D01*
X103425Y-46950D02*
X106125D01*
X-29925Y-48300D02*
Y-46950D01*
X-27225Y-48300D02*
Y-46950D01*
X-29925Y-48300D02*
X-27225D01*
X-29925Y-46950D02*
X-27225D01*
X-134700Y-48300D02*
Y-46950D01*
X-132000Y-48300D02*
Y-46950D01*
X-134700Y-48300D02*
X-132000D01*
X-134700Y-46950D02*
X-132000D01*
X141525Y-29250D02*
Y-27900D01*
X144225Y-29250D02*
Y-27900D01*
X141525Y-29250D02*
X144225D01*
X141525Y-27900D02*
X144225D01*
X122475Y-29250D02*
Y-27900D01*
X125175Y-29250D02*
Y-27900D01*
X122475Y-29250D02*
X125175D01*
X122475Y-27900D02*
X125175D01*
X103425Y-29250D02*
Y-27900D01*
X106125Y-29250D02*
Y-27900D01*
X103425Y-29250D02*
X106125D01*
X103425Y-27900D02*
X106125D01*
X84375Y-29250D02*
Y-27900D01*
X87075Y-29250D02*
Y-27900D01*
X84375Y-29250D02*
X87075D01*
X84375Y-27900D02*
X87075D01*
X65325Y-29250D02*
Y-27900D01*
X68025Y-29250D02*
Y-27900D01*
X65325Y-29250D02*
X68025D01*
X65325Y-27900D02*
X68025D01*
X46275Y-29250D02*
Y-27900D01*
X48975Y-29250D02*
Y-27900D01*
X46275Y-29250D02*
X48975D01*
X46275Y-27900D02*
X48975D01*
X27225Y-29250D02*
Y-27900D01*
X29925Y-29250D02*
Y-27900D01*
X27225Y-29250D02*
X29925D01*
X27225Y-27900D02*
X29925D01*
X-95250Y-70750D02*
Y-70250D01*
X-96250Y-70750D02*
Y-70250D01*
X-95250D01*
X-96250Y-70750D02*
X-95250D01*
X-3000Y-26000D02*
X-2500D01*
X-3000Y-27000D02*
X-2500D01*
X-3000D02*
Y-26000D01*
X-2500Y-27000D02*
Y-26000D01*
X-3000Y-29000D02*
Y-28000D01*
X-2500Y-29000D02*
Y-28000D01*
X-3000D02*
X-2500D01*
X-3000Y-29000D02*
X-2500D01*
X28000Y-5750D02*
X29000D01*
X28000Y-5250D02*
X29000D01*
X28000Y-5750D02*
Y-5250D01*
X29000Y-5750D02*
Y-5250D01*
X122500Y-14000D02*
X123500D01*
X122500Y-13500D02*
X123500D01*
X122500Y-14000D02*
Y-13500D01*
X123500Y-14000D02*
Y-13500D01*
X121000Y-42250D02*
X122000D01*
X121000Y-41750D02*
X122000D01*
X121000Y-42250D02*
Y-41750D01*
X122000Y-42250D02*
Y-41750D01*
X123250Y-70750D02*
X124250D01*
X123250Y-70250D02*
X124250D01*
X123250Y-70750D02*
Y-70250D01*
X124250Y-70750D02*
Y-70250D01*
X94500Y-70750D02*
X95500D01*
X94500Y-70250D02*
X95500D01*
X94500Y-70750D02*
Y-70250D01*
X95500Y-70750D02*
Y-70250D01*
X28000Y-70750D02*
X29000D01*
X28000Y-70250D02*
X29000D01*
X28000Y-70750D02*
Y-70250D01*
X29000Y-70750D02*
Y-70250D01*
X-29250Y-70750D02*
X-28250D01*
X-29250Y-70250D02*
X-28250D01*
X-29250Y-70750D02*
Y-70250D01*
X-28250Y-70750D02*
Y-70250D01*
X65000Y-70750D02*
X66000D01*
X65000Y-70250D02*
X66000D01*
X65000Y-70750D02*
Y-70250D01*
X66000Y-70750D02*
Y-70250D01*
X-70250Y-70750D02*
X-69250D01*
X-70250Y-70250D02*
X-69250D01*
X-70250Y-70750D02*
Y-70250D01*
X-69250Y-70750D02*
Y-70250D01*
X-124250Y-71000D02*
X-123250D01*
X-124250Y-70500D02*
X-123250D01*
X-124250Y-71000D02*
Y-70500D01*
X-123250Y-71000D02*
Y-70500D01*
X-95750Y-6000D02*
X-94750D01*
X-95750Y-5500D02*
X-94750D01*
X-95750Y-6000D02*
Y-5500D01*
X-94750Y-6000D02*
Y-5500D01*
X-127500Y-13750D02*
X-126500D01*
X-127500Y-13250D02*
X-126500D01*
X-127500Y-13750D02*
Y-13250D01*
X-126500Y-13750D02*
Y-13250D01*
X-128500Y-42250D02*
X-127500D01*
X-128500Y-41750D02*
X-127500D01*
X-128500Y-42250D02*
Y-41750D01*
X-127500Y-42250D02*
Y-41750D01*
D75*
X8357Y-47625D02*
D03*
X-22082Y-29750D02*
D03*
X-29743Y-28575D02*
D03*
X27332Y-55500D02*
D03*
X-49168Y-52000D02*
D03*
X-67668D02*
D03*
X-106168D02*
D03*
X-87168D02*
D03*
X-10693Y-47625D02*
D03*
X84557D02*
D03*
X46457D02*
D03*
X65507D02*
D03*
X-37918Y-9500D02*
D03*
X8332Y-32250D02*
D03*
X8357Y-9525D02*
D03*
X-1168D02*
D03*
X141707Y-66675D02*
D03*
X-48793Y-28575D02*
D03*
X-67843D02*
D03*
X-86893Y-9525D02*
D03*
X-105943D02*
D03*
X-134518D02*
D03*
X-20218Y-9525D02*
D03*
X-48793D02*
D03*
X-77368D02*
D03*
X103607D02*
D03*
X84557D02*
D03*
X55982Y-9525D02*
D03*
X46457D02*
D03*
X17882D02*
D03*
X-86893Y-28575D02*
D03*
X-105943D02*
D03*
X-134518D02*
D03*
X141707Y-9525D02*
D03*
X113132D02*
D03*
X46457Y-66675D02*
D03*
X17882D02*
D03*
X8357D02*
D03*
X-10693D02*
D03*
X-48793D02*
D03*
X-77368D02*
D03*
X-105943D02*
D03*
X-134518D02*
D03*
X141707Y-47625D02*
D03*
X122657D02*
D03*
X103607D02*
D03*
X-29743D02*
D03*
X-134518D02*
D03*
X141707Y-28575D02*
D03*
X122657Y-28575D02*
D03*
X103607D02*
D03*
X84557D02*
D03*
X65507D02*
D03*
X46457D02*
D03*
X27407D02*
D03*
D76*
X-11000Y1168D02*
D03*
X-66675Y1168D02*
D03*
X28575Y1168D02*
D03*
X114300Y-67843D02*
D03*
X-28575Y1168D02*
D03*
X-47625Y1168D02*
D03*
X-85725Y1168D02*
D03*
X-104775Y1168D02*
D03*
X-128500Y2168D02*
D03*
X104775Y1168D02*
D03*
X85725Y1168D02*
D03*
X66675D02*
D03*
X47625D02*
D03*
X147500D02*
D03*
X123825D02*
D03*
X85725Y-67843D02*
D03*
D77*
X31000Y-44438D02*
D03*
M02*
