G04*
G04 #@! TF.GenerationSoftware,Altium Limited,Altium Designer,20.2.6 (244)*
G04*
G04 Layer_Color=8388736*
%FSLAX43Y43*%
%MOMM*%
G71*
G04*
G04 #@! TF.SameCoordinates,294D72A7-43AD-4301-861A-B934F3A2DEB8*
G04*
G04*
G04 #@! TF.FilePolarity,Negative*
G04*
G01*
G75*
%ADD10C,0.200*%
%ADD11C,0.013*%
%ADD12R,1.800X1.800*%
%ADD13C,1.800*%
%ADD14O,1.900X2.600*%
%ADD15C,2.740*%
%ADD16C,0.200*%
%ADD17C,1.978*%
%ADD18C,0.950*%
%ADD19C,0.900*%
D10*
X151775Y5900D02*
G03*
X148775Y8900I-3000J0D01*
G01*
Y-85098D02*
G03*
X151775Y-82098I0J3000D01*
G01*
X145083Y-84870D02*
G03*
X145718Y-85098I636J772D01*
G01*
X145083Y-84870D02*
G03*
X138727Y-84870I-3178J-3860D01*
G01*
X138092Y-85098D02*
G03*
X138727Y-84870I0J1000D01*
G01*
X55083D02*
G03*
X55718Y-85098I636J772D01*
G01*
X55083Y-84870D02*
G03*
X48727Y-84870I-3178J-3860D01*
G01*
X48092Y-85098D02*
G03*
X48727Y-84870I0J1000D01*
G01*
X-48727D02*
G03*
X-48092Y-85098I636J772D01*
G01*
X-48727Y-84870D02*
G03*
X-55083Y-84870I-3178J-3860D01*
G01*
X-55718Y-85098D02*
G03*
X-55083Y-84870I0J1000D01*
G01*
X-138727D02*
G03*
X-138092Y-85098I636J772D01*
G01*
X-138727Y-84870D02*
G03*
X-145083Y-84870I-3178J-3860D01*
G01*
X-145718Y-85098D02*
G03*
X-145083Y-84870I0J1000D01*
G01*
X-151775Y-82098D02*
G03*
X-148775Y-85098I3000J0D01*
G01*
Y8900D02*
G03*
X-151775Y5900I0J-3000D01*
G01*
X-145085Y8672D02*
G03*
X-145721Y8900I-636J-772D01*
G01*
X-145085Y8672D02*
G03*
X-138725Y8672I3180J3858D01*
G01*
X-138089Y8900D02*
G03*
X-138725Y8672I0J-1000D01*
G01*
X-55085D02*
G03*
X-48725Y8672I3180J3858D01*
G01*
X-48089Y8900D02*
G03*
X-48725Y8672I0J-1000D01*
G01*
X48725D02*
G03*
X48089Y8900I-636J-772D01*
G01*
X48725Y8672D02*
G03*
X55085Y8672I3180J3858D01*
G01*
X55721Y8900D02*
G03*
X55085Y8672I0J-1000D01*
G01*
X138725D02*
G03*
X138089Y8900I-636J-772D01*
G01*
X138725Y8672D02*
G03*
X145085Y8672I3180J3858D01*
G01*
X145721Y8900D02*
G03*
X145085Y8672I0J-1000D01*
G01*
X-4325Y9620D02*
G03*
X-4825Y9120I0J-500D01*
G01*
X4825Y9120D02*
G03*
X4325Y9620I-500J0D01*
G01*
X4825Y8900D02*
Y9120D01*
X151775Y-82098D02*
Y5900D01*
X145718Y-85098D02*
X148775D01*
X-151775Y-82098D02*
Y5900D01*
X-148775Y8900D02*
X-145721D01*
X-4825D02*
Y9120D01*
X-4325Y9620D02*
X4325D01*
X4825Y8900D02*
X48089D01*
X-48092Y-85098D02*
X48092D01*
X-138092D02*
X-55718D01*
X-148775D02*
X-145718D01*
X55718D02*
X138092D01*
X-48089Y8900D02*
X-4825D01*
X-138089D02*
X-55721D01*
X145721D02*
X148775D01*
X55721D02*
X138089D01*
D11*
X-55085Y8672D02*
G03*
X-55721Y8900I-636J-772D01*
G01*
D12*
X28460Y-47230D02*
D03*
D13*
Y-49770D02*
D03*
X31000Y-47230D02*
D03*
Y-49770D02*
D03*
X33540Y-47230D02*
D03*
Y-49770D02*
D03*
D14*
X-3650Y7200D02*
D03*
X3650D02*
D03*
D15*
X-2419Y-5021D02*
D03*
X3810Y-2540D02*
D03*
X110490Y2540D02*
D03*
X116719Y5021D02*
D03*
Y-14029D02*
D03*
X110490Y-16510D02*
D03*
X-141923Y-35560D02*
D03*
X-135694Y-33079D02*
D03*
X110490Y-35560D02*
D03*
X116719Y-33079D02*
D03*
X134303Y-35560D02*
D03*
X140531Y-33079D02*
D03*
X15240Y-73660D02*
D03*
X21469Y-71179D02*
D03*
X50044D02*
D03*
X43815Y-73660D02*
D03*
X140531Y-71179D02*
D03*
X134303Y-73660D02*
D03*
X140531Y-14029D02*
D03*
X134303Y-16510D02*
D03*
X-51435Y-73660D02*
D03*
X-45206Y-71179D02*
D03*
X-118110Y2540D02*
D03*
X-111881Y5021D02*
D03*
X-92831D02*
D03*
X-99060Y2540D02*
D03*
X-80010D02*
D03*
X-73781Y5021D02*
D03*
X-54731D02*
D03*
X-60960Y2540D02*
D03*
X-41910D02*
D03*
X-35681Y5021D02*
D03*
X-16631D02*
D03*
X-22860Y2540D02*
D03*
X15240D02*
D03*
X21469Y5021D02*
D03*
X40519D02*
D03*
X34290Y2540D02*
D03*
X53340D02*
D03*
X59569Y5021D02*
D03*
X78619D02*
D03*
X72390Y2540D02*
D03*
X91440D02*
D03*
X97669Y5021D02*
D03*
X105728Y-73660D02*
D03*
X111956Y-71179D02*
D03*
X77152Y-73660D02*
D03*
X83381Y-71179D02*
D03*
X2419D02*
D03*
X-3810Y-73660D02*
D03*
X-16631Y-71179D02*
D03*
X-22860Y-73660D02*
D03*
X-84772D02*
D03*
X-78544Y-71179D02*
D03*
X-113348Y-73660D02*
D03*
X-107119Y-71179D02*
D03*
X-141923Y-73660D02*
D03*
X-135694Y-71179D02*
D03*
X-141923Y-54610D02*
D03*
X-135694Y-52129D02*
D03*
X-111881D02*
D03*
X-118110Y-54610D02*
D03*
X-92831Y-52129D02*
D03*
X-99060Y-54610D02*
D03*
X-73781Y-52129D02*
D03*
X-80010Y-54610D02*
D03*
X-54731Y-52129D02*
D03*
X-60960Y-54610D02*
D03*
X-35681Y-52129D02*
D03*
X-41910Y-54610D02*
D03*
X-16631Y-52129D02*
D03*
X-22860Y-54610D02*
D03*
X2419Y-52129D02*
D03*
X-3810Y-54610D02*
D03*
X21469Y-52129D02*
D03*
X15240Y-54610D02*
D03*
X40519Y-52129D02*
D03*
X34290Y-54610D02*
D03*
X59569Y-52129D02*
D03*
X53340Y-54610D02*
D03*
X78619Y-52129D02*
D03*
X72390Y-54610D02*
D03*
X97669Y-52129D02*
D03*
X91440Y-54610D02*
D03*
X116719Y-52129D02*
D03*
X110490Y-54610D02*
D03*
X134303D02*
D03*
X140531Y-52129D02*
D03*
X97669Y-33079D02*
D03*
X91440Y-35560D02*
D03*
X78619Y-33079D02*
D03*
X72390Y-35560D02*
D03*
X59569Y-33079D02*
D03*
X53340Y-35560D02*
D03*
X40519Y-33079D02*
D03*
X34290Y-35560D02*
D03*
X21469Y-33079D02*
D03*
X15240Y-35560D02*
D03*
X2419Y-33079D02*
D03*
X-3810Y-35560D02*
D03*
X-16631Y-33079D02*
D03*
X-22860Y-35560D02*
D03*
X-35681Y-33079D02*
D03*
X-41910Y-35560D02*
D03*
X-54731Y-33079D02*
D03*
X-60960Y-35560D02*
D03*
X-73781Y-33079D02*
D03*
X-80010Y-35560D02*
D03*
X-92831Y-33079D02*
D03*
X-99060Y-35560D02*
D03*
X-111881Y-33079D02*
D03*
X-118110Y-35560D02*
D03*
X-141923Y-16510D02*
D03*
X-135694Y-14029D02*
D03*
X-118110Y-16510D02*
D03*
X-111881Y-14029D02*
D03*
X-99060Y-16510D02*
D03*
X-92831Y-14029D02*
D03*
X-80010Y-16510D02*
D03*
X-73781Y-14029D02*
D03*
X-60960Y-16510D02*
D03*
X-54731Y-14029D02*
D03*
X-41910Y-16510D02*
D03*
X-35681Y-14029D02*
D03*
X-22860Y-16510D02*
D03*
X-16631Y-14029D02*
D03*
X-3810Y-16510D02*
D03*
X2419Y-14029D02*
D03*
X15240Y-16510D02*
D03*
X21469Y-14029D02*
D03*
X34290Y-16510D02*
D03*
X40519Y-14029D02*
D03*
X53340Y-16510D02*
D03*
X59569Y-14029D02*
D03*
X72390Y-16510D02*
D03*
X78619Y-14029D02*
D03*
X91440Y-16510D02*
D03*
X97669Y-14029D02*
D03*
X134303Y2540D02*
D03*
X140531Y5021D02*
D03*
X-141923Y2540D02*
D03*
X-135694Y5021D02*
D03*
D16*
X-5080Y0D02*
D03*
X5080D02*
D03*
X0D02*
D03*
X114300D02*
D03*
X109220D02*
D03*
X119380D02*
D03*
Y-19050D02*
D03*
X109220D02*
D03*
X114300D02*
D03*
X-138113Y-38100D02*
D03*
X-143193D02*
D03*
X-133033D02*
D03*
X114300D02*
D03*
X109220D02*
D03*
X119380D02*
D03*
X138113D02*
D03*
X133033D02*
D03*
X143193D02*
D03*
X19050Y-76200D02*
D03*
X13970D02*
D03*
X24130D02*
D03*
X52705D02*
D03*
X42545D02*
D03*
X47625D02*
D03*
X35687Y-83185D02*
D03*
Y-67945D02*
D03*
X59563Y-83185D02*
D03*
Y-67945D02*
D03*
X143193Y-76200D02*
D03*
X133033D02*
D03*
X138113D02*
D03*
X143193Y-19050D02*
D03*
X133033D02*
D03*
X138113D02*
D03*
X-35687Y-67945D02*
D03*
Y-83185D02*
D03*
X-59563Y-67945D02*
D03*
Y-83185D02*
D03*
X-47625Y-76200D02*
D03*
X-52705D02*
D03*
X-42545D02*
D03*
X-114300Y0D02*
D03*
X-119380D02*
D03*
X-109220D02*
D03*
X-90170D02*
D03*
X-100330D02*
D03*
X-95250D02*
D03*
X-76200D02*
D03*
X-81280D02*
D03*
X-71120D02*
D03*
X-52070D02*
D03*
X-62230D02*
D03*
X-57150D02*
D03*
X-38100D02*
D03*
X-43180D02*
D03*
X-33020D02*
D03*
X-13970D02*
D03*
X-24130D02*
D03*
X-19050D02*
D03*
X19050D02*
D03*
X13970D02*
D03*
X24130D02*
D03*
X43180D02*
D03*
X33020D02*
D03*
X38100D02*
D03*
X57150D02*
D03*
X52070D02*
D03*
X62230D02*
D03*
X81280D02*
D03*
X71120D02*
D03*
X76200D02*
D03*
X95250D02*
D03*
X90170D02*
D03*
X100330D02*
D03*
X109537Y-76200D02*
D03*
X104457D02*
D03*
X114618D02*
D03*
X80963D02*
D03*
X75882D02*
D03*
X86043D02*
D03*
X5080D02*
D03*
X-5080D02*
D03*
X0D02*
D03*
X-13970D02*
D03*
X-24130D02*
D03*
X-19050D02*
D03*
X-80963D02*
D03*
X-86043D02*
D03*
X-75882D02*
D03*
X-109537D02*
D03*
X-114618D02*
D03*
X-104457D02*
D03*
X-138113D02*
D03*
X-143193D02*
D03*
X-133033D02*
D03*
X-138113Y-57150D02*
D03*
X-143193D02*
D03*
X-133033D02*
D03*
X-109220D02*
D03*
X-119380D02*
D03*
X-114300D02*
D03*
X-90170D02*
D03*
X-100330D02*
D03*
X-95250D02*
D03*
X-71120D02*
D03*
X-81280D02*
D03*
X-76200D02*
D03*
X-52070D02*
D03*
X-62230D02*
D03*
X-57150D02*
D03*
X-33020D02*
D03*
X-43180D02*
D03*
X-38100D02*
D03*
X-13970D02*
D03*
X-24130D02*
D03*
X-19050D02*
D03*
X5080D02*
D03*
X-5080D02*
D03*
X0D02*
D03*
X24130D02*
D03*
X13970D02*
D03*
X19050D02*
D03*
X43180D02*
D03*
X33020D02*
D03*
X38100D02*
D03*
X62230D02*
D03*
X52070D02*
D03*
X57150D02*
D03*
X81280D02*
D03*
X71120D02*
D03*
X76200D02*
D03*
X100330D02*
D03*
X90170D02*
D03*
X95250D02*
D03*
X119380D02*
D03*
X109220D02*
D03*
X114300D02*
D03*
X138113D02*
D03*
X133033D02*
D03*
X143193D02*
D03*
X100330Y-38100D02*
D03*
X90170D02*
D03*
X95250D02*
D03*
X81280D02*
D03*
X71120D02*
D03*
X76200D02*
D03*
X62230D02*
D03*
X52070D02*
D03*
X57150D02*
D03*
X43180D02*
D03*
X33020D02*
D03*
X38100D02*
D03*
X24130D02*
D03*
X13970D02*
D03*
X19050D02*
D03*
X5080D02*
D03*
X-5080D02*
D03*
X0D02*
D03*
X-13970D02*
D03*
X-24130D02*
D03*
X-19050D02*
D03*
X-33020D02*
D03*
X-43180D02*
D03*
X-38100D02*
D03*
X-52070D02*
D03*
X-62230D02*
D03*
X-57150D02*
D03*
X-71120D02*
D03*
X-81280D02*
D03*
X-76200D02*
D03*
X-90170D02*
D03*
X-100330D02*
D03*
X-95250D02*
D03*
X-109220D02*
D03*
X-119380D02*
D03*
X-114300D02*
D03*
X-138113Y-19050D02*
D03*
X-143193D02*
D03*
X-133033D02*
D03*
X-114300D02*
D03*
X-119380D02*
D03*
X-109220D02*
D03*
X-95250D02*
D03*
X-100330D02*
D03*
X-90170D02*
D03*
X-76200D02*
D03*
X-81280D02*
D03*
X-71120D02*
D03*
X-57150D02*
D03*
X-62230D02*
D03*
X-52070D02*
D03*
X-38100D02*
D03*
X-43180D02*
D03*
X-33020D02*
D03*
X-19050D02*
D03*
X-24130D02*
D03*
X-13970D02*
D03*
X0D02*
D03*
X-5080D02*
D03*
X5080D02*
D03*
X19050D02*
D03*
X13970D02*
D03*
X24130D02*
D03*
X38100D02*
D03*
X33020D02*
D03*
X43180D02*
D03*
X57150D02*
D03*
X52070D02*
D03*
X62230D02*
D03*
X76200D02*
D03*
X71120D02*
D03*
X81280D02*
D03*
X95250D02*
D03*
X90170D02*
D03*
X100330D02*
D03*
X138113Y0D02*
D03*
X133033D02*
D03*
X143193D02*
D03*
X-138113D02*
D03*
X-143193D02*
D03*
X-133033D02*
D03*
D17*
X-136842Y-43180D02*
D03*
X-139383D02*
D03*
D18*
X-10500Y-4000D02*
D03*
Y-7000D02*
D03*
X23500Y-9275D02*
D03*
X-10500Y-11500D02*
D03*
X32250Y-21500D02*
D03*
X33000Y-22500D02*
D03*
X30750Y-23250D02*
D03*
X48500Y-26250D02*
D03*
X9750Y-25475D02*
D03*
X29750Y-27250D02*
D03*
X10000Y-22750D02*
D03*
X8500Y-22500D02*
D03*
X9250Y-21750D02*
D03*
X8250Y-21000D02*
D03*
X33500Y-42000D02*
D03*
X-11250Y-19196D02*
D03*
X-12250Y-33000D02*
D03*
X-11750Y-39000D02*
D03*
X-9750Y-34000D02*
D03*
X-10048Y-40298D02*
D03*
X-8500Y-40750D02*
D03*
X-6758Y-36500D02*
D03*
X-5250Y-31975D02*
D03*
X-6750Y-34000D02*
D03*
X1942Y-29000D02*
D03*
X4750Y-27000D02*
D03*
X-7750Y-18500D02*
D03*
X10750Y-40500D02*
D03*
X-125500Y-13500D02*
D03*
X-123500D02*
D03*
X-123750Y-42007D02*
D03*
X-126500Y-42000D02*
D03*
X-128493Y-65243D02*
D03*
X-128000Y-68250D02*
D03*
X-64225Y-70975D02*
D03*
X122000Y-44250D02*
D03*
X124500Y-13750D02*
D03*
X125025Y-23469D02*
D03*
X9000Y-6750D02*
D03*
X3250D02*
D03*
X-103575Y-24324D02*
D03*
X-84525Y-25208D02*
D03*
X-65475Y-25732D02*
D03*
X-46425Y-26525D02*
D03*
X-2089Y-23750D02*
D03*
X-7000Y-21250D02*
D03*
X-12221Y-22221D02*
D03*
X9000Y-28000D02*
D03*
X9500Y-27000D02*
D03*
X-3915Y-28665D02*
D03*
X8750Y-24250D02*
D03*
X-14250D02*
D03*
X-14000Y-31250D02*
D03*
X-16000Y-30250D02*
D03*
X-23500Y-26750D02*
D03*
X-27250Y-26768D02*
D03*
X-21500Y-25250D02*
D03*
X-20500Y-24500D02*
D03*
X-16500Y-26250D02*
D03*
X-22500Y-26000D02*
D03*
X-18000Y-22250D02*
D03*
X-19750Y-23750D02*
D03*
X-19000Y-23000D02*
D03*
X86750Y-25000D02*
D03*
X118500Y-42000D02*
D03*
X128250Y-43000D02*
D03*
X-91238Y-7812D02*
D03*
X-62662D02*
D03*
X-24562D02*
D03*
X32588D02*
D03*
X99262D02*
D03*
X70688D02*
D03*
X128000Y-7250D02*
D03*
X-33500Y-8525D02*
D03*
X-119250Y-7750D02*
D03*
X-100325Y-8750D02*
D03*
X-71750D02*
D03*
X-118575Y-9750D02*
D03*
X-90000D02*
D03*
X-60500Y-9500D02*
D03*
X-23250D02*
D03*
X-128000Y-11250D02*
D03*
X-99750D02*
D03*
X-70750D02*
D03*
X-33000D02*
D03*
X61750Y-9000D02*
D03*
X33250Y-10000D02*
D03*
X90750Y-9000D02*
D03*
X72000Y-9500D02*
D03*
X100500D02*
D03*
X119250Y-9000D02*
D03*
X126262Y-41987D02*
D03*
X-67500Y-70750D02*
D03*
X-83250Y-69250D02*
D03*
X-91262Y-65012D02*
D03*
X-93750Y-70750D02*
D03*
X-99500Y-68250D02*
D03*
X-26750Y-70750D02*
D03*
X-32250Y-63250D02*
D03*
X31013Y-70238D02*
D03*
X25750Y-63250D02*
D03*
X67750Y-70000D02*
D03*
X64294Y-63000D02*
D03*
X100500Y-66750D02*
D03*
X90750Y-64500D02*
D03*
X127500Y-66500D02*
D03*
X119750Y-28750D02*
D03*
X123000Y-34000D02*
D03*
X126250Y-27000D02*
D03*
X122750Y-31000D02*
D03*
X97750Y-62750D02*
D03*
X71250D02*
D03*
X31013Y-61263D02*
D03*
X-26062Y-61312D02*
D03*
X-64250Y-61250D02*
D03*
X-119762Y-65012D02*
D03*
X61750Y-62250D02*
D03*
X126262Y-62763D02*
D03*
X24250Y-62250D02*
D03*
X90825Y-11175D02*
D03*
X62325D02*
D03*
X24250Y-11250D02*
D03*
X119425Y-11175D02*
D03*
X118500Y-68250D02*
D03*
X90750D02*
D03*
X-33250Y-62250D02*
D03*
X-71044Y-68250D02*
D03*
X-1500Y-24750D02*
D03*
X67500Y-25500D02*
D03*
X105750Y-24000D02*
D03*
X145250Y-21500D02*
D03*
X-119250Y-41000D02*
D03*
X-125500Y-33750D02*
D03*
X-16500Y-25250D02*
D03*
X-130500Y-23733D02*
D03*
X-8250Y-20250D02*
D03*
X-9250D02*
D03*
X-11250D02*
D03*
D19*
X-7350Y-29650D02*
D03*
Y-28550D02*
D03*
Y-27450D02*
D03*
Y-26350D02*
D03*
X-8450Y-29650D02*
D03*
Y-28550D02*
D03*
Y-27450D02*
D03*
Y-26350D02*
D03*
X-9550Y-29650D02*
D03*
Y-28550D02*
D03*
Y-27450D02*
D03*
Y-26350D02*
D03*
X-10650Y-29650D02*
D03*
Y-28550D02*
D03*
Y-27450D02*
D03*
Y-26350D02*
D03*
M02*
