G04*
G04 #@! TF.GenerationSoftware,Altium Limited,Altium Designer,20.2.6 (244)*
G04*
G04 Layer_Color=16711935*
%FSLAX43Y43*%
%MOMM*%
G71*
G04*
G04 #@! TF.SameCoordinates,FBA5710F-A01C-4517-A5A6-22E0ABBBF171*
G04*
G04*
G04 #@! TF.FilePolarity,Positive*
G04*
G01*
G75*
%ADD10C,0.200*%
%ADD11C,0.013*%
D10*
X151775Y5900D02*
G03*
X148775Y8900I-3000J0D01*
G01*
Y-85098D02*
G03*
X151775Y-82098I0J3000D01*
G01*
X145083Y-84870D02*
G03*
X145718Y-85098I636J772D01*
G01*
X145083Y-84870D02*
G03*
X138727Y-84870I-3178J-3860D01*
G01*
X138092Y-85098D02*
G03*
X138727Y-84870I0J1000D01*
G01*
X55083D02*
G03*
X55718Y-85098I636J772D01*
G01*
X55083Y-84870D02*
G03*
X48727Y-84870I-3178J-3860D01*
G01*
X48092Y-85098D02*
G03*
X48727Y-84870I0J1000D01*
G01*
X-48727D02*
G03*
X-48092Y-85098I636J772D01*
G01*
X-48727Y-84870D02*
G03*
X-55083Y-84870I-3178J-3860D01*
G01*
X-55718Y-85098D02*
G03*
X-55083Y-84870I0J1000D01*
G01*
X-138727D02*
G03*
X-138092Y-85098I636J772D01*
G01*
X-138727Y-84870D02*
G03*
X-145083Y-84870I-3178J-3860D01*
G01*
X-145718Y-85098D02*
G03*
X-145083Y-84870I0J1000D01*
G01*
X-151775Y-82098D02*
G03*
X-148775Y-85098I3000J0D01*
G01*
Y8900D02*
G03*
X-151775Y5900I0J-3000D01*
G01*
X-145085Y8672D02*
G03*
X-145721Y8900I-636J-772D01*
G01*
X-145085Y8672D02*
G03*
X-138725Y8672I3180J3858D01*
G01*
X-138089Y8900D02*
G03*
X-138725Y8672I0J-1000D01*
G01*
X-55085D02*
G03*
X-48725Y8672I3180J3858D01*
G01*
X-48089Y8900D02*
G03*
X-48725Y8672I0J-1000D01*
G01*
X48725D02*
G03*
X48089Y8900I-636J-772D01*
G01*
X48725Y8672D02*
G03*
X55085Y8672I3180J3858D01*
G01*
X55721Y8900D02*
G03*
X55085Y8672I0J-1000D01*
G01*
X138725D02*
G03*
X138089Y8900I-636J-772D01*
G01*
X138725Y8672D02*
G03*
X145085Y8672I3180J3858D01*
G01*
X145721Y8900D02*
G03*
X145085Y8672I0J-1000D01*
G01*
X-4325Y9620D02*
G03*
X-4825Y9120I0J-500D01*
G01*
X4825Y9120D02*
G03*
X4325Y9620I-500J0D01*
G01*
X4825Y8900D02*
Y9120D01*
X151775Y-82098D02*
Y5900D01*
X145718Y-85098D02*
X148775D01*
X-151775Y-82098D02*
Y5900D01*
X-148775Y8900D02*
X-145721D01*
X-4825D02*
Y9120D01*
X-4325Y9620D02*
X4325D01*
X4825Y8900D02*
X48089D01*
X-48092Y-85098D02*
X48092D01*
X-138092D02*
X-55718D01*
X-148775D02*
X-145718D01*
X55718D02*
X138092D01*
X-48089Y8900D02*
X-4825D01*
X-138089D02*
X-55721D01*
X145721D02*
X148775D01*
X55721D02*
X138089D01*
D11*
X-55085Y8672D02*
G03*
X-55721Y8900I-636J-772D01*
G01*
M02*
