G04*
G04 #@! TF.GenerationSoftware,Altium Limited,Altium Designer,20.2.6 (244)*
G04*
G04 Layer_Color=255*
%FSLAX43Y43*%
%MOMM*%
G71*
G04*
G04 #@! TF.SameCoordinates,294D72A7-43AD-4301-861A-B934F3A2DEB8*
G04*
G04*
G04 #@! TF.FilePolarity,Positive*
G04*
G01*
G75*
%ADD10C,0.200*%
%ADD11C,0.013*%
%ADD26R,1.600X1.600*%
%ADD27C,1.600*%
%ADD28O,1.700X2.400*%
%ADD29C,2.540*%
%ADD30C,1.778*%
%ADD33R,0.600X0.600*%
%ADD34R,1.500X0.900*%
%ADD35R,0.600X1.100*%
%ADD36R,0.800X1.000*%
%ADD37R,1.000X0.800*%
%ADD38R,0.600X0.600*%
%ADD39R,1.000X0.900*%
%ADD40R,0.500X1.600*%
%ADD41R,2.100X2.900*%
%ADD42R,1.300X1.000*%
%ADD43R,1.150X1.400*%
%ADD44R,1.400X1.000*%
%ADD45R,1.150X1.050*%
%ADD46R,5.300X5.300*%
%ADD47R,1.050X0.250*%
%ADD48R,0.250X1.050*%
D10*
X151775Y5900D02*
G03*
X148775Y8900I-3000J0D01*
G01*
Y-85098D02*
G03*
X151775Y-82098I0J3000D01*
G01*
X145083Y-84870D02*
G03*
X145718Y-85098I636J772D01*
G01*
X145083Y-84870D02*
G03*
X138727Y-84870I-3178J-3860D01*
G01*
X138092Y-85098D02*
G03*
X138727Y-84870I0J1000D01*
G01*
X55083D02*
G03*
X55718Y-85098I636J772D01*
G01*
X55083Y-84870D02*
G03*
X48727Y-84870I-3178J-3860D01*
G01*
X48092Y-85098D02*
G03*
X48727Y-84870I0J1000D01*
G01*
X-48727D02*
G03*
X-48092Y-85098I636J772D01*
G01*
X-48727Y-84870D02*
G03*
X-55083Y-84870I-3178J-3860D01*
G01*
X-55718Y-85098D02*
G03*
X-55083Y-84870I0J1000D01*
G01*
X-138727D02*
G03*
X-138092Y-85098I636J772D01*
G01*
X-138727Y-84870D02*
G03*
X-145083Y-84870I-3178J-3860D01*
G01*
X-145718Y-85098D02*
G03*
X-145083Y-84870I0J1000D01*
G01*
X-151775Y-82098D02*
G03*
X-148775Y-85098I3000J0D01*
G01*
Y8900D02*
G03*
X-151775Y5900I0J-3000D01*
G01*
X-145085Y8672D02*
G03*
X-145721Y8900I-636J-772D01*
G01*
X-145085Y8672D02*
G03*
X-138725Y8672I3180J3858D01*
G01*
X-138089Y8900D02*
G03*
X-138725Y8672I0J-1000D01*
G01*
X-55085D02*
G03*
X-48725Y8672I3180J3858D01*
G01*
X-48089Y8900D02*
G03*
X-48725Y8672I0J-1000D01*
G01*
X48725D02*
G03*
X48089Y8900I-636J-772D01*
G01*
X48725Y8672D02*
G03*
X55085Y8672I3180J3858D01*
G01*
X55721Y8900D02*
G03*
X55085Y8672I0J-1000D01*
G01*
X138725D02*
G03*
X138089Y8900I-636J-772D01*
G01*
X138725Y8672D02*
G03*
X145085Y8672I3180J3858D01*
G01*
X145721Y8900D02*
G03*
X145085Y8672I0J-1000D01*
G01*
X-4325Y9620D02*
G03*
X-4825Y9120I0J-500D01*
G01*
X4825Y9120D02*
G03*
X4325Y9620I-500J0D01*
G01*
X4825Y8900D02*
Y9120D01*
X151775Y-82098D02*
Y5900D01*
X145718Y-85098D02*
X148775D01*
X-151775Y-82098D02*
Y5900D01*
X-148775Y8900D02*
X-145721D01*
X-4825D02*
Y9120D01*
X-4325Y9620D02*
X4325D01*
X4825Y8900D02*
X48089D01*
X-48092Y-85098D02*
X48092D01*
X-138092D02*
X-55718D01*
X-148775D02*
X-145718D01*
X55718D02*
X138092D01*
X-48089Y8900D02*
X-4825D01*
X-138089D02*
X-55721D01*
X145721D02*
X148775D01*
X55721D02*
X138089D01*
D11*
X-55085Y8672D02*
G03*
X-55721Y8900I-636J-772D01*
G01*
D26*
X28460Y-47230D02*
D03*
D27*
Y-49770D02*
D03*
X31000Y-47230D02*
D03*
Y-49770D02*
D03*
X33540Y-47230D02*
D03*
Y-49770D02*
D03*
D28*
X-3650Y7200D02*
D03*
X3650D02*
D03*
D29*
X-2419Y-5021D02*
D03*
X3810Y-2540D02*
D03*
X110490Y2540D02*
D03*
X116719Y5021D02*
D03*
Y-14029D02*
D03*
X110490Y-16510D02*
D03*
X-141923Y-35560D02*
D03*
X-135694Y-33079D02*
D03*
X110490Y-35560D02*
D03*
X116719Y-33079D02*
D03*
X134303Y-35560D02*
D03*
X140531Y-33079D02*
D03*
X15240Y-73660D02*
D03*
X21469Y-71179D02*
D03*
X50044D02*
D03*
X43815Y-73660D02*
D03*
X140531Y-71179D02*
D03*
X134303Y-73660D02*
D03*
X140531Y-14029D02*
D03*
X134303Y-16510D02*
D03*
X-51435Y-73660D02*
D03*
X-45206Y-71179D02*
D03*
X-118110Y2540D02*
D03*
X-111881Y5021D02*
D03*
X-92831D02*
D03*
X-99060Y2540D02*
D03*
X-80010D02*
D03*
X-73781Y5021D02*
D03*
X-54731D02*
D03*
X-60960Y2540D02*
D03*
X-41910D02*
D03*
X-35681Y5021D02*
D03*
X-16631D02*
D03*
X-22860Y2540D02*
D03*
X15240D02*
D03*
X21469Y5021D02*
D03*
X40519D02*
D03*
X34290Y2540D02*
D03*
X53340D02*
D03*
X59569Y5021D02*
D03*
X78619D02*
D03*
X72390Y2540D02*
D03*
X91440D02*
D03*
X97669Y5021D02*
D03*
X105728Y-73660D02*
D03*
X111956Y-71179D02*
D03*
X77152Y-73660D02*
D03*
X83381Y-71179D02*
D03*
X2419D02*
D03*
X-3810Y-73660D02*
D03*
X-16631Y-71179D02*
D03*
X-22860Y-73660D02*
D03*
X-84772D02*
D03*
X-78544Y-71179D02*
D03*
X-113348Y-73660D02*
D03*
X-107119Y-71179D02*
D03*
X-141923Y-73660D02*
D03*
X-135694Y-71179D02*
D03*
X-141923Y-54610D02*
D03*
X-135694Y-52129D02*
D03*
X-111881D02*
D03*
X-118110Y-54610D02*
D03*
X-92831Y-52129D02*
D03*
X-99060Y-54610D02*
D03*
X-73781Y-52129D02*
D03*
X-80010Y-54610D02*
D03*
X-54731Y-52129D02*
D03*
X-60960Y-54610D02*
D03*
X-35681Y-52129D02*
D03*
X-41910Y-54610D02*
D03*
X-16631Y-52129D02*
D03*
X-22860Y-54610D02*
D03*
X2419Y-52129D02*
D03*
X-3810Y-54610D02*
D03*
X21469Y-52129D02*
D03*
X15240Y-54610D02*
D03*
X40519Y-52129D02*
D03*
X34290Y-54610D02*
D03*
X59569Y-52129D02*
D03*
X53340Y-54610D02*
D03*
X78619Y-52129D02*
D03*
X72390Y-54610D02*
D03*
X97669Y-52129D02*
D03*
X91440Y-54610D02*
D03*
X116719Y-52129D02*
D03*
X110490Y-54610D02*
D03*
X134303D02*
D03*
X140531Y-52129D02*
D03*
X97669Y-33079D02*
D03*
X91440Y-35560D02*
D03*
X78619Y-33079D02*
D03*
X72390Y-35560D02*
D03*
X59569Y-33079D02*
D03*
X53340Y-35560D02*
D03*
X40519Y-33079D02*
D03*
X34290Y-35560D02*
D03*
X21469Y-33079D02*
D03*
X15240Y-35560D02*
D03*
X2419Y-33079D02*
D03*
X-3810Y-35560D02*
D03*
X-16631Y-33079D02*
D03*
X-22860Y-35560D02*
D03*
X-35681Y-33079D02*
D03*
X-41910Y-35560D02*
D03*
X-54731Y-33079D02*
D03*
X-60960Y-35560D02*
D03*
X-73781Y-33079D02*
D03*
X-80010Y-35560D02*
D03*
X-92831Y-33079D02*
D03*
X-99060Y-35560D02*
D03*
X-111881Y-33079D02*
D03*
X-118110Y-35560D02*
D03*
X-141923Y-16510D02*
D03*
X-135694Y-14029D02*
D03*
X-118110Y-16510D02*
D03*
X-111881Y-14029D02*
D03*
X-99060Y-16510D02*
D03*
X-92831Y-14029D02*
D03*
X-80010Y-16510D02*
D03*
X-73781Y-14029D02*
D03*
X-60960Y-16510D02*
D03*
X-54731Y-14029D02*
D03*
X-41910Y-16510D02*
D03*
X-35681Y-14029D02*
D03*
X-22860Y-16510D02*
D03*
X-16631Y-14029D02*
D03*
X-3810Y-16510D02*
D03*
X2419Y-14029D02*
D03*
X15240Y-16510D02*
D03*
X21469Y-14029D02*
D03*
X34290Y-16510D02*
D03*
X40519Y-14029D02*
D03*
X53340Y-16510D02*
D03*
X59569Y-14029D02*
D03*
X72390Y-16510D02*
D03*
X78619Y-14029D02*
D03*
X91440Y-16510D02*
D03*
X97669Y-14029D02*
D03*
X134303Y2540D02*
D03*
X140531Y5021D02*
D03*
X-141923Y2540D02*
D03*
X-135694Y5021D02*
D03*
D30*
X-136842Y-43180D02*
D03*
X-139383D02*
D03*
D33*
X-250Y-23750D02*
D03*
X750D02*
D03*
X-15250Y-22250D02*
D03*
X-14250D02*
D03*
X-66250Y-5750D02*
D03*
X-67250D02*
D03*
X-28000Y-5500D02*
D03*
X-29000D02*
D03*
X67000Y-5750D02*
D03*
X66000D02*
D03*
X95750D02*
D03*
X94750D02*
D03*
X-3500Y-24750D02*
D03*
X-2500D02*
D03*
X-14250Y-25250D02*
D03*
X-15250D02*
D03*
X-14250Y-26250D02*
D03*
X-15250D02*
D03*
X-6750Y-33000D02*
D03*
X-5750D02*
D03*
X-14000Y-30250D02*
D03*
X-15000D02*
D03*
X-95250Y-70500D02*
D03*
X-96250D02*
D03*
X28000Y-5500D02*
D03*
X29000D02*
D03*
X122500Y-13750D02*
D03*
X123500D02*
D03*
X121000Y-42000D02*
D03*
X122000D02*
D03*
X123250Y-70500D02*
D03*
X124250D02*
D03*
X94500D02*
D03*
X95500D02*
D03*
X28000D02*
D03*
X29000D02*
D03*
X-29250D02*
D03*
X-28250D02*
D03*
X65000D02*
D03*
X66000D02*
D03*
X-70250D02*
D03*
X-69250D02*
D03*
X-124250Y-70750D02*
D03*
X-123250D02*
D03*
X-95750Y-5750D02*
D03*
X-94750D02*
D03*
X-127500Y-13500D02*
D03*
X-126500D02*
D03*
X-128500Y-42000D02*
D03*
X-127500D02*
D03*
D34*
X121375Y-39750D02*
D03*
X121375Y-36450D02*
D03*
X126275D02*
D03*
X126275Y-39750D02*
D03*
Y-11175D02*
D03*
X126275Y-7875D02*
D03*
X121375D02*
D03*
X121375Y-11175D02*
D03*
X92800D02*
D03*
X92800Y-7875D02*
D03*
X97700D02*
D03*
X97700Y-11175D02*
D03*
X69125D02*
D03*
X69125Y-7875D02*
D03*
X64225D02*
D03*
X64225Y-11175D02*
D03*
X26125D02*
D03*
X26125Y-7875D02*
D03*
X31025D02*
D03*
X31025Y-11175D02*
D03*
X-26125D02*
D03*
X-26125Y-7875D02*
D03*
X-31025D02*
D03*
X-31025Y-11175D02*
D03*
X-69125D02*
D03*
X-69125Y-7875D02*
D03*
X-64225D02*
D03*
X-64225Y-11175D02*
D03*
X-92800D02*
D03*
X-92800Y-7875D02*
D03*
X-97700D02*
D03*
X-97700Y-11175D02*
D03*
X-126275D02*
D03*
X-126275Y-7875D02*
D03*
X-121375D02*
D03*
X-121375Y-11175D02*
D03*
Y-39750D02*
D03*
X-121375Y-36450D02*
D03*
X-126275D02*
D03*
X-126275Y-39750D02*
D03*
Y-68325D02*
D03*
X-126275Y-65025D02*
D03*
X-121375D02*
D03*
X-121375Y-68325D02*
D03*
X-92800D02*
D03*
X-92800Y-65025D02*
D03*
X-97700D02*
D03*
X-97700Y-68325D02*
D03*
X-69125D02*
D03*
X-69125Y-65025D02*
D03*
X-64225D02*
D03*
X-64225Y-68325D02*
D03*
X-26125D02*
D03*
X-26125Y-65025D02*
D03*
X-31025D02*
D03*
X-31025Y-68325D02*
D03*
X26125D02*
D03*
X26125Y-65025D02*
D03*
X31025D02*
D03*
X31025Y-68325D02*
D03*
X69125D02*
D03*
X69125Y-65025D02*
D03*
X64225D02*
D03*
X64225Y-68325D02*
D03*
X92800D02*
D03*
X92800Y-65025D02*
D03*
X97700D02*
D03*
X97700Y-68325D02*
D03*
X126275D02*
D03*
X126275Y-65025D02*
D03*
X121375D02*
D03*
X121375Y-68325D02*
D03*
D35*
X-11450Y-8000D02*
D03*
X-10500D02*
D03*
X-9550D02*
D03*
Y-10500D02*
D03*
X-10500D02*
D03*
X-11450D02*
D03*
D36*
X-9525Y-1200D02*
D03*
Y1200D02*
D03*
X-66675D02*
D03*
Y-1200D02*
D03*
X28575Y1200D02*
D03*
Y-1200D02*
D03*
X114300Y-67875D02*
D03*
Y-65475D02*
D03*
X-28575Y1200D02*
D03*
Y-1200D02*
D03*
X-47625Y1200D02*
D03*
Y-1200D02*
D03*
X-85725Y1200D02*
D03*
Y-1200D02*
D03*
X-104775Y1200D02*
D03*
Y-1200D02*
D03*
X-128500Y2200D02*
D03*
Y-200D02*
D03*
X104775Y1200D02*
D03*
Y-1200D02*
D03*
X85725Y1200D02*
D03*
Y-1200D02*
D03*
X66675Y1200D02*
D03*
Y-1200D02*
D03*
X47625Y1200D02*
D03*
Y-1200D02*
D03*
X147500Y1200D02*
D03*
Y-1200D02*
D03*
X123825Y1200D02*
D03*
Y-1200D02*
D03*
X85725Y-67875D02*
D03*
Y-65475D02*
D03*
D37*
X29700Y-55500D02*
D03*
X27300D02*
D03*
X-46800Y-52000D02*
D03*
X-49200D02*
D03*
X-65300D02*
D03*
X-67700D02*
D03*
X-103800D02*
D03*
X-106200D02*
D03*
X-84800D02*
D03*
X-87200D02*
D03*
X-10725Y-47625D02*
D03*
X-8325D02*
D03*
X84525D02*
D03*
X86925D02*
D03*
X46425D02*
D03*
X48825D02*
D03*
X65475D02*
D03*
X67875D02*
D03*
X-37950Y-9500D02*
D03*
X-35550D02*
D03*
X8300Y-32250D02*
D03*
X10700D02*
D03*
X8325Y-9525D02*
D03*
X10725D02*
D03*
X-1200D02*
D03*
X1200D02*
D03*
X144075Y-66675D02*
D03*
X141675D02*
D03*
X-24450Y-29750D02*
D03*
X-22050D02*
D03*
X-27375Y-28575D02*
D03*
X-29775D02*
D03*
X-48825D02*
D03*
X-46425D02*
D03*
X-67875D02*
D03*
X-65475D02*
D03*
X-86925Y-9525D02*
D03*
X-84525D02*
D03*
X-105975D02*
D03*
X-103575D02*
D03*
X-134550D02*
D03*
X-132150D02*
D03*
X-20250D02*
D03*
X-17850D02*
D03*
X-48825D02*
D03*
X-46425D02*
D03*
X-77400D02*
D03*
X-75000D02*
D03*
X103575D02*
D03*
X105975D02*
D03*
X86925D02*
D03*
X84525D02*
D03*
X55950D02*
D03*
X58350D02*
D03*
X46425D02*
D03*
X48825D02*
D03*
X17850D02*
D03*
X20250D02*
D03*
X-86925Y-28575D02*
D03*
X-84525D02*
D03*
X-105975D02*
D03*
X-103575D02*
D03*
X-134550D02*
D03*
X-132150D02*
D03*
X141675Y-9525D02*
D03*
X144075D02*
D03*
X113100D02*
D03*
X115500D02*
D03*
X46425Y-66675D02*
D03*
X48825D02*
D03*
X17850D02*
D03*
X20250D02*
D03*
X8325D02*
D03*
X10725D02*
D03*
X-10725D02*
D03*
X-8325D02*
D03*
X-48825D02*
D03*
X-46425D02*
D03*
X-75000D02*
D03*
X-77400D02*
D03*
X-105975D02*
D03*
X-103575D02*
D03*
X-134550D02*
D03*
X-132150D02*
D03*
X141675Y-47625D02*
D03*
X144075D02*
D03*
X122625D02*
D03*
X125025D02*
D03*
X103575D02*
D03*
X105975D02*
D03*
X8325D02*
D03*
X10725D02*
D03*
X-29775D02*
D03*
X-27375D02*
D03*
X-134550D02*
D03*
X-132150D02*
D03*
X141675Y-28575D02*
D03*
X144075D02*
D03*
X122625D02*
D03*
X125025D02*
D03*
X103575D02*
D03*
X105975D02*
D03*
X84525D02*
D03*
X86925D02*
D03*
X65475D02*
D03*
X67875D02*
D03*
X46425D02*
D03*
X48825D02*
D03*
X27375D02*
D03*
X29775D02*
D03*
D38*
X-9250Y-22250D02*
D03*
Y-21250D02*
D03*
X-8250Y-22250D02*
D03*
Y-21250D02*
D03*
X-11250Y-22250D02*
D03*
Y-21250D02*
D03*
X-2750Y-26000D02*
D03*
Y-27000D02*
D03*
Y-28000D02*
D03*
Y-29000D02*
D03*
D39*
X-9750Y-14350D02*
D03*
Y-12650D02*
D03*
X-11250Y-14350D02*
D03*
Y-12650D02*
D03*
D40*
X1600Y4100D02*
D03*
X800D02*
D03*
X-800D02*
D03*
X-1600D02*
D03*
X0D02*
D03*
D41*
X4000Y4600D02*
D03*
X-4000D02*
D03*
D42*
X2100Y8600D02*
D03*
X-2000D02*
D03*
D43*
X300Y-26400D02*
D03*
Y-28600D02*
D03*
X-1300D02*
D03*
Y-26400D02*
D03*
D44*
X3250Y-29000D02*
D03*
Y-27000D02*
D03*
D45*
X3325Y-25225D02*
D03*
Y-23775D02*
D03*
X6675Y-25225D02*
D03*
Y-23775D02*
D03*
D46*
X-9000Y-28000D02*
D03*
D47*
X-12475Y-25500D02*
D03*
Y-26000D02*
D03*
Y-26500D02*
D03*
Y-27000D02*
D03*
Y-27500D02*
D03*
Y-28000D02*
D03*
Y-28500D02*
D03*
Y-29000D02*
D03*
Y-29500D02*
D03*
Y-30000D02*
D03*
Y-30500D02*
D03*
X-5525D02*
D03*
Y-30000D02*
D03*
Y-29500D02*
D03*
Y-29000D02*
D03*
Y-28500D02*
D03*
Y-28000D02*
D03*
Y-27500D02*
D03*
Y-27000D02*
D03*
Y-26500D02*
D03*
Y-26000D02*
D03*
Y-25500D02*
D03*
D48*
X-11500Y-31475D02*
D03*
X-11000D02*
D03*
X-10500D02*
D03*
X-10000D02*
D03*
X-9500D02*
D03*
X-9000D02*
D03*
X-8500D02*
D03*
X-8000D02*
D03*
X-7500D02*
D03*
X-7000D02*
D03*
X-6500D02*
D03*
Y-24525D02*
D03*
X-7000D02*
D03*
X-7500D02*
D03*
X-8000D02*
D03*
X-8500D02*
D03*
X-9000D02*
D03*
X-9500D02*
D03*
X-10000D02*
D03*
X-10500D02*
D03*
X-11000D02*
D03*
X-11500D02*
D03*
M02*
