G04*
G04 #@! TF.GenerationSoftware,Altium Limited,Altium Designer,20.2.6 (244)*
G04*
G04 Layer_Color=32768*
%FSLAX43Y43*%
%MOMM*%
G71*
G04*
G04 #@! TF.SameCoordinates,1B96AE11-6956-4914-BCA9-E7287AB91291*
G04*
G04*
G04 #@! TF.FilePolarity,Positive*
G04*
G01*
G75*
%ADD10C,0.200*%
%ADD11C,0.013*%
%ADD69C,0.300*%
%ADD71C,0.100*%
%ADD78C,0.050*%
D10*
X4750Y3350D02*
Y10600D01*
X-4750Y3350D02*
X4750D01*
X-4750Y10600D02*
X4750D01*
X-4750Y3350D02*
Y10600D01*
X-500Y9600D02*
X500D01*
X0Y9100D02*
Y10100D01*
X151775Y5900D02*
G03*
X148775Y8900I-3000J0D01*
G01*
Y-85098D02*
G03*
X151775Y-82098I0J3000D01*
G01*
X145083Y-84870D02*
G03*
X145718Y-85098I636J772D01*
G01*
X145083Y-84870D02*
G03*
X138727Y-84870I-3178J-3860D01*
G01*
X138092Y-85098D02*
G03*
X138727Y-84870I0J1000D01*
G01*
X55083D02*
G03*
X55718Y-85098I636J772D01*
G01*
X55083Y-84870D02*
G03*
X48727Y-84870I-3178J-3860D01*
G01*
X48092Y-85098D02*
G03*
X48727Y-84870I0J1000D01*
G01*
X-48727D02*
G03*
X-48092Y-85098I636J772D01*
G01*
X-48727Y-84870D02*
G03*
X-55083Y-84870I-3178J-3860D01*
G01*
X-55718Y-85098D02*
G03*
X-55083Y-84870I0J1000D01*
G01*
X-138727D02*
G03*
X-138092Y-85098I636J772D01*
G01*
X-138727Y-84870D02*
G03*
X-145083Y-84870I-3178J-3860D01*
G01*
X-145718Y-85098D02*
G03*
X-145083Y-84870I0J1000D01*
G01*
X-151775Y-82098D02*
G03*
X-148775Y-85098I3000J0D01*
G01*
Y8900D02*
G03*
X-151775Y5900I0J-3000D01*
G01*
X-145085Y8672D02*
G03*
X-145721Y8900I-636J-772D01*
G01*
X-145085Y8672D02*
G03*
X-138725Y8672I3180J3858D01*
G01*
X-138089Y8900D02*
G03*
X-138725Y8672I0J-1000D01*
G01*
X-55085D02*
G03*
X-48725Y8672I3180J3858D01*
G01*
X-48089Y8900D02*
G03*
X-48725Y8672I0J-1000D01*
G01*
X48725D02*
G03*
X48089Y8900I-636J-772D01*
G01*
X48725Y8672D02*
G03*
X55085Y8672I3180J3858D01*
G01*
X55721Y8900D02*
G03*
X55085Y8672I0J-1000D01*
G01*
X138725D02*
G03*
X138089Y8900I-636J-772D01*
G01*
X138725Y8672D02*
G03*
X145085Y8672I3180J3858D01*
G01*
X145721Y8900D02*
G03*
X145085Y8672I0J-1000D01*
G01*
X-4325Y9620D02*
G03*
X-4825Y9120I0J-500D01*
G01*
X4825Y9120D02*
G03*
X4325Y9620I-500J0D01*
G01*
X4825Y8900D02*
Y9120D01*
X151775Y-82098D02*
Y5900D01*
X145718Y-85098D02*
X148775D01*
X-151775Y-82098D02*
Y5900D01*
X-148775Y8900D02*
X-145721D01*
X-4825D02*
Y9120D01*
X-4325Y9620D02*
X4325D01*
X4825Y8900D02*
X48089D01*
X-48092Y-85098D02*
X48092D01*
X-138092D02*
X-55718D01*
X-148775D02*
X-145718D01*
X55718D02*
X138092D01*
X-48089Y8900D02*
X-4825D01*
X-138089D02*
X-55721D01*
X145721D02*
X148775D01*
X55721D02*
X138089D01*
D11*
X-55085Y8672D02*
G03*
X-55721Y8900I-636J-772D01*
G01*
D69*
X121075Y-40600D02*
X126575D01*
Y-35600D01*
X121075D02*
X126575D01*
X121075Y-40600D02*
Y-35600D01*
X123325Y-38100D02*
X124325D01*
X123825Y-38600D02*
Y-37600D01*
Y-10025D02*
Y-9025D01*
X123325Y-9525D02*
X124325D01*
X121075Y-12025D02*
Y-7025D01*
X126575D01*
Y-12025D02*
Y-7025D01*
X121075Y-12025D02*
X126575D01*
X92500D02*
X98000D01*
Y-7025D01*
X92500D02*
X98000D01*
X92500Y-12025D02*
Y-7025D01*
X94750Y-9525D02*
X95750D01*
X95250Y-10025D02*
Y-9025D01*
X66675Y-10025D02*
Y-9025D01*
X66175Y-9525D02*
X67175D01*
X63925Y-12025D02*
Y-7025D01*
X69425D01*
Y-12025D02*
Y-7025D01*
X63925Y-12025D02*
X69425D01*
X25825D02*
X31325D01*
Y-7025D01*
X25825D02*
X31325D01*
X25825Y-12025D02*
Y-7025D01*
X28075Y-9525D02*
X29075D01*
X28575Y-10025D02*
Y-9025D01*
X-28575Y-10025D02*
Y-9025D01*
X-29075Y-9525D02*
X-28075D01*
X-31325Y-12025D02*
Y-7025D01*
X-25825D01*
Y-12025D02*
Y-7025D01*
X-31325Y-12025D02*
X-25825D01*
X-69425D02*
X-63925D01*
Y-7025D01*
X-69425D02*
X-63925D01*
X-69425Y-12025D02*
Y-7025D01*
X-67175Y-9525D02*
X-66175D01*
X-66675Y-10025D02*
Y-9025D01*
X-95250Y-10025D02*
Y-9025D01*
X-95750Y-9525D02*
X-94750D01*
X-98000Y-12025D02*
Y-7025D01*
X-92500D01*
Y-12025D02*
Y-7025D01*
X-98000Y-12025D02*
X-92500D01*
X-126575D02*
X-121075D01*
Y-7025D01*
X-126575D02*
X-121075D01*
X-126575Y-12025D02*
Y-7025D01*
X-124325Y-9525D02*
X-123325D01*
X-123825Y-10025D02*
Y-9025D01*
Y-38600D02*
Y-37600D01*
X-124325Y-38100D02*
X-123325D01*
X-126575Y-40600D02*
Y-35600D01*
X-121075D01*
Y-40600D02*
Y-35600D01*
X-126575Y-40600D02*
X-121075D01*
X-126575Y-69175D02*
X-121075D01*
Y-64175D01*
X-126575D02*
X-121075D01*
X-126575Y-69175D02*
Y-64175D01*
X-124325Y-66675D02*
X-123325D01*
X-123825Y-67175D02*
Y-66175D01*
X-95250Y-67175D02*
Y-66175D01*
X-95750Y-66675D02*
X-94750D01*
X-98000Y-69175D02*
Y-64175D01*
X-92500D01*
Y-69175D02*
Y-64175D01*
X-98000Y-69175D02*
X-92500D01*
X-69425D02*
X-63925D01*
Y-64175D01*
X-69425D02*
X-63925D01*
X-69425Y-69175D02*
Y-64175D01*
X-67175Y-66675D02*
X-66175D01*
X-66675Y-67175D02*
Y-66175D01*
X-28575Y-67175D02*
Y-66175D01*
X-29075Y-66675D02*
X-28075D01*
X-31325Y-69175D02*
Y-64175D01*
X-25825D01*
Y-69175D02*
Y-64175D01*
X-31325Y-69175D02*
X-25825D01*
X25825D02*
X31325D01*
Y-64175D01*
X25825D02*
X31325D01*
X25825Y-69175D02*
Y-64175D01*
X28075Y-66675D02*
X29075D01*
X28575Y-67175D02*
Y-66175D01*
X66675Y-67175D02*
Y-66175D01*
X66175Y-66675D02*
X67175D01*
X63925Y-69175D02*
Y-64175D01*
X69425D01*
Y-69175D02*
Y-64175D01*
X63925Y-69175D02*
X69425D01*
X92500D02*
X98000D01*
Y-64175D01*
X92500D02*
X98000D01*
X92500Y-69175D02*
Y-64175D01*
X94750Y-66675D02*
X95750D01*
X95250Y-67175D02*
Y-66175D01*
X123825Y-67175D02*
Y-66175D01*
X123325Y-66675D02*
X124325D01*
X121075Y-69175D02*
Y-64175D01*
X126575D01*
Y-69175D02*
Y-64175D01*
X121075Y-69175D02*
X126575D01*
D71*
X9525Y-48125D02*
Y-47125D01*
X9025Y-47625D02*
X10025D01*
X7366Y-46609D02*
X11684D01*
X7366Y-48641D02*
X11684D01*
Y-46609D01*
X7366Y-48641D02*
Y-46609D01*
X-21091Y-30766D02*
Y-28734D01*
X-25409Y-30766D02*
Y-28734D01*
X-21091D01*
X-25409Y-30766D02*
X-21091D01*
X-23750Y-29750D02*
X-22750D01*
X-23250Y-30250D02*
Y-29250D01*
X-30734Y-29591D02*
Y-27559D01*
X-26416Y-29591D02*
Y-27559D01*
X-30734Y-29591D02*
X-26416D01*
X-30734Y-27559D02*
X-26416D01*
X-29075Y-28575D02*
X-28075D01*
X-28575Y-29075D02*
Y-28075D01*
X50Y-23750D02*
X450D01*
X-750Y-24250D02*
X1250D01*
X-750Y-23250D02*
X1250D01*
X-750Y-24250D02*
Y-23250D01*
X1250Y-24250D02*
Y-23250D01*
X250Y-23950D02*
Y-23550D01*
X-11500Y0D02*
X-10500D01*
X-11000Y-500D02*
Y500D01*
X-9984Y-2159D02*
Y2159D01*
X-12016Y-2159D02*
Y2159D01*
Y-2159D02*
X-9984D01*
X-12016Y2159D02*
X-9984D01*
X28500Y-56000D02*
Y-55000D01*
X28000Y-55500D02*
X29000D01*
X26341Y-54484D02*
X30659D01*
X26341Y-56516D02*
X30659D01*
Y-54484D01*
X26341Y-56516D02*
Y-54484D01*
X-48000Y-52500D02*
Y-51500D01*
X-48500Y-52000D02*
X-47500D01*
X-50159Y-50984D02*
X-45841D01*
X-50159Y-53016D02*
X-45841D01*
Y-50984D01*
X-50159Y-53016D02*
Y-50984D01*
X-66500Y-52500D02*
Y-51500D01*
X-67000Y-52000D02*
X-66000D01*
X-68659Y-50984D02*
X-64341D01*
X-68659Y-53016D02*
X-64341D01*
Y-50984D01*
X-68659Y-53016D02*
Y-50984D01*
X-105000Y-52500D02*
Y-51500D01*
X-105500Y-52000D02*
X-104500D01*
X-107159Y-50984D02*
X-102841D01*
X-107159Y-53016D02*
X-102841D01*
Y-50984D01*
X-107159Y-53016D02*
Y-50984D01*
X-86000Y-52500D02*
Y-51500D01*
X-86500Y-52000D02*
X-85500D01*
X-88159Y-50984D02*
X-83841D01*
X-88159Y-53016D02*
X-83841D01*
Y-50984D01*
X-88159Y-53016D02*
Y-50984D01*
X-14950Y-22250D02*
X-14550D01*
X-15750Y-22750D02*
X-13750D01*
X-15750Y-21750D02*
X-13750D01*
X-15750Y-22750D02*
Y-21750D01*
X-13750Y-22750D02*
Y-21750D01*
X-14750Y-22450D02*
Y-22050D01*
X-9550Y-21750D02*
X-8950D01*
X-9250Y-22050D02*
Y-21450D01*
X-8750Y-22750D02*
Y-20750D01*
X-9750Y-22750D02*
Y-20750D01*
Y-22750D02*
X-8750D01*
X-9750Y-20750D02*
X-8750D01*
X-11684Y-48641D02*
Y-46609D01*
X-7366Y-48641D02*
Y-46609D01*
X-11684Y-48641D02*
X-7366D01*
X-11684Y-46609D02*
X-7366D01*
X-10025Y-47625D02*
X-9025D01*
X-9525Y-48125D02*
Y-47125D01*
X83566Y-48641D02*
Y-46609D01*
X87884Y-48641D02*
Y-46609D01*
X83566Y-48641D02*
X87884D01*
X83566Y-46609D02*
X87884D01*
X85225Y-47625D02*
X86225D01*
X85725Y-48125D02*
Y-47125D01*
X45466Y-48641D02*
Y-46609D01*
X49784Y-48641D02*
Y-46609D01*
X45466Y-48641D02*
X49784D01*
X45466Y-46609D02*
X49784D01*
X47125Y-47625D02*
X48125D01*
X47625Y-48125D02*
Y-47125D01*
X64516Y-48641D02*
Y-46609D01*
X68834Y-48641D02*
Y-46609D01*
X64516Y-48641D02*
X68834D01*
X64516Y-46609D02*
X68834D01*
X66175Y-47625D02*
X67175D01*
X66675Y-48125D02*
Y-47125D01*
X-65750Y-6250D02*
Y-5250D01*
X-67750Y-6250D02*
Y-5250D01*
X-65750D01*
X-67750Y-6250D02*
X-65750D01*
X-67050Y-5750D02*
X-66450D01*
X-66750Y-6050D02*
Y-5450D01*
X-67691Y2159D02*
X-65659D01*
X-67691Y-2159D02*
X-65659D01*
X-67691D02*
Y2159D01*
X-65659Y-2159D02*
Y2159D01*
X-66675Y-500D02*
Y500D01*
X-67175Y0D02*
X-66175D01*
X-38909Y-10516D02*
Y-8484D01*
X-34591Y-10516D02*
Y-8484D01*
X-38909Y-10516D02*
X-34591D01*
X-38909Y-8484D02*
X-34591D01*
X-37250Y-9500D02*
X-36250D01*
X-36750Y-10000D02*
Y-9000D01*
X-27500Y-6000D02*
Y-5000D01*
X-29500Y-6000D02*
Y-5000D01*
X-27500D01*
X-29500Y-6000D02*
X-27500D01*
X-28800Y-5500D02*
X-28200D01*
X-28500Y-5800D02*
Y-5200D01*
X-9975Y-14000D02*
X-9025D01*
X-9500Y-14475D02*
Y-13525D01*
X-8750Y-15550D02*
Y-12450D01*
X-10250Y-15550D02*
Y-12450D01*
Y-15550D02*
X-8750D01*
X-10250Y-12450D02*
X-8750D01*
X-8225Y-14000D02*
X-7275D01*
X-7750Y-14475D02*
Y-13525D01*
X-7000Y-15550D02*
Y-12450D01*
X-8500Y-15550D02*
Y-12450D01*
Y-15550D02*
X-7000D01*
X-8500Y-12450D02*
X-7000D01*
X27559Y2159D02*
X29591D01*
X27559Y-2159D02*
X29591D01*
X27559D02*
Y2159D01*
X29591Y-2159D02*
Y2159D01*
X28575Y-500D02*
Y500D01*
X28075Y0D02*
X29075D01*
X67500Y-6250D02*
Y-5250D01*
X65500Y-6250D02*
Y-5250D01*
X67500D01*
X65500Y-6250D02*
X67500D01*
X66200Y-5750D02*
X66800D01*
X66500Y-6050D02*
Y-5450D01*
X96250Y-6250D02*
Y-5250D01*
X94250Y-6250D02*
Y-5250D01*
X96250D01*
X94250Y-6250D02*
X96250D01*
X94950Y-5750D02*
X95550D01*
X95250Y-6050D02*
Y-5450D01*
X113284Y-68834D02*
X115316D01*
X113284Y-64516D02*
X115316D01*
Y-68834D02*
Y-64516D01*
X113284Y-68834D02*
Y-64516D01*
X114300Y-67175D02*
Y-66175D01*
X113800Y-66675D02*
X114800D01*
X-3000Y-25050D02*
Y-24450D01*
X-3300Y-24750D02*
X-2700D01*
X-4000Y-25250D02*
X-2000D01*
X-4000Y-24250D02*
X-2000D01*
X-4000Y-25250D02*
Y-24250D01*
X-2000Y-25250D02*
Y-24250D01*
X7341Y-33266D02*
Y-31234D01*
X11659Y-33266D02*
Y-31234D01*
X7341Y-33266D02*
X11659D01*
X7341Y-31234D02*
X11659D01*
X9000Y-32250D02*
X10000D01*
X9500Y-32750D02*
Y-31750D01*
X2300Y-29750D02*
X4200D01*
X2300Y-26250D02*
X4200D01*
Y-29750D02*
Y-26250D01*
X2300Y-29750D02*
Y-26250D01*
X3250Y-28500D02*
Y-27500D01*
X2750Y-28000D02*
X3750D01*
X7366Y-10541D02*
Y-8509D01*
X11684Y-10541D02*
Y-8509D01*
X7366Y-10541D02*
X11684D01*
X7366Y-8509D02*
X11684D01*
X9025Y-9525D02*
X10025D01*
X9525Y-10025D02*
Y-9025D01*
X-2159Y-10541D02*
Y-8509D01*
X2159Y-10541D02*
Y-8509D01*
X-2159Y-10541D02*
X2159D01*
X-2159Y-8509D02*
X2159D01*
X-500Y-9525D02*
X500D01*
X0Y-10025D02*
Y-9025D01*
X-8550Y-21750D02*
X-7950D01*
X-8250Y-22050D02*
Y-21450D01*
X-7750Y-22750D02*
Y-20750D01*
X-8750Y-22750D02*
Y-20750D01*
Y-22750D02*
X-7750D01*
X-8750Y-20750D02*
X-7750D01*
X-11550Y-21750D02*
X-10950D01*
X-11250Y-22050D02*
Y-21450D01*
X-10750Y-22750D02*
Y-20750D01*
X-11750Y-22750D02*
Y-20750D01*
Y-22750D02*
X-10750D01*
X-11750Y-20750D02*
X-10750D01*
X-14750Y-25550D02*
Y-24950D01*
X-15050Y-25250D02*
X-14450D01*
X-15750Y-24750D02*
X-13750D01*
X-15750Y-25750D02*
X-13750D01*
Y-24750D01*
X-15750Y-25750D02*
Y-24750D01*
X-14750Y-26550D02*
Y-25950D01*
X-15050Y-26250D02*
X-14450D01*
X-15750Y-25750D02*
X-13750D01*
X-15750Y-26750D02*
X-13750D01*
Y-25750D01*
X-15750Y-26750D02*
Y-25750D01*
X-9500Y-28000D02*
X-8500D01*
X-9000Y-28500D02*
Y-27500D01*
X-6250Y-33300D02*
Y-32700D01*
X-6550Y-33000D02*
X-5950D01*
X-7250Y-33500D02*
X-5250D01*
X-7250Y-32500D02*
X-5250D01*
X-7250Y-33500D02*
Y-32500D01*
X-5250Y-33500D02*
Y-32500D01*
X-14500Y-30550D02*
Y-29950D01*
X-14800Y-30250D02*
X-14200D01*
X-15500Y-29750D02*
X-13500D01*
X-15500Y-30750D02*
X-13500D01*
Y-29750D01*
X-15500Y-30750D02*
Y-29750D01*
X142875Y-67175D02*
Y-66175D01*
X142375Y-66675D02*
X143375D01*
X140716Y-65659D02*
X145034D01*
X140716Y-67691D02*
X145034D01*
Y-65659D01*
X140716Y-67691D02*
Y-65659D01*
X-49784Y-29591D02*
Y-27559D01*
X-45466Y-29591D02*
Y-27559D01*
X-49784Y-29591D02*
X-45466D01*
X-49784Y-27559D02*
X-45466D01*
X-48125Y-28575D02*
X-47125D01*
X-47625Y-29075D02*
Y-28075D01*
X-29591Y2159D02*
X-27559D01*
X-29591Y-2159D02*
X-27559D01*
X-29591D02*
Y2159D01*
X-27559Y-2159D02*
Y2159D01*
X-28575Y-500D02*
Y500D01*
X-29075Y0D02*
X-28075D01*
X-48641Y2159D02*
X-46609D01*
X-48641Y-2159D02*
X-46609D01*
X-48641D02*
Y2159D01*
X-46609Y-2159D02*
Y2159D01*
X-47625Y-500D02*
Y500D01*
X-48125Y0D02*
X-47125D01*
X-86741Y2159D02*
X-84709D01*
X-86741Y-2159D02*
X-84709D01*
X-86741D02*
Y2159D01*
X-84709Y-2159D02*
Y2159D01*
X-85725Y-500D02*
Y500D01*
X-86225Y0D02*
X-85225D01*
X-105791Y2159D02*
X-103759D01*
X-105791Y-2159D02*
X-103759D01*
X-105791D02*
Y2159D01*
X-103759Y-2159D02*
Y2159D01*
X-104775Y-500D02*
Y500D01*
X-105275Y0D02*
X-104275D01*
X-129516Y3159D02*
X-127484D01*
X-129516Y-1159D02*
X-127484D01*
X-129516D02*
Y3159D01*
X-127484Y-1159D02*
Y3159D01*
X-128500Y500D02*
Y1500D01*
X-129000Y1000D02*
X-128000D01*
X-68834Y-29591D02*
Y-27559D01*
X-64516Y-29591D02*
Y-27559D01*
X-68834Y-29591D02*
X-64516D01*
X-68834Y-27559D02*
X-64516D01*
X-67175Y-28575D02*
X-66175D01*
X-66675Y-29075D02*
Y-28075D01*
X103759Y2159D02*
X105791D01*
X103759Y-2159D02*
X105791D01*
X103759D02*
Y2159D01*
X105791Y-2159D02*
Y2159D01*
X104775Y-500D02*
Y500D01*
X104275Y0D02*
X105275D01*
X84709Y2159D02*
X86741D01*
X84709Y-2159D02*
X86741D01*
X84709D02*
Y2159D01*
X86741Y-2159D02*
Y2159D01*
X85725Y-500D02*
Y500D01*
X85225Y0D02*
X86225D01*
X65659Y2159D02*
X67691D01*
X65659Y-2159D02*
X67691D01*
X65659D02*
Y2159D01*
X67691Y-2159D02*
Y2159D01*
X66675Y-500D02*
Y500D01*
X66175Y0D02*
X67175D01*
X46609Y2159D02*
X48641D01*
X46609Y-2159D02*
X48641D01*
X46609D02*
Y2159D01*
X48641Y-2159D02*
Y2159D01*
X47625Y-500D02*
Y500D01*
X47125Y0D02*
X48125D01*
X-87884Y-10541D02*
Y-8509D01*
X-83566Y-10541D02*
Y-8509D01*
X-87884Y-10541D02*
X-83566D01*
X-87884Y-8509D02*
X-83566D01*
X-86225Y-9525D02*
X-85225D01*
X-85725Y-10025D02*
Y-9025D01*
X-106934Y-10541D02*
Y-8509D01*
X-102616Y-10541D02*
Y-8509D01*
X-106934Y-10541D02*
X-102616D01*
X-106934Y-8509D02*
X-102616D01*
X-105275Y-9525D02*
X-104275D01*
X-104775Y-10025D02*
Y-9025D01*
X-135509Y-10541D02*
Y-8509D01*
X-131191Y-10541D02*
Y-8509D01*
X-135509Y-10541D02*
X-131191D01*
X-135509Y-8509D02*
X-131191D01*
X-133850Y-9525D02*
X-132850D01*
X-133350Y-10025D02*
Y-9025D01*
X146484Y2159D02*
X148516D01*
X146484Y-2159D02*
X148516D01*
X146484D02*
Y2159D01*
X148516Y-2159D02*
Y2159D01*
X147500Y-500D02*
Y500D01*
X147000Y0D02*
X148000D01*
X122809Y2159D02*
X124841D01*
X122809Y-2159D02*
X124841D01*
X122809D02*
Y2159D01*
X124841Y-2159D02*
Y2159D01*
X123825Y-500D02*
Y500D01*
X123325Y0D02*
X124325D01*
X-21209Y-10541D02*
Y-8509D01*
X-16891Y-10541D02*
Y-8509D01*
X-21209Y-10541D02*
X-16891D01*
X-21209Y-8509D02*
X-16891D01*
X-19550Y-9525D02*
X-18550D01*
X-19050Y-10025D02*
Y-9025D01*
X-49784Y-10541D02*
Y-8509D01*
X-45466Y-10541D02*
Y-8509D01*
X-49784Y-10541D02*
X-45466D01*
X-49784Y-8509D02*
X-45466D01*
X-48125Y-9525D02*
X-47125D01*
X-47625Y-10025D02*
Y-9025D01*
X-78359Y-10541D02*
Y-8509D01*
X-74041Y-10541D02*
Y-8509D01*
X-78359Y-10541D02*
X-74041D01*
X-78359Y-8509D02*
X-74041D01*
X-76700Y-9525D02*
X-75700D01*
X-76200Y-10025D02*
Y-9025D01*
X102616Y-10541D02*
Y-8509D01*
X106934Y-10541D02*
Y-8509D01*
X102616Y-10541D02*
X106934D01*
X102616Y-8509D02*
X106934D01*
X104275Y-9525D02*
X105275D01*
X104775Y-10025D02*
Y-9025D01*
X85725Y-10025D02*
Y-9025D01*
X85225Y-9525D02*
X86225D01*
X83566Y-8509D02*
X87884D01*
X83566Y-10541D02*
X87884D01*
Y-8509D01*
X83566Y-10541D02*
Y-8509D01*
X54991Y-10541D02*
Y-8509D01*
X59309Y-10541D02*
Y-8509D01*
X54991Y-10541D02*
X59309D01*
X54991Y-8509D02*
X59309D01*
X56650Y-9525D02*
X57650D01*
X57150Y-10025D02*
Y-9025D01*
X45466Y-10541D02*
Y-8509D01*
X49784Y-10541D02*
Y-8509D01*
X45466Y-10541D02*
X49784D01*
X45466Y-8509D02*
X49784D01*
X47125Y-9525D02*
X48125D01*
X47625Y-10025D02*
Y-9025D01*
X16891Y-10541D02*
Y-8509D01*
X21209Y-10541D02*
Y-8509D01*
X16891Y-10541D02*
X21209D01*
X16891Y-8509D02*
X21209D01*
X18550Y-9525D02*
X19550D01*
X19050Y-10025D02*
Y-9025D01*
X-87884Y-29591D02*
Y-27559D01*
X-83566Y-29591D02*
Y-27559D01*
X-87884Y-29591D02*
X-83566D01*
X-87884Y-27559D02*
X-83566D01*
X-86225Y-28575D02*
X-85225D01*
X-85725Y-29075D02*
Y-28075D01*
X-106934Y-29591D02*
Y-27559D01*
X-102616Y-29591D02*
Y-27559D01*
X-106934Y-29591D02*
X-102616D01*
X-106934Y-27559D02*
X-102616D01*
X-105275Y-28575D02*
X-104275D01*
X-104775Y-29075D02*
Y-28075D01*
X-135509Y-29591D02*
Y-27559D01*
X-131191Y-29591D02*
Y-27559D01*
X-135509Y-29591D02*
X-131191D01*
X-135509Y-27559D02*
X-131191D01*
X-133850Y-28575D02*
X-132850D01*
X-133350Y-29075D02*
Y-28075D01*
X140716Y-10541D02*
Y-8509D01*
X145034Y-10541D02*
Y-8509D01*
X140716Y-10541D02*
X145034D01*
X140716Y-8509D02*
X145034D01*
X142375Y-9525D02*
X143375D01*
X142875Y-10025D02*
Y-9025D01*
X112141Y-10541D02*
Y-8509D01*
X116459Y-10541D02*
Y-8509D01*
X112141Y-10541D02*
X116459D01*
X112141Y-8509D02*
X116459D01*
X113800Y-9525D02*
X114800D01*
X114300Y-10025D02*
Y-9025D01*
X84709Y-68834D02*
X86741D01*
X84709Y-64516D02*
X86741D01*
Y-68834D02*
Y-64516D01*
X84709Y-68834D02*
Y-64516D01*
X85725Y-67175D02*
Y-66175D01*
X85225Y-66675D02*
X86225D01*
X45466Y-67691D02*
Y-65659D01*
X49784Y-67691D02*
Y-65659D01*
X45466Y-67691D02*
X49784D01*
X45466Y-65659D02*
X49784D01*
X47125Y-66675D02*
X48125D01*
X47625Y-67175D02*
Y-66175D01*
X16891Y-67691D02*
Y-65659D01*
X21209Y-67691D02*
Y-65659D01*
X16891Y-67691D02*
X21209D01*
X16891Y-65659D02*
X21209D01*
X18550Y-66675D02*
X19550D01*
X19050Y-67175D02*
Y-66175D01*
X7366Y-67691D02*
Y-65659D01*
X11684Y-67691D02*
Y-65659D01*
X7366Y-67691D02*
X11684D01*
X7366Y-65659D02*
X11684D01*
X9025Y-66675D02*
X10025D01*
X9525Y-67175D02*
Y-66175D01*
X-11684Y-67691D02*
Y-65659D01*
X-7366Y-67691D02*
Y-65659D01*
X-11684Y-67691D02*
X-7366D01*
X-11684Y-65659D02*
X-7366D01*
X-10025Y-66675D02*
X-9025D01*
X-9525Y-67175D02*
Y-66175D01*
X-49784Y-67691D02*
Y-65659D01*
X-45466Y-67691D02*
Y-65659D01*
X-49784Y-67691D02*
X-45466D01*
X-49784Y-65659D02*
X-45466D01*
X-48125Y-66675D02*
X-47125D01*
X-47625Y-67175D02*
Y-66175D01*
X-76200Y-67175D02*
Y-66175D01*
X-76700Y-66675D02*
X-75700D01*
X-78359Y-65659D02*
X-74041D01*
X-78359Y-67691D02*
X-74041D01*
Y-65659D01*
X-78359Y-67691D02*
Y-65659D01*
X-106934Y-67691D02*
Y-65659D01*
X-102616Y-67691D02*
Y-65659D01*
X-106934Y-67691D02*
X-102616D01*
X-106934Y-65659D02*
X-102616D01*
X-105275Y-66675D02*
X-104275D01*
X-104775Y-67175D02*
Y-66175D01*
X-135509Y-67691D02*
Y-65659D01*
X-131191Y-67691D02*
Y-65659D01*
X-135509Y-67691D02*
X-131191D01*
X-135509Y-65659D02*
X-131191D01*
X-133850Y-66675D02*
X-132850D01*
X-133350Y-67175D02*
Y-66175D01*
X140716Y-48641D02*
Y-46609D01*
X145034Y-48641D02*
Y-46609D01*
X140716Y-48641D02*
X145034D01*
X140716Y-46609D02*
X145034D01*
X142375Y-47625D02*
X143375D01*
X142875Y-48125D02*
Y-47125D01*
X121666Y-48641D02*
Y-46609D01*
X125984Y-48641D02*
Y-46609D01*
X121666Y-48641D02*
X125984D01*
X121666Y-46609D02*
X125984D01*
X123325Y-47625D02*
X124325D01*
X123825Y-48125D02*
Y-47125D01*
X102616Y-48641D02*
Y-46609D01*
X106934Y-48641D02*
Y-46609D01*
X102616Y-48641D02*
X106934D01*
X102616Y-46609D02*
X106934D01*
X104275Y-47625D02*
X105275D01*
X104775Y-48125D02*
Y-47125D01*
X-30734Y-48641D02*
Y-46609D01*
X-26416Y-48641D02*
Y-46609D01*
X-30734Y-48641D02*
X-26416D01*
X-30734Y-46609D02*
X-26416D01*
X-29075Y-47625D02*
X-28075D01*
X-28575Y-48125D02*
Y-47125D01*
X-135509Y-48641D02*
Y-46609D01*
X-131191Y-48641D02*
Y-46609D01*
X-135509Y-48641D02*
X-131191D01*
X-135509Y-46609D02*
X-131191D01*
X-133850Y-47625D02*
X-132850D01*
X-133350Y-48125D02*
Y-47125D01*
X140716Y-29591D02*
Y-27559D01*
X145034Y-29591D02*
Y-27559D01*
X140716Y-29591D02*
X145034D01*
X140716Y-27559D02*
X145034D01*
X142375Y-28575D02*
X143375D01*
X142875Y-29075D02*
Y-28075D01*
X121666Y-29591D02*
Y-27559D01*
X125984Y-29591D02*
Y-27559D01*
X121666Y-29591D02*
X125984D01*
X121666Y-27559D02*
X125984D01*
X123325Y-28575D02*
X124325D01*
X123825Y-29075D02*
Y-28075D01*
X102616Y-29591D02*
Y-27559D01*
X106934Y-29591D02*
Y-27559D01*
X102616Y-29591D02*
X106934D01*
X102616Y-27559D02*
X106934D01*
X104275Y-28575D02*
X105275D01*
X104775Y-29075D02*
Y-28075D01*
X83566Y-29591D02*
Y-27559D01*
X87884Y-29591D02*
Y-27559D01*
X83566Y-29591D02*
X87884D01*
X83566Y-27559D02*
X87884D01*
X85225Y-28575D02*
X86225D01*
X85725Y-29075D02*
Y-28075D01*
X64516Y-29591D02*
Y-27559D01*
X68834Y-29591D02*
Y-27559D01*
X64516Y-29591D02*
X68834D01*
X64516Y-27559D02*
X68834D01*
X66175Y-28575D02*
X67175D01*
X66675Y-29075D02*
Y-28075D01*
X45466Y-29591D02*
Y-27559D01*
X49784Y-29591D02*
Y-27559D01*
X45466Y-29591D02*
X49784D01*
X45466Y-27559D02*
X49784D01*
X47125Y-28575D02*
X48125D01*
X47625Y-29075D02*
Y-28075D01*
X26416Y-29591D02*
Y-27559D01*
X30734Y-29591D02*
Y-27559D01*
X26416Y-29591D02*
X30734D01*
X26416Y-27559D02*
X30734D01*
X28075Y-28575D02*
X29075D01*
X28575Y-29075D02*
Y-28075D01*
X-94750Y-71000D02*
Y-70000D01*
X-96750Y-71000D02*
Y-70000D01*
X-94750D01*
X-96750Y-71000D02*
X-94750D01*
X-96050Y-70500D02*
X-95450D01*
X-95750Y-70800D02*
Y-70200D01*
X-3250Y-25500D02*
X-2250D01*
X-3250Y-27500D02*
X-2250D01*
X-3250D02*
Y-25500D01*
X-2250Y-27500D02*
Y-25500D01*
X-2750Y-26800D02*
Y-26200D01*
X-3050Y-26500D02*
X-2450D01*
X-3050Y-28500D02*
X-2450D01*
X-2750Y-28800D02*
Y-28200D01*
X-3250Y-29500D02*
Y-27500D01*
X-2250Y-29500D02*
Y-27500D01*
X-3250D02*
X-2250D01*
X-3250Y-29500D02*
X-2250D01*
X28500Y-5800D02*
Y-5200D01*
X28200Y-5500D02*
X28800D01*
X27500Y-6000D02*
X29500D01*
X27500Y-5000D02*
X29500D01*
X27500Y-6000D02*
Y-5000D01*
X29500Y-6000D02*
Y-5000D01*
X123000Y-14050D02*
Y-13450D01*
X122700Y-13750D02*
X123300D01*
X122000Y-14250D02*
X124000D01*
X122000Y-13250D02*
X124000D01*
X122000Y-14250D02*
Y-13250D01*
X124000Y-14250D02*
Y-13250D01*
X121500Y-42300D02*
Y-41700D01*
X121200Y-42000D02*
X121800D01*
X120500Y-42500D02*
X122500D01*
X120500Y-41500D02*
X122500D01*
X120500Y-42500D02*
Y-41500D01*
X122500Y-42500D02*
Y-41500D01*
X123750Y-70800D02*
Y-70200D01*
X123450Y-70500D02*
X124050D01*
X122750Y-71000D02*
X124750D01*
X122750Y-70000D02*
X124750D01*
X122750Y-71000D02*
Y-70000D01*
X124750Y-71000D02*
Y-70000D01*
X95000Y-70800D02*
Y-70200D01*
X94700Y-70500D02*
X95300D01*
X94000Y-71000D02*
X96000D01*
X94000Y-70000D02*
X96000D01*
X94000Y-71000D02*
Y-70000D01*
X96000Y-71000D02*
Y-70000D01*
X28500Y-70800D02*
Y-70200D01*
X28200Y-70500D02*
X28800D01*
X27500Y-71000D02*
X29500D01*
X27500Y-70000D02*
X29500D01*
X27500Y-71000D02*
Y-70000D01*
X29500Y-71000D02*
Y-70000D01*
X-28750Y-70800D02*
Y-70200D01*
X-29050Y-70500D02*
X-28450D01*
X-29750Y-71000D02*
X-27750D01*
X-29750Y-70000D02*
X-27750D01*
X-29750Y-71000D02*
Y-70000D01*
X-27750Y-71000D02*
Y-70000D01*
X65500Y-70800D02*
Y-70200D01*
X65200Y-70500D02*
X65800D01*
X64500Y-71000D02*
X66500D01*
X64500Y-70000D02*
X66500D01*
X64500Y-71000D02*
Y-70000D01*
X66500Y-71000D02*
Y-70000D01*
X-69750Y-70800D02*
Y-70200D01*
X-70050Y-70500D02*
X-69450D01*
X-70750Y-71000D02*
X-68750D01*
X-70750Y-70000D02*
X-68750D01*
X-70750Y-71000D02*
Y-70000D01*
X-68750Y-71000D02*
Y-70000D01*
X-123750Y-71050D02*
Y-70450D01*
X-124050Y-70750D02*
X-123450D01*
X-124750Y-71250D02*
X-122750D01*
X-124750Y-70250D02*
X-122750D01*
X-124750Y-71250D02*
Y-70250D01*
X-122750Y-71250D02*
Y-70250D01*
X-95250Y-6050D02*
Y-5450D01*
X-95550Y-5750D02*
X-94950D01*
X-96250Y-6250D02*
X-94250D01*
X-96250Y-5250D02*
X-94250D01*
X-96250Y-6250D02*
Y-5250D01*
X-94250Y-6250D02*
Y-5250D01*
X-127000Y-13800D02*
Y-13200D01*
X-127300Y-13500D02*
X-126700D01*
X-128000Y-14000D02*
X-126000D01*
X-128000Y-13000D02*
X-126000D01*
X-128000Y-14000D02*
Y-13000D01*
X-126000Y-14000D02*
Y-13000D01*
X-128000Y-42300D02*
Y-41700D01*
X-128300Y-42000D02*
X-127700D01*
X-129000Y-42500D02*
X-127000D01*
X-129000Y-41500D02*
X-127000D01*
X-129000Y-42500D02*
Y-41500D01*
X-127000Y-42500D02*
Y-41500D01*
D78*
X23060Y-53350D02*
X38940D01*
Y-43800D01*
X23060D02*
X38940D01*
X23060Y-53350D02*
Y-43800D01*
X30500Y-48500D02*
X31500D01*
X31000Y-49000D02*
Y-48000D01*
X-1000Y-27500D02*
X-0D01*
X-500Y-28000D02*
Y-27000D01*
X-2075Y-29500D02*
Y-25500D01*
Y-29500D02*
X1075D01*
Y-25500D01*
X-2075D02*
X1075D01*
X4500Y-24500D02*
X5500D01*
X5000Y-25000D02*
Y-24000D01*
X2550Y-26150D02*
X7450D01*
Y-22850D01*
X2550D02*
X7450D01*
X2550Y-26150D02*
Y-22850D01*
X-4500Y-32500D02*
Y-23500D01*
X-13318Y-32500D02*
Y-23500D01*
Y-32500D02*
X-4500D01*
X-13318Y-23500D02*
X-4500D01*
M02*
