G04*
G04 #@! TF.GenerationSoftware,Altium Limited,Altium Designer,20.2.6 (244)*
G04*
G04 Layer_Color=65535*
%FSLAX43Y43*%
%MOMM*%
G71*
G04*
G04 #@! TF.SameCoordinates,1B96AE11-6956-4914-BCA9-E7287AB91291*
G04*
G04*
G04 #@! TF.FilePolarity,Positive*
G04*
G01*
G75*
%ADD10C,0.200*%
%ADD11C,0.013*%
%ADD70C,0.254*%
G36*
X-103496Y12345D02*
X-103880D01*
X-103931Y12085D01*
X-103930Y12087D01*
X-103927Y12088D01*
X-103923Y12091D01*
X-103916Y12095D01*
X-103908Y12099D01*
X-103898Y12105D01*
X-103876Y12116D01*
X-103848Y12127D01*
X-103818Y12137D01*
X-103784Y12144D01*
X-103768Y12146D01*
X-103737D01*
X-103729Y12145D01*
X-103718Y12144D01*
X-103705Y12142D01*
X-103691Y12139D01*
X-103676Y12135D01*
X-103643Y12126D01*
X-103625Y12119D01*
X-103607Y12109D01*
X-103589Y12099D01*
X-103571Y12088D01*
X-103554Y12074D01*
X-103537Y12059D01*
X-103536Y12058D01*
X-103533Y12055D01*
X-103529Y12051D01*
X-103524Y12044D01*
X-103517Y12034D01*
X-103510Y12024D01*
X-103501Y12012D01*
X-103493Y11998D01*
X-103486Y11983D01*
X-103478Y11966D01*
X-103471Y11947D01*
X-103464Y11927D01*
X-103458Y11906D01*
X-103454Y11883D01*
X-103451Y11859D01*
X-103450Y11834D01*
Y11833D01*
Y11829D01*
Y11822D01*
X-103451Y11812D01*
X-103453Y11801D01*
X-103454Y11789D01*
X-103457Y11773D01*
X-103460Y11758D01*
X-103468Y11722D01*
X-103482Y11684D01*
X-103490Y11665D01*
X-103501Y11647D01*
X-103512Y11628D01*
X-103526Y11610D01*
X-103528Y11608D01*
X-103531Y11604D01*
X-103536Y11599D01*
X-103543Y11592D01*
X-103553Y11583D01*
X-103564Y11572D01*
X-103578Y11562D01*
X-103593Y11551D01*
X-103610Y11540D01*
X-103629Y11531D01*
X-103650Y11521D01*
X-103672Y11511D01*
X-103696Y11504D01*
X-103722Y11499D01*
X-103750Y11495D01*
X-103779Y11493D01*
X-103791D01*
X-103801Y11495D01*
X-103812Y11496D01*
X-103825Y11497D01*
X-103840Y11499D01*
X-103855Y11503D01*
X-103890Y11511D01*
X-103924Y11524D01*
X-103942Y11532D01*
X-103960Y11542D01*
X-103977Y11553D01*
X-103994Y11565D01*
X-103995Y11567D01*
X-103998Y11568D01*
X-104001Y11574D01*
X-104006Y11579D01*
X-104013Y11586D01*
X-104020Y11594D01*
X-104028Y11605D01*
X-104035Y11618D01*
X-104044Y11630D01*
X-104052Y11646D01*
X-104067Y11679D01*
X-104080Y11718D01*
X-104084Y11739D01*
X-104087Y11761D01*
X-103963Y11770D01*
Y11769D01*
Y11766D01*
X-103962Y11762D01*
X-103960Y11755D01*
X-103956Y11740D01*
X-103951Y11719D01*
X-103942Y11698D01*
X-103931Y11675D01*
X-103917Y11654D01*
X-103901Y11635D01*
X-103898Y11633D01*
X-103892Y11628D01*
X-103881Y11621D01*
X-103866Y11612D01*
X-103849Y11604D01*
X-103829Y11597D01*
X-103805Y11592D01*
X-103779Y11590D01*
X-103770D01*
X-103765Y11592D01*
X-103748Y11593D01*
X-103729Y11599D01*
X-103705Y11605D01*
X-103682Y11617D01*
X-103657Y11633D01*
X-103646Y11643D01*
X-103635Y11654D01*
X-103633Y11655D01*
X-103632Y11657D01*
X-103629Y11661D01*
X-103625Y11665D01*
X-103615Y11680D01*
X-103604Y11700D01*
X-103594Y11723D01*
X-103585Y11752D01*
X-103578Y11787D01*
X-103575Y11805D01*
Y11825D01*
Y11826D01*
Y11829D01*
Y11834D01*
X-103576Y11841D01*
Y11850D01*
X-103578Y11859D01*
X-103582Y11881D01*
X-103589Y11908D01*
X-103598Y11934D01*
X-103612Y11959D01*
X-103632Y11983D01*
Y11984D01*
X-103635Y11985D01*
X-103641Y11992D01*
X-103654Y12002D01*
X-103671Y12013D01*
X-103693Y12023D01*
X-103718Y12033D01*
X-103747Y12040D01*
X-103764Y12042D01*
X-103790D01*
X-103801Y12041D01*
X-103815Y12040D01*
X-103831Y12035D01*
X-103848Y12031D01*
X-103866Y12024D01*
X-103884Y12016D01*
X-103886Y12015D01*
X-103891Y12012D01*
X-103899Y12005D01*
X-103911Y11998D01*
X-103922Y11988D01*
X-103933Y11976D01*
X-103945Y11963D01*
X-103955Y11948D01*
X-104066Y11963D01*
X-103973Y12457D01*
X-103496D01*
Y12345D01*
D02*
G37*
G36*
X-105634Y12472D02*
X-105627D01*
X-105618Y12471D01*
X-105594Y12467D01*
X-105568Y12461D01*
X-105539Y12451D01*
X-105510Y12439D01*
X-105480Y12422D01*
X-105479D01*
X-105478Y12420D01*
X-105473Y12417D01*
X-105468Y12413D01*
X-105454Y12401D01*
X-105436Y12386D01*
X-105418Y12365D01*
X-105397Y12340D01*
X-105379Y12311D01*
X-105363Y12278D01*
Y12277D01*
X-105361Y12274D01*
X-105358Y12268D01*
X-105356Y12261D01*
X-105353Y12252D01*
X-105349Y12239D01*
X-105346Y12225D01*
X-105342Y12210D01*
X-105338Y12192D01*
X-105333Y12171D01*
X-105331Y12149D01*
X-105328Y12126D01*
X-105325Y12099D01*
X-105322Y12071D01*
X-105321Y12041D01*
Y12009D01*
Y12008D01*
Y12001D01*
Y11991D01*
Y11979D01*
X-105322Y11963D01*
Y11945D01*
X-105324Y11924D01*
X-105326Y11904D01*
X-105331Y11856D01*
X-105338Y11807D01*
X-105347Y11759D01*
X-105354Y11736D01*
X-105361Y11715D01*
Y11714D01*
X-105363Y11711D01*
X-105365Y11705D01*
X-105368Y11697D01*
X-105372Y11689D01*
X-105378Y11678D01*
X-105392Y11654D01*
X-105408Y11628D01*
X-105428Y11600D01*
X-105453Y11574D01*
X-105480Y11550D01*
X-105482D01*
X-105485Y11547D01*
X-105489Y11544D01*
X-105494Y11542D01*
X-105503Y11537D01*
X-105511Y11532D01*
X-105522Y11526D01*
X-105533Y11522D01*
X-105559Y11511D01*
X-105591Y11501D01*
X-105626Y11496D01*
X-105665Y11493D01*
X-105676D01*
X-105683Y11495D01*
X-105693D01*
X-105704Y11496D01*
X-105730Y11501D01*
X-105759Y11508D01*
X-105790Y11519D01*
X-105820Y11535D01*
X-105835Y11544D01*
X-105849Y11556D01*
X-105851Y11557D01*
X-105852Y11558D01*
X-105856Y11562D01*
X-105860Y11567D01*
X-105866Y11574D01*
X-105873Y11582D01*
X-105887Y11601D01*
X-105901Y11626D01*
X-105914Y11657D01*
X-105926Y11691D01*
X-105934Y11732D01*
X-105820Y11741D01*
Y11740D01*
X-105819Y11737D01*
Y11734D01*
X-105817Y11729D01*
X-105813Y11714D01*
X-105808Y11697D01*
X-105801Y11678D01*
X-105791Y11658D01*
X-105780Y11640D01*
X-105766Y11625D01*
X-105765Y11623D01*
X-105759Y11619D01*
X-105749Y11614D01*
X-105738Y11608D01*
X-105723Y11601D01*
X-105705Y11596D01*
X-105684Y11592D01*
X-105662Y11590D01*
X-105652D01*
X-105643Y11592D01*
X-105630Y11593D01*
X-105615Y11596D01*
X-105600Y11600D01*
X-105583Y11605D01*
X-105568Y11614D01*
X-105566Y11615D01*
X-105561Y11618D01*
X-105553Y11623D01*
X-105544Y11632D01*
X-105533Y11642D01*
X-105522Y11653D01*
X-105511Y11665D01*
X-105500Y11680D01*
X-105498Y11682D01*
X-105496Y11689D01*
X-105490Y11698D01*
X-105485Y11711D01*
X-105478Y11727D01*
X-105471Y11747D01*
X-105464Y11769D01*
X-105457Y11794D01*
Y11795D01*
X-105455Y11797D01*
Y11801D01*
X-105454Y11807D01*
X-105451Y11820D01*
X-105447Y11838D01*
X-105444Y11861D01*
X-105442Y11884D01*
X-105440Y11911D01*
X-105439Y11938D01*
Y11940D01*
Y11944D01*
Y11951D01*
Y11962D01*
X-105440Y11959D01*
X-105446Y11952D01*
X-105454Y11942D01*
X-105464Y11929D01*
X-105478Y11915D01*
X-105494Y11899D01*
X-105514Y11884D01*
X-105536Y11870D01*
X-105539Y11869D01*
X-105547Y11865D01*
X-105559Y11859D01*
X-105575Y11854D01*
X-105596Y11847D01*
X-105618Y11841D01*
X-105643Y11837D01*
X-105669Y11836D01*
X-105680D01*
X-105688Y11837D01*
X-105700Y11838D01*
X-105711Y11840D01*
X-105725Y11843D01*
X-105738Y11847D01*
X-105770Y11856D01*
X-105787Y11863D01*
X-105804Y11872D01*
X-105822Y11881D01*
X-105838Y11894D01*
X-105855Y11906D01*
X-105870Y11922D01*
X-105872Y11923D01*
X-105874Y11926D01*
X-105877Y11930D01*
X-105883Y11937D01*
X-105890Y11947D01*
X-105896Y11956D01*
X-105903Y11969D01*
X-105910Y11983D01*
X-105919Y11998D01*
X-105926Y12015D01*
X-105933Y12034D01*
X-105939Y12053D01*
X-105945Y12076D01*
X-105948Y12099D01*
X-105951Y12123D01*
X-105952Y12149D01*
Y12150D01*
Y12156D01*
Y12163D01*
X-105951Y12173D01*
X-105949Y12185D01*
X-105948Y12200D01*
X-105945Y12216D01*
X-105941Y12234D01*
X-105931Y12270D01*
X-105924Y12289D01*
X-105916Y12310D01*
X-105906Y12329D01*
X-105894Y12347D01*
X-105881Y12367D01*
X-105866Y12383D01*
X-105865Y12385D01*
X-105862Y12388D01*
X-105858Y12392D01*
X-105851Y12397D01*
X-105842Y12404D01*
X-105831Y12413D01*
X-105820Y12420D01*
X-105806Y12429D01*
X-105792Y12438D01*
X-105776Y12444D01*
X-105738Y12460D01*
X-105719Y12465D01*
X-105697Y12469D01*
X-105675Y12472D01*
X-105651Y12474D01*
X-105641D01*
X-105634Y12472D01*
D02*
G37*
G36*
X-105005Y11510D02*
X-105139D01*
Y11644D01*
X-105005D01*
Y11510D01*
D02*
G37*
G36*
X-106254D02*
X-106372D01*
Y12260D01*
X-106374Y12259D01*
X-106380Y12253D01*
X-106389Y12245D01*
X-106403Y12235D01*
X-106418Y12223D01*
X-106437Y12209D01*
X-106460Y12193D01*
X-106484Y12178D01*
X-106486D01*
X-106487Y12177D01*
X-106496Y12171D01*
X-106509Y12164D01*
X-106526Y12156D01*
X-106546Y12146D01*
X-106566Y12137D01*
X-106587Y12127D01*
X-106608Y12119D01*
Y12232D01*
X-106607D01*
X-106604Y12235D01*
X-106598Y12236D01*
X-106591Y12241D01*
X-106583Y12245D01*
X-106573Y12250D01*
X-106550Y12264D01*
X-106522Y12279D01*
X-106494Y12299D01*
X-106465Y12321D01*
X-106436Y12345D01*
X-106435Y12346D01*
X-106433Y12347D01*
X-106429Y12352D01*
X-106423Y12356D01*
X-106411Y12370D01*
X-106394Y12386D01*
X-106378Y12406D01*
X-106360Y12428D01*
X-106344Y12450D01*
X-106331Y12474D01*
X-106254D01*
Y11510D01*
D02*
G37*
G36*
X-104492Y12472D02*
X-104474Y12469D01*
X-104453Y12465D01*
X-104431Y12460D01*
X-104407Y12453D01*
X-104385Y12442D01*
X-104383D01*
X-104382Y12440D01*
X-104375Y12436D01*
X-104364Y12429D01*
X-104350Y12420D01*
X-104335Y12406D01*
X-104318Y12390D01*
X-104303Y12372D01*
X-104288Y12352D01*
X-104286Y12349D01*
X-104281Y12342D01*
X-104275Y12329D01*
X-104266Y12311D01*
X-104257Y12291D01*
X-104246Y12267D01*
X-104236Y12239D01*
X-104228Y12209D01*
Y12207D01*
X-104227Y12205D01*
X-104225Y12200D01*
X-104224Y12193D01*
X-104223Y12185D01*
X-104221Y12175D01*
X-104218Y12163D01*
X-104217Y12149D01*
X-104214Y12134D01*
X-104213Y12117D01*
X-104211Y12098D01*
X-104209Y12078D01*
X-104207Y12056D01*
Y12034D01*
X-104206Y12009D01*
Y11983D01*
Y11981D01*
Y11976D01*
Y11966D01*
Y11955D01*
X-104207Y11940D01*
Y11923D01*
X-104209Y11905D01*
X-104210Y11886D01*
X-104214Y11841D01*
X-104221Y11795D01*
X-104229Y11751D01*
X-104235Y11730D01*
X-104242Y11709D01*
Y11708D01*
X-104243Y11705D01*
X-104246Y11700D01*
X-104249Y11693D01*
X-104252Y11683D01*
X-104257Y11673D01*
X-104268Y11650D01*
X-104282Y11625D01*
X-104300Y11597D01*
X-104321Y11572D01*
X-104346Y11549D01*
X-104347D01*
X-104349Y11546D01*
X-104353Y11543D01*
X-104358Y11540D01*
X-104365Y11536D01*
X-104372Y11531D01*
X-104393Y11521D01*
X-104418Y11511D01*
X-104447Y11501D01*
X-104482Y11496D01*
X-104519Y11493D01*
X-104533D01*
X-104543Y11495D01*
X-104554Y11496D01*
X-104568Y11499D01*
X-104583Y11501D01*
X-104600Y11506D01*
X-104616Y11511D01*
X-104634Y11517D01*
X-104652Y11525D01*
X-104671Y11535D01*
X-104689Y11546D01*
X-104707Y11560D01*
X-104723Y11575D01*
X-104738Y11592D01*
X-104740Y11593D01*
X-104743Y11597D01*
X-104747Y11604D01*
X-104754Y11615D01*
X-104761Y11628D01*
X-104768Y11644D01*
X-104777Y11664D01*
X-104786Y11686D01*
X-104794Y11711D01*
X-104802Y11740D01*
X-104811Y11772D01*
X-104818Y11808D01*
X-104824Y11847D01*
X-104829Y11888D01*
X-104831Y11934D01*
X-104833Y11983D01*
Y11984D01*
Y11990D01*
Y11999D01*
Y12010D01*
X-104831Y12026D01*
Y12042D01*
X-104830Y12060D01*
X-104829Y12081D01*
X-104824Y12124D01*
X-104818Y12170D01*
X-104809Y12216D01*
X-104804Y12236D01*
X-104798Y12257D01*
Y12259D01*
X-104797Y12261D01*
X-104794Y12267D01*
X-104791Y12274D01*
X-104788Y12284D01*
X-104783Y12293D01*
X-104772Y12317D01*
X-104758Y12342D01*
X-104740Y12368D01*
X-104719Y12395D01*
X-104694Y12417D01*
X-104693D01*
X-104691Y12420D01*
X-104687Y12422D01*
X-104682Y12425D01*
X-104675Y12431D01*
X-104666Y12435D01*
X-104646Y12446D01*
X-104621Y12456D01*
X-104591Y12465D01*
X-104557Y12471D01*
X-104519Y12474D01*
X-104507D01*
X-104492Y12472D01*
D02*
G37*
G36*
X-154715Y-36735D02*
X-154698D01*
X-154680Y-36736D01*
X-154661Y-36738D01*
X-154616Y-36742D01*
X-154570Y-36749D01*
X-154526Y-36757D01*
X-154505Y-36763D01*
X-154484Y-36770D01*
X-154483D01*
X-154480Y-36771D01*
X-154475Y-36774D01*
X-154468Y-36777D01*
X-154458Y-36779D01*
X-154448Y-36785D01*
X-154425Y-36796D01*
X-154400Y-36810D01*
X-154372Y-36828D01*
X-154347Y-36849D01*
X-154324Y-36874D01*
Y-36875D01*
X-154321Y-36876D01*
X-154318Y-36881D01*
X-154315Y-36886D01*
X-154311Y-36893D01*
X-154306Y-36900D01*
X-154296Y-36921D01*
X-154286Y-36946D01*
X-154276Y-36975D01*
X-154271Y-37010D01*
X-154268Y-37047D01*
Y-37061D01*
X-154270Y-37071D01*
X-154271Y-37082D01*
X-154274Y-37096D01*
X-154276Y-37111D01*
X-154281Y-37127D01*
X-154286Y-37144D01*
X-154292Y-37162D01*
X-154300Y-37180D01*
X-154310Y-37198D01*
X-154321Y-37216D01*
X-154335Y-37234D01*
X-154350Y-37251D01*
X-154367Y-37266D01*
X-154368Y-37268D01*
X-154372Y-37270D01*
X-154379Y-37274D01*
X-154390Y-37281D01*
X-154403Y-37288D01*
X-154419Y-37295D01*
X-154439Y-37305D01*
X-154461Y-37313D01*
X-154486Y-37322D01*
X-154515Y-37330D01*
X-154547Y-37338D01*
X-154583Y-37345D01*
X-154622Y-37352D01*
X-154663Y-37356D01*
X-154709Y-37359D01*
X-154758Y-37360D01*
X-154759D01*
X-154765D01*
X-154774D01*
X-154785D01*
X-154801Y-37359D01*
X-154817D01*
X-154835Y-37358D01*
X-154856Y-37356D01*
X-154899Y-37352D01*
X-154945Y-37345D01*
X-154991Y-37337D01*
X-155011Y-37331D01*
X-155032Y-37326D01*
X-155034D01*
X-155036Y-37324D01*
X-155042Y-37322D01*
X-155049Y-37319D01*
X-155059Y-37316D01*
X-155068Y-37311D01*
X-155092Y-37299D01*
X-155117Y-37286D01*
X-155143Y-37268D01*
X-155170Y-37247D01*
X-155192Y-37222D01*
Y-37220D01*
X-155195Y-37219D01*
X-155197Y-37215D01*
X-155200Y-37209D01*
X-155206Y-37202D01*
X-155210Y-37194D01*
X-155221Y-37173D01*
X-155231Y-37148D01*
X-155240Y-37119D01*
X-155246Y-37084D01*
X-155249Y-37047D01*
Y-37035D01*
X-155247Y-37019D01*
X-155244Y-37001D01*
X-155240Y-36980D01*
X-155235Y-36958D01*
X-155228Y-36935D01*
X-155217Y-36913D01*
Y-36911D01*
X-155215Y-36910D01*
X-155211Y-36903D01*
X-155204Y-36892D01*
X-155195Y-36878D01*
X-155181Y-36863D01*
X-155165Y-36846D01*
X-155147Y-36831D01*
X-155127Y-36815D01*
X-155124Y-36814D01*
X-155117Y-36808D01*
X-155104Y-36803D01*
X-155086Y-36793D01*
X-155066Y-36785D01*
X-155042Y-36774D01*
X-155014Y-36764D01*
X-154984Y-36756D01*
X-154982D01*
X-154980Y-36754D01*
X-154975Y-36753D01*
X-154968Y-36752D01*
X-154960Y-36750D01*
X-154950Y-36749D01*
X-154938Y-36746D01*
X-154924Y-36745D01*
X-154909Y-36742D01*
X-154892Y-36741D01*
X-154873Y-36739D01*
X-154853Y-36736D01*
X-154831Y-36735D01*
X-154809D01*
X-154784Y-36734D01*
X-154758D01*
X-154756D01*
X-154751D01*
X-154741D01*
X-154730D01*
X-154715Y-36735D01*
D02*
G37*
G36*
Y-37481D02*
X-154698D01*
X-154680Y-37483D01*
X-154661Y-37484D01*
X-154616Y-37488D01*
X-154570Y-37495D01*
X-154526Y-37503D01*
X-154505Y-37509D01*
X-154484Y-37516D01*
X-154483D01*
X-154480Y-37517D01*
X-154475Y-37520D01*
X-154468Y-37523D01*
X-154458Y-37526D01*
X-154448Y-37531D01*
X-154425Y-37542D01*
X-154400Y-37556D01*
X-154372Y-37574D01*
X-154347Y-37595D01*
X-154324Y-37620D01*
Y-37621D01*
X-154321Y-37623D01*
X-154318Y-37627D01*
X-154315Y-37632D01*
X-154311Y-37639D01*
X-154306Y-37646D01*
X-154296Y-37667D01*
X-154286Y-37692D01*
X-154276Y-37721D01*
X-154271Y-37756D01*
X-154268Y-37793D01*
Y-37807D01*
X-154270Y-37817D01*
X-154271Y-37828D01*
X-154274Y-37842D01*
X-154276Y-37857D01*
X-154281Y-37874D01*
X-154286Y-37890D01*
X-154292Y-37908D01*
X-154300Y-37926D01*
X-154310Y-37944D01*
X-154321Y-37962D01*
X-154335Y-37980D01*
X-154350Y-37997D01*
X-154367Y-38012D01*
X-154368Y-38014D01*
X-154372Y-38016D01*
X-154379Y-38021D01*
X-154390Y-38028D01*
X-154403Y-38034D01*
X-154419Y-38041D01*
X-154439Y-38051D01*
X-154461Y-38059D01*
X-154486Y-38068D01*
X-154515Y-38076D01*
X-154547Y-38084D01*
X-154583Y-38091D01*
X-154622Y-38098D01*
X-154663Y-38102D01*
X-154709Y-38105D01*
X-154758Y-38107D01*
X-154759D01*
X-154765D01*
X-154774D01*
X-154785D01*
X-154801Y-38105D01*
X-154817D01*
X-154835Y-38104D01*
X-154856Y-38102D01*
X-154899Y-38098D01*
X-154945Y-38091D01*
X-154991Y-38083D01*
X-155011Y-38077D01*
X-155032Y-38072D01*
X-155034D01*
X-155036Y-38071D01*
X-155042Y-38068D01*
X-155049Y-38065D01*
X-155059Y-38062D01*
X-155068Y-38057D01*
X-155092Y-38046D01*
X-155117Y-38032D01*
X-155143Y-38014D01*
X-155170Y-37993D01*
X-155192Y-37968D01*
Y-37967D01*
X-155195Y-37965D01*
X-155197Y-37961D01*
X-155200Y-37955D01*
X-155206Y-37948D01*
X-155210Y-37940D01*
X-155221Y-37919D01*
X-155231Y-37894D01*
X-155240Y-37865D01*
X-155246Y-37831D01*
X-155249Y-37793D01*
Y-37781D01*
X-155247Y-37765D01*
X-155244Y-37747D01*
X-155240Y-37727D01*
X-155235Y-37704D01*
X-155228Y-37681D01*
X-155217Y-37659D01*
Y-37657D01*
X-155215Y-37656D01*
X-155211Y-37649D01*
X-155204Y-37638D01*
X-155195Y-37624D01*
X-155181Y-37609D01*
X-155165Y-37592D01*
X-155147Y-37577D01*
X-155127Y-37562D01*
X-155124Y-37560D01*
X-155117Y-37555D01*
X-155104Y-37549D01*
X-155086Y-37539D01*
X-155066Y-37531D01*
X-155042Y-37520D01*
X-155014Y-37510D01*
X-154984Y-37502D01*
X-154982D01*
X-154980Y-37501D01*
X-154975Y-37499D01*
X-154968Y-37498D01*
X-154960Y-37496D01*
X-154950Y-37495D01*
X-154938Y-37492D01*
X-154924Y-37491D01*
X-154909Y-37488D01*
X-154892Y-37487D01*
X-154873Y-37485D01*
X-154853Y-37483D01*
X-154831Y-37481D01*
X-154809D01*
X-154784Y-37480D01*
X-154758D01*
X-154756D01*
X-154751D01*
X-154741D01*
X-154730D01*
X-154715Y-37481D01*
D02*
G37*
G36*
X-154285Y-38413D02*
X-154419D01*
Y-38279D01*
X-154285D01*
Y-38413D01*
D02*
G37*
G36*
X-154515Y-38731D02*
X-154285D01*
Y-38849D01*
X-154515D01*
Y-39266D01*
X-154623D01*
X-155244Y-38826D01*
Y-38731D01*
X-154623D01*
Y-38600D01*
X-154515D01*
Y-38731D01*
D02*
G37*
G36*
X-154738Y-39342D02*
X-154720D01*
X-154699Y-39344D01*
X-154679Y-39346D01*
X-154631Y-39351D01*
X-154582Y-39358D01*
X-154534Y-39367D01*
X-154511Y-39374D01*
X-154490Y-39381D01*
X-154489D01*
X-154486Y-39382D01*
X-154480Y-39385D01*
X-154472Y-39388D01*
X-154464Y-39392D01*
X-154453Y-39398D01*
X-154429Y-39412D01*
X-154403Y-39428D01*
X-154375Y-39448D01*
X-154349Y-39473D01*
X-154325Y-39500D01*
Y-39502D01*
X-154322Y-39505D01*
X-154319Y-39509D01*
X-154317Y-39514D01*
X-154312Y-39523D01*
X-154307Y-39531D01*
X-154301Y-39542D01*
X-154297Y-39553D01*
X-154286Y-39579D01*
X-154276Y-39611D01*
X-154271Y-39646D01*
X-154268Y-39685D01*
Y-39696D01*
X-154270Y-39703D01*
Y-39713D01*
X-154271Y-39724D01*
X-154276Y-39750D01*
X-154283Y-39779D01*
X-154294Y-39810D01*
X-154310Y-39840D01*
X-154319Y-39855D01*
X-154331Y-39869D01*
X-154332Y-39871D01*
X-154333Y-39872D01*
X-154337Y-39876D01*
X-154342Y-39880D01*
X-154349Y-39886D01*
X-154357Y-39893D01*
X-154376Y-39907D01*
X-154401Y-39921D01*
X-154432Y-39934D01*
X-154466Y-39946D01*
X-154507Y-39954D01*
X-154516Y-39840D01*
X-154515D01*
X-154512Y-39839D01*
X-154509D01*
X-154504Y-39837D01*
X-154489Y-39833D01*
X-154472Y-39828D01*
X-154453Y-39821D01*
X-154433Y-39811D01*
X-154415Y-39800D01*
X-154400Y-39786D01*
X-154398Y-39785D01*
X-154394Y-39779D01*
X-154389Y-39769D01*
X-154383Y-39758D01*
X-154376Y-39743D01*
X-154371Y-39725D01*
X-154367Y-39704D01*
X-154365Y-39682D01*
Y-39672D01*
X-154367Y-39663D01*
X-154368Y-39650D01*
X-154371Y-39635D01*
X-154375Y-39620D01*
X-154380Y-39603D01*
X-154389Y-39588D01*
X-154390Y-39586D01*
X-154393Y-39581D01*
X-154398Y-39572D01*
X-154407Y-39564D01*
X-154417Y-39553D01*
X-154428Y-39542D01*
X-154440Y-39531D01*
X-154455Y-39520D01*
X-154457Y-39518D01*
X-154464Y-39516D01*
X-154473Y-39510D01*
X-154486Y-39505D01*
X-154502Y-39498D01*
X-154522Y-39491D01*
X-154544Y-39484D01*
X-154569Y-39477D01*
X-154570D01*
X-154572Y-39475D01*
X-154576D01*
X-154582Y-39474D01*
X-154595Y-39471D01*
X-154613Y-39467D01*
X-154636Y-39464D01*
X-154659Y-39462D01*
X-154686Y-39460D01*
X-154713Y-39459D01*
X-154715D01*
X-154719D01*
X-154726D01*
X-154737D01*
X-154734Y-39460D01*
X-154727Y-39466D01*
X-154717Y-39474D01*
X-154704Y-39484D01*
X-154690Y-39498D01*
X-154674Y-39514D01*
X-154659Y-39534D01*
X-154645Y-39556D01*
X-154644Y-39559D01*
X-154640Y-39567D01*
X-154634Y-39579D01*
X-154629Y-39595D01*
X-154622Y-39615D01*
X-154616Y-39638D01*
X-154612Y-39663D01*
X-154611Y-39689D01*
Y-39700D01*
X-154612Y-39708D01*
X-154613Y-39719D01*
X-154615Y-39731D01*
X-154618Y-39744D01*
X-154622Y-39758D01*
X-154631Y-39790D01*
X-154638Y-39807D01*
X-154647Y-39823D01*
X-154656Y-39842D01*
X-154669Y-39858D01*
X-154681Y-39875D01*
X-154697Y-39890D01*
X-154698Y-39891D01*
X-154701Y-39894D01*
X-154705Y-39897D01*
X-154712Y-39903D01*
X-154722Y-39909D01*
X-154731Y-39916D01*
X-154744Y-39923D01*
X-154758Y-39930D01*
X-154773Y-39939D01*
X-154790Y-39946D01*
X-154809Y-39952D01*
X-154828Y-39959D01*
X-154851Y-39965D01*
X-154874Y-39968D01*
X-154898Y-39971D01*
X-154924Y-39972D01*
X-154925D01*
X-154931D01*
X-154938D01*
X-154948Y-39971D01*
X-154960Y-39969D01*
X-154975Y-39968D01*
X-154991Y-39965D01*
X-155009Y-39961D01*
X-155045Y-39951D01*
X-155064Y-39944D01*
X-155085Y-39936D01*
X-155104Y-39926D01*
X-155122Y-39914D01*
X-155142Y-39901D01*
X-155158Y-39886D01*
X-155160Y-39885D01*
X-155163Y-39882D01*
X-155167Y-39878D01*
X-155172Y-39871D01*
X-155179Y-39862D01*
X-155188Y-39851D01*
X-155195Y-39840D01*
X-155204Y-39826D01*
X-155213Y-39812D01*
X-155219Y-39796D01*
X-155235Y-39758D01*
X-155240Y-39739D01*
X-155244Y-39717D01*
X-155247Y-39695D01*
X-155249Y-39671D01*
Y-39661D01*
X-155247Y-39654D01*
Y-39647D01*
X-155246Y-39638D01*
X-155242Y-39614D01*
X-155236Y-39588D01*
X-155226Y-39559D01*
X-155214Y-39529D01*
X-155197Y-39500D01*
Y-39499D01*
X-155195Y-39498D01*
X-155192Y-39493D01*
X-155188Y-39488D01*
X-155176Y-39474D01*
X-155161Y-39456D01*
X-155140Y-39438D01*
X-155115Y-39417D01*
X-155086Y-39399D01*
X-155053Y-39382D01*
X-155052D01*
X-155049Y-39381D01*
X-155043Y-39378D01*
X-155036Y-39376D01*
X-155027Y-39373D01*
X-155014Y-39369D01*
X-155000Y-39366D01*
X-154985Y-39362D01*
X-154967Y-39358D01*
X-154946Y-39353D01*
X-154924Y-39351D01*
X-154901Y-39348D01*
X-154874Y-39345D01*
X-154846Y-39342D01*
X-154816Y-39341D01*
X-154784D01*
X-154783D01*
X-154776D01*
X-154766D01*
X-154753D01*
X-154738Y-39342D01*
D02*
G37*
G36*
X-429Y-87625D02*
X-411Y-87628D01*
X-389Y-87632D01*
X-364Y-87639D01*
X-339Y-87647D01*
X-314Y-87659D01*
X-313D01*
X-312Y-87660D01*
X-303Y-87664D01*
X-291Y-87672D01*
X-277Y-87682D01*
X-260Y-87696D01*
X-244Y-87711D01*
X-227Y-87729D01*
X-213Y-87750D01*
X-212Y-87753D01*
X-208Y-87760D01*
X-202Y-87772D01*
X-195Y-87788D01*
X-188Y-87806D01*
X-183Y-87826D01*
X-178Y-87850D01*
X-177Y-87874D01*
Y-87876D01*
Y-87885D01*
X-178Y-87896D01*
X-181Y-87911D01*
X-185Y-87929D01*
X-192Y-87948D01*
X-201Y-87968D01*
X-212Y-87987D01*
X-213Y-87990D01*
X-217Y-87996D01*
X-226Y-88005D01*
X-237Y-88016D01*
X-251Y-88029D01*
X-267Y-88043D01*
X-287Y-88055D01*
X-310Y-88068D01*
X-309D01*
X-306Y-88069D01*
X-302Y-88070D01*
X-296Y-88072D01*
X-281Y-88077D01*
X-262Y-88086D01*
X-239Y-88097D01*
X-217Y-88111D01*
X-196Y-88129D01*
X-177Y-88149D01*
X-176Y-88152D01*
X-170Y-88161D01*
X-162Y-88174D01*
X-153Y-88192D01*
X-145Y-88215D01*
X-137Y-88241D01*
X-131Y-88272D01*
X-130Y-88305D01*
Y-88306D01*
Y-88310D01*
Y-88317D01*
X-131Y-88326D01*
X-133Y-88337D01*
X-135Y-88349D01*
X-138Y-88363D01*
X-141Y-88378D01*
X-152Y-88412D01*
X-160Y-88430D01*
X-169Y-88446D01*
X-180Y-88464D01*
X-192Y-88482D01*
X-206Y-88500D01*
X-223Y-88517D01*
X-224Y-88518D01*
X-227Y-88521D01*
X-233Y-88525D01*
X-239Y-88531D01*
X-248Y-88538D01*
X-259Y-88545D01*
X-271Y-88553D01*
X-287Y-88560D01*
X-302Y-88568D01*
X-320Y-88577D01*
X-338Y-88584D01*
X-359Y-88591D01*
X-381Y-88596D01*
X-404Y-88600D01*
X-428Y-88603D01*
X-454Y-88604D01*
X-467D01*
X-475Y-88603D01*
X-486Y-88602D01*
X-499Y-88600D01*
X-513Y-88597D01*
X-528Y-88595D01*
X-561Y-88586D01*
X-596Y-88572D01*
X-614Y-88564D01*
X-631Y-88554D01*
X-647Y-88542D01*
X-664Y-88530D01*
X-665Y-88528D01*
X-668Y-88525D01*
X-672Y-88521D01*
X-676Y-88516D01*
X-683Y-88509D01*
X-690Y-88499D01*
X-698Y-88489D01*
X-707Y-88477D01*
X-715Y-88463D01*
X-723Y-88449D01*
X-739Y-88416D01*
X-751Y-88377D01*
X-755Y-88356D01*
X-758Y-88334D01*
X-640Y-88319D01*
Y-88320D01*
X-639Y-88323D01*
X-637Y-88328D01*
X-636Y-88335D01*
X-635Y-88344D01*
X-632Y-88353D01*
X-625Y-88374D01*
X-615Y-88399D01*
X-603Y-88423D01*
X-589Y-88445D01*
X-572Y-88464D01*
X-570Y-88466D01*
X-564Y-88471D01*
X-553Y-88478D01*
X-539Y-88485D01*
X-522Y-88493D01*
X-502Y-88500D01*
X-478Y-88506D01*
X-453Y-88507D01*
X-445D01*
X-439Y-88506D01*
X-424Y-88505D01*
X-404Y-88500D01*
X-382Y-88493D01*
X-359Y-88484D01*
X-335Y-88470D01*
X-313Y-88450D01*
X-310Y-88448D01*
X-303Y-88439D01*
X-295Y-88427D01*
X-284Y-88410D01*
X-273Y-88389D01*
X-264Y-88366D01*
X-257Y-88338D01*
X-255Y-88308D01*
Y-88306D01*
Y-88303D01*
Y-88299D01*
X-256Y-88294D01*
X-257Y-88278D01*
X-262Y-88260D01*
X-267Y-88238D01*
X-277Y-88216D01*
X-291Y-88194D01*
X-309Y-88173D01*
X-312Y-88170D01*
X-318Y-88165D01*
X-330Y-88156D01*
X-345Y-88147D01*
X-364Y-88137D01*
X-388Y-88129D01*
X-414Y-88123D01*
X-443Y-88120D01*
X-456D01*
X-465Y-88122D01*
X-478Y-88123D01*
X-492Y-88126D01*
X-508Y-88129D01*
X-527Y-88133D01*
X-513Y-88029D01*
X-506D01*
X-500Y-88030D01*
X-482D01*
X-467Y-88027D01*
X-449Y-88025D01*
X-428Y-88021D01*
X-404Y-88014D01*
X-382Y-88004D01*
X-359Y-87991D01*
X-357D01*
X-356Y-87990D01*
X-349Y-87984D01*
X-339Y-87975D01*
X-328Y-87962D01*
X-317Y-87944D01*
X-307Y-87923D01*
X-300Y-87900D01*
X-298Y-87886D01*
Y-87871D01*
Y-87869D01*
Y-87868D01*
Y-87860D01*
X-300Y-87849D01*
X-303Y-87833D01*
X-309Y-87817D01*
X-316Y-87799D01*
X-327Y-87781D01*
X-342Y-87764D01*
X-343Y-87763D01*
X-350Y-87757D01*
X-360Y-87750D01*
X-373Y-87742D01*
X-389Y-87735D01*
X-409Y-87728D01*
X-431Y-87722D01*
X-456Y-87721D01*
X-467D01*
X-479Y-87724D01*
X-496Y-87727D01*
X-514Y-87732D01*
X-532Y-87739D01*
X-551Y-87750D01*
X-570Y-87764D01*
X-571Y-87765D01*
X-576Y-87772D01*
X-585Y-87782D01*
X-594Y-87796D01*
X-604Y-87814D01*
X-614Y-87836D01*
X-622Y-87862D01*
X-628Y-87893D01*
X-746Y-87872D01*
Y-87871D01*
X-744Y-87867D01*
X-743Y-87861D01*
X-741Y-87853D01*
X-739Y-87843D01*
X-735Y-87832D01*
X-726Y-87806D01*
X-712Y-87775D01*
X-696Y-87745D01*
X-675Y-87715D01*
X-649Y-87689D01*
X-647Y-87688D01*
X-644Y-87686D01*
X-640Y-87684D01*
X-635Y-87679D01*
X-628Y-87674D01*
X-618Y-87668D01*
X-608Y-87663D01*
X-596Y-87656D01*
X-568Y-87645D01*
X-536Y-87634D01*
X-499Y-87627D01*
X-479Y-87624D01*
X-445D01*
X-429Y-87625D01*
D02*
G37*
G36*
X-1922D02*
X-1904Y-87628D01*
X-1881Y-87632D01*
X-1857Y-87639D01*
X-1832Y-87647D01*
X-1807Y-87659D01*
X-1805D01*
X-1804Y-87660D01*
X-1795Y-87664D01*
X-1783Y-87672D01*
X-1769Y-87682D01*
X-1752Y-87696D01*
X-1736Y-87711D01*
X-1719Y-87729D01*
X-1705Y-87750D01*
X-1704Y-87753D01*
X-1700Y-87760D01*
X-1694Y-87772D01*
X-1687Y-87788D01*
X-1680Y-87806D01*
X-1675Y-87826D01*
X-1671Y-87850D01*
X-1669Y-87874D01*
Y-87876D01*
Y-87885D01*
X-1671Y-87896D01*
X-1673Y-87911D01*
X-1678Y-87929D01*
X-1685Y-87948D01*
X-1693Y-87968D01*
X-1704Y-87987D01*
X-1705Y-87990D01*
X-1709Y-87996D01*
X-1718Y-88005D01*
X-1729Y-88016D01*
X-1743Y-88029D01*
X-1759Y-88043D01*
X-1779Y-88055D01*
X-1802Y-88068D01*
X-1801D01*
X-1798Y-88069D01*
X-1794Y-88070D01*
X-1789Y-88072D01*
X-1773Y-88077D01*
X-1754Y-88086D01*
X-1732Y-88097D01*
X-1709Y-88111D01*
X-1689Y-88129D01*
X-1669Y-88149D01*
X-1668Y-88152D01*
X-1662Y-88161D01*
X-1654Y-88174D01*
X-1646Y-88192D01*
X-1637Y-88215D01*
X-1629Y-88241D01*
X-1624Y-88272D01*
X-1622Y-88305D01*
Y-88306D01*
Y-88310D01*
Y-88317D01*
X-1624Y-88326D01*
X-1625Y-88337D01*
X-1628Y-88349D01*
X-1630Y-88363D01*
X-1633Y-88378D01*
X-1644Y-88412D01*
X-1653Y-88430D01*
X-1661Y-88446D01*
X-1672Y-88464D01*
X-1685Y-88482D01*
X-1698Y-88500D01*
X-1715Y-88517D01*
X-1716Y-88518D01*
X-1719Y-88521D01*
X-1725Y-88525D01*
X-1732Y-88531D01*
X-1740Y-88538D01*
X-1751Y-88545D01*
X-1764Y-88553D01*
X-1779Y-88560D01*
X-1794Y-88568D01*
X-1812Y-88577D01*
X-1830Y-88584D01*
X-1851Y-88591D01*
X-1873Y-88596D01*
X-1897Y-88600D01*
X-1920Y-88603D01*
X-1947Y-88604D01*
X-1959D01*
X-1967Y-88603D01*
X-1979Y-88602D01*
X-1991Y-88600D01*
X-2005Y-88597D01*
X-2020Y-88595D01*
X-2053Y-88586D01*
X-2088Y-88572D01*
X-2106Y-88564D01*
X-2123Y-88554D01*
X-2139Y-88542D01*
X-2156Y-88530D01*
X-2157Y-88528D01*
X-2160Y-88525D01*
X-2164Y-88521D01*
X-2169Y-88516D01*
X-2175Y-88509D01*
X-2182Y-88499D01*
X-2191Y-88489D01*
X-2199Y-88477D01*
X-2207Y-88463D01*
X-2216Y-88449D01*
X-2231Y-88416D01*
X-2243Y-88377D01*
X-2248Y-88356D01*
X-2250Y-88334D01*
X-2132Y-88319D01*
Y-88320D01*
X-2131Y-88323D01*
X-2130Y-88328D01*
X-2128Y-88335D01*
X-2127Y-88344D01*
X-2124Y-88353D01*
X-2117Y-88374D01*
X-2108Y-88399D01*
X-2095Y-88423D01*
X-2081Y-88445D01*
X-2065Y-88464D01*
X-2062Y-88466D01*
X-2056Y-88471D01*
X-2045Y-88478D01*
X-2031Y-88485D01*
X-2015Y-88493D01*
X-1994Y-88500D01*
X-1970Y-88506D01*
X-1945Y-88507D01*
X-1937D01*
X-1931Y-88506D01*
X-1916Y-88505D01*
X-1897Y-88500D01*
X-1875Y-88493D01*
X-1851Y-88484D01*
X-1827Y-88470D01*
X-1805Y-88450D01*
X-1802Y-88448D01*
X-1795Y-88439D01*
X-1787Y-88427D01*
X-1776Y-88410D01*
X-1765Y-88389D01*
X-1757Y-88366D01*
X-1750Y-88338D01*
X-1747Y-88308D01*
Y-88306D01*
Y-88303D01*
Y-88299D01*
X-1748Y-88294D01*
X-1750Y-88278D01*
X-1754Y-88260D01*
X-1759Y-88238D01*
X-1769Y-88216D01*
X-1783Y-88194D01*
X-1801Y-88173D01*
X-1804Y-88170D01*
X-1811Y-88165D01*
X-1822Y-88156D01*
X-1837Y-88147D01*
X-1857Y-88137D01*
X-1880Y-88129D01*
X-1906Y-88123D01*
X-1936Y-88120D01*
X-1948D01*
X-1958Y-88122D01*
X-1970Y-88123D01*
X-1984Y-88126D01*
X-2001Y-88129D01*
X-2019Y-88133D01*
X-2005Y-88029D01*
X-1998D01*
X-1992Y-88030D01*
X-1974D01*
X-1959Y-88027D01*
X-1941Y-88025D01*
X-1920Y-88021D01*
X-1897Y-88014D01*
X-1875Y-88004D01*
X-1851Y-87991D01*
X-1850D01*
X-1848Y-87990D01*
X-1841Y-87984D01*
X-1832Y-87975D01*
X-1820Y-87962D01*
X-1809Y-87944D01*
X-1800Y-87923D01*
X-1793Y-87900D01*
X-1790Y-87886D01*
Y-87871D01*
Y-87869D01*
Y-87868D01*
Y-87860D01*
X-1793Y-87849D01*
X-1795Y-87833D01*
X-1801Y-87817D01*
X-1808Y-87799D01*
X-1819Y-87781D01*
X-1834Y-87764D01*
X-1836Y-87763D01*
X-1843Y-87757D01*
X-1852Y-87750D01*
X-1865Y-87742D01*
X-1881Y-87735D01*
X-1901Y-87728D01*
X-1923Y-87722D01*
X-1948Y-87721D01*
X-1959D01*
X-1972Y-87724D01*
X-1988Y-87727D01*
X-2006Y-87732D01*
X-2024Y-87739D01*
X-2044Y-87750D01*
X-2062Y-87764D01*
X-2063Y-87765D01*
X-2069Y-87772D01*
X-2077Y-87782D01*
X-2087Y-87796D01*
X-2096Y-87814D01*
X-2106Y-87836D01*
X-2114Y-87862D01*
X-2120Y-87893D01*
X-2238Y-87872D01*
Y-87871D01*
X-2236Y-87867D01*
X-2235Y-87861D01*
X-2234Y-87853D01*
X-2231Y-87843D01*
X-2227Y-87832D01*
X-2218Y-87806D01*
X-2205Y-87775D01*
X-2188Y-87745D01*
X-2167Y-87715D01*
X-2141Y-87689D01*
X-2139Y-87688D01*
X-2137Y-87686D01*
X-2132Y-87684D01*
X-2127Y-87679D01*
X-2120Y-87674D01*
X-2110Y-87668D01*
X-2101Y-87663D01*
X-2088Y-87656D01*
X-2060Y-87645D01*
X-2028Y-87634D01*
X-1991Y-87627D01*
X-1972Y-87624D01*
X-1937D01*
X-1922Y-87625D01*
D02*
G37*
G36*
X1697Y-87753D02*
X1312D01*
X1261Y-88012D01*
X1263Y-88011D01*
X1265Y-88009D01*
X1269Y-88007D01*
X1276Y-88003D01*
X1285Y-87998D01*
X1294Y-87993D01*
X1317Y-87982D01*
X1344Y-87971D01*
X1375Y-87961D01*
X1408Y-87954D01*
X1425Y-87951D01*
X1455D01*
X1464Y-87953D01*
X1475Y-87954D01*
X1487Y-87955D01*
X1501Y-87958D01*
X1516Y-87962D01*
X1550Y-87972D01*
X1568Y-87979D01*
X1586Y-87989D01*
X1604Y-87998D01*
X1622Y-88009D01*
X1638Y-88023D01*
X1655Y-88039D01*
X1656Y-88040D01*
X1659Y-88043D01*
X1663Y-88047D01*
X1669Y-88054D01*
X1676Y-88064D01*
X1683Y-88073D01*
X1691Y-88086D01*
X1699Y-88100D01*
X1706Y-88115D01*
X1715Y-88131D01*
X1722Y-88151D01*
X1728Y-88170D01*
X1734Y-88191D01*
X1738Y-88215D01*
X1741Y-88238D01*
X1742Y-88263D01*
Y-88265D01*
Y-88269D01*
Y-88276D01*
X1741Y-88285D01*
X1740Y-88297D01*
X1738Y-88309D01*
X1735Y-88324D01*
X1733Y-88340D01*
X1724Y-88376D01*
X1710Y-88413D01*
X1702Y-88432D01*
X1691Y-88450D01*
X1680Y-88470D01*
X1666Y-88488D01*
X1665Y-88489D01*
X1662Y-88493D01*
X1656Y-88499D01*
X1649Y-88506D01*
X1640Y-88514D01*
X1629Y-88525D01*
X1615Y-88535D01*
X1600Y-88546D01*
X1583Y-88557D01*
X1563Y-88567D01*
X1543Y-88577D01*
X1520Y-88586D01*
X1497Y-88593D01*
X1471Y-88599D01*
X1443Y-88603D01*
X1414Y-88604D01*
X1401D01*
X1391Y-88603D01*
X1380Y-88602D01*
X1368Y-88600D01*
X1353Y-88599D01*
X1337Y-88595D01*
X1303Y-88586D01*
X1268Y-88574D01*
X1250Y-88566D01*
X1232Y-88556D01*
X1215Y-88545D01*
X1199Y-88532D01*
X1197Y-88531D01*
X1195Y-88530D01*
X1192Y-88524D01*
X1186Y-88518D01*
X1179Y-88511D01*
X1172Y-88503D01*
X1164Y-88492D01*
X1157Y-88480D01*
X1149Y-88467D01*
X1140Y-88452D01*
X1125Y-88419D01*
X1113Y-88380D01*
X1109Y-88359D01*
X1106Y-88337D01*
X1229Y-88327D01*
Y-88328D01*
Y-88331D01*
X1231Y-88335D01*
X1232Y-88342D01*
X1236Y-88358D01*
X1242Y-88378D01*
X1250Y-88399D01*
X1261Y-88423D01*
X1275Y-88444D01*
X1292Y-88463D01*
X1294Y-88464D01*
X1300Y-88470D01*
X1311Y-88477D01*
X1326Y-88485D01*
X1343Y-88493D01*
X1364Y-88500D01*
X1387Y-88506D01*
X1414Y-88507D01*
X1422D01*
X1428Y-88506D01*
X1444Y-88505D01*
X1464Y-88499D01*
X1487Y-88492D01*
X1511Y-88481D01*
X1536Y-88464D01*
X1547Y-88455D01*
X1558Y-88444D01*
X1559Y-88442D01*
X1561Y-88441D01*
X1563Y-88437D01*
X1568Y-88432D01*
X1577Y-88417D01*
X1588Y-88398D01*
X1598Y-88374D01*
X1608Y-88345D01*
X1615Y-88310D01*
X1618Y-88292D01*
Y-88273D01*
Y-88272D01*
Y-88269D01*
Y-88263D01*
X1616Y-88256D01*
Y-88248D01*
X1615Y-88238D01*
X1611Y-88216D01*
X1604Y-88190D01*
X1594Y-88163D01*
X1580Y-88138D01*
X1561Y-88115D01*
Y-88113D01*
X1558Y-88112D01*
X1551Y-88105D01*
X1538Y-88095D01*
X1522Y-88084D01*
X1500Y-88075D01*
X1475Y-88065D01*
X1446Y-88058D01*
X1429Y-88055D01*
X1403D01*
X1391Y-88057D01*
X1378Y-88058D01*
X1361Y-88062D01*
X1344Y-88066D01*
X1326Y-88073D01*
X1308Y-88082D01*
X1307Y-88083D01*
X1301Y-88086D01*
X1293Y-88093D01*
X1282Y-88100D01*
X1271Y-88109D01*
X1260Y-88122D01*
X1247Y-88134D01*
X1238Y-88149D01*
X1127Y-88134D01*
X1220Y-87641D01*
X1697D01*
Y-87753D01*
D02*
G37*
G36*
X950D02*
X566D01*
X515Y-88012D01*
X516Y-88011D01*
X519Y-88009D01*
X523Y-88007D01*
X530Y-88003D01*
X539Y-87998D01*
X548Y-87993D01*
X570Y-87982D01*
X598Y-87971D01*
X629Y-87961D01*
X662Y-87954D01*
X679Y-87951D01*
X709D01*
X717Y-87953D01*
X729Y-87954D01*
X741Y-87955D01*
X755Y-87958D01*
X770Y-87962D01*
X803Y-87972D01*
X821Y-87979D01*
X840Y-87989D01*
X858Y-87998D01*
X876Y-88009D01*
X892Y-88023D01*
X909Y-88039D01*
X910Y-88040D01*
X913Y-88043D01*
X917Y-88047D01*
X923Y-88054D01*
X930Y-88064D01*
X937Y-88073D01*
X945Y-88086D01*
X953Y-88100D01*
X960Y-88115D01*
X969Y-88131D01*
X975Y-88151D01*
X982Y-88170D01*
X988Y-88191D01*
X992Y-88215D01*
X995Y-88238D01*
X996Y-88263D01*
Y-88265D01*
Y-88269D01*
Y-88276D01*
X995Y-88285D01*
X993Y-88297D01*
X992Y-88309D01*
X989Y-88324D01*
X987Y-88340D01*
X978Y-88376D01*
X964Y-88413D01*
X956Y-88432D01*
X945Y-88450D01*
X934Y-88470D01*
X920Y-88488D01*
X919Y-88489D01*
X916Y-88493D01*
X910Y-88499D01*
X903Y-88506D01*
X894Y-88514D01*
X883Y-88525D01*
X869Y-88535D01*
X853Y-88546D01*
X837Y-88557D01*
X817Y-88567D01*
X797Y-88577D01*
X774Y-88586D01*
X751Y-88593D01*
X724Y-88599D01*
X697Y-88603D01*
X668Y-88604D01*
X655D01*
X645Y-88603D01*
X634Y-88602D01*
X622Y-88600D01*
X607Y-88599D01*
X591Y-88595D01*
X557Y-88586D01*
X522Y-88574D01*
X504Y-88566D01*
X486Y-88556D01*
X469Y-88545D01*
X453Y-88532D01*
X451Y-88531D01*
X448Y-88530D01*
X446Y-88524D01*
X440Y-88518D01*
X433Y-88511D01*
X426Y-88503D01*
X418Y-88492D01*
X411Y-88480D01*
X403Y-88467D01*
X394Y-88452D01*
X379Y-88419D01*
X367Y-88380D01*
X362Y-88359D01*
X360Y-88337D01*
X483Y-88327D01*
Y-88328D01*
Y-88331D01*
X484Y-88335D01*
X486Y-88342D01*
X490Y-88358D01*
X496Y-88378D01*
X504Y-88399D01*
X515Y-88423D01*
X529Y-88444D01*
X546Y-88463D01*
X548Y-88464D01*
X554Y-88470D01*
X565Y-88477D01*
X580Y-88485D01*
X597Y-88493D01*
X618Y-88500D01*
X641Y-88506D01*
X668Y-88507D01*
X676D01*
X681Y-88506D01*
X698Y-88505D01*
X717Y-88499D01*
X741Y-88492D01*
X765Y-88481D01*
X790Y-88464D01*
X801Y-88455D01*
X812Y-88444D01*
X813Y-88442D01*
X815Y-88441D01*
X817Y-88437D01*
X821Y-88432D01*
X831Y-88417D01*
X842Y-88398D01*
X852Y-88374D01*
X862Y-88345D01*
X869Y-88310D01*
X871Y-88292D01*
Y-88273D01*
Y-88272D01*
Y-88269D01*
Y-88263D01*
X870Y-88256D01*
Y-88248D01*
X869Y-88238D01*
X864Y-88216D01*
X858Y-88190D01*
X848Y-88163D01*
X834Y-88138D01*
X815Y-88115D01*
Y-88113D01*
X812Y-88112D01*
X805Y-88105D01*
X792Y-88095D01*
X776Y-88084D01*
X754Y-88075D01*
X729Y-88065D01*
X699Y-88058D01*
X683Y-88055D01*
X656D01*
X645Y-88057D01*
X631Y-88058D01*
X615Y-88062D01*
X598Y-88066D01*
X580Y-88073D01*
X562Y-88082D01*
X561Y-88083D01*
X555Y-88086D01*
X547Y-88093D01*
X536Y-88100D01*
X525Y-88109D01*
X514Y-88122D01*
X501Y-88134D01*
X491Y-88149D01*
X380Y-88134D01*
X473Y-87641D01*
X950D01*
Y-87753D01*
D02*
G37*
G36*
X188Y-88588D02*
X53D01*
Y-88453D01*
X188D01*
Y-88588D01*
D02*
G37*
G36*
X-1164Y-87625D02*
X-1146Y-87628D01*
X-1126Y-87632D01*
X-1103Y-87638D01*
X-1080Y-87645D01*
X-1058Y-87656D01*
X-1056D01*
X-1055Y-87657D01*
X-1048Y-87661D01*
X-1037Y-87668D01*
X-1023Y-87678D01*
X-1008Y-87692D01*
X-991Y-87707D01*
X-976Y-87725D01*
X-961Y-87746D01*
X-959Y-87749D01*
X-954Y-87756D01*
X-948Y-87768D01*
X-938Y-87786D01*
X-930Y-87807D01*
X-919Y-87831D01*
X-909Y-87858D01*
X-901Y-87889D01*
Y-87890D01*
X-900Y-87893D01*
X-898Y-87897D01*
X-897Y-87904D01*
X-895Y-87912D01*
X-894Y-87922D01*
X-891Y-87935D01*
X-890Y-87948D01*
X-887Y-87964D01*
X-886Y-87980D01*
X-884Y-88000D01*
X-882Y-88019D01*
X-880Y-88041D01*
Y-88064D01*
X-879Y-88088D01*
Y-88115D01*
Y-88116D01*
Y-88122D01*
Y-88131D01*
Y-88143D01*
X-880Y-88158D01*
Y-88174D01*
X-882Y-88192D01*
X-883Y-88212D01*
X-887Y-88256D01*
X-894Y-88302D01*
X-902Y-88346D01*
X-908Y-88367D01*
X-915Y-88388D01*
Y-88389D01*
X-916Y-88392D01*
X-919Y-88398D01*
X-922Y-88405D01*
X-925Y-88414D01*
X-930Y-88424D01*
X-941Y-88448D01*
X-955Y-88473D01*
X-973Y-88500D01*
X-994Y-88525D01*
X-1019Y-88549D01*
X-1020D01*
X-1022Y-88552D01*
X-1026Y-88554D01*
X-1031Y-88557D01*
X-1038Y-88561D01*
X-1045Y-88567D01*
X-1066Y-88577D01*
X-1091Y-88586D01*
X-1120Y-88596D01*
X-1155Y-88602D01*
X-1192Y-88604D01*
X-1206D01*
X-1216Y-88603D01*
X-1227Y-88602D01*
X-1241Y-88599D01*
X-1256Y-88596D01*
X-1273Y-88592D01*
X-1289Y-88586D01*
X-1307Y-88581D01*
X-1325Y-88572D01*
X-1343Y-88563D01*
X-1361Y-88552D01*
X-1379Y-88538D01*
X-1396Y-88523D01*
X-1411Y-88506D01*
X-1413Y-88505D01*
X-1415Y-88500D01*
X-1420Y-88493D01*
X-1427Y-88482D01*
X-1434Y-88470D01*
X-1440Y-88453D01*
X-1450Y-88434D01*
X-1458Y-88412D01*
X-1467Y-88387D01*
X-1475Y-88358D01*
X-1483Y-88326D01*
X-1490Y-88290D01*
X-1497Y-88251D01*
X-1501Y-88209D01*
X-1504Y-88163D01*
X-1506Y-88115D01*
Y-88113D01*
Y-88108D01*
Y-88098D01*
Y-88087D01*
X-1504Y-88072D01*
Y-88055D01*
X-1503Y-88037D01*
X-1501Y-88016D01*
X-1497Y-87973D01*
X-1490Y-87928D01*
X-1482Y-87882D01*
X-1477Y-87861D01*
X-1471Y-87840D01*
Y-87839D01*
X-1470Y-87836D01*
X-1467Y-87831D01*
X-1464Y-87824D01*
X-1461Y-87814D01*
X-1456Y-87804D01*
X-1445Y-87781D01*
X-1431Y-87756D01*
X-1413Y-87729D01*
X-1392Y-87703D01*
X-1367Y-87681D01*
X-1366D01*
X-1364Y-87678D01*
X-1360Y-87675D01*
X-1354Y-87672D01*
X-1348Y-87667D01*
X-1339Y-87663D01*
X-1318Y-87652D01*
X-1293Y-87642D01*
X-1264Y-87632D01*
X-1230Y-87627D01*
X-1192Y-87624D01*
X-1180D01*
X-1164Y-87625D01*
D02*
G37*
%LPC*%
G36*
X-105622Y12377D02*
X-105644D01*
X-105650Y12375D01*
X-105665Y12374D01*
X-105683Y12368D01*
X-105705Y12361D01*
X-105729Y12349D01*
X-105752Y12334D01*
X-105763Y12322D01*
X-105774Y12311D01*
Y12310D01*
X-105777Y12309D01*
X-105780Y12304D01*
X-105783Y12300D01*
X-105792Y12286D01*
X-105802Y12267D01*
X-105813Y12243D01*
X-105823Y12214D01*
X-105829Y12181D01*
X-105831Y12145D01*
Y12144D01*
Y12141D01*
Y12137D01*
X-105830Y12130D01*
Y12121D01*
X-105829Y12113D01*
X-105824Y12092D01*
X-105817Y12069D01*
X-105809Y12044D01*
X-105795Y12019D01*
X-105777Y11997D01*
X-105774Y11994D01*
X-105767Y11988D01*
X-105755Y11979D01*
X-105740Y11969D01*
X-105719Y11958D01*
X-105695Y11948D01*
X-105669Y11942D01*
X-105640Y11940D01*
X-105632D01*
X-105626Y11941D01*
X-105611Y11942D01*
X-105593Y11947D01*
X-105571Y11954D01*
X-105548Y11963D01*
X-105526Y11977D01*
X-105505Y11997D01*
X-105503Y11999D01*
X-105497Y12008D01*
X-105489Y12020D01*
X-105478Y12038D01*
X-105468Y12060D01*
X-105460Y12087D01*
X-105454Y12119D01*
X-105451Y12155D01*
Y12156D01*
Y12159D01*
Y12164D01*
X-105453Y12171D01*
Y12181D01*
X-105454Y12191D01*
X-105458Y12213D01*
X-105464Y12239D01*
X-105473Y12267D01*
X-105487Y12293D01*
X-105505Y12317D01*
Y12318D01*
X-105508Y12320D01*
X-105515Y12327D01*
X-105526Y12336D01*
X-105541Y12347D01*
X-105561Y12357D01*
X-105583Y12367D01*
X-105608Y12374D01*
X-105622Y12377D01*
D02*
G37*
G36*
X-104521D02*
X-104529D01*
X-104535Y12375D01*
X-104550Y12372D01*
X-104568Y12368D01*
X-104589Y12360D01*
X-104611Y12347D01*
X-104622Y12339D01*
X-104633Y12331D01*
X-104643Y12320D01*
X-104652Y12307D01*
Y12306D01*
X-104655Y12303D01*
X-104658Y12297D01*
X-104662Y12291D01*
X-104666Y12279D01*
X-104672Y12267D01*
X-104676Y12252D01*
X-104682Y12234D01*
X-104687Y12213D01*
X-104693Y12189D01*
X-104698Y12163D01*
X-104702Y12134D01*
X-104707Y12101D01*
X-104709Y12064D01*
X-104711Y12026D01*
X-104712Y11983D01*
Y11980D01*
Y11973D01*
Y11960D01*
X-104711Y11944D01*
Y11926D01*
X-104709Y11904D01*
X-104708Y11880D01*
X-104705Y11855D01*
X-104698Y11801D01*
X-104694Y11775D01*
X-104689Y11750D01*
X-104683Y11726D01*
X-104675Y11704D01*
X-104666Y11684D01*
X-104657Y11668D01*
Y11666D01*
X-104654Y11665D01*
X-104647Y11655D01*
X-104634Y11643D01*
X-104619Y11629D01*
X-104598Y11615D01*
X-104575Y11603D01*
X-104548Y11593D01*
X-104535Y11592D01*
X-104519Y11590D01*
X-104511D01*
X-104505Y11592D01*
X-104492Y11594D01*
X-104472Y11600D01*
X-104451Y11610D01*
X-104428Y11623D01*
X-104417Y11632D01*
X-104406Y11643D01*
X-104395Y11654D01*
X-104383Y11668D01*
Y11669D01*
X-104381Y11672D01*
X-104378Y11676D01*
X-104375Y11683D01*
X-104370Y11693D01*
X-104365Y11705D01*
X-104360Y11719D01*
X-104354Y11736D01*
X-104350Y11757D01*
X-104345Y11779D01*
X-104339Y11805D01*
X-104335Y11833D01*
X-104332Y11866D01*
X-104329Y11901D01*
X-104327Y11940D01*
Y11983D01*
Y11984D01*
Y11985D01*
Y11992D01*
Y12005D01*
X-104328Y12021D01*
Y12040D01*
X-104329Y12062D01*
X-104331Y12085D01*
X-104334Y12112D01*
X-104340Y12164D01*
X-104345Y12191D01*
X-104350Y12216D01*
X-104356Y12239D01*
X-104364Y12261D01*
X-104372Y12281D01*
X-104382Y12297D01*
Y12299D01*
X-104385Y12300D01*
X-104388Y12304D01*
X-104392Y12310D01*
X-104404Y12322D01*
X-104419Y12338D01*
X-104440Y12352D01*
X-104464Y12364D01*
X-104476Y12370D01*
X-104490Y12374D01*
X-104505Y12375D01*
X-104521Y12377D01*
D02*
G37*
G36*
X-154715Y-36854D02*
X-154758D01*
X-154759D01*
X-154760D01*
X-154767D01*
X-154780D01*
X-154796Y-36856D01*
X-154815D01*
X-154837Y-36857D01*
X-154860Y-36858D01*
X-154887Y-36861D01*
X-154939Y-36868D01*
X-154966Y-36872D01*
X-154991Y-36878D01*
X-155014Y-36883D01*
X-155036Y-36892D01*
X-155056Y-36900D01*
X-155072Y-36910D01*
X-155074D01*
X-155075Y-36913D01*
X-155079Y-36915D01*
X-155085Y-36919D01*
X-155097Y-36932D01*
X-155113Y-36947D01*
X-155127Y-36968D01*
X-155139Y-36992D01*
X-155145Y-37004D01*
X-155149Y-37018D01*
X-155150Y-37033D01*
X-155152Y-37048D01*
Y-37057D01*
X-155150Y-37062D01*
X-155147Y-37078D01*
X-155143Y-37096D01*
X-155135Y-37116D01*
X-155122Y-37139D01*
X-155114Y-37150D01*
X-155106Y-37161D01*
X-155095Y-37170D01*
X-155082Y-37180D01*
X-155081D01*
X-155078Y-37183D01*
X-155072Y-37186D01*
X-155066Y-37190D01*
X-155054Y-37194D01*
X-155042Y-37200D01*
X-155027Y-37204D01*
X-155009Y-37209D01*
X-154988Y-37215D01*
X-154964Y-37220D01*
X-154938Y-37226D01*
X-154909Y-37230D01*
X-154876Y-37234D01*
X-154839Y-37237D01*
X-154801Y-37238D01*
X-154758Y-37240D01*
X-154755D01*
X-154748D01*
X-154735D01*
X-154719Y-37238D01*
X-154701D01*
X-154679Y-37237D01*
X-154655Y-37236D01*
X-154630Y-37233D01*
X-154576Y-37226D01*
X-154550Y-37222D01*
X-154525Y-37216D01*
X-154501Y-37211D01*
X-154479Y-37202D01*
X-154459Y-37194D01*
X-154443Y-37184D01*
X-154441D01*
X-154440Y-37182D01*
X-154430Y-37175D01*
X-154418Y-37162D01*
X-154404Y-37147D01*
X-154390Y-37126D01*
X-154378Y-37103D01*
X-154368Y-37076D01*
X-154367Y-37062D01*
X-154365Y-37047D01*
Y-37039D01*
X-154367Y-37033D01*
X-154369Y-37019D01*
X-154375Y-37000D01*
X-154385Y-36979D01*
X-154398Y-36956D01*
X-154407Y-36944D01*
X-154418Y-36933D01*
X-154429Y-36922D01*
X-154443Y-36911D01*
X-154444D01*
X-154447Y-36908D01*
X-154451Y-36906D01*
X-154458Y-36903D01*
X-154468Y-36897D01*
X-154480Y-36893D01*
X-154494Y-36888D01*
X-154511Y-36882D01*
X-154532Y-36878D01*
X-154554Y-36872D01*
X-154580Y-36867D01*
X-154608Y-36863D01*
X-154641Y-36860D01*
X-154676Y-36857D01*
X-154715Y-36854D01*
D02*
G37*
G36*
Y-37600D02*
X-154758D01*
X-154759D01*
X-154760D01*
X-154767D01*
X-154780D01*
X-154796Y-37602D01*
X-154815D01*
X-154837Y-37603D01*
X-154860Y-37605D01*
X-154887Y-37607D01*
X-154939Y-37614D01*
X-154966Y-37618D01*
X-154991Y-37624D01*
X-155014Y-37630D01*
X-155036Y-37638D01*
X-155056Y-37646D01*
X-155072Y-37656D01*
X-155074D01*
X-155075Y-37659D01*
X-155079Y-37661D01*
X-155085Y-37666D01*
X-155097Y-37678D01*
X-155113Y-37693D01*
X-155127Y-37714D01*
X-155139Y-37738D01*
X-155145Y-37750D01*
X-155149Y-37764D01*
X-155150Y-37779D01*
X-155152Y-37795D01*
Y-37803D01*
X-155150Y-37808D01*
X-155147Y-37824D01*
X-155143Y-37842D01*
X-155135Y-37862D01*
X-155122Y-37885D01*
X-155114Y-37896D01*
X-155106Y-37907D01*
X-155095Y-37917D01*
X-155082Y-37926D01*
X-155081D01*
X-155078Y-37929D01*
X-155072Y-37932D01*
X-155066Y-37936D01*
X-155054Y-37940D01*
X-155042Y-37946D01*
X-155027Y-37950D01*
X-155009Y-37955D01*
X-154988Y-37961D01*
X-154964Y-37967D01*
X-154938Y-37972D01*
X-154909Y-37976D01*
X-154876Y-37980D01*
X-154839Y-37983D01*
X-154801Y-37985D01*
X-154758Y-37986D01*
X-154755D01*
X-154748D01*
X-154735D01*
X-154719Y-37985D01*
X-154701D01*
X-154679Y-37983D01*
X-154655Y-37982D01*
X-154630Y-37979D01*
X-154576Y-37972D01*
X-154550Y-37968D01*
X-154525Y-37962D01*
X-154501Y-37957D01*
X-154479Y-37948D01*
X-154459Y-37940D01*
X-154443Y-37930D01*
X-154441D01*
X-154440Y-37928D01*
X-154430Y-37921D01*
X-154418Y-37908D01*
X-154404Y-37893D01*
X-154390Y-37872D01*
X-154378Y-37849D01*
X-154368Y-37822D01*
X-154367Y-37808D01*
X-154365Y-37793D01*
Y-37785D01*
X-154367Y-37779D01*
X-154369Y-37765D01*
X-154375Y-37746D01*
X-154385Y-37725D01*
X-154398Y-37702D01*
X-154407Y-37691D01*
X-154418Y-37679D01*
X-154429Y-37668D01*
X-154443Y-37657D01*
X-154444D01*
X-154447Y-37654D01*
X-154451Y-37652D01*
X-154458Y-37649D01*
X-154468Y-37643D01*
X-154480Y-37639D01*
X-154494Y-37634D01*
X-154511Y-37628D01*
X-154532Y-37624D01*
X-154554Y-37618D01*
X-154580Y-37613D01*
X-154608Y-37609D01*
X-154641Y-37606D01*
X-154676Y-37603D01*
X-154715Y-37600D01*
D02*
G37*
G36*
X-154623Y-38849D02*
X-155053D01*
X-154623Y-39151D01*
Y-38849D01*
D02*
G37*
G36*
X-154930Y-39471D02*
X-154931D01*
X-154934D01*
X-154939D01*
X-154946Y-39473D01*
X-154956D01*
X-154966Y-39474D01*
X-154988Y-39478D01*
X-155014Y-39484D01*
X-155042Y-39493D01*
X-155068Y-39507D01*
X-155092Y-39525D01*
X-155093D01*
X-155095Y-39528D01*
X-155102Y-39535D01*
X-155111Y-39546D01*
X-155122Y-39561D01*
X-155132Y-39581D01*
X-155142Y-39603D01*
X-155149Y-39628D01*
X-155152Y-39642D01*
Y-39664D01*
X-155150Y-39670D01*
X-155149Y-39685D01*
X-155143Y-39703D01*
X-155136Y-39725D01*
X-155124Y-39749D01*
X-155109Y-39772D01*
X-155097Y-39783D01*
X-155086Y-39794D01*
X-155085D01*
X-155084Y-39797D01*
X-155079Y-39800D01*
X-155075Y-39803D01*
X-155061Y-39812D01*
X-155042Y-39822D01*
X-155018Y-39833D01*
X-154989Y-39843D01*
X-154956Y-39848D01*
X-154920Y-39851D01*
X-154919D01*
X-154916D01*
X-154912D01*
X-154905Y-39850D01*
X-154896D01*
X-154888Y-39848D01*
X-154867Y-39844D01*
X-154844Y-39837D01*
X-154819Y-39829D01*
X-154794Y-39815D01*
X-154772Y-39797D01*
X-154769Y-39794D01*
X-154763Y-39787D01*
X-154753Y-39775D01*
X-154744Y-39760D01*
X-154733Y-39739D01*
X-154723Y-39715D01*
X-154717Y-39689D01*
X-154715Y-39660D01*
Y-39652D01*
X-154716Y-39646D01*
X-154717Y-39631D01*
X-154722Y-39613D01*
X-154729Y-39591D01*
X-154738Y-39568D01*
X-154752Y-39546D01*
X-154772Y-39525D01*
X-154774Y-39523D01*
X-154783Y-39517D01*
X-154795Y-39509D01*
X-154813Y-39498D01*
X-154835Y-39488D01*
X-154862Y-39480D01*
X-154894Y-39474D01*
X-154930Y-39471D01*
D02*
G37*
G36*
X-1194Y-87721D02*
X-1202D01*
X-1207Y-87722D01*
X-1223Y-87725D01*
X-1241Y-87729D01*
X-1262Y-87738D01*
X-1284Y-87750D01*
X-1295Y-87758D01*
X-1306Y-87767D01*
X-1316Y-87778D01*
X-1325Y-87790D01*
Y-87792D01*
X-1328Y-87794D01*
X-1331Y-87800D01*
X-1335Y-87807D01*
X-1339Y-87818D01*
X-1345Y-87831D01*
X-1349Y-87846D01*
X-1354Y-87864D01*
X-1360Y-87885D01*
X-1366Y-87908D01*
X-1371Y-87935D01*
X-1375Y-87964D01*
X-1379Y-87997D01*
X-1382Y-88033D01*
X-1384Y-88072D01*
X-1385Y-88115D01*
Y-88118D01*
Y-88125D01*
Y-88137D01*
X-1384Y-88154D01*
Y-88172D01*
X-1382Y-88194D01*
X-1381Y-88217D01*
X-1378Y-88242D01*
X-1371Y-88297D01*
X-1367Y-88323D01*
X-1361Y-88348D01*
X-1356Y-88371D01*
X-1348Y-88394D01*
X-1339Y-88413D01*
X-1329Y-88430D01*
Y-88431D01*
X-1327Y-88432D01*
X-1320Y-88442D01*
X-1307Y-88455D01*
X-1292Y-88468D01*
X-1271Y-88482D01*
X-1248Y-88495D01*
X-1221Y-88505D01*
X-1207Y-88506D01*
X-1192Y-88507D01*
X-1184D01*
X-1178Y-88506D01*
X-1164Y-88503D01*
X-1145Y-88498D01*
X-1124Y-88488D01*
X-1101Y-88474D01*
X-1090Y-88466D01*
X-1078Y-88455D01*
X-1067Y-88444D01*
X-1056Y-88430D01*
Y-88428D01*
X-1054Y-88425D01*
X-1051Y-88421D01*
X-1048Y-88414D01*
X-1042Y-88405D01*
X-1038Y-88392D01*
X-1033Y-88378D01*
X-1027Y-88362D01*
X-1023Y-88341D01*
X-1017Y-88319D01*
X-1012Y-88292D01*
X-1008Y-88265D01*
X-1005Y-88231D01*
X-1002Y-88197D01*
X-999Y-88158D01*
Y-88115D01*
Y-88113D01*
Y-88112D01*
Y-88105D01*
Y-88093D01*
X-1001Y-88076D01*
Y-88058D01*
X-1002Y-88036D01*
X-1004Y-88012D01*
X-1006Y-87986D01*
X-1013Y-87933D01*
X-1017Y-87907D01*
X-1023Y-87882D01*
X-1029Y-87858D01*
X-1037Y-87836D01*
X-1045Y-87817D01*
X-1055Y-87800D01*
Y-87799D01*
X-1058Y-87797D01*
X-1060Y-87793D01*
X-1065Y-87788D01*
X-1077Y-87775D01*
X-1092Y-87760D01*
X-1113Y-87746D01*
X-1137Y-87733D01*
X-1149Y-87728D01*
X-1163Y-87724D01*
X-1178Y-87722D01*
X-1194Y-87721D01*
D02*
G37*
%LPD*%
D10*
X47650Y-66650D02*
X66650D01*
X47650D02*
Y-47650D01*
X66650D01*
Y-66650D02*
Y-47650D01*
X-9500Y-9500D02*
Y9500D01*
X9500D01*
Y-9500D02*
Y9500D01*
X-9500Y-9500D02*
X9500D01*
X104800Y9500D02*
X123800D01*
X104800Y-9500D02*
Y9500D01*
Y-9500D02*
X123800D01*
Y9500D01*
Y-28550D02*
Y-9550D01*
X104800D02*
X123800D01*
X104800Y-28550D02*
Y-9550D01*
Y-28550D02*
X123800D01*
X-152363Y-28600D02*
X-123863D01*
Y-47600D02*
Y-28600D01*
X-152363Y-47600D02*
X-123863D01*
X-152363D02*
Y-28600D01*
X123800Y-47600D02*
Y-28600D01*
X104800D02*
X123800D01*
X104800Y-47600D02*
Y-28600D01*
Y-47600D02*
X123800D01*
X123863Y-28600D02*
X152363D01*
Y-47600D02*
Y-28600D01*
X123863Y-47600D02*
X152363D01*
X123863D02*
Y-28600D01*
X28550Y-85700D02*
Y-66700D01*
X9550D02*
X28550D01*
X9550Y-85700D02*
Y-66700D01*
Y-85700D02*
X28550D01*
X28625Y-66700D02*
X66625D01*
Y-85700D02*
Y-66700D01*
X28625Y-85700D02*
X66625D01*
X28625D02*
Y-66700D01*
X123863Y-85700D02*
Y-66700D01*
Y-85700D02*
X152363D01*
Y-66700D01*
X123863D02*
X152363D01*
X123863Y-28550D02*
Y-9550D01*
Y-28550D02*
X152363D01*
Y-9550D01*
X123863D02*
X152363D01*
X-66625Y-85700D02*
Y-66700D01*
Y-85700D02*
X-28625D01*
Y-66700D01*
X-66625D02*
X-28625D01*
X-123800Y9500D02*
X-104800D01*
X-123800Y-9500D02*
Y9500D01*
Y-9500D02*
X-104800D01*
Y9500D01*
X-85750Y-9500D02*
Y9500D01*
X-104750Y-9500D02*
X-85750D01*
X-104750D02*
Y9500D01*
X-85750D01*
X-85700D02*
X-66700D01*
X-85700Y-9500D02*
Y9500D01*
Y-9500D02*
X-66700D01*
Y9500D01*
X-47650Y-9500D02*
Y9500D01*
X-66650Y-9500D02*
X-47650D01*
X-66650D02*
Y9500D01*
X-47650D01*
X-47600D02*
X-28600D01*
X-47600Y-9500D02*
Y9500D01*
Y-9500D02*
X-28600D01*
Y9500D01*
X-9550Y-9500D02*
Y9500D01*
X-28550Y-9500D02*
X-9550D01*
X-28550D02*
Y9500D01*
X-9550D01*
X9550D02*
X28550D01*
X9550Y-9500D02*
Y9500D01*
Y-9500D02*
X28550D01*
Y9500D01*
X47600Y-9500D02*
Y9500D01*
X28600Y-9500D02*
X47600D01*
X28600D02*
Y9500D01*
X47600D01*
X47650D02*
X66650D01*
X47650Y-9500D02*
Y9500D01*
Y-9500D02*
X66650D01*
Y9500D01*
X85700Y-9500D02*
Y9500D01*
X66700Y-9500D02*
X85700D01*
X66700D02*
Y9500D01*
X85700D01*
X85750D02*
X104750D01*
X85750Y-9500D02*
Y9500D01*
Y-9500D02*
X104750D01*
Y9500D01*
X95287Y-66700D02*
X123787D01*
Y-85700D02*
Y-66700D01*
X95287Y-85700D02*
X123787D01*
X95287D02*
Y-66700D01*
X66713D02*
X95213D01*
Y-85700D02*
Y-66700D01*
X66713Y-85700D02*
X95213D01*
X66713D02*
Y-66700D01*
X-9500Y-85700D02*
X9500D01*
X-9500D02*
Y-66700D01*
X9500D01*
Y-85700D02*
Y-66700D01*
X-28550Y-85700D02*
X-9550D01*
X-28550D02*
Y-66700D01*
X-9550D01*
Y-85700D02*
Y-66700D01*
X-95213D02*
X-66713D01*
Y-85700D02*
Y-66700D01*
X-95213Y-85700D02*
X-66713D01*
X-95213D02*
Y-66700D01*
X-123787D02*
X-95287D01*
Y-85700D02*
Y-66700D01*
X-123787Y-85700D02*
X-95287D01*
X-123787D02*
Y-66700D01*
X-152363D02*
X-123863D01*
Y-85700D02*
Y-66700D01*
X-152363Y-85700D02*
X-123863D01*
X-152363D02*
Y-66700D01*
Y-47650D02*
X-123863D01*
Y-66650D02*
Y-47650D01*
X-152363Y-66650D02*
X-123863D01*
X-152363D02*
Y-47650D01*
X-123800Y-66650D02*
X-104800D01*
X-123800D02*
Y-47650D01*
X-104800D01*
Y-66650D02*
Y-47650D01*
X-104750Y-66650D02*
X-85750D01*
X-104750D02*
Y-47650D01*
X-85750D01*
Y-66650D02*
Y-47650D01*
X-85700Y-66650D02*
X-66700D01*
X-85700D02*
Y-47650D01*
X-66700D01*
Y-66650D02*
Y-47650D01*
X-66650Y-66650D02*
X-47650D01*
X-66650D02*
Y-47650D01*
X-47650D01*
Y-66650D02*
Y-47650D01*
X-47600Y-66650D02*
X-28600D01*
X-47600D02*
Y-47650D01*
X-28600D01*
Y-66650D02*
Y-47650D01*
X-28550Y-66650D02*
X-9550D01*
X-28550D02*
Y-47650D01*
X-9550D01*
Y-66650D02*
Y-47650D01*
X-9500Y-66650D02*
X9500D01*
X-9500D02*
Y-47650D01*
X9500D01*
Y-66650D02*
Y-47650D01*
X9550Y-66650D02*
X28550D01*
X9550D02*
Y-47650D01*
X28550D01*
Y-66650D02*
Y-47650D01*
X28600Y-66650D02*
X47600D01*
X28600D02*
Y-47650D01*
X47600D01*
Y-66650D02*
Y-47650D01*
X66700Y-66650D02*
X85700D01*
X66700D02*
Y-47650D01*
X85700D01*
Y-66650D02*
Y-47650D01*
X85750Y-66650D02*
X104750D01*
X85750D02*
Y-47650D01*
X104750D01*
Y-66650D02*
Y-47650D01*
X104800Y-66650D02*
X123800D01*
X104800D02*
Y-47650D01*
X123800D01*
Y-66650D02*
Y-47650D01*
X123863D02*
X152363D01*
Y-66650D02*
Y-47650D01*
X123863Y-66650D02*
X152363D01*
X123863D02*
Y-47650D01*
X85750Y-47600D02*
X104750D01*
X85750D02*
Y-28600D01*
X104750D01*
Y-47600D02*
Y-28600D01*
X66700Y-47600D02*
X85700D01*
X66700D02*
Y-28600D01*
X85700D01*
Y-47600D02*
Y-28600D01*
X47650Y-47600D02*
X66650D01*
X47650D02*
Y-28600D01*
X66650D01*
Y-47600D02*
Y-28600D01*
X28600Y-47600D02*
X47600D01*
X28600D02*
Y-28600D01*
X47600D01*
Y-47600D02*
Y-28600D01*
X9550Y-47600D02*
X28550D01*
X9550D02*
Y-28600D01*
X28550D01*
Y-47600D02*
Y-28600D01*
X-9500Y-47600D02*
X9500D01*
X-9500D02*
Y-28600D01*
X9500D01*
Y-47600D02*
Y-28600D01*
X-28550Y-47600D02*
X-9550D01*
X-28550D02*
Y-28600D01*
X-9550D01*
Y-47600D02*
Y-28600D01*
X-47600Y-47600D02*
X-28600D01*
X-47600D02*
Y-28600D01*
X-28600D01*
Y-47600D02*
Y-28600D01*
X-66650Y-47600D02*
X-47650D01*
X-66650D02*
Y-28600D01*
X-47650D01*
Y-47600D02*
Y-28600D01*
X-85700Y-47600D02*
X-66700D01*
X-85700D02*
Y-28600D01*
X-66700D01*
Y-47600D02*
Y-28600D01*
X-104750Y-47600D02*
X-85750D01*
X-104750D02*
Y-28600D01*
X-85750D01*
Y-47600D02*
Y-28600D01*
X-123800Y-47600D02*
X-104800D01*
X-123800D02*
Y-28600D01*
X-104800D01*
Y-47600D02*
Y-28600D01*
X-152363Y-9550D02*
X-123863D01*
Y-28550D02*
Y-9550D01*
X-152363Y-28550D02*
X-123863D01*
X-152363D02*
Y-9550D01*
X-123800Y-28550D02*
X-104800D01*
X-123800D02*
Y-9550D01*
X-104800D01*
Y-28550D02*
Y-9550D01*
X-104750Y-28550D02*
X-85750D01*
X-104750D02*
Y-9550D01*
X-85750D01*
Y-28550D02*
Y-9550D01*
X-85700Y-28550D02*
X-66700D01*
X-85700D02*
Y-9550D01*
X-66700D01*
Y-28550D02*
Y-9550D01*
X-66650Y-28550D02*
X-47650D01*
X-66650D02*
Y-9550D01*
X-47650D01*
Y-28550D02*
Y-9550D01*
X-47600Y-28550D02*
X-28600D01*
X-47600D02*
Y-9550D01*
X-28600D01*
Y-28550D02*
Y-9550D01*
X-28550Y-28550D02*
X-9550D01*
X-28550D02*
Y-9550D01*
X-9550D01*
Y-28550D02*
Y-9550D01*
X-9500Y-28550D02*
X9500D01*
X-9500D02*
Y-9550D01*
X9500D01*
Y-28550D02*
Y-9550D01*
X9550Y-28550D02*
X28550D01*
X9550D02*
Y-9550D01*
X28550D01*
Y-28550D02*
Y-9550D01*
X28600Y-28550D02*
X47600D01*
X28600D02*
Y-9550D01*
X47600D01*
Y-28550D02*
Y-9550D01*
X47650Y-28550D02*
X66650D01*
X47650D02*
Y-9550D01*
X66650D01*
Y-28550D02*
Y-9550D01*
X66700Y-28550D02*
X85700D01*
X66700D02*
Y-9550D01*
X85700D01*
Y-28550D02*
Y-9550D01*
X85750Y-28550D02*
X104750D01*
X85750D02*
Y-9550D01*
X104750D01*
Y-28550D02*
Y-9550D01*
X123863Y9500D02*
X152363D01*
Y-9500D02*
Y9500D01*
X123863Y-9500D02*
X152363D01*
X123863D02*
Y9500D01*
X-152363D02*
X-123863D01*
Y-9500D02*
Y9500D01*
X-152363Y-9500D02*
X-123863D01*
X-152363D02*
Y9500D01*
X-114300Y12000D02*
X-112800Y12500D01*
X-114300Y12000D02*
X-112800Y11500D01*
X-96750D02*
X-95250Y12000D01*
X-96750Y12500D02*
X-95250Y12000D01*
X-114300D02*
X-106862D01*
X-103196D02*
X-95250D01*
X-114300Y2194D02*
Y12200D01*
X-95250Y2194D02*
Y12200D01*
X-155275Y-83598D02*
X-154775Y-85098D01*
X-154275Y-83598D01*
X-154775Y8900D02*
X-154275Y7400D01*
X-155275D02*
X-154775Y8900D01*
Y-85098D02*
Y-40226D01*
Y-36480D02*
Y8900D01*
X-154975Y-85098D02*
X-149075D01*
X-154975Y8900D02*
X-149075D01*
X-151775Y-88098D02*
X-150275Y-87598D01*
X-151775Y-88098D02*
X-150275Y-88598D01*
X150275D02*
X151775Y-88098D01*
X150275Y-87598D02*
X151775Y-88098D01*
X-151775D02*
X-2504D01*
X1996D02*
X151775D01*
X-151775Y-88298D02*
Y-82397D01*
X151775Y-88298D02*
Y-82397D01*
Y5900D02*
G03*
X148775Y8900I-3000J0D01*
G01*
Y-85098D02*
G03*
X151775Y-82098I0J3000D01*
G01*
X145083Y-84870D02*
G03*
X145718Y-85098I636J772D01*
G01*
X145083Y-84870D02*
G03*
X138727Y-84870I-3178J-3860D01*
G01*
X138092Y-85098D02*
G03*
X138727Y-84870I0J1000D01*
G01*
X55083D02*
G03*
X55718Y-85098I636J772D01*
G01*
X55083Y-84870D02*
G03*
X48727Y-84870I-3178J-3860D01*
G01*
X48092Y-85098D02*
G03*
X48727Y-84870I0J1000D01*
G01*
X-48727D02*
G03*
X-48092Y-85098I636J772D01*
G01*
X-48727Y-84870D02*
G03*
X-55083Y-84870I-3178J-3860D01*
G01*
X-55718Y-85098D02*
G03*
X-55083Y-84870I0J1000D01*
G01*
X-138727D02*
G03*
X-138092Y-85098I636J772D01*
G01*
X-138727Y-84870D02*
G03*
X-145083Y-84870I-3178J-3860D01*
G01*
X-145718Y-85098D02*
G03*
X-145083Y-84870I0J1000D01*
G01*
X-151775Y-82098D02*
G03*
X-148775Y-85098I3000J0D01*
G01*
Y8900D02*
G03*
X-151775Y5900I0J-3000D01*
G01*
X-145085Y8672D02*
G03*
X-145721Y8900I-636J-772D01*
G01*
X-145085Y8672D02*
G03*
X-138725Y8672I3180J3858D01*
G01*
X-138089Y8900D02*
G03*
X-138725Y8672I0J-1000D01*
G01*
X-55085D02*
G03*
X-48725Y8672I3180J3858D01*
G01*
X-48089Y8900D02*
G03*
X-48725Y8672I0J-1000D01*
G01*
X48725D02*
G03*
X48089Y8900I-636J-772D01*
G01*
X48725Y8672D02*
G03*
X55085Y8672I3180J3858D01*
G01*
X55721Y8900D02*
G03*
X55085Y8672I0J-1000D01*
G01*
X138725D02*
G03*
X138089Y8900I-636J-772D01*
G01*
X138725Y8672D02*
G03*
X145085Y8672I3180J3858D01*
G01*
X145721Y8900D02*
G03*
X145085Y8672I0J-1000D01*
G01*
X-4325Y9620D02*
G03*
X-4825Y9120I0J-500D01*
G01*
X4825Y9120D02*
G03*
X4325Y9620I-500J0D01*
G01*
X4825Y8900D02*
Y9120D01*
X151775Y-82098D02*
Y5900D01*
X145718Y-85098D02*
X148775D01*
X-151775Y-82098D02*
Y5900D01*
X-148775Y8900D02*
X-145721D01*
X-4825D02*
Y9120D01*
X-4325Y9620D02*
X4325D01*
X4825Y8900D02*
X48089D01*
X-48092Y-85098D02*
X48092D01*
X-138092D02*
X-55718D01*
X-148775D02*
X-145718D01*
X55718D02*
X138092D01*
X-48089Y8900D02*
X-4825D01*
X-138089D02*
X-55721D01*
X145721D02*
X148775D01*
X55721D02*
X138089D01*
D11*
X-55085Y8672D02*
G03*
X-55721Y8900I-636J-772D01*
G01*
D70*
X-5000Y9600D02*
X0D01*
X5000D01*
X113300Y-5050D02*
X115300D01*
X114300Y-6050D02*
Y-4050D01*
X-115300Y-5050D02*
X-113300D01*
X-114300Y-6050D02*
Y-4050D01*
X-95250Y-6050D02*
Y-4050D01*
X-96250Y-5050D02*
X-94250D01*
X-77200D02*
X-75200D01*
X-76200Y-6050D02*
Y-4050D01*
X-57150Y-6050D02*
Y-4050D01*
X-58150Y-5050D02*
X-56150D01*
X-39100D02*
X-37100D01*
X-38100Y-6050D02*
Y-4050D01*
X-19050Y-6050D02*
Y-4050D01*
X-20050Y-5050D02*
X-18050D01*
X18050D02*
X20050D01*
X19050Y-6050D02*
Y-4050D01*
X38100Y-6050D02*
Y-4050D01*
X37100Y-5050D02*
X39100D01*
X56150D02*
X58150D01*
X57150Y-6050D02*
Y-4050D01*
X76200Y-6050D02*
Y-4050D01*
X75200Y-5050D02*
X77200D01*
X94250D02*
X96250D01*
X95250Y-6050D02*
Y-4050D01*
M02*
