%TF.GenerationSoftware,Altium Limited,Altium Designer,20.2.6 (244)*%
G04 Layer_Color=65535*
%FSLAX45Y45*%
%MOMM*%
%TF.SameCoordinates,5881816B-C68B-4CD5-A74A-5D75E061FB32*%
%TF.FilePolarity,Positive*%
%TF.FileFunction,Other,Dimensions*%
%TF.Part,Single*%
G01*
G75*
%TA.AperFunction,NonConductor*%
%ADD40C,0.20000*%
%ADD46C,0.25400*%
G36*
X-10349585Y1234463D02*
X-10388000D01*
X-10393132Y1208529D01*
X-10392993Y1208668D01*
X-10392716Y1208806D01*
X-10392300Y1209084D01*
X-10391606Y1209500D01*
X-10390774Y1209916D01*
X-10389803Y1210471D01*
X-10387584Y1211580D01*
X-10384811Y1212689D01*
X-10381760Y1213660D01*
X-10378431Y1214354D01*
X-10376767Y1214631D01*
X-10373716D01*
X-10372884Y1214492D01*
X-10371774Y1214354D01*
X-10370526Y1214215D01*
X-10369139Y1213938D01*
X-10367614Y1213522D01*
X-10364285Y1212551D01*
X-10362482Y1211857D01*
X-10360680Y1210887D01*
X-10358877Y1209916D01*
X-10357074Y1208806D01*
X-10355410Y1207419D01*
X-10353745Y1205894D01*
X-10353607Y1205755D01*
X-10353329Y1205478D01*
X-10352913Y1205062D01*
X-10352359Y1204368D01*
X-10351665Y1203398D01*
X-10350972Y1202427D01*
X-10350140Y1201179D01*
X-10349307Y1199792D01*
X-10348614Y1198266D01*
X-10347782Y1196602D01*
X-10347089Y1194661D01*
X-10346395Y1192719D01*
X-10345840Y1190639D01*
X-10345424Y1188281D01*
X-10345147Y1185923D01*
X-10345008Y1183427D01*
Y1183288D01*
Y1182872D01*
Y1182179D01*
X-10345147Y1181208D01*
X-10345286Y1180099D01*
X-10345424Y1178851D01*
X-10345702Y1177325D01*
X-10345979Y1175800D01*
X-10346811Y1172194D01*
X-10348198Y1168449D01*
X-10349030Y1166508D01*
X-10350140Y1164705D01*
X-10351249Y1162763D01*
X-10352636Y1160960D01*
X-10352775Y1160822D01*
X-10353052Y1160406D01*
X-10353607Y1159851D01*
X-10354300Y1159157D01*
X-10355271Y1158325D01*
X-10356380Y1157216D01*
X-10357767Y1156245D01*
X-10359293Y1155136D01*
X-10360957Y1154026D01*
X-10362899Y1153055D01*
X-10364979Y1152085D01*
X-10367198Y1151114D01*
X-10369555Y1150420D01*
X-10372190Y1149866D01*
X-10374964Y1149450D01*
X-10377876Y1149311D01*
X-10379125D01*
X-10380095Y1149450D01*
X-10381205Y1149588D01*
X-10382453Y1149727D01*
X-10383978Y1149866D01*
X-10385504Y1150282D01*
X-10388971Y1151114D01*
X-10392438Y1152362D01*
X-10394241Y1153194D01*
X-10396044Y1154165D01*
X-10397708Y1155274D01*
X-10399372Y1156522D01*
X-10399511Y1156661D01*
X-10399788Y1156800D01*
X-10400066Y1157355D01*
X-10400621Y1157909D01*
X-10401314Y1158603D01*
X-10402007Y1159435D01*
X-10402839Y1160544D01*
X-10403533Y1161792D01*
X-10404365Y1163041D01*
X-10405197Y1164566D01*
X-10406723Y1167895D01*
X-10407971Y1171778D01*
X-10408387Y1173858D01*
X-10408664Y1176077D01*
X-10396321Y1177048D01*
Y1176909D01*
Y1176632D01*
X-10396183Y1176216D01*
X-10396044Y1175522D01*
X-10395628Y1173997D01*
X-10395073Y1171916D01*
X-10394241Y1169836D01*
X-10393132Y1167478D01*
X-10391745Y1165398D01*
X-10390081Y1163457D01*
X-10389803Y1163318D01*
X-10389248Y1162763D01*
X-10388139Y1162070D01*
X-10386613Y1161238D01*
X-10384949Y1160406D01*
X-10382869Y1159712D01*
X-10380511Y1159157D01*
X-10377876Y1159019D01*
X-10377044D01*
X-10376490Y1159157D01*
X-10374825Y1159296D01*
X-10372884Y1159851D01*
X-10370526Y1160544D01*
X-10368168Y1161654D01*
X-10365672Y1163318D01*
X-10364563Y1164289D01*
X-10363453Y1165398D01*
X-10363315Y1165537D01*
X-10363176Y1165676D01*
X-10362899Y1166092D01*
X-10362482Y1166508D01*
X-10361512Y1168033D01*
X-10360402Y1169975D01*
X-10359431Y1172332D01*
X-10358461Y1175245D01*
X-10357767Y1178712D01*
X-10357490Y1180515D01*
Y1182456D01*
Y1182595D01*
Y1182872D01*
Y1183427D01*
X-10357629Y1184121D01*
Y1184953D01*
X-10357767Y1185923D01*
X-10358183Y1188142D01*
X-10358877Y1190777D01*
X-10359847Y1193412D01*
X-10361234Y1195909D01*
X-10363176Y1198266D01*
Y1198405D01*
X-10363453Y1198544D01*
X-10364147Y1199237D01*
X-10365395Y1200208D01*
X-10367059Y1201317D01*
X-10369278Y1202288D01*
X-10371774Y1203259D01*
X-10374687Y1203952D01*
X-10376351Y1204230D01*
X-10378986D01*
X-10380095Y1204091D01*
X-10381482Y1203952D01*
X-10383146Y1203536D01*
X-10384811Y1203120D01*
X-10386613Y1202427D01*
X-10388416Y1201595D01*
X-10388555Y1201456D01*
X-10389110Y1201179D01*
X-10389942Y1200485D01*
X-10391051Y1199792D01*
X-10392161Y1198821D01*
X-10393270Y1197573D01*
X-10394518Y1196325D01*
X-10395489Y1194799D01*
X-10406584Y1196325D01*
X-10397292Y1245696D01*
X-10349585D01*
Y1234463D01*
D02*
G37*
G36*
X-10563436Y1247222D02*
X-10562742D01*
X-10561771Y1247083D01*
X-10559414Y1246667D01*
X-10556779Y1246112D01*
X-10553866Y1245142D01*
X-10550954Y1243893D01*
X-10548042Y1242229D01*
X-10547903D01*
X-10547764Y1241952D01*
X-10547348Y1241674D01*
X-10546793Y1241258D01*
X-10545407Y1240149D01*
X-10543604Y1238623D01*
X-10541801Y1236543D01*
X-10539721Y1234047D01*
X-10537918Y1231134D01*
X-10536254Y1227806D01*
Y1227667D01*
X-10536115Y1227390D01*
X-10535837Y1226835D01*
X-10535560Y1226142D01*
X-10535283Y1225171D01*
X-10534867Y1223923D01*
X-10534589Y1222536D01*
X-10534173Y1221011D01*
X-10533757Y1219208D01*
X-10533341Y1217127D01*
X-10533064Y1214908D01*
X-10532786Y1212551D01*
X-10532509Y1209916D01*
X-10532232Y1207142D01*
X-10532093Y1204091D01*
Y1200901D01*
Y1200763D01*
Y1200069D01*
Y1199098D01*
Y1197850D01*
X-10532232Y1196325D01*
Y1194522D01*
X-10532370Y1192442D01*
X-10532648Y1190361D01*
X-10533064Y1185646D01*
X-10533757Y1180653D01*
X-10534728Y1175938D01*
X-10535421Y1173581D01*
X-10536115Y1171500D01*
Y1171362D01*
X-10536254Y1171084D01*
X-10536531Y1170530D01*
X-10536808Y1169697D01*
X-10537224Y1168865D01*
X-10537779Y1167756D01*
X-10539166Y1165398D01*
X-10540830Y1162763D01*
X-10542772Y1159990D01*
X-10545268Y1157355D01*
X-10548042Y1154997D01*
X-10548180D01*
X-10548458Y1154720D01*
X-10548874Y1154442D01*
X-10549428Y1154165D01*
X-10550261Y1153749D01*
X-10551093Y1153194D01*
X-10552202Y1152639D01*
X-10553312Y1152223D01*
X-10555947Y1151114D01*
X-10559136Y1150143D01*
X-10562603Y1149588D01*
X-10566487Y1149311D01*
X-10567596D01*
X-10568290Y1149450D01*
X-10569260D01*
X-10570370Y1149588D01*
X-10573005Y1150143D01*
X-10575917Y1150836D01*
X-10578968Y1151946D01*
X-10582019Y1153471D01*
X-10583545Y1154442D01*
X-10584932Y1155552D01*
X-10585070Y1155690D01*
X-10585209Y1155829D01*
X-10585625Y1156245D01*
X-10586041Y1156661D01*
X-10586596Y1157355D01*
X-10587289Y1158187D01*
X-10588676Y1160128D01*
X-10590063Y1162625D01*
X-10591450Y1165676D01*
X-10592559Y1169143D01*
X-10593391Y1173165D01*
X-10582019Y1174135D01*
Y1173997D01*
X-10581881Y1173719D01*
Y1173442D01*
X-10581742Y1172887D01*
X-10581326Y1171362D01*
X-10580771Y1169697D01*
X-10580078Y1167756D01*
X-10579107Y1165814D01*
X-10577997Y1164011D01*
X-10576611Y1162486D01*
X-10576472Y1162347D01*
X-10575917Y1161931D01*
X-10574946Y1161376D01*
X-10573837Y1160822D01*
X-10572311Y1160128D01*
X-10570508Y1159573D01*
X-10568428Y1159157D01*
X-10566209Y1159019D01*
X-10565238D01*
X-10564268Y1159157D01*
X-10563020Y1159296D01*
X-10561494Y1159573D01*
X-10559968Y1159990D01*
X-10558304Y1160544D01*
X-10556779Y1161376D01*
X-10556640Y1161515D01*
X-10556085Y1161792D01*
X-10555253Y1162347D01*
X-10554421Y1163179D01*
X-10553312Y1164150D01*
X-10552202Y1165260D01*
X-10551093Y1166508D01*
X-10549983Y1168033D01*
X-10549845Y1168172D01*
X-10549567Y1168865D01*
X-10549012Y1169836D01*
X-10548458Y1171084D01*
X-10547764Y1172748D01*
X-10547071Y1174690D01*
X-10546377Y1176909D01*
X-10545684Y1179405D01*
Y1179544D01*
X-10545545Y1179683D01*
Y1180099D01*
X-10545407Y1180653D01*
X-10545129Y1182040D01*
X-10544713Y1183843D01*
X-10544436Y1186062D01*
X-10544158Y1188420D01*
X-10544020Y1191055D01*
X-10543881Y1193828D01*
Y1193967D01*
Y1194383D01*
Y1195077D01*
Y1196186D01*
X-10544020Y1195909D01*
X-10544575Y1195215D01*
X-10545407Y1194244D01*
X-10546377Y1192858D01*
X-10547764Y1191471D01*
X-10549428Y1189945D01*
X-10551370Y1188420D01*
X-10553589Y1187033D01*
X-10553866Y1186894D01*
X-10554698Y1186478D01*
X-10555947Y1185923D01*
X-10557472Y1185369D01*
X-10559552Y1184675D01*
X-10561771Y1184121D01*
X-10564268Y1183705D01*
X-10566903Y1183566D01*
X-10568012D01*
X-10568844Y1183705D01*
X-10569954Y1183843D01*
X-10571063Y1183982D01*
X-10572450Y1184259D01*
X-10573837Y1184675D01*
X-10577027Y1185646D01*
X-10578691Y1186340D01*
X-10580355Y1187172D01*
X-10582158Y1188142D01*
X-10583822Y1189391D01*
X-10585486Y1190639D01*
X-10587012Y1192164D01*
X-10587151Y1192303D01*
X-10587428Y1192580D01*
X-10587705Y1192996D01*
X-10588260Y1193690D01*
X-10588953Y1194661D01*
X-10589647Y1195631D01*
X-10590340Y1196879D01*
X-10591034Y1198266D01*
X-10591866Y1199792D01*
X-10592559Y1201456D01*
X-10593253Y1203398D01*
X-10593946Y1205339D01*
X-10594501Y1207558D01*
X-10594778Y1209916D01*
X-10595056Y1212273D01*
X-10595194Y1214908D01*
Y1215047D01*
Y1215602D01*
Y1216295D01*
X-10595056Y1217266D01*
X-10594917Y1218514D01*
X-10594778Y1220040D01*
X-10594501Y1221565D01*
X-10594085Y1223368D01*
X-10593114Y1226974D01*
X-10592421Y1228915D01*
X-10591588Y1230996D01*
X-10590618Y1232937D01*
X-10589369Y1234740D01*
X-10588121Y1236682D01*
X-10586596Y1238346D01*
X-10586457Y1238485D01*
X-10586180Y1238762D01*
X-10585764Y1239178D01*
X-10585070Y1239733D01*
X-10584238Y1240426D01*
X-10583129Y1241258D01*
X-10582019Y1241952D01*
X-10580632Y1242923D01*
X-10579246Y1243755D01*
X-10577581Y1244448D01*
X-10573837Y1245974D01*
X-10571895Y1246528D01*
X-10569676Y1246944D01*
X-10567457Y1247222D01*
X-10565100Y1247360D01*
X-10564129D01*
X-10563436Y1247222D01*
D02*
G37*
G36*
X-10500473Y1150975D02*
X-10513925D01*
Y1164427D01*
X-10500473D01*
Y1150975D01*
D02*
G37*
G36*
X-10625427D02*
X-10637215D01*
Y1226003D01*
X-10637354Y1225864D01*
X-10638048Y1225310D01*
X-10638880Y1224478D01*
X-10640267Y1223507D01*
X-10641792Y1222259D01*
X-10643734Y1220872D01*
X-10645953Y1219346D01*
X-10648449Y1217821D01*
X-10648588D01*
X-10648726Y1217682D01*
X-10649558Y1217127D01*
X-10650945Y1216434D01*
X-10652609Y1215602D01*
X-10654551Y1214631D01*
X-10656631Y1213660D01*
X-10658711Y1212689D01*
X-10660792Y1211857D01*
Y1223229D01*
X-10660653D01*
X-10660376Y1223507D01*
X-10659821Y1223646D01*
X-10659128Y1224062D01*
X-10658295Y1224478D01*
X-10657325Y1225032D01*
X-10654967Y1226419D01*
X-10652193Y1227945D01*
X-10649420Y1229886D01*
X-10646507Y1232105D01*
X-10643595Y1234463D01*
X-10643456Y1234602D01*
X-10643318Y1234740D01*
X-10642901Y1235156D01*
X-10642347Y1235572D01*
X-10641099Y1236959D01*
X-10639434Y1238623D01*
X-10637770Y1240565D01*
X-10635967Y1242784D01*
X-10634442Y1245003D01*
X-10633055Y1247360D01*
X-10625427D01*
Y1150975D01*
D02*
G37*
G36*
X-10449160Y1247222D02*
X-10447357Y1246944D01*
X-10445277Y1246528D01*
X-10443058Y1245974D01*
X-10440700Y1245280D01*
X-10438481Y1244171D01*
X-10438343D01*
X-10438204Y1244032D01*
X-10437510Y1243616D01*
X-10436401Y1242923D01*
X-10435014Y1241952D01*
X-10433489Y1240565D01*
X-10431824Y1239039D01*
X-10430299Y1237237D01*
X-10428773Y1235156D01*
X-10428635Y1234879D01*
X-10428080Y1234185D01*
X-10427525Y1232937D01*
X-10426554Y1231134D01*
X-10425722Y1229054D01*
X-10424613Y1226697D01*
X-10423642Y1223923D01*
X-10422810Y1220872D01*
Y1220733D01*
X-10422671Y1220456D01*
X-10422533Y1220040D01*
X-10422394Y1219346D01*
X-10422255Y1218514D01*
X-10422117Y1217543D01*
X-10421839Y1216295D01*
X-10421701Y1214908D01*
X-10421423Y1213383D01*
X-10421284Y1211719D01*
X-10421146Y1209777D01*
X-10420868Y1207836D01*
X-10420730Y1205617D01*
Y1203398D01*
X-10420591Y1200901D01*
Y1198266D01*
Y1198128D01*
Y1197573D01*
Y1196602D01*
Y1195493D01*
X-10420730Y1193967D01*
Y1192303D01*
X-10420868Y1190500D01*
X-10421007Y1188558D01*
X-10421423Y1184121D01*
X-10422117Y1179544D01*
X-10422949Y1175106D01*
X-10423503Y1173026D01*
X-10424197Y1170946D01*
Y1170807D01*
X-10424336Y1170530D01*
X-10424613Y1169975D01*
X-10424890Y1169281D01*
X-10425168Y1168311D01*
X-10425722Y1167340D01*
X-10426832Y1164982D01*
X-10428219Y1162486D01*
X-10430022Y1159712D01*
X-10432102Y1157216D01*
X-10434598Y1154858D01*
X-10434737D01*
X-10434875Y1154581D01*
X-10435292Y1154304D01*
X-10435846Y1154026D01*
X-10436540Y1153610D01*
X-10437233Y1153055D01*
X-10439313Y1152085D01*
X-10441810Y1151114D01*
X-10444722Y1150143D01*
X-10448189Y1149588D01*
X-10451934Y1149311D01*
X-10453320D01*
X-10454291Y1149450D01*
X-10455401Y1149588D01*
X-10456788Y1149866D01*
X-10458313Y1150143D01*
X-10459977Y1150559D01*
X-10461642Y1151114D01*
X-10463444Y1151669D01*
X-10465247Y1152501D01*
X-10467050Y1153471D01*
X-10468853Y1154581D01*
X-10470656Y1155968D01*
X-10472320Y1157493D01*
X-10473846Y1159157D01*
X-10473984Y1159296D01*
X-10474262Y1159712D01*
X-10474678Y1160406D01*
X-10475371Y1161515D01*
X-10476065Y1162763D01*
X-10476758Y1164427D01*
X-10477729Y1166369D01*
X-10478561Y1168588D01*
X-10479393Y1171084D01*
X-10480225Y1173997D01*
X-10481057Y1177186D01*
X-10481751Y1180792D01*
X-10482444Y1184675D01*
X-10482860Y1188836D01*
X-10483138Y1193412D01*
X-10483276Y1198266D01*
Y1198405D01*
Y1198960D01*
Y1199931D01*
Y1201040D01*
X-10483138Y1202566D01*
Y1204230D01*
X-10482999Y1206033D01*
X-10482860Y1208113D01*
X-10482444Y1212412D01*
X-10481751Y1216989D01*
X-10480919Y1221565D01*
X-10480364Y1223646D01*
X-10479809Y1225726D01*
Y1225864D01*
X-10479670Y1226142D01*
X-10479393Y1226697D01*
X-10479116Y1227390D01*
X-10478838Y1228361D01*
X-10478284Y1229332D01*
X-10477174Y1231689D01*
X-10475787Y1234185D01*
X-10473984Y1236820D01*
X-10471904Y1239455D01*
X-10469408Y1241674D01*
X-10469269D01*
X-10469130Y1241952D01*
X-10468714Y1242229D01*
X-10468160Y1242507D01*
X-10467466Y1243061D01*
X-10466634Y1243477D01*
X-10464554Y1244587D01*
X-10462058Y1245558D01*
X-10459145Y1246528D01*
X-10455678Y1247083D01*
X-10451934Y1247360D01*
X-10450685D01*
X-10449160Y1247222D01*
D02*
G37*
G36*
X-15471468Y-3673500D02*
X-15469803D01*
X-15467999Y-3673639D01*
X-15466058Y-3673778D01*
X-15461621Y-3674194D01*
X-15457043Y-3674887D01*
X-15452606Y-3675719D01*
X-15450526Y-3676274D01*
X-15448447Y-3676967D01*
X-15448306D01*
X-15448030Y-3677106D01*
X-15447475Y-3677383D01*
X-15446780Y-3677661D01*
X-15445811Y-3677938D01*
X-15444839Y-3678493D01*
X-15442482Y-3679602D01*
X-15439986Y-3680989D01*
X-15437212Y-3682792D01*
X-15434715Y-3684872D01*
X-15432358Y-3687369D01*
Y-3687507D01*
X-15432082Y-3687646D01*
X-15431804Y-3688062D01*
X-15431526Y-3688617D01*
X-15431110Y-3689310D01*
X-15430556Y-3690004D01*
X-15429585Y-3692084D01*
X-15428613Y-3694580D01*
X-15427643Y-3697492D01*
X-15427087Y-3700960D01*
X-15426811Y-3704704D01*
Y-3706091D01*
X-15426950Y-3707062D01*
X-15427087Y-3708171D01*
X-15427367Y-3709558D01*
X-15427643Y-3711084D01*
X-15428059Y-3712748D01*
X-15428613Y-3714412D01*
X-15429169Y-3716215D01*
X-15430000Y-3718018D01*
X-15430971Y-3719821D01*
X-15432082Y-3721623D01*
X-15433469Y-3723426D01*
X-15434993Y-3725091D01*
X-15436658Y-3726616D01*
X-15436797Y-3726755D01*
X-15437212Y-3727032D01*
X-15437906Y-3727448D01*
X-15439015Y-3728142D01*
X-15440263Y-3728835D01*
X-15441927Y-3729528D01*
X-15443869Y-3730499D01*
X-15446088Y-3731331D01*
X-15448584Y-3732163D01*
X-15451497Y-3732996D01*
X-15454686Y-3733828D01*
X-15458292Y-3734521D01*
X-15462175Y-3735215D01*
X-15466336Y-3735631D01*
X-15470912Y-3735908D01*
X-15475766Y-3736047D01*
X-15475905D01*
X-15476460D01*
X-15477431D01*
X-15478540D01*
X-15480066Y-3735908D01*
X-15481731D01*
X-15483533Y-3735769D01*
X-15485612Y-3735631D01*
X-15489912Y-3735215D01*
X-15494489Y-3734521D01*
X-15499065Y-3733689D01*
X-15501146Y-3733134D01*
X-15503226Y-3732580D01*
X-15503365D01*
X-15503642Y-3732441D01*
X-15504198Y-3732163D01*
X-15504890Y-3731886D01*
X-15505861Y-3731609D01*
X-15506831Y-3731054D01*
X-15509189Y-3729945D01*
X-15511687Y-3728558D01*
X-15514320Y-3726755D01*
X-15516956Y-3724675D01*
X-15519174Y-3722178D01*
Y-3722040D01*
X-15519452Y-3721901D01*
X-15519730Y-3721485D01*
X-15520007Y-3720930D01*
X-15520561Y-3720237D01*
X-15520976Y-3719405D01*
X-15522087Y-3717324D01*
X-15523058Y-3714828D01*
X-15524028Y-3711916D01*
X-15524583Y-3708449D01*
X-15524860Y-3704704D01*
Y-3703456D01*
X-15524722Y-3701930D01*
X-15524445Y-3700127D01*
X-15524028Y-3698047D01*
X-15523474Y-3695828D01*
X-15522780Y-3693471D01*
X-15521671Y-3691252D01*
Y-3691113D01*
X-15521532Y-3690974D01*
X-15521117Y-3690281D01*
X-15520422Y-3689171D01*
X-15519452Y-3687785D01*
X-15518065Y-3686259D01*
X-15516539Y-3684595D01*
X-15514737Y-3683069D01*
X-15512656Y-3681544D01*
X-15512379Y-3681405D01*
X-15511687Y-3680850D01*
X-15510437Y-3680296D01*
X-15508633Y-3679325D01*
X-15506554Y-3678493D01*
X-15504198Y-3677383D01*
X-15501424Y-3676413D01*
X-15498372Y-3675580D01*
X-15498233D01*
X-15497955Y-3675442D01*
X-15497540Y-3675303D01*
X-15496846Y-3675164D01*
X-15496014Y-3675026D01*
X-15495042Y-3674887D01*
X-15493794Y-3674610D01*
X-15492409Y-3674471D01*
X-15490883Y-3674194D01*
X-15489220Y-3674055D01*
X-15487277Y-3673916D01*
X-15485336Y-3673639D01*
X-15483118Y-3673500D01*
X-15480898D01*
X-15478401Y-3673361D01*
X-15475766D01*
X-15475629D01*
X-15475073D01*
X-15474101D01*
X-15472993D01*
X-15471468Y-3673500D01*
D02*
G37*
G36*
Y-3748112D02*
X-15469803D01*
X-15467999Y-3748251D01*
X-15466058Y-3748390D01*
X-15461621Y-3748806D01*
X-15457043Y-3749499D01*
X-15452606Y-3750331D01*
X-15450526Y-3750886D01*
X-15448447Y-3751579D01*
X-15448306D01*
X-15448030Y-3751718D01*
X-15447475Y-3751995D01*
X-15446780Y-3752273D01*
X-15445811Y-3752550D01*
X-15444839Y-3753105D01*
X-15442482Y-3754214D01*
X-15439986Y-3755601D01*
X-15437212Y-3757404D01*
X-15434715Y-3759484D01*
X-15432358Y-3761981D01*
Y-3762119D01*
X-15432082Y-3762258D01*
X-15431804Y-3762674D01*
X-15431526Y-3763229D01*
X-15431110Y-3763922D01*
X-15430556Y-3764616D01*
X-15429585Y-3766696D01*
X-15428613Y-3769192D01*
X-15427643Y-3772104D01*
X-15427087Y-3775572D01*
X-15426811Y-3779316D01*
Y-3780703D01*
X-15426950Y-3781674D01*
X-15427087Y-3782783D01*
X-15427367Y-3784170D01*
X-15427643Y-3785696D01*
X-15428059Y-3787360D01*
X-15428613Y-3789024D01*
X-15429169Y-3790827D01*
X-15430000Y-3792630D01*
X-15430971Y-3794433D01*
X-15432082Y-3796235D01*
X-15433469Y-3798038D01*
X-15434993Y-3799703D01*
X-15436658Y-3801228D01*
X-15436797Y-3801367D01*
X-15437212Y-3801644D01*
X-15437906Y-3802060D01*
X-15439015Y-3802754D01*
X-15440263Y-3803447D01*
X-15441927Y-3804140D01*
X-15443869Y-3805111D01*
X-15446088Y-3805943D01*
X-15448584Y-3806775D01*
X-15451497Y-3807608D01*
X-15454686Y-3808440D01*
X-15458292Y-3809133D01*
X-15462175Y-3809827D01*
X-15466336Y-3810243D01*
X-15470912Y-3810520D01*
X-15475766Y-3810659D01*
X-15475905D01*
X-15476460D01*
X-15477431D01*
X-15478540D01*
X-15480066Y-3810520D01*
X-15481731D01*
X-15483533Y-3810381D01*
X-15485612Y-3810243D01*
X-15489912Y-3809827D01*
X-15494489Y-3809133D01*
X-15499065Y-3808301D01*
X-15501146Y-3807746D01*
X-15503226Y-3807192D01*
X-15503365D01*
X-15503642Y-3807053D01*
X-15504198Y-3806775D01*
X-15504890Y-3806498D01*
X-15505861Y-3806221D01*
X-15506831Y-3805666D01*
X-15509189Y-3804557D01*
X-15511687Y-3803170D01*
X-15514320Y-3801367D01*
X-15516956Y-3799287D01*
X-15519174Y-3796790D01*
Y-3796652D01*
X-15519452Y-3796513D01*
X-15519730Y-3796097D01*
X-15520007Y-3795542D01*
X-15520561Y-3794849D01*
X-15520976Y-3794017D01*
X-15522087Y-3791936D01*
X-15523058Y-3789440D01*
X-15524028Y-3786528D01*
X-15524583Y-3783061D01*
X-15524860Y-3779316D01*
Y-3778068D01*
X-15524722Y-3776542D01*
X-15524445Y-3774739D01*
X-15524028Y-3772659D01*
X-15523474Y-3770440D01*
X-15522780Y-3768083D01*
X-15521671Y-3765864D01*
Y-3765725D01*
X-15521532Y-3765586D01*
X-15521117Y-3764893D01*
X-15520422Y-3763783D01*
X-15519452Y-3762397D01*
X-15518065Y-3760871D01*
X-15516539Y-3759207D01*
X-15514737Y-3757681D01*
X-15512656Y-3756156D01*
X-15512379Y-3756017D01*
X-15511687Y-3755462D01*
X-15510437Y-3754908D01*
X-15508633Y-3753937D01*
X-15506554Y-3753105D01*
X-15504198Y-3751995D01*
X-15501424Y-3751025D01*
X-15498372Y-3750192D01*
X-15498233D01*
X-15497955Y-3750054D01*
X-15497540Y-3749915D01*
X-15496846Y-3749776D01*
X-15496014Y-3749638D01*
X-15495042Y-3749499D01*
X-15493794Y-3749222D01*
X-15492409Y-3749083D01*
X-15490883Y-3748806D01*
X-15489220Y-3748667D01*
X-15487277Y-3748528D01*
X-15485336Y-3748251D01*
X-15483118Y-3748112D01*
X-15480898D01*
X-15478401Y-3747973D01*
X-15475766D01*
X-15475629D01*
X-15475073D01*
X-15474101D01*
X-15472993D01*
X-15471468Y-3748112D01*
D02*
G37*
G36*
X-15428474Y-3841308D02*
X-15441927D01*
Y-3827855D01*
X-15428474D01*
Y-3841308D01*
D02*
G37*
G36*
X-15451497Y-3873066D02*
X-15428474D01*
Y-3884855D01*
X-15451497D01*
Y-3926598D01*
X-15462314D01*
X-15524445Y-3882636D01*
Y-3873066D01*
X-15462314D01*
Y-3860030D01*
X-15451497D01*
Y-3873066D01*
D02*
G37*
G36*
X-15473825Y-3934226D02*
X-15472021D01*
X-15469942Y-3934365D01*
X-15467860Y-3934642D01*
X-15463145Y-3935058D01*
X-15458153Y-3935752D01*
X-15453438Y-3936722D01*
X-15451080Y-3937416D01*
X-15449001Y-3938109D01*
X-15448862D01*
X-15448584Y-3938248D01*
X-15448030Y-3938525D01*
X-15447197Y-3938803D01*
X-15446365Y-3939219D01*
X-15445256Y-3939773D01*
X-15442899Y-3941160D01*
X-15440263Y-3942824D01*
X-15437489Y-3944766D01*
X-15434856Y-3947262D01*
X-15432497Y-3950036D01*
Y-3950175D01*
X-15432220Y-3950452D01*
X-15431943Y-3950868D01*
X-15431665Y-3951423D01*
X-15431248Y-3952255D01*
X-15430695Y-3953087D01*
X-15430139Y-3954197D01*
X-15429723Y-3955306D01*
X-15428613Y-3957941D01*
X-15427643Y-3961131D01*
X-15427087Y-3964598D01*
X-15426811Y-3968481D01*
Y-3969590D01*
X-15426950Y-3970284D01*
Y-3971255D01*
X-15427087Y-3972364D01*
X-15427643Y-3974999D01*
X-15428336Y-3977912D01*
X-15429446Y-3980963D01*
X-15430971Y-3984014D01*
X-15431943Y-3985539D01*
X-15433052Y-3986926D01*
X-15433189Y-3987065D01*
X-15433328Y-3987203D01*
X-15433745Y-3987619D01*
X-15434161Y-3988035D01*
X-15434856Y-3988590D01*
X-15435687Y-3989284D01*
X-15437628Y-3990670D01*
X-15440125Y-3992057D01*
X-15443176Y-3993444D01*
X-15446643Y-3994554D01*
X-15450665Y-3995386D01*
X-15451636Y-3984014D01*
X-15451497D01*
X-15451219Y-3983875D01*
X-15450941D01*
X-15450388Y-3983736D01*
X-15448862Y-3983320D01*
X-15447197Y-3982765D01*
X-15445256Y-3982072D01*
X-15443314Y-3981101D01*
X-15441512Y-3979992D01*
X-15439986Y-3978605D01*
X-15439847Y-3978466D01*
X-15439432Y-3977912D01*
X-15438876Y-3976941D01*
X-15438322Y-3975831D01*
X-15437628Y-3974306D01*
X-15437074Y-3972503D01*
X-15436658Y-3970423D01*
X-15436519Y-3968204D01*
Y-3967233D01*
X-15436658Y-3966262D01*
X-15436797Y-3965014D01*
X-15437074Y-3963488D01*
X-15437489Y-3961963D01*
X-15438045Y-3960299D01*
X-15438876Y-3958773D01*
X-15439015Y-3958634D01*
X-15439291Y-3958080D01*
X-15439847Y-3957248D01*
X-15440678Y-3956416D01*
X-15441650Y-3955306D01*
X-15442760Y-3954197D01*
X-15444008Y-3953087D01*
X-15445534Y-3951978D01*
X-15445673Y-3951839D01*
X-15446365Y-3951562D01*
X-15447336Y-3951007D01*
X-15448584Y-3950452D01*
X-15450249Y-3949759D01*
X-15452190Y-3949065D01*
X-15454408Y-3948372D01*
X-15456905Y-3947678D01*
X-15457043D01*
X-15457182Y-3947540D01*
X-15457599D01*
X-15458153Y-3947401D01*
X-15459540Y-3947124D01*
X-15461343Y-3946708D01*
X-15463562Y-3946430D01*
X-15465919Y-3946153D01*
X-15468555Y-3946014D01*
X-15471329Y-3945876D01*
X-15471468D01*
X-15471883D01*
X-15472577D01*
X-15473686D01*
X-15473409Y-3946014D01*
X-15472716Y-3946569D01*
X-15471745Y-3947401D01*
X-15470358Y-3948372D01*
X-15468971Y-3949759D01*
X-15467445Y-3951423D01*
X-15465919Y-3953364D01*
X-15464532Y-3955583D01*
X-15464394Y-3955861D01*
X-15463979Y-3956693D01*
X-15463423Y-3957941D01*
X-15462869Y-3959467D01*
X-15462175Y-3961547D01*
X-15461621Y-3963766D01*
X-15461205Y-3966262D01*
X-15461066Y-3968897D01*
Y-3970007D01*
X-15461205Y-3970839D01*
X-15461343Y-3971948D01*
X-15461482Y-3973058D01*
X-15461758Y-3974444D01*
X-15462175Y-3975831D01*
X-15463145Y-3979021D01*
X-15463840Y-3980685D01*
X-15464671Y-3982349D01*
X-15465642Y-3984152D01*
X-15466891Y-3985817D01*
X-15468140Y-3987481D01*
X-15469664Y-3989006D01*
X-15469803Y-3989145D01*
X-15470081Y-3989422D01*
X-15470496Y-3989700D01*
X-15471190Y-3990254D01*
X-15472160Y-3990948D01*
X-15473131Y-3991641D01*
X-15474380Y-3992335D01*
X-15475766Y-3993028D01*
X-15477292Y-3993860D01*
X-15478957Y-3994554D01*
X-15480898Y-3995247D01*
X-15482838Y-3995940D01*
X-15485059Y-3996495D01*
X-15487416Y-3996773D01*
X-15489774Y-3997050D01*
X-15492409Y-3997189D01*
X-15492548D01*
X-15493102D01*
X-15493794D01*
X-15494766Y-3997050D01*
X-15496014Y-3996911D01*
X-15497540Y-3996773D01*
X-15499065Y-3996495D01*
X-15500868Y-3996079D01*
X-15504474Y-3995108D01*
X-15506416Y-3994415D01*
X-15508496Y-3993583D01*
X-15510437Y-3992612D01*
X-15512241Y-3991364D01*
X-15514182Y-3990116D01*
X-15515846Y-3988590D01*
X-15515985Y-3988452D01*
X-15516261Y-3988174D01*
X-15516678Y-3987758D01*
X-15517233Y-3987065D01*
X-15517926Y-3986233D01*
X-15518758Y-3985123D01*
X-15519452Y-3984014D01*
X-15520422Y-3982627D01*
X-15521255Y-3981240D01*
X-15521948Y-3979576D01*
X-15523474Y-3975831D01*
X-15524028Y-3973890D01*
X-15524445Y-3971671D01*
X-15524722Y-3969452D01*
X-15524860Y-3967094D01*
Y-3966123D01*
X-15524722Y-3965430D01*
Y-3964737D01*
X-15524583Y-3963766D01*
X-15524167Y-3961408D01*
X-15523611Y-3958773D01*
X-15522643Y-3955861D01*
X-15521393Y-3952948D01*
X-15519730Y-3950036D01*
Y-3949897D01*
X-15519452Y-3949759D01*
X-15519174Y-3949343D01*
X-15518758Y-3948788D01*
X-15517648Y-3947401D01*
X-15516122Y-3945598D01*
X-15514043Y-3943795D01*
X-15511546Y-3941715D01*
X-15508633Y-3939912D01*
X-15505305Y-3938248D01*
X-15505167D01*
X-15504890Y-3938109D01*
X-15504335Y-3937832D01*
X-15503642Y-3937554D01*
X-15502670Y-3937277D01*
X-15501424Y-3936861D01*
X-15500037Y-3936584D01*
X-15498511Y-3936168D01*
X-15496709Y-3935752D01*
X-15494627Y-3935336D01*
X-15492409Y-3935058D01*
X-15490051Y-3934781D01*
X-15487416Y-3934503D01*
X-15484642Y-3934226D01*
X-15481590Y-3934087D01*
X-15478401D01*
X-15478262D01*
X-15477570D01*
X-15476598D01*
X-15475349D01*
X-15473825Y-3934226D01*
D02*
G37*
G36*
X-42944Y-8762528D02*
X-41141Y-8762805D01*
X-38922Y-8763221D01*
X-36426Y-8763915D01*
X-33929Y-8764747D01*
X-31433Y-8765856D01*
X-31294D01*
X-31156Y-8765995D01*
X-30324Y-8766411D01*
X-29075Y-8767243D01*
X-27689Y-8768214D01*
X-26024Y-8769601D01*
X-24360Y-8771126D01*
X-22696Y-8772929D01*
X-21309Y-8775009D01*
X-21170Y-8775287D01*
X-20754Y-8775980D01*
X-20200Y-8777228D01*
X-19506Y-8778754D01*
X-18813Y-8780557D01*
X-18258Y-8782637D01*
X-17842Y-8784995D01*
X-17703Y-8787352D01*
Y-8787630D01*
Y-8788462D01*
X-17842Y-8789571D01*
X-18119Y-8791097D01*
X-18535Y-8792900D01*
X-19229Y-8794841D01*
X-20061Y-8796783D01*
X-21170Y-8798724D01*
X-21309Y-8799002D01*
X-21725Y-8799556D01*
X-22557Y-8800527D01*
X-23667Y-8801637D01*
X-25054Y-8802885D01*
X-26718Y-8804272D01*
X-28659Y-8805520D01*
X-31017Y-8806768D01*
X-30878D01*
X-30601Y-8806907D01*
X-30185Y-8807045D01*
X-29630Y-8807184D01*
X-28105Y-8807739D01*
X-26163Y-8808571D01*
X-23944Y-8809680D01*
X-21725Y-8811067D01*
X-19645Y-8812870D01*
X-17703Y-8814950D01*
X-17565Y-8815228D01*
X-17010Y-8816060D01*
X-16178Y-8817447D01*
X-15346Y-8819250D01*
X-14514Y-8821469D01*
X-13681Y-8824104D01*
X-13127Y-8827155D01*
X-12988Y-8830483D01*
Y-8830622D01*
Y-8831038D01*
Y-8831731D01*
X-13127Y-8832563D01*
X-13265Y-8833673D01*
X-13543Y-8834921D01*
X-13820Y-8836308D01*
X-14098Y-8837833D01*
X-15207Y-8841162D01*
X-16039Y-8842965D01*
X-16871Y-8844629D01*
X-17981Y-8846432D01*
X-19229Y-8848235D01*
X-20616Y-8850037D01*
X-22280Y-8851702D01*
X-22419Y-8851840D01*
X-22696Y-8852118D01*
X-23251Y-8852534D01*
X-23944Y-8853088D01*
X-24776Y-8853782D01*
X-25886Y-8854475D01*
X-27134Y-8855307D01*
X-28659Y-8856001D01*
X-30185Y-8856833D01*
X-31988Y-8857665D01*
X-33791Y-8858358D01*
X-35871Y-8859052D01*
X-38090Y-8859607D01*
X-40447Y-8860023D01*
X-42805Y-8860300D01*
X-45440Y-8860439D01*
X-46688D01*
X-47520Y-8860300D01*
X-48630Y-8860161D01*
X-49878Y-8860023D01*
X-51265Y-8859745D01*
X-52790Y-8859468D01*
X-56119Y-8858636D01*
X-59586Y-8857249D01*
X-61389Y-8856417D01*
X-63053Y-8855446D01*
X-64717Y-8854198D01*
X-66381Y-8852950D01*
X-66520Y-8852811D01*
X-66797Y-8852534D01*
X-67213Y-8852118D01*
X-67630Y-8851563D01*
X-68323Y-8850870D01*
X-69016Y-8849899D01*
X-69848Y-8848928D01*
X-70681Y-8847680D01*
X-71513Y-8846293D01*
X-72345Y-8844906D01*
X-73870Y-8841578D01*
X-75118Y-8837695D01*
X-75535Y-8835614D01*
X-75812Y-8833395D01*
X-64024Y-8831870D01*
Y-8832008D01*
X-63885Y-8832286D01*
X-63746Y-8832841D01*
X-63608Y-8833534D01*
X-63469Y-8834366D01*
X-63192Y-8835337D01*
X-62498Y-8837417D01*
X-61527Y-8839913D01*
X-60279Y-8842271D01*
X-58892Y-8844490D01*
X-57228Y-8846432D01*
X-56951Y-8846570D01*
X-56396Y-8847125D01*
X-55287Y-8847818D01*
X-53900Y-8848512D01*
X-52236Y-8849344D01*
X-50155Y-8850037D01*
X-47798Y-8850592D01*
X-45301Y-8850731D01*
X-44469D01*
X-43915Y-8850592D01*
X-42389Y-8850453D01*
X-40447Y-8850037D01*
X-38229Y-8849344D01*
X-35871Y-8848373D01*
X-33513Y-8846986D01*
X-31294Y-8845045D01*
X-31017Y-8844767D01*
X-30324Y-8843935D01*
X-29491Y-8842687D01*
X-28382Y-8841023D01*
X-27272Y-8838943D01*
X-26440Y-8836585D01*
X-25747Y-8833811D01*
X-25470Y-8830760D01*
Y-8830622D01*
Y-8830344D01*
Y-8829928D01*
X-25608Y-8829374D01*
X-25747Y-8827848D01*
X-26163Y-8826045D01*
X-26718Y-8823826D01*
X-27689Y-8821607D01*
X-29075Y-8819388D01*
X-30878Y-8817308D01*
X-31156Y-8817031D01*
X-31849Y-8816476D01*
X-32959Y-8815644D01*
X-34484Y-8814673D01*
X-36426Y-8813702D01*
X-38783Y-8812870D01*
X-41418Y-8812315D01*
X-44331Y-8812038D01*
X-45579D01*
X-46550Y-8812177D01*
X-47798Y-8812315D01*
X-49185Y-8812593D01*
X-50849Y-8812870D01*
X-52652Y-8813286D01*
X-51265Y-8802885D01*
X-50571D01*
X-50017Y-8803024D01*
X-48214D01*
X-46688Y-8802746D01*
X-44885Y-8802469D01*
X-42805Y-8802053D01*
X-40447Y-8801359D01*
X-38229Y-8800389D01*
X-35871Y-8799140D01*
X-35732D01*
X-35594Y-8799002D01*
X-34900Y-8798447D01*
X-33929Y-8797476D01*
X-32820Y-8796228D01*
X-31710Y-8794425D01*
X-30740Y-8792345D01*
X-30046Y-8789987D01*
X-29769Y-8788600D01*
Y-8787075D01*
Y-8786936D01*
Y-8786798D01*
Y-8785965D01*
X-30046Y-8784856D01*
X-30324Y-8783330D01*
X-30878Y-8781666D01*
X-31572Y-8779863D01*
X-32681Y-8778060D01*
X-34207Y-8776396D01*
X-34345Y-8776258D01*
X-35039Y-8775703D01*
X-36010Y-8775009D01*
X-37258Y-8774177D01*
X-38922Y-8773484D01*
X-40864Y-8772790D01*
X-43082Y-8772236D01*
X-45579Y-8772097D01*
X-46688D01*
X-47936Y-8772374D01*
X-49601Y-8772652D01*
X-51404Y-8773206D01*
X-53206Y-8773900D01*
X-55148Y-8775009D01*
X-56951Y-8776396D01*
X-57090Y-8776535D01*
X-57644Y-8777228D01*
X-58476Y-8778199D01*
X-59447Y-8779586D01*
X-60418Y-8781389D01*
X-61389Y-8783608D01*
X-62221Y-8786243D01*
X-62776Y-8789294D01*
X-74564Y-8787214D01*
Y-8787075D01*
X-74425Y-8786659D01*
X-74286Y-8786104D01*
X-74148Y-8785272D01*
X-73870Y-8784301D01*
X-73454Y-8783192D01*
X-72622Y-8780557D01*
X-71235Y-8777506D01*
X-69571Y-8774455D01*
X-67491Y-8771542D01*
X-64856Y-8768907D01*
X-64717Y-8768769D01*
X-64440Y-8768630D01*
X-64024Y-8768353D01*
X-63469Y-8767936D01*
X-62776Y-8767382D01*
X-61805Y-8766827D01*
X-60834Y-8766272D01*
X-59586Y-8765579D01*
X-56812Y-8764469D01*
X-53622Y-8763360D01*
X-49878Y-8762666D01*
X-47936Y-8762389D01*
X-44469D01*
X-42944Y-8762528D01*
D02*
G37*
G36*
X-192168D02*
X-190365Y-8762805D01*
X-188146Y-8763221D01*
X-185650Y-8763915D01*
X-183153Y-8764747D01*
X-180657Y-8765856D01*
X-180518D01*
X-180380Y-8765995D01*
X-179548Y-8766411D01*
X-178299Y-8767243D01*
X-176913Y-8768214D01*
X-175248Y-8769601D01*
X-173584Y-8771126D01*
X-171920Y-8772929D01*
X-170533Y-8775009D01*
X-170394Y-8775287D01*
X-169978Y-8775980D01*
X-169424Y-8777228D01*
X-168730Y-8778754D01*
X-168037Y-8780557D01*
X-167482Y-8782637D01*
X-167066Y-8784995D01*
X-166927Y-8787352D01*
Y-8787630D01*
Y-8788462D01*
X-167066Y-8789571D01*
X-167343Y-8791097D01*
X-167759Y-8792900D01*
X-168453Y-8794841D01*
X-169285Y-8796783D01*
X-170394Y-8798724D01*
X-170533Y-8799002D01*
X-170949Y-8799556D01*
X-171781Y-8800527D01*
X-172891Y-8801637D01*
X-174278Y-8802885D01*
X-175942Y-8804272D01*
X-177883Y-8805520D01*
X-180241Y-8806768D01*
X-180102D01*
X-179825Y-8806907D01*
X-179409Y-8807045D01*
X-178854Y-8807184D01*
X-177329Y-8807739D01*
X-175387Y-8808571D01*
X-173168Y-8809680D01*
X-170949Y-8811067D01*
X-168869Y-8812870D01*
X-166927Y-8814950D01*
X-166789Y-8815228D01*
X-166234Y-8816060D01*
X-165402Y-8817447D01*
X-164570Y-8819250D01*
X-163738Y-8821469D01*
X-162905Y-8824104D01*
X-162351Y-8827155D01*
X-162212Y-8830483D01*
Y-8830622D01*
Y-8831038D01*
Y-8831731D01*
X-162351Y-8832563D01*
X-162489Y-8833673D01*
X-162767Y-8834921D01*
X-163044Y-8836308D01*
X-163321Y-8837833D01*
X-164431Y-8841162D01*
X-165263Y-8842965D01*
X-166095Y-8844629D01*
X-167205Y-8846432D01*
X-168453Y-8848235D01*
X-169840Y-8850037D01*
X-171504Y-8851702D01*
X-171643Y-8851840D01*
X-171920Y-8852118D01*
X-172475Y-8852534D01*
X-173168Y-8853088D01*
X-174000Y-8853782D01*
X-175110Y-8854475D01*
X-176358Y-8855307D01*
X-177883Y-8856001D01*
X-179409Y-8856833D01*
X-181212Y-8857665D01*
X-183015Y-8858358D01*
X-185095Y-8859052D01*
X-187314Y-8859607D01*
X-189671Y-8860023D01*
X-192029Y-8860300D01*
X-194664Y-8860439D01*
X-195912D01*
X-196744Y-8860300D01*
X-197854Y-8860161D01*
X-199102Y-8860023D01*
X-200489Y-8859745D01*
X-202014Y-8859468D01*
X-205343Y-8858636D01*
X-208810Y-8857249D01*
X-210613Y-8856417D01*
X-212277Y-8855446D01*
X-213941Y-8854198D01*
X-215605Y-8852950D01*
X-215744Y-8852811D01*
X-216021Y-8852534D01*
X-216437Y-8852118D01*
X-216854Y-8851563D01*
X-217547Y-8850870D01*
X-218240Y-8849899D01*
X-219072Y-8848928D01*
X-219905Y-8847680D01*
X-220737Y-8846293D01*
X-221569Y-8844906D01*
X-223094Y-8841578D01*
X-224342Y-8837695D01*
X-224759Y-8835614D01*
X-225036Y-8833395D01*
X-213248Y-8831870D01*
Y-8832008D01*
X-213109Y-8832286D01*
X-212970Y-8832841D01*
X-212832Y-8833534D01*
X-212693Y-8834366D01*
X-212416Y-8835337D01*
X-211722Y-8837417D01*
X-210751Y-8839913D01*
X-209503Y-8842271D01*
X-208116Y-8844490D01*
X-206452Y-8846432D01*
X-206175Y-8846570D01*
X-205620Y-8847125D01*
X-204511Y-8847818D01*
X-203124Y-8848512D01*
X-201460Y-8849344D01*
X-199379Y-8850037D01*
X-197022Y-8850592D01*
X-194525Y-8850731D01*
X-193693D01*
X-193139Y-8850592D01*
X-191613Y-8850453D01*
X-189671Y-8850037D01*
X-187453Y-8849344D01*
X-185095Y-8848373D01*
X-182737Y-8846986D01*
X-180518Y-8845045D01*
X-180241Y-8844767D01*
X-179548Y-8843935D01*
X-178715Y-8842687D01*
X-177606Y-8841023D01*
X-176496Y-8838943D01*
X-175664Y-8836585D01*
X-174971Y-8833811D01*
X-174694Y-8830760D01*
Y-8830622D01*
Y-8830344D01*
Y-8829928D01*
X-174832Y-8829374D01*
X-174971Y-8827848D01*
X-175387Y-8826045D01*
X-175942Y-8823826D01*
X-176913Y-8821607D01*
X-178299Y-8819388D01*
X-180102Y-8817308D01*
X-180380Y-8817031D01*
X-181073Y-8816476D01*
X-182183Y-8815644D01*
X-183708Y-8814673D01*
X-185650Y-8813702D01*
X-188007Y-8812870D01*
X-190642Y-8812315D01*
X-193555Y-8812038D01*
X-194803D01*
X-195774Y-8812177D01*
X-197022Y-8812315D01*
X-198409Y-8812593D01*
X-200073Y-8812870D01*
X-201876Y-8813286D01*
X-200489Y-8802885D01*
X-199795D01*
X-199241Y-8803024D01*
X-197438D01*
X-195912Y-8802746D01*
X-194109Y-8802469D01*
X-192029Y-8802053D01*
X-189671Y-8801359D01*
X-187453Y-8800389D01*
X-185095Y-8799140D01*
X-184956D01*
X-184818Y-8799002D01*
X-184124Y-8798447D01*
X-183153Y-8797476D01*
X-182044Y-8796228D01*
X-180934Y-8794425D01*
X-179964Y-8792345D01*
X-179270Y-8789987D01*
X-178993Y-8788600D01*
Y-8787075D01*
Y-8786936D01*
Y-8786798D01*
Y-8785965D01*
X-179270Y-8784856D01*
X-179548Y-8783330D01*
X-180102Y-8781666D01*
X-180796Y-8779863D01*
X-181905Y-8778060D01*
X-183431Y-8776396D01*
X-183569Y-8776258D01*
X-184263Y-8775703D01*
X-185234Y-8775009D01*
X-186482Y-8774177D01*
X-188146Y-8773484D01*
X-190088Y-8772790D01*
X-192306Y-8772236D01*
X-194803Y-8772097D01*
X-195912D01*
X-197160Y-8772374D01*
X-198825Y-8772652D01*
X-200627Y-8773206D01*
X-202430Y-8773900D01*
X-204372Y-8775009D01*
X-206175Y-8776396D01*
X-206314Y-8776535D01*
X-206868Y-8777228D01*
X-207700Y-8778199D01*
X-208671Y-8779586D01*
X-209642Y-8781389D01*
X-210613Y-8783608D01*
X-211445Y-8786243D01*
X-212000Y-8789294D01*
X-223788Y-8787214D01*
Y-8787075D01*
X-223649Y-8786659D01*
X-223510Y-8786104D01*
X-223372Y-8785272D01*
X-223094Y-8784301D01*
X-222678Y-8783192D01*
X-221846Y-8780557D01*
X-220459Y-8777506D01*
X-218795Y-8774455D01*
X-216715Y-8771542D01*
X-214080Y-8768907D01*
X-213941Y-8768769D01*
X-213664Y-8768630D01*
X-213248Y-8768353D01*
X-212693Y-8767936D01*
X-212000Y-8767382D01*
X-211029Y-8766827D01*
X-210058Y-8766272D01*
X-208810Y-8765579D01*
X-206036Y-8764469D01*
X-202846Y-8763360D01*
X-199102Y-8762666D01*
X-197160Y-8762389D01*
X-193693D01*
X-192168Y-8762528D01*
D02*
G37*
G36*
X169659Y-8775287D02*
X131243D01*
X126112Y-8801221D01*
X126251Y-8801082D01*
X126528Y-8800943D01*
X126944Y-8800666D01*
X127638Y-8800250D01*
X128470Y-8799834D01*
X129440Y-8799279D01*
X131659Y-8798170D01*
X134433Y-8797060D01*
X137484Y-8796089D01*
X140813Y-8795396D01*
X142477Y-8795119D01*
X145528D01*
X146360Y-8795257D01*
X147469Y-8795396D01*
X148718Y-8795535D01*
X150104Y-8795812D01*
X151630Y-8796228D01*
X154958Y-8797199D01*
X156761Y-8797892D01*
X158564Y-8798863D01*
X160367Y-8799834D01*
X162170Y-8800943D01*
X163834Y-8802330D01*
X165498Y-8803856D01*
X165637Y-8803994D01*
X165914Y-8804272D01*
X166330Y-8804688D01*
X166885Y-8805381D01*
X167579Y-8806352D01*
X168272Y-8807323D01*
X169104Y-8808571D01*
X169936Y-8809958D01*
X170630Y-8811483D01*
X171462Y-8813147D01*
X172155Y-8815089D01*
X172849Y-8817031D01*
X173403Y-8819111D01*
X173819Y-8821469D01*
X174097Y-8823826D01*
X174235Y-8826322D01*
Y-8826461D01*
Y-8826877D01*
Y-8827571D01*
X174097Y-8828541D01*
X173958Y-8829651D01*
X173819Y-8830899D01*
X173542Y-8832425D01*
X173265Y-8833950D01*
X172432Y-8837556D01*
X171046Y-8841300D01*
X170214Y-8843242D01*
X169104Y-8845045D01*
X167995Y-8846986D01*
X166608Y-8848789D01*
X166469Y-8848928D01*
X166192Y-8849344D01*
X165637Y-8849899D01*
X164944Y-8850592D01*
X163973Y-8851424D01*
X162863Y-8852534D01*
X161476Y-8853505D01*
X159951Y-8854614D01*
X158287Y-8855723D01*
X156345Y-8856694D01*
X154265Y-8857665D01*
X152046Y-8858636D01*
X149688Y-8859329D01*
X147053Y-8859884D01*
X144280Y-8860300D01*
X141367Y-8860439D01*
X140119D01*
X139148Y-8860300D01*
X138039Y-8860161D01*
X136791Y-8860023D01*
X135265Y-8859884D01*
X133740Y-8859468D01*
X130273Y-8858636D01*
X126805Y-8857388D01*
X125003Y-8856556D01*
X123200Y-8855585D01*
X121535Y-8854475D01*
X119871Y-8853227D01*
X119733Y-8853088D01*
X119455Y-8852950D01*
X119178Y-8852395D01*
X118623Y-8851840D01*
X117930Y-8851147D01*
X117236Y-8850315D01*
X116404Y-8849205D01*
X115711Y-8847957D01*
X114879Y-8846709D01*
X114047Y-8845183D01*
X112521Y-8841855D01*
X111273Y-8837972D01*
X110857Y-8835892D01*
X110579Y-8833673D01*
X122922Y-8832702D01*
Y-8832841D01*
Y-8833118D01*
X123061Y-8833534D01*
X123200Y-8834227D01*
X123616Y-8835753D01*
X124170Y-8837833D01*
X125003Y-8839913D01*
X126112Y-8842271D01*
X127499Y-8844351D01*
X129163Y-8846293D01*
X129440Y-8846432D01*
X129995Y-8846986D01*
X131105Y-8847680D01*
X132630Y-8848512D01*
X134294Y-8849344D01*
X136375Y-8850037D01*
X138732Y-8850592D01*
X141367Y-8850731D01*
X142199D01*
X142754Y-8850592D01*
X144418Y-8850453D01*
X146360Y-8849899D01*
X148718Y-8849205D01*
X151075Y-8848096D01*
X153571Y-8846432D01*
X154681Y-8845461D01*
X155790Y-8844351D01*
X155929Y-8844213D01*
X156068Y-8844074D01*
X156345Y-8843658D01*
X156761Y-8843242D01*
X157732Y-8841716D01*
X158841Y-8839775D01*
X159812Y-8837417D01*
X160783Y-8834505D01*
X161476Y-8831038D01*
X161754Y-8829235D01*
Y-8827293D01*
Y-8827155D01*
Y-8826877D01*
Y-8826322D01*
X161615Y-8825629D01*
Y-8824797D01*
X161476Y-8823826D01*
X161060Y-8821607D01*
X160367Y-8818972D01*
X159396Y-8816337D01*
X158009Y-8813841D01*
X156068Y-8811483D01*
Y-8811345D01*
X155790Y-8811206D01*
X155097Y-8810512D01*
X153849Y-8809542D01*
X152185Y-8808432D01*
X149966Y-8807461D01*
X147469Y-8806491D01*
X144557Y-8805797D01*
X142893Y-8805520D01*
X140258D01*
X139148Y-8805659D01*
X137761Y-8805797D01*
X136097Y-8806213D01*
X134433Y-8806629D01*
X132630Y-8807323D01*
X130827Y-8808155D01*
X130689Y-8808294D01*
X130134Y-8808571D01*
X129302Y-8809264D01*
X128192Y-8809958D01*
X127083Y-8810929D01*
X125973Y-8812177D01*
X124725Y-8813425D01*
X123754Y-8814950D01*
X112660Y-8813425D01*
X121951Y-8764053D01*
X169659D01*
Y-8775287D01*
D02*
G37*
G36*
X95047D02*
X56631D01*
X51500Y-8801221D01*
X51639Y-8801082D01*
X51916Y-8800943D01*
X52332Y-8800666D01*
X53026Y-8800250D01*
X53858Y-8799834D01*
X54828Y-8799279D01*
X57047Y-8798170D01*
X59821Y-8797060D01*
X62872Y-8796089D01*
X66201Y-8795396D01*
X67865Y-8795119D01*
X70916D01*
X71748Y-8795257D01*
X72857Y-8795396D01*
X74106Y-8795535D01*
X75492Y-8795812D01*
X77018Y-8796228D01*
X80346Y-8797199D01*
X82149Y-8797892D01*
X83952Y-8798863D01*
X85755Y-8799834D01*
X87558Y-8800943D01*
X89222Y-8802330D01*
X90886Y-8803856D01*
X91025Y-8803994D01*
X91302Y-8804272D01*
X91718Y-8804688D01*
X92273Y-8805381D01*
X92967Y-8806352D01*
X93660Y-8807323D01*
X94492Y-8808571D01*
X95324Y-8809958D01*
X96018Y-8811483D01*
X96850Y-8813147D01*
X97543Y-8815089D01*
X98237Y-8817031D01*
X98791Y-8819111D01*
X99207Y-8821469D01*
X99485Y-8823826D01*
X99623Y-8826322D01*
Y-8826461D01*
Y-8826877D01*
Y-8827571D01*
X99485Y-8828541D01*
X99346Y-8829651D01*
X99207Y-8830899D01*
X98930Y-8832425D01*
X98653Y-8833950D01*
X97820Y-8837556D01*
X96434Y-8841300D01*
X95602Y-8843242D01*
X94492Y-8845045D01*
X93383Y-8846986D01*
X91996Y-8848789D01*
X91857Y-8848928D01*
X91580Y-8849344D01*
X91025Y-8849899D01*
X90332Y-8850592D01*
X89361Y-8851424D01*
X88251Y-8852534D01*
X86864Y-8853505D01*
X85339Y-8854614D01*
X83675Y-8855723D01*
X81733Y-8856694D01*
X79653Y-8857665D01*
X77434Y-8858636D01*
X75076Y-8859329D01*
X72441Y-8859884D01*
X69668Y-8860300D01*
X66755Y-8860439D01*
X65507D01*
X64536Y-8860300D01*
X63427Y-8860161D01*
X62179Y-8860023D01*
X60653Y-8859884D01*
X59128Y-8859468D01*
X55661Y-8858636D01*
X52193Y-8857388D01*
X50391Y-8856556D01*
X48588Y-8855585D01*
X46923Y-8854475D01*
X45259Y-8853227D01*
X45121Y-8853088D01*
X44843Y-8852950D01*
X44566Y-8852395D01*
X44011Y-8851840D01*
X43318Y-8851147D01*
X42624Y-8850315D01*
X41792Y-8849205D01*
X41099Y-8847957D01*
X40267Y-8846709D01*
X39435Y-8845183D01*
X37909Y-8841855D01*
X36661Y-8837972D01*
X36245Y-8835892D01*
X35967Y-8833673D01*
X48310Y-8832702D01*
Y-8832841D01*
Y-8833118D01*
X48449Y-8833534D01*
X48588Y-8834227D01*
X49004Y-8835753D01*
X49558Y-8837833D01*
X50391Y-8839913D01*
X51500Y-8842271D01*
X52887Y-8844351D01*
X54551Y-8846293D01*
X54828Y-8846432D01*
X55383Y-8846986D01*
X56493Y-8847680D01*
X58018Y-8848512D01*
X59682Y-8849344D01*
X61763Y-8850037D01*
X64120Y-8850592D01*
X66755Y-8850731D01*
X67587D01*
X68142Y-8850592D01*
X69806Y-8850453D01*
X71748Y-8849899D01*
X74106Y-8849205D01*
X76463Y-8848096D01*
X78959Y-8846432D01*
X80069Y-8845461D01*
X81178Y-8844351D01*
X81317Y-8844213D01*
X81456Y-8844074D01*
X81733Y-8843658D01*
X82149Y-8843242D01*
X83120Y-8841716D01*
X84229Y-8839775D01*
X85200Y-8837417D01*
X86171Y-8834505D01*
X86864Y-8831038D01*
X87142Y-8829235D01*
Y-8827293D01*
Y-8827155D01*
Y-8826877D01*
Y-8826322D01*
X87003Y-8825629D01*
Y-8824797D01*
X86864Y-8823826D01*
X86448Y-8821607D01*
X85755Y-8818972D01*
X84784Y-8816337D01*
X83397Y-8813841D01*
X81456Y-8811483D01*
Y-8811345D01*
X81178Y-8811206D01*
X80485Y-8810512D01*
X79237Y-8809542D01*
X77573Y-8808432D01*
X75354Y-8807461D01*
X72857Y-8806491D01*
X69945Y-8805797D01*
X68281Y-8805520D01*
X65646D01*
X64536Y-8805659D01*
X63149Y-8805797D01*
X61485Y-8806213D01*
X59821Y-8806629D01*
X58018Y-8807323D01*
X56215Y-8808155D01*
X56077Y-8808294D01*
X55522Y-8808571D01*
X54690Y-8809264D01*
X53580Y-8809958D01*
X52471Y-8810929D01*
X51361Y-8812177D01*
X50113Y-8813425D01*
X49142Y-8814950D01*
X38048Y-8813425D01*
X47340Y-8764053D01*
X95047D01*
Y-8775287D01*
D02*
G37*
G36*
X18771Y-8858775D02*
X5318D01*
Y-8845322D01*
X18771D01*
Y-8858775D01*
D02*
G37*
G36*
X-116446Y-8762528D02*
X-114643Y-8762805D01*
X-112563Y-8763221D01*
X-110344Y-8763776D01*
X-107987Y-8764469D01*
X-105768Y-8765579D01*
X-105629D01*
X-105490Y-8765718D01*
X-104797Y-8766134D01*
X-103687Y-8766827D01*
X-102301Y-8767798D01*
X-100775Y-8769185D01*
X-99111Y-8770710D01*
X-97585Y-8772513D01*
X-96060Y-8774593D01*
X-95921Y-8774871D01*
X-95366Y-8775564D01*
X-94812Y-8776812D01*
X-93841Y-8778615D01*
X-93009Y-8780695D01*
X-91899Y-8783053D01*
X-90928Y-8785827D01*
X-90096Y-8788878D01*
Y-8789016D01*
X-89958Y-8789294D01*
X-89819Y-8789710D01*
X-89680Y-8790403D01*
X-89542Y-8791235D01*
X-89403Y-8792206D01*
X-89126Y-8793454D01*
X-88987Y-8794841D01*
X-88709Y-8796367D01*
X-88571Y-8798031D01*
X-88432Y-8799972D01*
X-88155Y-8801914D01*
X-88016Y-8804133D01*
Y-8806352D01*
X-87877Y-8808848D01*
Y-8811483D01*
Y-8811622D01*
Y-8812177D01*
Y-8813147D01*
Y-8814257D01*
X-88016Y-8815782D01*
Y-8817447D01*
X-88155Y-8819250D01*
X-88293Y-8821191D01*
X-88709Y-8825629D01*
X-89403Y-8830206D01*
X-90235Y-8834643D01*
X-90790Y-8836724D01*
X-91483Y-8838804D01*
Y-8838943D01*
X-91622Y-8839220D01*
X-91899Y-8839775D01*
X-92177Y-8840468D01*
X-92454Y-8841439D01*
X-93009Y-8842410D01*
X-94118Y-8844767D01*
X-95505Y-8847264D01*
X-97308Y-8850037D01*
X-99388Y-8852534D01*
X-101884Y-8854891D01*
X-102023D01*
X-102162Y-8855169D01*
X-102578Y-8855446D01*
X-103133Y-8855723D01*
X-103826Y-8856140D01*
X-104519Y-8856694D01*
X-106600Y-8857665D01*
X-109096Y-8858636D01*
X-112008Y-8859607D01*
X-115476Y-8860161D01*
X-119220Y-8860439D01*
X-120607D01*
X-121578Y-8860300D01*
X-122687Y-8860161D01*
X-124074Y-8859884D01*
X-125599Y-8859607D01*
X-127264Y-8859191D01*
X-128928Y-8858636D01*
X-130731Y-8858081D01*
X-132534Y-8857249D01*
X-134337Y-8856278D01*
X-136139Y-8855169D01*
X-137942Y-8853782D01*
X-139607Y-8852256D01*
X-141132Y-8850592D01*
X-141271Y-8850453D01*
X-141548Y-8850037D01*
X-141964Y-8849344D01*
X-142658Y-8848235D01*
X-143351Y-8846986D01*
X-144044Y-8845322D01*
X-145015Y-8843381D01*
X-145847Y-8841162D01*
X-146679Y-8838665D01*
X-147512Y-8835753D01*
X-148344Y-8832563D01*
X-149037Y-8828957D01*
X-149730Y-8825074D01*
X-150147Y-8820914D01*
X-150424Y-8816337D01*
X-150563Y-8811483D01*
Y-8811345D01*
Y-8810790D01*
Y-8809819D01*
Y-8808710D01*
X-150424Y-8807184D01*
Y-8805520D01*
X-150285Y-8803717D01*
X-150147Y-8801637D01*
X-149730Y-8797337D01*
X-149037Y-8792761D01*
X-148205Y-8788184D01*
X-147650Y-8786104D01*
X-147095Y-8784024D01*
Y-8783885D01*
X-146957Y-8783608D01*
X-146679Y-8783053D01*
X-146402Y-8782360D01*
X-146125Y-8781389D01*
X-145570Y-8780418D01*
X-144460Y-8778060D01*
X-143074Y-8775564D01*
X-141271Y-8772929D01*
X-139190Y-8770294D01*
X-136694Y-8768075D01*
X-136555D01*
X-136417Y-8767798D01*
X-136001Y-8767520D01*
X-135446Y-8767243D01*
X-134753Y-8766688D01*
X-133920Y-8766272D01*
X-131840Y-8765163D01*
X-129344Y-8764192D01*
X-126432Y-8763221D01*
X-122964Y-8762666D01*
X-119220Y-8762389D01*
X-117972D01*
X-116446Y-8762528D01*
D02*
G37*
%LPC*%
G36*
X-10562187Y1237653D02*
X-10564406D01*
X-10564961Y1237514D01*
X-10566487Y1237375D01*
X-10568290Y1236820D01*
X-10570508Y1236127D01*
X-10572866Y1234879D01*
X-10575224Y1233353D01*
X-10576333Y1232244D01*
X-10577443Y1231134D01*
Y1230996D01*
X-10577720Y1230857D01*
X-10577997Y1230441D01*
X-10578275Y1230025D01*
X-10579246Y1228638D01*
X-10580216Y1226697D01*
X-10581326Y1224339D01*
X-10582297Y1221427D01*
X-10582851Y1218098D01*
X-10583129Y1214492D01*
Y1214354D01*
Y1214076D01*
Y1213660D01*
X-10582990Y1212967D01*
Y1212135D01*
X-10582851Y1211303D01*
X-10582435Y1209222D01*
X-10581742Y1206865D01*
X-10580910Y1204368D01*
X-10579523Y1201872D01*
X-10577720Y1199653D01*
X-10577443Y1199376D01*
X-10576749Y1198821D01*
X-10575501Y1197850D01*
X-10573976Y1196879D01*
X-10571895Y1195770D01*
X-10569538Y1194799D01*
X-10566903Y1194244D01*
X-10563990Y1193967D01*
X-10563158D01*
X-10562603Y1194106D01*
X-10561078Y1194244D01*
X-10559275Y1194661D01*
X-10557056Y1195354D01*
X-10554837Y1196325D01*
X-10552618Y1197712D01*
X-10550538Y1199653D01*
X-10550261Y1199931D01*
X-10549706Y1200763D01*
X-10548874Y1202011D01*
X-10547764Y1203814D01*
X-10546793Y1206033D01*
X-10545961Y1208668D01*
X-10545407Y1211857D01*
X-10545129Y1215463D01*
Y1215602D01*
Y1215879D01*
Y1216434D01*
X-10545268Y1217127D01*
Y1218098D01*
X-10545407Y1219069D01*
X-10545823Y1221288D01*
X-10546377Y1223923D01*
X-10547348Y1226697D01*
X-10548735Y1229332D01*
X-10550538Y1231689D01*
Y1231828D01*
X-10550815Y1231967D01*
X-10551509Y1232660D01*
X-10552618Y1233631D01*
X-10554144Y1234740D01*
X-10556085Y1235711D01*
X-10558304Y1236682D01*
X-10560801Y1237375D01*
X-10562187Y1237653D01*
D02*
G37*
G36*
X-10452072D02*
X-10452904D01*
X-10453459Y1237514D01*
X-10454985Y1237237D01*
X-10456788Y1236820D01*
X-10458868Y1235988D01*
X-10461087Y1234740D01*
X-10462196Y1233908D01*
X-10463306Y1233076D01*
X-10464277Y1231967D01*
X-10465247Y1230718D01*
Y1230580D01*
X-10465525Y1230302D01*
X-10465802Y1229748D01*
X-10466218Y1229054D01*
X-10466634Y1227945D01*
X-10467189Y1226697D01*
X-10467605Y1225171D01*
X-10468160Y1223368D01*
X-10468714Y1221288D01*
X-10469269Y1218930D01*
X-10469824Y1216295D01*
X-10470240Y1213383D01*
X-10470656Y1210054D01*
X-10470933Y1206449D01*
X-10471072Y1202566D01*
X-10471211Y1198266D01*
Y1197989D01*
Y1197296D01*
Y1196047D01*
X-10471072Y1194383D01*
Y1192580D01*
X-10470933Y1190361D01*
X-10470795Y1188004D01*
X-10470517Y1185507D01*
X-10469824Y1180099D01*
X-10469408Y1177464D01*
X-10468853Y1174967D01*
X-10468298Y1172610D01*
X-10467466Y1170391D01*
X-10466634Y1168449D01*
X-10465663Y1166785D01*
Y1166646D01*
X-10465386Y1166508D01*
X-10464693Y1165537D01*
X-10463444Y1164289D01*
X-10461919Y1162902D01*
X-10459839Y1161515D01*
X-10457481Y1160267D01*
X-10454846Y1159296D01*
X-10453459Y1159157D01*
X-10451934Y1159019D01*
X-10451102D01*
X-10450547Y1159157D01*
X-10449160Y1159435D01*
X-10447218Y1159990D01*
X-10445138Y1160960D01*
X-10442780Y1162347D01*
X-10441671Y1163179D01*
X-10440562Y1164289D01*
X-10439452Y1165398D01*
X-10438343Y1166785D01*
Y1166924D01*
X-10438065Y1167201D01*
X-10437788Y1167617D01*
X-10437510Y1168311D01*
X-10436956Y1169281D01*
X-10436540Y1170530D01*
X-10435985Y1171916D01*
X-10435430Y1173581D01*
X-10435014Y1175661D01*
X-10434459Y1177880D01*
X-10433905Y1180515D01*
X-10433489Y1183288D01*
X-10433211Y1186617D01*
X-10432934Y1190084D01*
X-10432657Y1193967D01*
Y1198266D01*
Y1198405D01*
Y1198544D01*
Y1199237D01*
Y1200485D01*
X-10432795Y1202149D01*
Y1203952D01*
X-10432934Y1206171D01*
X-10433073Y1208529D01*
X-10433350Y1211164D01*
X-10434043Y1216434D01*
X-10434459Y1219069D01*
X-10435014Y1221565D01*
X-10435569Y1223923D01*
X-10436401Y1226142D01*
X-10437233Y1228083D01*
X-10438204Y1229748D01*
Y1229886D01*
X-10438481Y1230025D01*
X-10438759Y1230441D01*
X-10439175Y1230996D01*
X-10440423Y1232244D01*
X-10441948Y1233769D01*
X-10444029Y1235156D01*
X-10446386Y1236404D01*
X-10447634Y1236959D01*
X-10449021Y1237375D01*
X-10450547Y1237514D01*
X-10452072Y1237653D01*
D02*
G37*
G36*
X-15471468Y-3685427D02*
X-15475766D01*
X-15475905D01*
X-15476044D01*
X-15476736D01*
X-15477985D01*
X-15479649Y-3685566D01*
X-15481451D01*
X-15483672Y-3685704D01*
X-15486029Y-3685843D01*
X-15488664Y-3686120D01*
X-15493935Y-3686814D01*
X-15496568Y-3687230D01*
X-15499065Y-3687785D01*
X-15501424Y-3688339D01*
X-15503642Y-3689171D01*
X-15505583Y-3690004D01*
X-15507248Y-3690974D01*
X-15507385D01*
X-15507526Y-3691252D01*
X-15507941Y-3691529D01*
X-15508496Y-3691945D01*
X-15509744Y-3693193D01*
X-15511269Y-3694719D01*
X-15512656Y-3696799D01*
X-15513904Y-3699157D01*
X-15514459Y-3700405D01*
X-15514874Y-3701792D01*
X-15515015Y-3703317D01*
X-15515154Y-3704843D01*
Y-3705675D01*
X-15515015Y-3706230D01*
X-15514737Y-3707755D01*
X-15514320Y-3709558D01*
X-15513487Y-3711638D01*
X-15512241Y-3713857D01*
X-15511407Y-3714967D01*
X-15510576Y-3716076D01*
X-15509467Y-3717047D01*
X-15508218Y-3718018D01*
X-15508080D01*
X-15507802Y-3718295D01*
X-15507248Y-3718572D01*
X-15506554Y-3718988D01*
X-15505444Y-3719405D01*
X-15504198Y-3719959D01*
X-15502670Y-3720375D01*
X-15500868Y-3720930D01*
X-15498788Y-3721485D01*
X-15496429Y-3722040D01*
X-15493794Y-3722594D01*
X-15490883Y-3723010D01*
X-15487553Y-3723426D01*
X-15483949Y-3723704D01*
X-15480066Y-3723842D01*
X-15475766Y-3723981D01*
X-15475488D01*
X-15474796D01*
X-15473547D01*
X-15471883Y-3723842D01*
X-15470081D01*
X-15467860Y-3723704D01*
X-15465504Y-3723565D01*
X-15463007Y-3723288D01*
X-15457599Y-3722594D01*
X-15454964Y-3722178D01*
X-15452467Y-3721623D01*
X-15450110Y-3721069D01*
X-15447891Y-3720237D01*
X-15445949Y-3719405D01*
X-15444286Y-3718434D01*
X-15444147D01*
X-15444008Y-3718156D01*
X-15443037Y-3717463D01*
X-15441789Y-3716215D01*
X-15440402Y-3714689D01*
X-15439015Y-3712609D01*
X-15437767Y-3710251D01*
X-15436797Y-3707616D01*
X-15436658Y-3706230D01*
X-15436519Y-3704704D01*
Y-3703872D01*
X-15436658Y-3703317D01*
X-15436935Y-3701930D01*
X-15437489Y-3699989D01*
X-15438460Y-3697909D01*
X-15439847Y-3695551D01*
X-15440678Y-3694441D01*
X-15441789Y-3693332D01*
X-15442899Y-3692222D01*
X-15444286Y-3691113D01*
X-15444424D01*
X-15444701Y-3690836D01*
X-15445117Y-3690558D01*
X-15445811Y-3690281D01*
X-15446780Y-3689726D01*
X-15448030Y-3689310D01*
X-15449416Y-3688755D01*
X-15451080Y-3688201D01*
X-15453162Y-3687785D01*
X-15455380Y-3687230D01*
X-15458015Y-3686675D01*
X-15460788Y-3686259D01*
X-15464117Y-3685982D01*
X-15467584Y-3685704D01*
X-15471468Y-3685427D01*
D02*
G37*
G36*
Y-3760039D02*
X-15475766D01*
X-15475905D01*
X-15476044D01*
X-15476736D01*
X-15477985D01*
X-15479649Y-3760178D01*
X-15481451D01*
X-15483672Y-3760316D01*
X-15486029Y-3760455D01*
X-15488664Y-3760732D01*
X-15493935Y-3761426D01*
X-15496568Y-3761842D01*
X-15499065Y-3762397D01*
X-15501424Y-3762951D01*
X-15503642Y-3763783D01*
X-15505583Y-3764616D01*
X-15507248Y-3765586D01*
X-15507385D01*
X-15507526Y-3765864D01*
X-15507941Y-3766141D01*
X-15508496Y-3766557D01*
X-15509744Y-3767805D01*
X-15511269Y-3769331D01*
X-15512656Y-3771411D01*
X-15513904Y-3773769D01*
X-15514459Y-3775017D01*
X-15514874Y-3776404D01*
X-15515015Y-3777929D01*
X-15515154Y-3779455D01*
Y-3780287D01*
X-15515015Y-3780842D01*
X-15514737Y-3782367D01*
X-15514320Y-3784170D01*
X-15513487Y-3786250D01*
X-15512241Y-3788469D01*
X-15511407Y-3789579D01*
X-15510576Y-3790688D01*
X-15509467Y-3791659D01*
X-15508218Y-3792630D01*
X-15508080D01*
X-15507802Y-3792907D01*
X-15507248Y-3793184D01*
X-15506554Y-3793600D01*
X-15505444Y-3794017D01*
X-15504198Y-3794571D01*
X-15502670Y-3794987D01*
X-15500868Y-3795542D01*
X-15498788Y-3796097D01*
X-15496429Y-3796652D01*
X-15493794Y-3797206D01*
X-15490883Y-3797622D01*
X-15487553Y-3798038D01*
X-15483949Y-3798316D01*
X-15480066Y-3798454D01*
X-15475766Y-3798593D01*
X-15475488D01*
X-15474796D01*
X-15473547D01*
X-15471883Y-3798454D01*
X-15470081D01*
X-15467860Y-3798316D01*
X-15465504Y-3798177D01*
X-15463007Y-3797900D01*
X-15457599Y-3797206D01*
X-15454964Y-3796790D01*
X-15452467Y-3796235D01*
X-15450110Y-3795681D01*
X-15447891Y-3794849D01*
X-15445949Y-3794017D01*
X-15444286Y-3793046D01*
X-15444147D01*
X-15444008Y-3792768D01*
X-15443037Y-3792075D01*
X-15441789Y-3790827D01*
X-15440402Y-3789301D01*
X-15439015Y-3787221D01*
X-15437767Y-3784863D01*
X-15436797Y-3782228D01*
X-15436658Y-3780842D01*
X-15436519Y-3779316D01*
Y-3778484D01*
X-15436658Y-3777929D01*
X-15436935Y-3776542D01*
X-15437489Y-3774601D01*
X-15438460Y-3772521D01*
X-15439847Y-3770163D01*
X-15440678Y-3769053D01*
X-15441789Y-3767944D01*
X-15442899Y-3766834D01*
X-15444286Y-3765725D01*
X-15444424D01*
X-15444701Y-3765448D01*
X-15445117Y-3765170D01*
X-15445811Y-3764893D01*
X-15446780Y-3764338D01*
X-15448030Y-3763922D01*
X-15449416Y-3763367D01*
X-15451080Y-3762813D01*
X-15453162Y-3762397D01*
X-15455380Y-3761842D01*
X-15458015Y-3761287D01*
X-15460788Y-3760871D01*
X-15464117Y-3760594D01*
X-15467584Y-3760316D01*
X-15471468Y-3760039D01*
D02*
G37*
G36*
X-15462314Y-3884855D02*
X-15505305D01*
X-15462314Y-3915088D01*
Y-3884855D01*
D02*
G37*
G36*
X-15492963Y-3947124D02*
X-15493102D01*
X-15493379D01*
X-15493935D01*
X-15494627Y-3947262D01*
X-15495598D01*
X-15496568Y-3947401D01*
X-15498788Y-3947817D01*
X-15501424Y-3948372D01*
X-15504198Y-3949343D01*
X-15506831Y-3950729D01*
X-15509189Y-3952532D01*
X-15509328D01*
X-15509467Y-3952810D01*
X-15510159Y-3953503D01*
X-15511131Y-3954613D01*
X-15512241Y-3956138D01*
X-15513211Y-3958080D01*
X-15514182Y-3960299D01*
X-15514874Y-3962795D01*
X-15515154Y-3964182D01*
Y-3966401D01*
X-15515015Y-3966955D01*
X-15514874Y-3968481D01*
X-15514320Y-3970284D01*
X-15513628Y-3972503D01*
X-15512379Y-3974860D01*
X-15510854Y-3977218D01*
X-15509744Y-3978328D01*
X-15508633Y-3979437D01*
X-15508496D01*
X-15508357Y-3979714D01*
X-15507941Y-3979992D01*
X-15507526Y-3980269D01*
X-15506139Y-3981240D01*
X-15504198Y-3982211D01*
X-15501839Y-3983320D01*
X-15498927Y-3984291D01*
X-15495598Y-3984846D01*
X-15491992Y-3985123D01*
X-15491853D01*
X-15491576D01*
X-15491161D01*
X-15490466Y-3984984D01*
X-15489635D01*
X-15488803Y-3984846D01*
X-15486722Y-3984430D01*
X-15484364Y-3983736D01*
X-15481868Y-3982904D01*
X-15479372Y-3981517D01*
X-15477153Y-3979714D01*
X-15476875Y-3979437D01*
X-15476321Y-3978744D01*
X-15475349Y-3977495D01*
X-15474380Y-3975970D01*
X-15473270Y-3973890D01*
X-15472299Y-3971532D01*
X-15471745Y-3968897D01*
X-15471468Y-3965985D01*
Y-3965153D01*
X-15471606Y-3964598D01*
X-15471745Y-3963072D01*
X-15472160Y-3961269D01*
X-15472855Y-3959051D01*
X-15473825Y-3956832D01*
X-15475212Y-3954613D01*
X-15477153Y-3952532D01*
X-15477431Y-3952255D01*
X-15478262Y-3951700D01*
X-15479510Y-3950868D01*
X-15481314Y-3949759D01*
X-15483533Y-3948788D01*
X-15486168Y-3947956D01*
X-15489357Y-3947401D01*
X-15492963Y-3947124D01*
D02*
G37*
G36*
X-119359Y-8772097D02*
X-120191D01*
X-120746Y-8772236D01*
X-122271Y-8772513D01*
X-124074Y-8772929D01*
X-126154Y-8773761D01*
X-128373Y-8775009D01*
X-129483Y-8775841D01*
X-130592Y-8776674D01*
X-131563Y-8777783D01*
X-132534Y-8779031D01*
Y-8779170D01*
X-132811Y-8779447D01*
X-133088Y-8780002D01*
X-133504Y-8780695D01*
X-133920Y-8781805D01*
X-134475Y-8783053D01*
X-134891Y-8784579D01*
X-135446Y-8786381D01*
X-136001Y-8788462D01*
X-136555Y-8790819D01*
X-137110Y-8793454D01*
X-137526Y-8796367D01*
X-137942Y-8799695D01*
X-138220Y-8803301D01*
X-138358Y-8807184D01*
X-138497Y-8811483D01*
Y-8811761D01*
Y-8812454D01*
Y-8813702D01*
X-138358Y-8815366D01*
Y-8817169D01*
X-138220Y-8819388D01*
X-138081Y-8821746D01*
X-137804Y-8824242D01*
X-137110Y-8829651D01*
X-136694Y-8832286D01*
X-136139Y-8834782D01*
X-135585Y-8837140D01*
X-134753Y-8839359D01*
X-133920Y-8841300D01*
X-132950Y-8842965D01*
Y-8843103D01*
X-132672Y-8843242D01*
X-131979Y-8844213D01*
X-130731Y-8845461D01*
X-129205Y-8846848D01*
X-127125Y-8848235D01*
X-124767Y-8849483D01*
X-122132Y-8850453D01*
X-120746Y-8850592D01*
X-119220Y-8850731D01*
X-118388D01*
X-117833Y-8850592D01*
X-116446Y-8850315D01*
X-114505Y-8849760D01*
X-112424Y-8848789D01*
X-110067Y-8847402D01*
X-108957Y-8846570D01*
X-107848Y-8845461D01*
X-106738Y-8844351D01*
X-105629Y-8842965D01*
Y-8842826D01*
X-105352Y-8842548D01*
X-105074Y-8842132D01*
X-104797Y-8841439D01*
X-104242Y-8840468D01*
X-103826Y-8839220D01*
X-103271Y-8837833D01*
X-102717Y-8836169D01*
X-102301Y-8834089D01*
X-101746Y-8831870D01*
X-101191Y-8829235D01*
X-100775Y-8826461D01*
X-100498Y-8823133D01*
X-100220Y-8819666D01*
X-99943Y-8815782D01*
Y-8811483D01*
Y-8811345D01*
Y-8811206D01*
Y-8810512D01*
Y-8809264D01*
X-100082Y-8807600D01*
Y-8805797D01*
X-100220Y-8803578D01*
X-100359Y-8801221D01*
X-100636Y-8798586D01*
X-101330Y-8793316D01*
X-101746Y-8790681D01*
X-102301Y-8788184D01*
X-102855Y-8785827D01*
X-103687Y-8783608D01*
X-104519Y-8781666D01*
X-105490Y-8780002D01*
Y-8779863D01*
X-105768Y-8779725D01*
X-106045Y-8779309D01*
X-106461Y-8778754D01*
X-107709Y-8777506D01*
X-109235Y-8775980D01*
X-111315Y-8774593D01*
X-113673Y-8773345D01*
X-114921Y-8772790D01*
X-116308Y-8772374D01*
X-117833Y-8772236D01*
X-119359Y-8772097D01*
D02*
G37*
%LPD*%
D40*
X4765000Y-6665000D02*
X6665000D01*
X4765000D02*
Y-4765000D01*
X6665000D01*
Y-6665000D02*
Y-4765000D01*
X-950000Y-950000D02*
Y950000D01*
X950000D01*
Y-950000D02*
Y950000D01*
X-950000Y-950000D02*
X950000D01*
X10480000Y950000D02*
X12380000D01*
X10480000Y-950000D02*
Y950000D01*
Y-950000D02*
X12380000D01*
Y950000D01*
Y-2855000D02*
Y-955000D01*
X10480000D02*
X12380000D01*
X10480000Y-2855000D02*
Y-955000D01*
Y-2855000D02*
X12380000D01*
X-15236250Y-2860000D02*
X-12386250D01*
Y-4760000D02*
Y-2860000D01*
X-15236250Y-4760000D02*
X-12386250D01*
X-15236250D02*
Y-2860000D01*
X12380000Y-4760000D02*
Y-2860000D01*
X10480000D02*
X12380000D01*
X10480000Y-4760000D02*
Y-2860000D01*
Y-4760000D02*
X12380000D01*
X12386250Y-2860000D02*
X15236250D01*
Y-4760000D02*
Y-2860000D01*
X12386250Y-4760000D02*
X15236250D01*
X12386250D02*
Y-2860000D01*
X2855000Y-8570000D02*
Y-6670000D01*
X955000D02*
X2855000D01*
X955000Y-8570000D02*
Y-6670000D01*
Y-8570000D02*
X2855000D01*
X2862500Y-6670000D02*
X6662500D01*
Y-8570000D02*
Y-6670000D01*
X2862500Y-8570000D02*
X6662500D01*
X2862500D02*
Y-6670000D01*
X12386250Y-8570000D02*
Y-6670000D01*
Y-8570000D02*
X15236250D01*
Y-6670000D01*
X12386250D02*
X15236250D01*
X12386250Y-2855000D02*
Y-955000D01*
Y-2855000D02*
X15236250D01*
Y-955000D01*
X12386250D02*
X15236250D01*
X-6662500Y-8570000D02*
Y-6670000D01*
Y-8570000D02*
X-2862500D01*
Y-6670000D01*
X-6662500D02*
X-2862500D01*
X-12380000Y950000D02*
X-10480000D01*
X-12380000Y-950000D02*
Y950000D01*
Y-950000D02*
X-10480000D01*
Y950000D01*
X-8575000Y-950000D02*
Y950000D01*
X-10475000Y-950000D02*
X-8575000D01*
X-10475000D02*
Y950000D01*
X-8575000D01*
X-8570000D02*
X-6670000D01*
X-8570000Y-950000D02*
Y950000D01*
Y-950000D02*
X-6670000D01*
Y950000D01*
X-4765000Y-950000D02*
Y950000D01*
X-6665000Y-950000D02*
X-4765000D01*
X-6665000D02*
Y950000D01*
X-4765000D01*
X-4760000D02*
X-2860000D01*
X-4760000Y-950000D02*
Y950000D01*
Y-950000D02*
X-2860000D01*
Y950000D01*
X-955000Y-950000D02*
Y950000D01*
X-2855000Y-950000D02*
X-955000D01*
X-2855000D02*
Y950000D01*
X-955000D01*
X955000D02*
X2855000D01*
X955000Y-950000D02*
Y950000D01*
Y-950000D02*
X2855000D01*
Y950000D01*
X4760000Y-950000D02*
Y950000D01*
X2860000Y-950000D02*
X4760000D01*
X2860000D02*
Y950000D01*
X4760000D01*
X4765000D02*
X6665000D01*
X4765000Y-950000D02*
Y950000D01*
Y-950000D02*
X6665000D01*
Y950000D01*
X8570000Y-950000D02*
Y950000D01*
X6670000Y-950000D02*
X8570000D01*
X6670000D02*
Y950000D01*
X8570000D01*
X8575000D02*
X10475000D01*
X8575000Y-950000D02*
Y950000D01*
Y-950000D02*
X10475000D01*
Y950000D01*
X9528750Y-6670000D02*
X12378750D01*
Y-8570000D02*
Y-6670000D01*
X9528750Y-8570000D02*
X12378750D01*
X9528750D02*
Y-6670000D01*
X6671250D02*
X9521250D01*
Y-8570000D02*
Y-6670000D01*
X6671250Y-8570000D02*
X9521250D01*
X6671250D02*
Y-6670000D01*
X-950000Y-8570000D02*
X950000D01*
X-950000D02*
Y-6670000D01*
X950000D01*
Y-8570000D02*
Y-6670000D01*
X-2855000Y-8570000D02*
X-955000D01*
X-2855000D02*
Y-6670000D01*
X-955000D01*
Y-8570000D02*
Y-6670000D01*
X-9521250D02*
X-6671250D01*
Y-8570000D02*
Y-6670000D01*
X-9521250Y-8570000D02*
X-6671250D01*
X-9521250D02*
Y-6670000D01*
X-12378750D02*
X-9528750D01*
Y-8570000D02*
Y-6670000D01*
X-12378750Y-8570000D02*
X-9528750D01*
X-12378750D02*
Y-6670000D01*
X-15236250D02*
X-12386250D01*
Y-8570000D02*
Y-6670000D01*
X-15236250Y-8570000D02*
X-12386250D01*
X-15236250D02*
Y-6670000D01*
Y-4765000D02*
X-12386250D01*
Y-6665000D02*
Y-4765000D01*
X-15236250Y-6665000D02*
X-12386250D01*
X-15236250D02*
Y-4765000D01*
X-12380000Y-6665000D02*
X-10480000D01*
X-12380000D02*
Y-4765000D01*
X-10480000D01*
Y-6665000D02*
Y-4765000D01*
X-10475000Y-6665000D02*
X-8575000D01*
X-10475000D02*
Y-4765000D01*
X-8575000D01*
Y-6665000D02*
Y-4765000D01*
X-8570000Y-6665000D02*
X-6670000D01*
X-8570000D02*
Y-4765000D01*
X-6670000D01*
Y-6665000D02*
Y-4765000D01*
X-6665000Y-6665000D02*
X-4765000D01*
X-6665000D02*
Y-4765000D01*
X-4765000D01*
Y-6665000D02*
Y-4765000D01*
X-4760000Y-6665000D02*
X-2860000D01*
X-4760000D02*
Y-4765000D01*
X-2860000D01*
Y-6665000D02*
Y-4765000D01*
X-2855000Y-6665000D02*
X-955000D01*
X-2855000D02*
Y-4765000D01*
X-955000D01*
Y-6665000D02*
Y-4765000D01*
X-950000Y-6665000D02*
X950000D01*
X-950000D02*
Y-4765000D01*
X950000D01*
Y-6665000D02*
Y-4765000D01*
X955000Y-6665000D02*
X2855000D01*
X955000D02*
Y-4765000D01*
X2855000D01*
Y-6665000D02*
Y-4765000D01*
X2860000Y-6665000D02*
X4760000D01*
X2860000D02*
Y-4765000D01*
X4760000D01*
Y-6665000D02*
Y-4765000D01*
X6670000Y-6665000D02*
X8570000D01*
X6670000D02*
Y-4765000D01*
X8570000D01*
Y-6665000D02*
Y-4765000D01*
X8575000Y-6665000D02*
X10475000D01*
X8575000D02*
Y-4765000D01*
X10475000D01*
Y-6665000D02*
Y-4765000D01*
X10480000Y-6665000D02*
X12380000D01*
X10480000D02*
Y-4765000D01*
X12380000D01*
Y-6665000D02*
Y-4765000D01*
X12386250D02*
X15236250D01*
Y-6665000D02*
Y-4765000D01*
X12386250Y-6665000D02*
X15236250D01*
X12386250D02*
Y-4765000D01*
X8575000Y-4760000D02*
X10475000D01*
X8575000D02*
Y-2860000D01*
X10475000D01*
Y-4760000D02*
Y-2860000D01*
X6670000Y-4760000D02*
X8570000D01*
X6670000D02*
Y-2860000D01*
X8570000D01*
Y-4760000D02*
Y-2860000D01*
X4765000Y-4760000D02*
X6665000D01*
X4765000D02*
Y-2860000D01*
X6665000D01*
Y-4760000D02*
Y-2860000D01*
X2860000Y-4760000D02*
X4760000D01*
X2860000D02*
Y-2860000D01*
X4760000D01*
Y-4760000D02*
Y-2860000D01*
X955000Y-4760000D02*
X2855000D01*
X955000D02*
Y-2860000D01*
X2855000D01*
Y-4760000D02*
Y-2860000D01*
X-950000Y-4760000D02*
X950000D01*
X-950000D02*
Y-2860000D01*
X950000D01*
Y-4760000D02*
Y-2860000D01*
X-2855000Y-4760000D02*
X-955000D01*
X-2855000D02*
Y-2860000D01*
X-955000D01*
Y-4760000D02*
Y-2860000D01*
X-4760000Y-4760000D02*
X-2860000D01*
X-4760000D02*
Y-2860000D01*
X-2860000D01*
Y-4760000D02*
Y-2860000D01*
X-6665000Y-4760000D02*
X-4765000D01*
X-6665000D02*
Y-2860000D01*
X-4765000D01*
Y-4760000D02*
Y-2860000D01*
X-8570000Y-4760000D02*
X-6670000D01*
X-8570000D02*
Y-2860000D01*
X-6670000D01*
Y-4760000D02*
Y-2860000D01*
X-10475000Y-4760000D02*
X-8575000D01*
X-10475000D02*
Y-2860000D01*
X-8575000D01*
Y-4760000D02*
Y-2860000D01*
X-12380000Y-4760000D02*
X-10480000D01*
X-12380000D02*
Y-2860000D01*
X-10480000D01*
Y-4760000D02*
Y-2860000D01*
X-15236250Y-955000D02*
X-12386250D01*
Y-2855000D02*
Y-955000D01*
X-15236250Y-2855000D02*
X-12386250D01*
X-15236250D02*
Y-955000D01*
X-12380000Y-2855000D02*
X-10480000D01*
X-12380000D02*
Y-955000D01*
X-10480000D01*
Y-2855000D02*
Y-955000D01*
X-10475000Y-2855000D02*
X-8575000D01*
X-10475000D02*
Y-955000D01*
X-8575000D01*
Y-2855000D02*
Y-955000D01*
X-8570000Y-2855000D02*
X-6670000D01*
X-8570000D02*
Y-955000D01*
X-6670000D01*
Y-2855000D02*
Y-955000D01*
X-6665000Y-2855000D02*
X-4765000D01*
X-6665000D02*
Y-955000D01*
X-4765000D01*
Y-2855000D02*
Y-955000D01*
X-4760000Y-2855000D02*
X-2860000D01*
X-4760000D02*
Y-955000D01*
X-2860000D01*
Y-2855000D02*
Y-955000D01*
X-2855000Y-2855000D02*
X-955000D01*
X-2855000D02*
Y-955000D01*
X-955000D01*
Y-2855000D02*
Y-955000D01*
X-950000Y-2855000D02*
X950000D01*
X-950000D02*
Y-955000D01*
X950000D01*
Y-2855000D02*
Y-955000D01*
X955000Y-2855000D02*
X2855000D01*
X955000D02*
Y-955000D01*
X2855000D01*
Y-2855000D02*
Y-955000D01*
X2860000Y-2855000D02*
X4760000D01*
X2860000D02*
Y-955000D01*
X4760000D01*
Y-2855000D02*
Y-955000D01*
X4765000Y-2855000D02*
X6665000D01*
X4765000D02*
Y-955000D01*
X6665000D01*
Y-2855000D02*
Y-955000D01*
X6670000Y-2855000D02*
X8570000D01*
X6670000D02*
Y-955000D01*
X8570000D01*
Y-2855000D02*
Y-955000D01*
X8575000Y-2855000D02*
X10475000D01*
X8575000D02*
Y-955000D01*
X10475000D01*
Y-2855000D02*
Y-955000D01*
X12386250Y950000D02*
X15236250D01*
Y-950000D02*
Y950000D01*
X12386250Y-950000D02*
X15236250D01*
X12386250D02*
Y950000D01*
X-15236250D02*
X-12386250D01*
Y-950000D02*
Y950000D01*
X-15236250Y-950000D02*
X-12386250D01*
X-15236250D02*
Y950000D01*
X-11430000Y1200000D02*
X-11280000Y1250000D01*
X-11430000Y1200000D02*
X-11280000Y1150000D01*
X-9675000D02*
X-9525000Y1200000D01*
X-9675000Y1250000D02*
X-9525000Y1200000D01*
X-11430000D02*
X-10686192D01*
X-10319608D02*
X-9525000D01*
X-11430000Y219390D02*
Y1220000D01*
X-9525000Y219390D02*
Y1220000D01*
X-15527499Y-8359750D02*
X-15477499Y-8509750D01*
X-15427499Y-8359750D01*
X-15477499Y890000D02*
X-15427499Y740000D01*
X-15527499D02*
X-15477499Y890000D01*
Y-8509750D02*
Y-4022588D01*
Y-3647961D02*
Y890000D01*
X-15497501Y-8509750D02*
X-14907500D01*
X-15497501Y890000D02*
X-14907500D01*
X-15177499Y-8809750D02*
X-15027499Y-8759750D01*
X-15177499Y-8809750D02*
X-15027499Y-8859750D01*
X15027499D02*
X15177499Y-8809750D01*
X15027499Y-8759750D02*
X15177499Y-8809750D01*
X-15177499D02*
X-250436D01*
X199635D02*
X15177499D01*
X-15177499Y-8829750D02*
Y-8239750D01*
X15177499Y-8829750D02*
Y-8239750D01*
D46*
X-500000Y960000D02*
X0D01*
X500000D01*
X11330000Y-505000D02*
X11530000D01*
X11430000Y-605000D02*
Y-405000D01*
X-11530000Y-505000D02*
X-11330000D01*
X-11430000Y-605000D02*
Y-405000D01*
X-9525000Y-605000D02*
Y-405000D01*
X-9625000Y-505000D02*
X-9425000D01*
X-7720000D02*
X-7520000D01*
X-7620000Y-605000D02*
Y-405000D01*
X-5715000Y-605000D02*
Y-405000D01*
X-5815000Y-505000D02*
X-5615000D01*
X-3910000D02*
X-3710000D01*
X-3810000Y-605000D02*
Y-405000D01*
X-1905000Y-605000D02*
Y-405000D01*
X-2005000Y-505000D02*
X-1805000D01*
X1805000D02*
X2005000D01*
X1905000Y-605000D02*
Y-405000D01*
X3810000Y-605000D02*
Y-405000D01*
X3710000Y-505000D02*
X3910000D01*
X5615000D02*
X5815000D01*
X5715000Y-605000D02*
Y-405000D01*
X7620000Y-605000D02*
Y-405000D01*
X7520000Y-505000D02*
X7720000D01*
X9425000D02*
X9625000D01*
X9525000Y-605000D02*
Y-405000D01*
%TF.MD5,e5593a4940a7945420dd548788918e02*%
M02*
