%TF.GenerationSoftware,Altium Limited,Altium Designer,20.2.6 (244)*%
G04 Layer_Color=255*
%FSLAX45Y45*%
%MOMM*%
%TF.SameCoordinates,5881816B-C68B-4CD5-A74A-5D75E061FB32*%
%TF.FilePolarity,Positive*%
%TF.FileFunction,Pads,Top*%
%TF.Part,Single*%
G01*
G75*
%TA.AperFunction,ComponentPad*%
%ADD16O,1.70000X2.40000*%
%ADD17C,2.54000*%
%ADD18R,1.60000X1.60000*%
%ADD19C,1.60000*%
%ADD20C,1.77800*%
D16*
X-365000Y720000D02*
D03*
X365000D02*
D03*
D17*
X5956889Y-5212917D02*
D03*
X5334000Y-5461000D02*
D03*
X-241889Y-502083D02*
D03*
X381000Y-254000D02*
D03*
X11049000Y254000D02*
D03*
X11671889Y502083D02*
D03*
Y-1402917D02*
D03*
X11049000Y-1651000D02*
D03*
X-14192250Y-3556000D02*
D03*
X-13569360Y-3307917D02*
D03*
X11049000Y-3556000D02*
D03*
X11671889Y-3307917D02*
D03*
X13430251Y-3556000D02*
D03*
X14053139Y-3307917D02*
D03*
X1524000Y-7366000D02*
D03*
X2146889Y-7117917D02*
D03*
X5004389D02*
D03*
X4381500Y-7366000D02*
D03*
X14053139Y-7117917D02*
D03*
X13430251Y-7366000D02*
D03*
X14053139Y-1402917D02*
D03*
X13430251Y-1651000D02*
D03*
X-5143500Y-7366000D02*
D03*
X-4520611Y-7117917D02*
D03*
X-11811000Y254000D02*
D03*
X-11188111Y502083D02*
D03*
X-9283111D02*
D03*
X-9906000Y254000D02*
D03*
X-8001000D02*
D03*
X-7378111Y502083D02*
D03*
X-5473111D02*
D03*
X-6096000Y254000D02*
D03*
X-4191000D02*
D03*
X-3568111Y502083D02*
D03*
X-1663111D02*
D03*
X-2286000Y254000D02*
D03*
X1524000D02*
D03*
X2146889Y502083D02*
D03*
X4051889D02*
D03*
X3429000Y254000D02*
D03*
X5334000D02*
D03*
X5956889Y502083D02*
D03*
X7861889D02*
D03*
X7239000Y254000D02*
D03*
X9144000D02*
D03*
X9766889Y502083D02*
D03*
X10572750Y-7366000D02*
D03*
X11195639Y-7117917D02*
D03*
X7715250Y-7366000D02*
D03*
X8338139Y-7117917D02*
D03*
X241889D02*
D03*
X-381000Y-7366000D02*
D03*
X-1663111Y-7117917D02*
D03*
X-2286000Y-7366000D02*
D03*
X-8477250D02*
D03*
X-7854361Y-7117917D02*
D03*
X-11334750Y-7366000D02*
D03*
X-10711861Y-7117917D02*
D03*
X-14192250Y-7366000D02*
D03*
X-13569360Y-7117917D02*
D03*
X-14192250Y-5461000D02*
D03*
X-13569360Y-5212917D02*
D03*
X-11188111D02*
D03*
X-11811000Y-5461000D02*
D03*
X-9283111Y-5212917D02*
D03*
X-9906000Y-5461000D02*
D03*
X-7378111Y-5212917D02*
D03*
X-8001000Y-5461000D02*
D03*
X-5473111Y-5212917D02*
D03*
X-6096000Y-5461000D02*
D03*
X-3568111Y-5212917D02*
D03*
X-4191000Y-5461000D02*
D03*
X-1663111Y-5212917D02*
D03*
X-2286000Y-5461000D02*
D03*
X241889Y-5212917D02*
D03*
X-381000Y-5461000D02*
D03*
X2146889Y-5212917D02*
D03*
X1524000Y-5461000D02*
D03*
X4051889Y-5212917D02*
D03*
X3429000Y-5461000D02*
D03*
X7861889Y-5212917D02*
D03*
X7239000Y-5461000D02*
D03*
X9766889Y-5212917D02*
D03*
X9144000Y-5461000D02*
D03*
X11671889Y-5212917D02*
D03*
X11049000Y-5461000D02*
D03*
X13430251D02*
D03*
X14053139Y-5212917D02*
D03*
X9766889Y-3307917D02*
D03*
X9144000Y-3556000D02*
D03*
X7861889Y-3307917D02*
D03*
X7239000Y-3556000D02*
D03*
X5956889Y-3307917D02*
D03*
X5334000Y-3556000D02*
D03*
X4051889Y-3307917D02*
D03*
X3429000Y-3556000D02*
D03*
X2146889Y-3307917D02*
D03*
X1524000Y-3556000D02*
D03*
X241889Y-3307917D02*
D03*
X-381000Y-3556000D02*
D03*
X-1663111Y-3307917D02*
D03*
X-2286000Y-3556000D02*
D03*
X-3568111Y-3307917D02*
D03*
X-4191000Y-3556000D02*
D03*
X-5473111Y-3307917D02*
D03*
X-6096000Y-3556000D02*
D03*
X-7378111Y-3307917D02*
D03*
X-8001000Y-3556000D02*
D03*
X-9283111Y-3307917D02*
D03*
X-9906000Y-3556000D02*
D03*
X-11188111Y-3307917D02*
D03*
X-11811000Y-3556000D02*
D03*
X-14192250Y-1651000D02*
D03*
X-13569360Y-1402917D02*
D03*
X-11811000Y-1651000D02*
D03*
X-11188111Y-1402917D02*
D03*
X-9906000Y-1651000D02*
D03*
X-9283111Y-1402917D02*
D03*
X-8001000Y-1651000D02*
D03*
X-7378111Y-1402917D02*
D03*
X-6096000Y-1651000D02*
D03*
X-5473111Y-1402917D02*
D03*
X-4191000Y-1651000D02*
D03*
X-3568111Y-1402917D02*
D03*
X-2286000Y-1651000D02*
D03*
X-1663111Y-1402917D02*
D03*
X-381000Y-1651000D02*
D03*
X241889Y-1402917D02*
D03*
X1524000Y-1651000D02*
D03*
X2146889Y-1402917D02*
D03*
X3429000Y-1651000D02*
D03*
X4051889Y-1402917D02*
D03*
X5334000Y-1651000D02*
D03*
X5956889Y-1402917D02*
D03*
X7239000Y-1651000D02*
D03*
X7861889Y-1402917D02*
D03*
X9144000Y-1651000D02*
D03*
X9766889Y-1402917D02*
D03*
X13430251Y254000D02*
D03*
X14053139Y502083D02*
D03*
X-14192250Y254000D02*
D03*
X-13569360Y502083D02*
D03*
D18*
X2846000Y-4723000D02*
D03*
D19*
Y-4977000D02*
D03*
X3100000Y-4723000D02*
D03*
Y-4977000D02*
D03*
X3354000Y-4723000D02*
D03*
Y-4977000D02*
D03*
D20*
X-13684250Y-4318000D02*
D03*
X-13938251D02*
D03*
%TF.MD5,5de415a5ef5ba0a72791f37c66903dd9*%
M02*
