%TF.GenerationSoftware,Altium Limited,Altium Designer,20.2.6 (244)*%
G04 Layer_Physical_Order=2*
G04 Layer_Color=16711680*
%FSLAX45Y45*%
%MOMM*%
%TF.SameCoordinates,2F107FE3-984A-4B75-92AE-308BEDE16AF6*%
%TF.FilePolarity,Positive*%
%TF.FileFunction,Copper,L2,Bot,Signal*%
%TF.Part,Single*%
G01*
G75*
%TA.AperFunction,Conductor*%
%ADD10C,0.50000*%
%ADD11C,0.40000*%
%ADD12C,0.25000*%
%TA.AperFunction,ComponentPad*%
%ADD16O,1.70000X2.40000*%
%ADD17C,2.54000*%
%ADD18R,1.60000X1.60000*%
%ADD19C,1.60000*%
%ADD20C,1.77800*%
%TA.AperFunction,ViaPad*%
%ADD21C,0.75000*%
%ADD22C,0.70000*%
%TA.AperFunction,SMDPad,CuDef*%
%ADD23R,0.50000X1.60000*%
%ADD24R,2.10000X2.90000*%
%ADD25R,1.30000X1.00000*%
%ADD26R,1.00000X0.80000*%
%ADD27R,1.50000X0.90000*%
%ADD28R,0.60000X0.60000*%
%ADD29R,0.60000X1.10000*%
%ADD30R,0.80000X1.00000*%
%ADD31R,0.60000X0.60000*%
%ADD32R,1.00000X0.90000*%
%ADD33R,1.15000X1.40000*%
%ADD34R,1.40000X1.00000*%
%ADD35R,1.15000X1.05000*%
%ADD36R,5.30000X5.30000*%
%ADD37R,1.05000X0.25000*%
%ADD38R,0.25000X1.05000*%
%TA.AperFunction,Conductor*%
%ADD39C,1.00000*%
%TA.AperFunction,NonConductor*%
%ADD40C,0.20000*%
%TA.AperFunction,Conductor*%
%ADD41R,7.00000X5.50000*%
%ADD42R,7.25000X5.50000*%
D10*
X-875000Y-1175000D02*
Y-1050000D01*
X-875000Y-1050000D02*
X-875000Y-1050000D01*
Y-800000D02*
Y-675000D01*
X-875000Y-800000D02*
X-875000Y-800000D01*
X-1625000Y-3025000D02*
X-1500000D01*
X-1025000Y-1775000D02*
Y-1650000D01*
X-625000Y225000D02*
X-306075D01*
X-176076Y355000D01*
X-160000D01*
Y410000D01*
X6975000Y-7150000D02*
X7100000Y-7025000D01*
X6505000Y-7105000D02*
X6550000Y-7150000D01*
X6975000D01*
X7100000Y-7025000D02*
Y-6825000D01*
X6500000Y-7050000D02*
X6505000Y-7055000D01*
Y-7105000D02*
Y-7055000D01*
X6452500Y-6832500D02*
X6472500Y-6852500D01*
X6422500Y-6832500D02*
X6452500D01*
X6600000Y-7050000D02*
X6725000Y-6925000D01*
Y-6575000D02*
X6791967Y-6508033D01*
X6725000Y-6925000D02*
Y-6575000D01*
X-3066967Y-6741967D02*
X-2925000Y-6600000D01*
Y-6225000D01*
X-3102500Y-6832500D02*
X-3086967D01*
X-3066967Y-6812500D01*
Y-6741967D01*
X-750000Y100000D02*
X-625000Y225000D01*
X-12875000Y-1350000D02*
Y-1200000D01*
X-12800000Y-1125000D01*
X404290Y229290D02*
Y300000D01*
X425000D01*
X375000Y200000D02*
X404290Y229290D01*
X225000Y200000D02*
X375000D01*
X160000Y265000D02*
Y410000D01*
Y265000D02*
X225000Y200000D01*
X-1125000Y-1550000D02*
Y-1125000D01*
Y-1550000D02*
X-1025000Y-1650000D01*
X-1125000Y-1125000D02*
Y-700000D01*
X-750000Y-325000D01*
Y100000D01*
X2350000Y-927500D02*
Y-875000D01*
X12250000Y-2600000D02*
Y-1230000D01*
X-12875000Y-6354141D02*
Y-4050000D01*
X-12845711Y-6826967D02*
X-12633033D01*
X3350000Y-4719000D02*
X3354000Y-4723000D01*
X3350000Y-4719000D02*
Y-4200000D01*
X-1125000Y-2025000D02*
Y-1900000D01*
X-400000Y420000D02*
Y460000D01*
X-480000Y340000D02*
X-400000Y420000D01*
X-520000Y340000D02*
X-480000D01*
X250000Y834999D02*
Y834999D01*
Y834999D02*
X307039Y777961D01*
X309567D01*
X365000Y722528D01*
Y495000D02*
Y722528D01*
X225000Y860000D02*
X250000Y834999D01*
X210000Y860000D02*
X225000D01*
X365000Y495000D02*
X400000Y460000D01*
X-365000Y720000D02*
Y722528D01*
X-286891Y800637D01*
X-284363D01*
X-250001Y834999D01*
X-225000D01*
X-200000Y860000D01*
X-400000Y460000D02*
X-365000Y495000D01*
Y720000D01*
X-400000Y460000D02*
X-350000Y410000D01*
X-1175000Y-3900000D02*
Y-3350000D01*
X-1225000Y-3300000D02*
X-1175000Y-3350000D01*
X-975000Y-3950000D02*
X-850000Y-4075000D01*
X-975000Y-3950000D02*
Y-3400000D01*
X9280000Y-6832500D02*
X9300000Y-6852500D01*
X9272500Y-6825000D02*
X9280000Y-6832500D01*
X194244Y-2900000D02*
X325000D01*
X438033Y-2886967D02*
X667500Y-2657500D01*
Y-2522500D01*
X325000Y-2900000D02*
X338033Y-2886967D01*
X438033D01*
X-6422500Y-6502500D02*
Y-6125000D01*
X9475000Y-1000000D02*
Y-575000D01*
X9377500Y-1097500D02*
X9475000Y-1000000D01*
X9280000Y-1117500D02*
X9300000Y-1097500D01*
X9377500D01*
X9575000Y-725000D02*
Y-575000D01*
X9637500Y-787500D02*
X9770000D01*
X9575000Y-725000D02*
X9637500Y-787500D01*
X6600000Y-1050000D02*
Y-575000D01*
X6540533Y-1109467D02*
X6600000Y-1050000D01*
X6422500Y-1117500D02*
X6430533Y-1109467D01*
X6540533D01*
X6700000Y-575000D02*
X6700000Y-575000D01*
Y-750000D02*
Y-575000D01*
X6737500Y-787500D02*
X6912500D01*
X6700000Y-750000D02*
X6737500Y-787500D01*
X2612500Y-1117500D02*
X2642500D01*
X2662500Y-1097500D01*
Y-1067500D01*
X2800000Y-930000D01*
Y-550000D01*
X2900000Y-675000D02*
Y-550000D01*
Y-675000D02*
X2994467Y-769467D01*
X3084467D02*
X3102500Y-787500D01*
X2994467Y-769467D02*
X3084467D01*
X-2900000Y-550000D02*
X-2900000Y-550000D01*
X-2900000Y-950000D02*
Y-550000D01*
X-3102500Y-1117500D02*
X-3082500Y-1097500D01*
X-3047500D01*
X-2900000Y-950000D01*
X-2800000Y-725000D02*
Y-550000D01*
X-2737500Y-787500D02*
X-2612500D01*
X-2800000Y-725000D02*
X-2737500Y-787500D01*
X-6625000Y-725000D02*
Y-575000D01*
Y-725000D02*
X-6562500Y-787500D01*
X-6422500D01*
X-6725000Y-1025000D02*
Y-575000D01*
X-6801967Y-1101967D02*
X-6725000Y-1025000D01*
X-6912500Y-1117500D02*
X-6896967Y-1101967D01*
X-6801967D01*
X-9475000Y-750000D02*
Y-575000D01*
X-9437500Y-787500D02*
X-9280000D01*
X-9475000Y-750000D02*
X-9437500Y-787500D01*
X-9575000Y-1050000D02*
Y-575000D01*
X-9642500Y-1117500D02*
X-9575000Y-1050000D01*
X-9770000Y-1117500D02*
X-9642500D01*
X-12350000Y-1350000D02*
Y-975000D01*
Y-3432500D02*
Y-1350000D01*
X-12650000D02*
X-12550000D01*
X-12875000Y-3900000D02*
Y-1350000D01*
X-12875000Y-1350000D02*
X-12750000D01*
X-12875000Y-1350000D02*
X-12875000Y-1350000D01*
X-12111967Y-6502500D02*
X-11977500D01*
X-12350000Y-3432500D02*
X-12187500Y-3595000D01*
X-12350000Y-975000D02*
X-12162500Y-787500D01*
X-12375000Y-4200708D02*
Y-3882500D01*
Y-6265000D02*
Y-4200708D01*
X-12750000Y-4200000D02*
X-12650000D01*
X-12137500Y-6502500D02*
X-12111967D01*
X-12091967Y-6522500D01*
Y-6583033D02*
Y-6522500D01*
Y-6583033D02*
X-12000000Y-6675000D01*
Y-6975000D02*
Y-6675000D01*
X-12325000Y-7075000D02*
X-12100000D01*
X-12000000Y-6975000D01*
X-12627500Y-6832500D02*
X-12610000Y-6850000D01*
X-12500000D01*
X-12425000Y-7075000D02*
Y-6925000D01*
X-12500000Y-6850000D02*
X-12425000Y-6925000D01*
X-12827499Y-6502500D02*
X-12627500D01*
X-12850000Y-6525000D02*
X-12827499Y-6502500D01*
X-12975000Y-6697677D02*
X-12845711Y-6826967D01*
X-12975000Y-6697677D02*
Y-6454141D01*
X-12875000Y-6354141D01*
X-12633033Y-6826967D02*
X-12627500Y-6832500D01*
X-9282500Y-6500000D02*
X-9280000Y-6502500D01*
X-9425000Y-6500000D02*
X-9282500D01*
X-9525000Y-7050000D02*
Y-6600000D01*
X-9425000Y-6500000D01*
X-9625000Y-7050000D02*
Y-6977501D01*
X-9720000Y-6882500D02*
X-9625000Y-6977501D01*
X-9720000Y-6882500D02*
Y-6852500D01*
X-9740000Y-6832500D02*
X-9720000Y-6852500D01*
X-9770000Y-6832500D02*
X-9740000D01*
X-6442500Y-6522500D02*
X-6422500Y-6502500D01*
X-6497500Y-6522500D02*
X-6442500D01*
X-6575000Y-6600000D02*
X-6497500Y-6522500D01*
X-6575000Y-7025000D02*
Y-6600000D01*
X-6725000Y-7175000D02*
X-6575000Y-7025000D01*
X-6675000Y-7000000D02*
Y-6650000D01*
X-6750000Y-7075000D02*
X-6675000Y-7000000D01*
X-6804467Y-6520533D02*
X-6675000Y-6650000D01*
X-6422500Y-7097500D02*
Y-6832500D01*
X-6422509Y-7097509D02*
X-6422500Y-7097500D01*
X-6800000Y-7175000D02*
X-6725000D01*
X-6925000Y-7050000D02*
X-6800000Y-7175000D01*
X-7025000Y-7050000D02*
Y-6945000D01*
X-6962500Y-6882500D01*
Y-6852500D01*
X-6942500Y-6832500D01*
X-6912500D01*
X-2752500Y-6502500D02*
X-2612500D01*
X-2825000Y-6575000D02*
X-2752500Y-6502500D01*
X-2825000Y-7050000D02*
Y-6575000D01*
X-3102500Y-6832500D02*
X-3085000Y-6850000D01*
X-3000000D01*
X-2925000Y-7050000D02*
Y-6925000D01*
X-3000000Y-6850000D02*
X-2925000Y-6925000D01*
X2972500Y-6502500D02*
X3102500D01*
X2900000Y-6575000D02*
X2972500Y-6502500D01*
X2900000Y-7050000D02*
Y-6575000D01*
X2612500Y-6832500D02*
X2613210Y-6833210D01*
X2733210D01*
X2800000Y-6900000D01*
Y-7050000D02*
Y-6900000D01*
X6906967Y-6508033D02*
X6912500Y-6502500D01*
X6791967Y-6508033D02*
X6906967D01*
X6500000Y-7050000D02*
Y-6910001D01*
X6472500Y-6882500D02*
X6500000Y-6910001D01*
X6472500Y-6882500D02*
Y-6852500D01*
X9300000D02*
X9402501D01*
X9450000Y-7050000D02*
Y-6900000D01*
X9402501Y-6852500D02*
X9450000Y-6900000D01*
X12616967Y-6513033D02*
X12627500Y-6502500D01*
X12511967Y-6513033D02*
X12616967D01*
X12425000Y-6600000D02*
X12511967Y-6513033D01*
X12425000Y-7050000D02*
Y-6600000D01*
X12137500Y-6832500D02*
X12138210Y-6833210D01*
X12258210D01*
X12325000Y-6900000D01*
Y-7050000D02*
Y-6900000D01*
X9550000Y-7050000D02*
Y-6722500D01*
X9720000Y-6552500D01*
Y-6522500D01*
X9740000Y-6502500D01*
X9770000D01*
X12200000Y-4425000D02*
Y-4200000D01*
X11850000D02*
X12100000D01*
X7068750Y-781250D02*
X7075000Y-775000D01*
X7062500Y-787500D02*
X7068750Y-781250D01*
X-2612500Y-6137500D02*
X-2606250Y-6131250D01*
X12350000Y-1375000D02*
X12450000D01*
X12627500Y-787500D02*
X12762500D01*
X12900000Y-2875000D02*
Y-925000D01*
X12762500Y-787500D02*
X12900000Y-925000D01*
X12745533Y-779467D02*
X12800000Y-725000D01*
X12117500Y-3995000D02*
X12137500Y-3975000D01*
X12055000Y-3995000D02*
X12117500D01*
X11850000Y-4200000D02*
X12055000Y-3995000D01*
X12825000Y-4300000D02*
Y-3750000D01*
X12627500Y-3645000D02*
X12644283Y-3661783D01*
X12736783D01*
X12825000Y-3750000D01*
X-9280000Y-787500D02*
X-9130000D01*
X-6422500D02*
X-6272500D01*
X-2612500D02*
X-2462500D01*
X3102500D02*
X3252500D01*
X9770000D02*
X9920000D01*
X6912500D02*
X7062500D01*
X-3350000Y-852500D02*
Y-850000D01*
X-12137500Y-787500D02*
X-11937500D01*
X-12162500D02*
X-12137500D01*
X-11937500D02*
X-11925000Y-775000D01*
X-10032500Y-875000D02*
X-9945000Y-787500D01*
X-9770000D01*
X-7175000Y-875000D02*
X-7087500Y-787500D01*
X-6912500D01*
X-12000000Y-1117500D02*
X-11857500Y-975000D01*
X-12137500Y-1117500D02*
X-12000000D01*
X-9280000D02*
X-9142500D01*
X-9000000Y-975000D01*
X-8692500Y-1067500D02*
Y-952500D01*
X-9027917Y-1402917D02*
X-8692500Y-1067500D01*
X-9283111Y-1402917D02*
X-9027917D01*
X-6422500Y-1117500D02*
X-6217500D01*
X-6050000Y-950000D01*
X-3287500Y-787500D02*
X-3102500D01*
X-3350000Y-850000D02*
X-3287500Y-787500D01*
X11310000Y-1041028D02*
X11671889Y-1402917D01*
X11310000Y-1041028D02*
Y-952500D01*
X-7060735Y-1117500D02*
X-6912500D01*
X-7068235Y-1125000D02*
X-7060735Y-1117500D01*
X-7075000Y-1125000D02*
X-7068235D01*
X-9960735Y-1117500D02*
X-9770000D01*
X-9968235Y-1125000D02*
X-9960735Y-1117500D01*
X-9975000Y-1125000D02*
X-9968235D01*
X-12785735Y-1117500D02*
X-12627500D01*
X-3285735D02*
X-3102500D01*
X-3293235Y-1125000D02*
X-3285735Y-1117500D01*
X-3300000Y-1125000D02*
X-3293235D01*
X2437500Y-787500D02*
X2612500D01*
X2350000Y-875000D02*
X2437500Y-787500D01*
X-2612500Y-1117500D02*
X-2611789Y-1116789D01*
X-2491789D01*
X-2325000Y-950000D01*
X1785000Y-1041028D02*
X2146889Y-1402917D01*
X1785000Y-1041028D02*
Y-952500D01*
X6287500Y-787500D02*
X6422500D01*
X6175000Y-900000D02*
X6287500Y-787500D01*
X3102500Y-1117500D02*
X3113033Y-1106967D01*
X3218033D01*
X3325000Y-1000000D01*
X9075000Y-900000D02*
X9174467Y-800533D01*
X9274467D01*
X9287500Y-787500D01*
X7039283Y-1110717D02*
X7200000Y-950000D01*
X6926784Y-1110717D02*
X7039283D01*
X6920000Y-1117500D02*
X6926784Y-1110717D01*
X9770000Y-1117500D02*
X9776784Y-1110717D01*
X9889283D01*
X10050000Y-950000D01*
X12124467Y-800533D02*
X12137500Y-787500D01*
X12024467Y-800533D02*
X12124467D01*
X11925000Y-900000D02*
X12024467Y-800533D01*
X12626250Y-4198750D02*
X12627500Y-4197500D01*
X12625000Y-4200000D02*
X12626250Y-4198750D01*
X12627500Y-4197500D02*
Y-3975000D01*
X-8975000Y-6325000D02*
X-8375000Y-6925000D01*
X-8325000D01*
X-9592500Y-6325000D02*
X-8975000D01*
X-9127500Y-6502500D02*
X-9126250Y-6501250D01*
X-9280000Y-6502500D02*
X-9127500D01*
X-9770000D02*
X-9740000D01*
X-9720000Y-6482500D01*
Y-6452500D01*
X-9592500Y-6325000D01*
X-9280000Y-6980000D02*
Y-6832500D01*
X-9375000Y-7075000D02*
X-9280000Y-6980000D01*
X-9950000Y-6825000D02*
X-9943235D01*
X-9935735Y-6832500D02*
X-9770000D01*
X-9943235Y-6825000D02*
X-9935735Y-6832500D01*
X-6912500Y-6502500D02*
X-6894467Y-6520533D01*
X-6804467D01*
X-2612500Y-7012500D02*
Y-6832500D01*
X-2675000Y-7075000D02*
X-2612500Y-7012500D01*
X-3118033Y-6502500D02*
X-3102500D01*
X-3138033Y-6482500D02*
X-3118033Y-6502500D01*
X-3138033Y-6482500D02*
Y-6411967D01*
X-3225000Y-6325000D02*
X-3138033Y-6411967D01*
X3101250Y-7023750D02*
X3102500Y-7022500D01*
X3100000Y-7025000D02*
X3101250Y-7023750D01*
X3102500Y-7022500D02*
Y-6832500D01*
X2595000Y-6502500D02*
X2612500D01*
X2575000Y-6482500D02*
X2595000Y-6502500D01*
X2575000Y-6482500D02*
Y-6325000D01*
X6884467Y-6832500D02*
X6912500D01*
X6864467Y-6852500D02*
X6884467Y-6832500D01*
X6864467Y-6910533D02*
Y-6852500D01*
X6775000Y-7000000D02*
X6864467Y-6910533D01*
X6422500Y-6502500D02*
X6429394Y-6495606D01*
Y-6300000D01*
X9770000Y-6832500D02*
X9892500D01*
X10050000Y-6675000D01*
X9127500Y-6502500D02*
X9280000D01*
X9075000Y-6450000D02*
X9127500Y-6502500D01*
X12627500Y-6832500D02*
X12657500D01*
X12677500Y-6812500D01*
Y-6782500D01*
X12750000Y-6710001D01*
Y-6650000D01*
X11975000Y-2875000D02*
X12250000Y-2600000D01*
X12137500Y-3975000D02*
X12167500D01*
X12187500Y-3955000D01*
Y-3925000D01*
X12300000Y-3812500D01*
Y-3400000D01*
X12137500Y-1117500D02*
X12167500D01*
X12187500Y-1137500D01*
Y-1167500D02*
Y-1137500D01*
Y-1167500D02*
X12250000Y-1230000D01*
X12625000Y-1120001D02*
X12627500Y-1117500D01*
X12625000Y-2700000D02*
Y-1120001D01*
X12137500Y-3237500D02*
X12275000Y-3100000D01*
X12137500Y-3645000D02*
Y-3237500D01*
X9770000Y-6502500D02*
Y-6280000D01*
X9775000Y-6275000D01*
X7125000Y-6425000D02*
Y-6275000D01*
X6912500Y-6502500D02*
X7047500D01*
X7125000Y-6425000D01*
X3102500Y-6502500D02*
Y-6127500D01*
X-2612500Y-6502500D02*
Y-6137500D01*
X-11977500Y-6502500D02*
X-11976250Y-6501250D01*
X12627500Y-6502500D02*
Y-6277500D01*
Y-3645000D02*
Y-3147500D01*
X12900000Y-2875000D01*
X9075000Y-6825000D02*
X9272500D01*
X11864265Y-6832500D02*
X12137500D01*
X11856765Y-6825000D02*
X11864265Y-6832500D01*
X11850000Y-6825000D02*
X11856765D01*
X2425000Y-6700000D02*
Y-6225000D01*
X2592500Y-6812500D02*
X2612500Y-6832500D01*
X2537500Y-6812500D02*
X2592500D01*
X2425000Y-6700000D02*
X2537500Y-6812500D01*
X-6920000Y-6825000D02*
X-6912500Y-6832500D01*
X-7104367Y-6825000D02*
X-6920000D01*
X10357500Y-1192500D02*
Y-952500D01*
X10147083Y-1402917D02*
X10357500Y-1192500D01*
X9766889Y-1402917D02*
X10147083D01*
X9082500Y-1117500D02*
X9280000D01*
X6232500D02*
X6422500D01*
X2439265D02*
X2612500D01*
X2431765Y-1125000D02*
X2439265Y-1117500D01*
X2425000Y-1125000D02*
X2431765D01*
X11942500Y-1117500D02*
X12137500D01*
X-12137500Y-3975000D02*
X-12118217Y-3994283D01*
X-12030717D01*
X-11925000Y-4100000D01*
X-12627500Y-6502500D02*
X-12597500D01*
X-12577500Y-6522500D01*
X-12167500Y-6832500D02*
X-12137500D01*
X-12187500Y-6812500D02*
X-12167500Y-6832500D01*
X-12187500Y-6812500D02*
Y-6782500D01*
X-12475000Y-6495000D02*
X-12187500Y-6782500D01*
X-12627500Y-3645000D02*
X-12597500D01*
X-12577500Y-3665000D01*
Y-3695000D02*
Y-3665000D01*
Y-3695000D02*
X-12475000Y-3797500D01*
Y-6495000D02*
Y-3797500D01*
X-12550000Y-3375000D02*
X-12450000Y-3275000D01*
X-12627500Y-787500D02*
X-12597500D01*
X-12577500Y-807500D01*
Y-837500D02*
Y-807500D01*
Y-837500D02*
X-12450000Y-965000D01*
Y-3275000D02*
Y-965000D01*
X-12187500Y-3695000D02*
Y-3665000D01*
X-12375000Y-3882500D02*
X-12187500Y-3695000D01*
X-12167500Y-3645000D02*
X-12137500D01*
X-12187500Y-3625000D02*
X-12167500Y-3645000D01*
X-12187500Y-3625000D02*
Y-3595000D01*
Y-3665000D02*
X-12167500Y-3645000D01*
Y-6502500D02*
X-12137500D01*
X-12187500Y-6482500D02*
X-12167500Y-6502500D01*
X-12187500Y-6482500D02*
Y-6452500D01*
X-12375000Y-6265000D02*
X-12187500Y-6452500D01*
X-12875000Y-3900000D02*
X-12800000Y-3975000D01*
X-12627501D02*
X-12627500Y-3975000D01*
X-12800000Y-3975000D02*
X-12627501D01*
X-12875000Y-4050000D02*
X-12800000Y-3975000D01*
D11*
X-1100000Y-267500D02*
Y-120000D01*
X-1755000Y-922500D02*
X-1100000Y-267500D01*
X-1334583Y502083D02*
X-1100000Y267500D01*
Y120000D02*
Y267500D01*
X2977500Y-2857500D02*
Y-1622500D01*
Y-2997500D02*
Y-2857500D01*
X2775000Y-3200000D02*
X2977500Y-2997500D01*
X2775000Y-4000000D02*
Y-3200000D01*
X2550000Y-5000000D02*
Y-4225000D01*
X2775000Y-4000000D01*
X2550000Y-5000000D02*
X2970000Y-5420000D01*
X2977500Y-5822500D02*
Y-5550000D01*
X2970000D02*
Y-5420000D01*
X1070000Y-3225000D02*
X1072500D01*
Y-4762500D02*
Y-3225000D01*
X1080000D01*
X1072500D02*
Y-952500D01*
Y-847500D01*
X2146889Y-5212917D02*
X2483972Y-5550000D01*
X2730000D01*
X2545000Y-130000D02*
X2857500D01*
X2970000Y-5550000D02*
X2977500D01*
X2295072Y-5979928D02*
X2820072D01*
X2977500Y-5822500D01*
X-5473111Y-5212917D02*
X-4932917D01*
X-4920000Y-5200000D01*
X-4642500Y-5400000D02*
Y-4762500D01*
X-10357500Y-5450000D02*
Y-4762500D01*
Y-2857500D01*
Y-2432380D01*
X-11188111Y-5212917D02*
X-10632917D01*
X-10620000Y-5200000D01*
X-7378111Y-5212917D02*
X-7365194Y-5200000D01*
X-6770000D01*
X-6547500Y-5300000D02*
Y-4762500D01*
X-9270194Y-5200000D02*
X-8720000D01*
X-9283111Y-5212917D02*
X-9270194Y-5200000D01*
X-8452500Y-5180000D02*
Y-2857500D01*
X-8480000Y-5200000D02*
X-8472500D01*
X-8452500Y-5180000D01*
X-10357500Y-2432380D02*
Y-952500D01*
X-4642500Y-2652501D02*
Y-952500D01*
X-6547500Y-2573179D02*
Y-2152500D01*
X-8452500Y-2520806D02*
Y-952500D01*
X-850000Y-3800000D02*
X-600000Y-4050000D01*
X-700000Y-7047000D02*
Y-4040000D01*
X-890000Y-3850000D02*
X-700000Y-4040000D01*
X-600000Y-5242000D02*
Y-4050000D01*
X12400000Y-1200000D02*
X12550000Y-1350000D01*
X12502500Y-2857500D02*
Y-2346880D01*
X12550000Y-2025000D02*
Y-1350000D01*
X12502500Y-2346880D02*
Y-2072500D01*
X12550000Y-2025000D01*
X12400000Y-1200000D02*
Y-667901D01*
X900000Y-675000D02*
X1072500Y-847500D01*
X120000Y-952500D02*
X124069Y-948431D01*
Y-875931D01*
X325000Y-675000D01*
X-600000Y-5242000D02*
X-381000Y-5461000D01*
X-700000Y-7047000D02*
X-381000Y-7366000D01*
X542083Y-3307917D02*
X619668Y-3230332D01*
X824668D02*
X830000Y-3225000D01*
X619668Y-3230332D02*
X824668D01*
X8692500Y-2857500D02*
Y-952500D01*
X-2725000Y-2676756D02*
Y-2600000D01*
Y-2845000D02*
Y-2676756D01*
X-1872083Y-3307917D02*
X-1663111D01*
X-2205000Y-2975000D02*
X-2195000D01*
X-2175000Y-2995000D01*
Y-3005000D02*
Y-2995000D01*
Y-3005000D02*
X-1872083Y-3307917D01*
X-2600000Y-2969315D02*
Y-2275000D01*
X-2750000Y-2125000D02*
X-2600000Y-2275000D01*
Y-4200000D02*
Y-2969315D01*
X-2594315Y-2975000D02*
X-2445000D01*
X-2600000Y-2969315D02*
X-2594315Y-2975000D01*
X-6547500Y-2857500D02*
Y-2573179D01*
X-8452500Y-2857500D02*
Y-2520806D01*
X-7740000Y-1041028D02*
X-7378111Y-1402917D01*
X-7740000Y-1041028D02*
Y-952500D01*
X-1704058Y-1361970D02*
X-1663111Y-1402917D01*
X-1788030Y-1361970D02*
X-1704058D01*
X-2025000Y-1125000D02*
X-1788030Y-1361970D01*
X-2025000Y-1125000D02*
Y-952500D01*
X-1807426Y-932500D02*
X-1755000D01*
X-2475000Y-1350000D02*
X-2443767D01*
X-1807426Y-932500D02*
Y-880073D01*
X-1912500Y-775000D02*
X-1807426Y-880073D01*
X-2150000Y-775000D02*
X-1912500D01*
X-2200000Y-1106233D02*
Y-825000D01*
X-2150000Y-775000D01*
X-2443767Y-1350000D02*
X-2200000Y-1106233D01*
X-7770000Y-6687500D02*
X-7750000Y-6667500D01*
X-7854361Y-6781861D02*
X-7770000Y-6697500D01*
Y-6687500D01*
X-7854361Y-7117917D02*
Y-6781861D01*
X-7750000Y-6667500D02*
X-7740000D01*
X12425000Y-4150000D02*
Y-3375000D01*
Y-4150000D02*
X12502500Y-4227500D01*
X12425000Y-3375000D02*
X12500000Y-3300000D01*
Y-2860000D01*
X12282099Y-220401D02*
X12352500Y-150000D01*
X12282099Y-550000D02*
Y-220401D01*
Y-550000D02*
X12400000Y-667901D01*
X11952500Y-550000D02*
X12282099D01*
X11550000Y-952500D02*
X11560000D01*
X11580000Y-932500D01*
Y-922500D01*
X11952500Y-550000D01*
X12502500Y-4762500D02*
Y-4227500D01*
X12500000Y-2860000D02*
X12502500Y-2857500D01*
X2025000Y-6250000D02*
X2295072Y-5979928D01*
X2025000Y-6667500D02*
Y-6250000D01*
X4882500Y-2857500D02*
Y-952500D01*
X6787500Y-2857500D02*
Y-1812500D01*
X10597500Y-2857500D02*
Y-952500D01*
X14550000Y-2715000D02*
Y-1250000D01*
X-10357500Y-6667500D02*
Y-5450000D01*
X2025000Y-650000D02*
X2545000Y-130000D01*
X2025000Y-952500D02*
Y-650000D01*
X2857500Y-130000D02*
X2877500Y-150000D01*
X2887500D01*
X3087500Y-350000D01*
X3250000D01*
X3450000Y-1150000D02*
Y-550000D01*
X3250000Y-350000D02*
X3450000Y-550000D01*
X2977500Y-1622500D02*
X3450000Y-1150000D01*
X1072500Y-6667500D02*
Y-4762500D01*
X-2600000Y-4200000D02*
X-2450000Y-4350000D01*
X-842500Y-4762500D02*
X-832500D01*
X-862500Y-4742500D02*
X-842500Y-4762500D01*
X-862500Y-4742500D02*
Y-4732500D01*
X-1245000Y-4350000D02*
X-862500Y-4732500D01*
X-2450000Y-4350000D02*
X-1245000D01*
X-832500Y-6667500D02*
Y-4762500D01*
X-2950000Y-2375000D02*
Y-1800000D01*
Y-2375000D02*
X-2725000Y-2600000D01*
X-2737500Y-2857500D02*
X-2725000Y-2845000D01*
X-2750000Y-1625000D02*
X-2475000Y-1350000D01*
X-2750000Y-2125000D02*
Y-1625000D01*
X-1755000Y-932500D02*
Y-922500D01*
X-4642500Y-2857500D02*
Y-2652501D01*
X-13050000Y-2373279D02*
Y-1117500D01*
Y-2692500D02*
Y-2373279D01*
X12352500Y-150000D02*
X12362500D01*
X12382500Y-130000D01*
Y-120000D01*
X11430000Y-6547500D02*
Y-6537500D01*
X11450000Y-6517500D01*
X11460000D01*
X12502500Y-5475000D01*
Y-4762500D01*
X11430000Y-7070000D02*
Y-6787500D01*
X11382083Y-7117917D02*
X11430000Y-7070000D01*
X11195639Y-7117917D02*
X11382083D01*
X8572500Y-497500D02*
Y-120000D01*
X8692500Y-952500D02*
Y-617500D01*
X8572500Y-497500D02*
X8692500Y-617500D01*
Y-4762500D02*
Y-2857500D01*
X8572500Y-6547500D02*
Y-6537500D01*
X8592500Y-6517500D01*
X8602500D01*
X8692500Y-6427500D01*
Y-4762500D01*
X8338139Y-7117917D02*
X8572500Y-6883556D01*
Y-6787500D01*
X6787500Y-4762500D02*
Y-2857500D01*
X5927500Y-952500D02*
X6787500Y-1812500D01*
X5835000Y-952500D02*
X5927500D01*
X6667500Y-207500D02*
Y-120000D01*
X6575000Y-300000D02*
X6667500Y-207500D01*
X6150000Y-300000D02*
X6575000D01*
X5835000Y-952500D02*
Y-615000D01*
X6150000Y-300000D01*
X5595000Y-1270000D02*
X5727917Y-1402917D01*
X5595000Y-1270000D02*
Y-952500D01*
X5727917Y-1402917D02*
X5956889D01*
X-6547500Y-4762500D02*
Y-2857500D01*
Y-5872500D02*
Y-5300000D01*
X-7500000Y-6667500D02*
X-7342500D01*
X-6547500Y-5872500D01*
X-7100000Y-1600000D02*
X-6547500Y-2152500D01*
X-7372500Y-952500D02*
X-7100000Y-1225000D01*
Y-1600000D02*
Y-1225000D01*
X-7500000Y-952500D02*
X-7372500D01*
X-7500000Y-700000D02*
X-6920000Y-120000D01*
X-7500000Y-952500D02*
Y-700000D01*
X-6920000Y-120000D02*
X-6667500D01*
X-2737500Y-4762500D02*
Y-2857500D01*
X-3275000Y-1475000D02*
X-2950000Y-1800000D01*
X-3275000Y-1475000D02*
Y-1325000D01*
X-3555000Y-1045000D02*
Y-950000D01*
Y-1045000D02*
X-3275000Y-1325000D01*
X-2945000Y-120000D02*
X-2857500D01*
X-3555000Y-730000D02*
X-2945000Y-120000D01*
X-3555000Y-950000D02*
Y-730000D01*
X-3795000Y-1176028D02*
X-3568111Y-1402917D01*
X-3795000Y-1176028D02*
Y-950000D01*
X241889Y-1402917D02*
X692306Y-952500D01*
X832500D01*
X-120000D02*
Y-623972D01*
X-241889Y-502083D02*
X-120000Y-623972D01*
X241889Y-3307917D02*
X542083D01*
X14437500Y-2827500D02*
X14550000Y-2715000D01*
X14437500Y-2837500D02*
Y-2827500D01*
X14407500Y-1107500D02*
Y-792500D01*
X14417500Y-2857500D02*
X14437500Y-2837500D01*
Y-2887500D02*
Y-2877500D01*
X14550000Y-4620000D02*
Y-3000000D01*
X14437500Y-2887500D02*
X14550000Y-3000000D01*
X14407500Y-792500D02*
X14750000Y-450000D01*
Y-120000D01*
X14407500Y-1107500D02*
X14550000Y-1250000D01*
X10597500Y-4762500D02*
Y-2857500D01*
Y-952500D02*
X10600000Y-950000D01*
Y-650000D01*
X10477500Y-527500D02*
Y-120000D01*
Y-527500D02*
X10600000Y-650000D01*
X4642500Y-6756028D02*
X5004389Y-7117917D01*
X4642500Y-6756028D02*
Y-6667500D01*
X4882500Y-4762500D02*
Y-2857500D01*
Y-6667500D02*
Y-4762500D01*
X4762500Y-130000D02*
Y-120000D01*
Y-130000D02*
X4782500Y-150000D01*
X4792500D01*
X4882500Y-240000D01*
Y-952500D02*
Y-240000D01*
X1785000Y-6756028D02*
X2146889Y-7117917D01*
X1785000Y-6756028D02*
Y-6667500D01*
X241889Y-7117917D02*
X692306Y-6667500D01*
X832500D01*
X-1663111Y-7117917D02*
X-1212694Y-6667500D01*
X-1072500D01*
X-4882500Y-6756028D02*
X-4520611Y-7117917D01*
X-4882500Y-6756028D02*
Y-6667500D01*
X-4642500Y-4762500D02*
Y-2857500D01*
Y-6667500D02*
Y-5400000D01*
X-4762500Y-130000D02*
Y-120000D01*
Y-130000D02*
X-4742500Y-150000D01*
X-4732500D01*
X-4642500Y-240000D01*
Y-952500D02*
Y-240000D01*
X-8572500Y-130000D02*
Y-120000D01*
Y-130000D02*
X-8552500Y-150000D01*
X-8542500D01*
X-8452500Y-240000D01*
Y-952500D02*
Y-240000D01*
X-10477500Y-130000D02*
Y-120000D01*
Y-130000D02*
X-10457500Y-150000D01*
X-10447500D01*
X-10357500Y-240000D01*
Y-952500D02*
Y-240000D01*
X-13214999Y-952500D02*
X-13205000D01*
X-13185001Y-932500D01*
Y-922500D01*
X-12850000Y-587500D01*
Y-20000D01*
X-13205000Y-952500D02*
X-13185001Y-972500D01*
Y-982500D02*
Y-972500D01*
Y-982500D02*
X-13050000Y-1117500D01*
X-13214999Y-2857500D02*
X-13205000D01*
X-13185001Y-2837500D01*
Y-2827500D01*
X-13050000Y-2692500D01*
X-13205000Y-2857500D02*
X-13185001Y-2877500D01*
Y-2887500D02*
Y-2877500D01*
Y-2887500D02*
X-13050000Y-3022500D01*
Y-4597500D02*
Y-3022500D01*
X-13214999Y-4762500D02*
X-13205000D01*
X-13185001Y-4742500D01*
Y-4732500D01*
X-13050000Y-4597500D01*
X-13205000Y-4762500D02*
X-13185001Y-4782500D01*
Y-4792500D02*
Y-4782500D01*
Y-4792500D02*
X-13050000Y-4927500D01*
Y-6502500D02*
Y-4927500D01*
X-13214999Y-6667500D02*
X-13205000D01*
X-13185001Y-6647500D01*
Y-6637500D01*
X-13050000Y-6502500D01*
X-13569360Y502083D02*
X-13132083D01*
X-12880000Y250000D01*
X-12870000D01*
X-12850000Y230000D01*
Y220000D02*
Y230000D01*
X-11188111Y502083D02*
X-10859583D01*
X-10507500Y150000D01*
X-10497500D01*
X-10477500Y130000D01*
Y120000D02*
Y130000D01*
X-9283111Y502083D02*
X-8954583D01*
X-8602500Y150000D01*
X-8592500D01*
X-8572500Y130000D01*
Y120000D02*
Y130000D01*
X-7378111Y502083D02*
X-7049583D01*
X-6697500Y150000D01*
X-6687500D01*
X-6667500Y130000D01*
Y120000D02*
Y130000D01*
X-5473111Y502083D02*
X-5144583D01*
X-4792500Y150000D01*
X-4782500D01*
X-4762500Y130000D01*
Y120000D02*
Y130000D01*
X-3568111Y502083D02*
X-3239583D01*
X-2887500Y150000D01*
X-2877500D01*
X-2857500Y130000D01*
Y120000D02*
Y130000D01*
X-1663111Y502083D02*
X-1334583D01*
X2146889D02*
X2475417D01*
X2827500Y150000D01*
X2837500D01*
X2857500Y130000D01*
Y120000D02*
Y130000D01*
X4051889Y502083D02*
X4380417D01*
X4732500Y150000D01*
X4742500D01*
X4762500Y130000D01*
Y120000D02*
Y130000D01*
X5956889Y502083D02*
X6285417D01*
X6637500Y150000D01*
X6647500D01*
X6667500Y130000D01*
Y120000D02*
Y130000D01*
X7861889Y502083D02*
X8190417D01*
X8542500Y150000D01*
X8552500D01*
X8572500Y130000D01*
Y120000D02*
Y130000D01*
X9766889Y502083D02*
X10095417D01*
X10447500Y150000D01*
X10457500D01*
X10477500Y130000D01*
Y120000D02*
Y130000D01*
X11671889Y502083D02*
X12000417D01*
X12352500Y150000D01*
X12362500D01*
X12382500Y130000D01*
Y120000D02*
Y130000D01*
X14407500Y-6667500D02*
X14417500D01*
X14437500Y-6647500D01*
Y-6637500D01*
X14550000Y-6525000D01*
X14407500Y-4762500D02*
X14417500D01*
X14437500Y-4782500D01*
Y-4792500D02*
Y-4782500D01*
Y-4792500D02*
X14550000Y-4905000D01*
Y-6525000D02*
Y-4905000D01*
X14417500Y-4762500D02*
X14437500Y-4742500D01*
Y-4732500D01*
X14550000Y-4620000D01*
X14407500Y-2857500D02*
X14417500D01*
X14437500Y-2877500D01*
X14053139Y502083D02*
X14367917D01*
X14720000Y150000D01*
X14730000D01*
X14750000Y130000D01*
Y120000D02*
Y130000D01*
X14053139Y-1402917D02*
Y-1066861D01*
X14137500Y-982500D01*
Y-972500D01*
X14157500Y-952500D01*
X14167500D01*
X14053139Y-3307917D02*
Y-2971861D01*
X14137500Y-2887500D01*
Y-2877500D01*
X14157500Y-2857500D01*
X14167500D01*
X14053139Y-5212917D02*
Y-4876861D01*
X14137500Y-4792500D01*
Y-4782500D01*
X14157500Y-4762500D01*
X14167500D01*
X14053139Y-7117917D02*
Y-6781861D01*
X14137500Y-6697500D01*
Y-6687500D01*
X14157500Y-6667500D01*
X14167500D01*
X8312306Y-952500D02*
X8452500D01*
X7861889Y-1402917D02*
X8312306Y-952500D01*
X4502306D02*
X4642500D01*
X4051889Y-1402917D02*
X4502306Y-952500D01*
X2597306Y-2857500D02*
X2737500D01*
X2146889Y-3307917D02*
X2597306Y-2857500D01*
X4502306D02*
X4642500D01*
X4051889Y-3307917D02*
X4502306Y-2857500D01*
X6407306D02*
X6547500D01*
X5956889Y-3307917D02*
X6407306Y-2857500D01*
X8312306D02*
X8452500D01*
X7861889Y-3307917D02*
X8312306Y-2857500D01*
X10217306D02*
X10357500D01*
X9766889Y-3307917D02*
X10217306Y-2857500D01*
X12122306D02*
X12262500D01*
X11671889Y-3307917D02*
X12122306Y-2857500D01*
Y-4762500D02*
X12262500D01*
X11671889Y-5212917D02*
X12122306Y-4762500D01*
X10217306D02*
X10357500D01*
X9766889Y-5212917D02*
X10217306Y-4762500D01*
X8312306D02*
X8452500D01*
X7861889Y-5212917D02*
X8312306Y-4762500D01*
X6407306D02*
X6547500D01*
X5956889Y-5212917D02*
X6407306Y-4762500D01*
X4502306D02*
X4642500D01*
X4051889Y-5212917D02*
X4502306Y-4762500D01*
X692306D02*
X832500D01*
X241889Y-5212917D02*
X692306Y-4762500D01*
X-5022694Y-952500D02*
X-4882500D01*
X-5473111Y-1402917D02*
X-5022694Y-952500D01*
X-3117694Y-2857500D02*
X-2977500D01*
X-3568111Y-3307917D02*
X-3117694Y-2857500D01*
X-1212694Y-4762500D02*
X-1072500D01*
X-1663111Y-5212917D02*
X-1212694Y-4762500D01*
X-3117694D02*
X-2977500D01*
X-3568111Y-5212917D02*
X-3117694Y-4762500D01*
X-5022694Y-2857500D02*
X-4882500D01*
X-5473111Y-3307917D02*
X-5022694Y-2857500D01*
X-6927694D02*
X-6787500D01*
X-7378111Y-3307917D02*
X-6927694Y-2857500D01*
X-8832694D02*
X-8692500D01*
X-9283111Y-3307917D02*
X-8832694Y-2857500D01*
X-10737694Y-952500D02*
X-10597500D01*
X-11188111Y-1402917D02*
X-10737694Y-952500D01*
Y-2857500D02*
X-10597500D01*
X-11188111Y-3307917D02*
X-10737694Y-2857500D01*
X-10607500Y-6667500D02*
X-10597500D01*
X-10627500Y-6687500D02*
X-10607500Y-6667500D01*
X-10627500Y-6697500D02*
Y-6687500D01*
X-10711861Y-6781861D02*
X-10627500Y-6697500D01*
X-10711861Y-7117917D02*
Y-6781861D01*
X-13464999Y-6667500D02*
X-13455000D01*
X-13485001Y-6687500D02*
X-13464999Y-6667500D01*
X-13485001Y-6697500D02*
Y-6687500D01*
X-13569360Y-6781861D02*
X-13485001Y-6697500D01*
X-13569360Y-7117917D02*
Y-6781861D01*
X-13464999Y-4762500D02*
X-13455000D01*
X-13485001Y-4782500D02*
X-13464999Y-4762500D01*
X-13485001Y-4792500D02*
Y-4782500D01*
X-13569360Y-4876861D02*
X-13485001Y-4792500D01*
X-13569360Y-5212917D02*
Y-4876861D01*
X-13464999Y-2857500D02*
X-13455000D01*
X-13485001Y-2877500D02*
X-13464999Y-2857500D01*
X-13485001Y-2887500D02*
Y-2877500D01*
X-13569360Y-2971861D02*
X-13485001Y-2887500D01*
X-13569360Y-3307917D02*
Y-2971861D01*
Y-1402917D02*
Y-1066861D01*
X-13485001Y-982500D01*
Y-972500D01*
X-13464999Y-952500D01*
X-13455000D01*
D12*
X-758644Y-600000D02*
X-332330Y-173686D01*
X-950000Y-800000D02*
Y-614645D01*
X-935356Y-600000D01*
X-758644D01*
X-1400000Y-3150000D02*
Y-3025000D01*
X-1000000Y-2452500D02*
Y-1950000D01*
X-830491Y-1780491D02*
Y-1515491D01*
X-1000000Y-1950000D02*
X-830491Y-1780491D01*
X-1050000Y-2452500D02*
Y-1925000D01*
X-884359Y-1759359D02*
Y-1525641D01*
X-1050000Y-1925000D02*
X-884359Y-1759359D01*
X-825000Y-2125000D02*
Y-2000000D01*
X-925000Y-2125000D02*
Y-2000000D01*
X-65871Y246628D02*
X-3002Y309498D01*
Y406998D02*
X0Y410000D01*
X-3002Y309498D02*
Y406998D01*
X-151366Y246628D02*
X-65871D01*
X-285618Y112376D02*
X-151366Y246628D01*
X-332330Y123759D02*
X-168930Y287160D01*
X-94645D01*
X-80000Y301805D02*
Y410000D01*
X-94645Y287160D02*
X-80000Y301805D01*
X-285618Y-192685D02*
Y112376D01*
X-332330Y-173686D02*
Y123759D01*
X-950000Y-1050000D02*
Y-800000D01*
X-780000Y-687067D02*
X-285618Y-192685D01*
X-780000Y-800000D02*
Y-687067D01*
Y-1460000D02*
X-775000D01*
X-812500Y-1492500D02*
X-780000Y-1460000D01*
X-830491Y-1515491D02*
X-812500Y-1497500D01*
Y-1492500D01*
X-950000Y-1460000D02*
X-945000D01*
X-912500Y-1497500D02*
X-884359Y-1525641D01*
X-945000Y-1460000D02*
X-912500Y-1492500D01*
Y-1497500D02*
Y-1492500D01*
X-780000Y-1285000D02*
Y-1050000D01*
Y-1285000D02*
X-775000Y-1290000D01*
X-970000Y-1270000D02*
Y-1050000D01*
Y-1270000D02*
X-950000Y-1290000D01*
X-797500Y-1032500D02*
X-780000Y-1050000D01*
X-797500Y-1032500D02*
Y-995355D01*
X-800000Y-992855D02*
X-797500Y-995355D01*
X-800000Y-992855D02*
Y-845000D01*
X-780000Y-825000D01*
Y-800000D01*
X3225000Y-2150000D02*
Y-2138530D01*
Y-3166624D02*
Y-2150000D01*
X3300000Y-3175000D02*
Y-2250000D01*
X3150000Y-3325000D02*
X3300000Y-3175000D01*
X3075000Y-3050000D02*
Y-2325000D01*
X975000Y-2550000D02*
Y-2547500D01*
X3100000Y-3291624D02*
X3225000Y-3166624D01*
X2850000Y-3275000D02*
X3075000Y-3050000D01*
X2975000Y-3275000D02*
X3150000Y-3100000D01*
Y-1775000D02*
X3274000Y-1651000D01*
X3150000Y-3100000D02*
Y-1775000D01*
X950000Y-2325000D02*
X1000000Y-2275000D01*
X3150000Y-4550000D02*
X3225000Y-4625000D01*
X3150000Y-4550000D02*
Y-3325000D01*
X3100000Y-4723000D02*
Y-3291624D01*
X3225000Y-4848000D02*
X3354000Y-4977000D01*
X3225000Y-4848000D02*
Y-4625000D01*
X2975000Y-4852000D02*
Y-3275000D01*
X2850000Y-4075000D02*
Y-3275000D01*
X2700000Y-4831000D02*
Y-4225000D01*
X2850000Y-4075000D01*
X2700000Y-4831000D02*
X2846000Y-4977000D01*
X800000Y-2325000D02*
X950000D01*
X750000Y-2275000D02*
X800000Y-2325000D01*
X332500Y-2377500D02*
X337500D01*
X377500Y-2337500D01*
Y-2332500D01*
X435000Y-2275000D01*
X750000D01*
X-350000Y-2225000D02*
X798970D01*
X814404Y-2240433D02*
X840433D01*
X850000Y-2250000D01*
X798970Y-2225000D02*
X814404Y-2240433D01*
X-552500Y-2427500D02*
X-350000Y-2225000D01*
X-550000Y-2281568D02*
X-403432Y-2135000D01*
X-525000Y-2325000D02*
X-375000Y-2175000D01*
X-403432Y-2135000D02*
X734039D01*
X769039Y-2100000D01*
X-375000Y-2175000D02*
X925000D01*
X769039Y-2100000D02*
X825000D01*
X3274000Y-1651000D02*
X3429000D01*
X2975000Y-4852000D02*
X3100000Y-4977000D01*
X-850000Y-3800000D02*
Y-3194823D01*
X-850000Y-3194822D01*
Y-3147500D01*
X-170000Y-2600000D02*
X-130000Y-2640000D01*
X-275000Y-2600000D02*
X-170000D01*
X-1245000Y-4145000D02*
X-1100000Y-4000000D01*
Y-3147500D01*
X-900000Y-3375754D02*
Y-3147500D01*
Y-3375754D02*
X-897500Y-3378254D01*
Y-3842500D02*
Y-3378254D01*
X-800000Y-3525846D02*
Y-3147500D01*
X-1050000Y-3971072D02*
Y-3352186D01*
Y-3971072D02*
X-1004801Y-4016271D01*
X-1050000Y-3352186D02*
X-1000000Y-3302186D01*
Y-3147500D01*
X-1004801Y-4029801D02*
Y-4016271D01*
X-897500Y-3842500D02*
X-890000Y-3850000D01*
X-800000Y-3525846D02*
X-675845Y-3650000D01*
X-525000Y-3200000D02*
Y-3197500D01*
X-675000Y-3400000D02*
Y-3300000D01*
X-575000D02*
Y-3247145D01*
X-650000Y-3187500D02*
Y-3050000D01*
Y-3187500D02*
X-634645D01*
X-575000Y-3247145D01*
X-572145D02*
X-525000Y-3200000D01*
X-400000Y-3125000D02*
X513137D01*
X875000Y-2575000D02*
Y-2425000D01*
X513137Y-3125000D02*
X838137Y-2800000D01*
X501568Y-3080000D02*
X881568Y-2700000D01*
X450000Y-3000000D02*
X875000Y-2575000D01*
X-383137Y-3080000D02*
X501568D01*
X-456568Y-2950000D02*
X-366568Y-3040000D01*
X485000D02*
X975000Y-2550000D01*
X-350000Y-3000000D02*
X450000D01*
X-366568Y-3040000D02*
X485000D01*
X-463136Y-3000000D02*
X-383137Y-3080000D01*
X-475000Y-3050000D02*
X-400000Y-3125000D01*
X-450000Y-2900000D02*
X-350000Y-3000000D01*
X838137Y-2800000D02*
X900000D01*
X881568Y-2700000D02*
X950000D01*
X325000D02*
X475000D01*
X-208937Y-2375000D02*
X-25000D01*
X-325000D02*
X-208937D01*
X-1245000Y-4350000D02*
Y-4145000D01*
X-187742Y-2475000D02*
X-162742Y-2450000D01*
X-950000Y-2640000D02*
Y-2452500D01*
X-1140000Y-2600000D02*
X-1120000Y-2580000D01*
X-1140000Y-3000000D02*
X-1120000Y-3020000D01*
X30000Y-2860000D02*
Y-2847500D01*
Y-2872500D02*
Y-2860000D01*
X-750000Y-3450000D02*
X-644000Y-3556000D01*
X-381000D01*
X-750000Y-3450000D02*
Y-3147500D01*
X-772145Y-2222145D02*
X-700000Y-2150000D01*
Y-2125000D01*
X-675000Y-1975000D02*
Y-1650000D01*
X-800000Y-2325000D02*
X-600000Y-2125000D01*
X-675000Y-1975000D02*
X-600000Y-2050000D01*
Y-2125000D02*
Y-2050000D01*
X-825000Y-2225000D02*
X-822145Y-2222145D01*
X-772145D01*
X-1222145Y-2222145D02*
X-1127855D01*
X-1425000Y-2225000D02*
X-1325000D01*
X-1150000Y-2452500D02*
Y-2400000D01*
X-1325000Y-2225000D02*
X-1150000Y-2400000D01*
X-1127855Y-2222145D02*
X-1125000Y-2225000D01*
X-552500Y-3050000D02*
X-475000D01*
X-552500Y-3000000D02*
X-463136D01*
X-552500Y-2950000D02*
X-456568D01*
X-275000Y-2900000D02*
X-217499Y-2957501D01*
X-391538Y-2866538D02*
X-378008D01*
X-344546Y-2900000D01*
X-275000D01*
X-552500Y-2900000D02*
X-450000D01*
X-217499Y-2957501D02*
X-55000D01*
X30000Y-2872500D01*
X-552500Y-2550000D02*
Y-2427500D01*
X-425000Y-2375000D02*
X-350000Y-2300000D01*
X-425000Y-2550000D02*
Y-2375000D01*
X-350000Y-2300000D02*
X60355D01*
X75000Y-2375000D02*
Y-2314645D01*
X60355Y-2300000D02*
X75000Y-2314645D01*
X-350000Y-2400000D02*
X-325000Y-2375000D01*
X-350000Y-2475000D02*
Y-2400000D01*
X-475000Y-2600000D02*
X-425000Y-2550000D01*
X75000Y-2375000D02*
X330000D01*
X332500Y-2377500D01*
X75000Y-2375000D02*
X75000Y-2375000D01*
X-625000Y-2325000D02*
X-525000D01*
X-650000Y-2452500D02*
Y-2350000D01*
X-625000Y-2325000D01*
X-643432Y-2281568D02*
X-550000D01*
X-700000Y-2452500D02*
Y-2338137D01*
X-643432Y-2281568D01*
X-542500Y-2217500D02*
X-350000Y-2025000D01*
X-635931Y-2217500D02*
X-542500D01*
X-750000Y-2331568D02*
X-635931Y-2217500D01*
X-800000Y-2452500D02*
Y-2325000D01*
X-750000Y-2452500D02*
Y-2331568D01*
X-1425000Y-2525000D02*
Y-2425000D01*
X-1425000Y-2425000D01*
X-1400000Y-2550000D02*
X-1247500D01*
X-1425000Y-2525000D02*
X-1400000Y-2550000D01*
X-1375000Y-3050000D02*
X-1247500D01*
X-1400000Y-3025000D02*
X-1375000Y-3050000D01*
X-2350000Y-2675000D02*
X-2250000D01*
X-1975000Y-2950000D01*
X-1950000Y-2900000D02*
X-1247500D01*
X-2250000Y-2600000D02*
X-1950000Y-2900000D01*
X-1975000Y-2950000D02*
X-1247500D01*
X-2150000Y-2624999D02*
X-1924237Y-2850762D01*
X-2150000Y-2624999D02*
Y-2525000D01*
X-1924237Y-2850762D02*
X-1344194D01*
X-1824999Y-2700000D02*
X-1247500D01*
X-1900000Y-2624999D02*
Y-2300000D01*
X-1975000Y-2624999D02*
Y-2375000D01*
X-2050000Y-2625000D02*
X-1875000Y-2800000D01*
X-1247500D01*
X-1900000Y-2624999D02*
X-1824999Y-2700000D01*
X-2050000Y-2625000D02*
Y-2450000D01*
X-1849999Y-2750000D02*
X-1247500D01*
X-1975000Y-2624999D02*
X-1849999Y-2750000D01*
X-1343432Y-2850000D02*
X-1247500D01*
X-1344194Y-2850762D02*
X-1343432Y-2850000D01*
X-1650000Y-2625000D02*
X-1525000D01*
X-1800000Y-2225000D02*
X-1525000D01*
X-552500Y-2600000D02*
X-475000D01*
X-150000Y-2475000D02*
Y-2462742D01*
X-162742Y-2450000D02*
X-150000Y-2462742D01*
X-1650000Y-2525000D02*
X-1525000D01*
X-381000Y-1651000D02*
X-350000Y-1682000D01*
Y-2025000D02*
Y-1682000D01*
X1154000Y254000D02*
X1524000D01*
X850000Y-50000D02*
X1154000Y254000D01*
X25000Y-1300000D02*
X850000Y-475000D01*
Y-50000D01*
X-675000Y-1650000D02*
X-325000Y-1300000D01*
X25000D01*
X-1125000Y-2125000D02*
Y-2025000D01*
X-250000Y-2475000D02*
X-187742D01*
X-250000D02*
X-200000Y-2525000D01*
X-275000Y-2600000D02*
X-200000Y-2525000D01*
X-350000Y-2550000D02*
Y-2475000D01*
X-450000Y-2650000D02*
X-350000Y-2550000D01*
X-552500Y-2650000D02*
X-450000D01*
X-200000Y-2525000D02*
X125000D01*
X150000Y-2550000D01*
X30000Y-2847500D02*
X75000Y-2802500D01*
X87500D01*
X150000Y-2740000D01*
Y-2550000D01*
X-15000Y-2685000D02*
X30000Y-2640000D01*
X-15000Y-2715000D02*
Y-2685000D01*
X-25000Y-2725000D02*
X-15000Y-2715000D01*
X-25000Y-2725000D02*
Y-2725000D01*
X-50000Y-2750000D02*
X-25000Y-2725000D01*
X-200000Y-2750000D02*
X-50000D01*
X-275000Y-2700000D02*
X-257500Y-2717500D01*
X-232500D01*
X-200000Y-2750000D01*
X-277855Y-2702855D02*
X-275000Y-2700000D01*
X-327855Y-2702855D02*
X-277855D01*
X-375000Y-2750000D02*
X-327855Y-2702855D01*
X-552500Y-2750000D02*
X-375000D01*
X-552500Y-2800000D02*
X-275000D01*
X-130000Y-2860000D02*
Y-2847500D01*
X-175000Y-2802500D02*
X-130000Y-2847500D01*
X-187500Y-2802500D02*
X-175000D01*
X-190001Y-2800000D02*
X-187500Y-2802500D01*
X-275000Y-2800000D02*
X-190001D01*
X-700000Y-3275000D02*
X-675000Y-3300000D01*
X-700000Y-3275000D02*
Y-3147500D01*
X-1425000Y-2650000D02*
X-1247500D01*
X-680000Y-3020000D02*
X-650000Y-3050000D01*
X-1247500Y-3000000D02*
X-1140000D01*
X-1247500Y-2600000D02*
X-1140000D01*
X-670000Y-2700000D02*
X-552500D01*
X-680000Y-2690000D02*
X-670000Y-2700000D01*
X-950000Y-2640000D02*
X-900000Y-2690000D01*
X-850000Y-2452500D02*
Y-2250000D01*
X-825000Y-2225000D01*
X-900000Y-2452500D02*
Y-2250000D01*
X-925000Y-2225000D02*
X-900000Y-2250000D01*
X-1100000Y-2452500D02*
Y-2250000D01*
X-1125000Y-2225000D02*
X-1100000Y-2250000D01*
D16*
X-365000Y720000D02*
D03*
X365000D02*
D03*
D17*
X5956889Y-5212917D02*
D03*
X5334000Y-5461000D02*
D03*
X-241889Y-502083D02*
D03*
X381000Y-254000D02*
D03*
X11049000Y254000D02*
D03*
X11671889Y502083D02*
D03*
Y-1402917D02*
D03*
X11049000Y-1651000D02*
D03*
X-14192250Y-3556000D02*
D03*
X-13569360Y-3307917D02*
D03*
X11049000Y-3556000D02*
D03*
X11671889Y-3307917D02*
D03*
X13430251Y-3556000D02*
D03*
X14053139Y-3307917D02*
D03*
X1524000Y-7366000D02*
D03*
X2146889Y-7117917D02*
D03*
X5004389D02*
D03*
X4381500Y-7366000D02*
D03*
X14053139Y-7117917D02*
D03*
X13430251Y-7366000D02*
D03*
X14053139Y-1402917D02*
D03*
X13430251Y-1651000D02*
D03*
X-5143500Y-7366000D02*
D03*
X-4520611Y-7117917D02*
D03*
X-11811000Y254000D02*
D03*
X-11188111Y502083D02*
D03*
X-9283111D02*
D03*
X-9906000Y254000D02*
D03*
X-8001000D02*
D03*
X-7378111Y502083D02*
D03*
X-5473111D02*
D03*
X-6096000Y254000D02*
D03*
X-4191000D02*
D03*
X-3568111Y502083D02*
D03*
X-1663111D02*
D03*
X-2286000Y254000D02*
D03*
X1524000D02*
D03*
X2146889Y502083D02*
D03*
X4051889D02*
D03*
X3429000Y254000D02*
D03*
X5334000D02*
D03*
X5956889Y502083D02*
D03*
X7861889D02*
D03*
X7239000Y254000D02*
D03*
X9144000D02*
D03*
X9766889Y502083D02*
D03*
X10572750Y-7366000D02*
D03*
X11195639Y-7117917D02*
D03*
X7715250Y-7366000D02*
D03*
X8338139Y-7117917D02*
D03*
X241889D02*
D03*
X-381000Y-7366000D02*
D03*
X-1663111Y-7117917D02*
D03*
X-2286000Y-7366000D02*
D03*
X-8477250D02*
D03*
X-7854361Y-7117917D02*
D03*
X-11334750Y-7366000D02*
D03*
X-10711861Y-7117917D02*
D03*
X-14192250Y-7366000D02*
D03*
X-13569360Y-7117917D02*
D03*
X-14192250Y-5461000D02*
D03*
X-13569360Y-5212917D02*
D03*
X-11188111D02*
D03*
X-11811000Y-5461000D02*
D03*
X-9283111Y-5212917D02*
D03*
X-9906000Y-5461000D02*
D03*
X-7378111Y-5212917D02*
D03*
X-8001000Y-5461000D02*
D03*
X-5473111Y-5212917D02*
D03*
X-6096000Y-5461000D02*
D03*
X-3568111Y-5212917D02*
D03*
X-4191000Y-5461000D02*
D03*
X-1663111Y-5212917D02*
D03*
X-2286000Y-5461000D02*
D03*
X241889Y-5212917D02*
D03*
X-381000Y-5461000D02*
D03*
X2146889Y-5212917D02*
D03*
X1524000Y-5461000D02*
D03*
X4051889Y-5212917D02*
D03*
X3429000Y-5461000D02*
D03*
X7861889Y-5212917D02*
D03*
X7239000Y-5461000D02*
D03*
X9766889Y-5212917D02*
D03*
X9144000Y-5461000D02*
D03*
X11671889Y-5212917D02*
D03*
X11049000Y-5461000D02*
D03*
X13430251D02*
D03*
X14053139Y-5212917D02*
D03*
X9766889Y-3307917D02*
D03*
X9144000Y-3556000D02*
D03*
X7861889Y-3307917D02*
D03*
X7239000Y-3556000D02*
D03*
X5956889Y-3307917D02*
D03*
X5334000Y-3556000D02*
D03*
X4051889Y-3307917D02*
D03*
X3429000Y-3556000D02*
D03*
X2146889Y-3307917D02*
D03*
X1524000Y-3556000D02*
D03*
X241889Y-3307917D02*
D03*
X-381000Y-3556000D02*
D03*
X-1663111Y-3307917D02*
D03*
X-2286000Y-3556000D02*
D03*
X-3568111Y-3307917D02*
D03*
X-4191000Y-3556000D02*
D03*
X-5473111Y-3307917D02*
D03*
X-6096000Y-3556000D02*
D03*
X-7378111Y-3307917D02*
D03*
X-8001000Y-3556000D02*
D03*
X-9283111Y-3307917D02*
D03*
X-9906000Y-3556000D02*
D03*
X-11188111Y-3307917D02*
D03*
X-11811000Y-3556000D02*
D03*
X-14192250Y-1651000D02*
D03*
X-13569360Y-1402917D02*
D03*
X-11811000Y-1651000D02*
D03*
X-11188111Y-1402917D02*
D03*
X-9906000Y-1651000D02*
D03*
X-9283111Y-1402917D02*
D03*
X-8001000Y-1651000D02*
D03*
X-7378111Y-1402917D02*
D03*
X-6096000Y-1651000D02*
D03*
X-5473111Y-1402917D02*
D03*
X-4191000Y-1651000D02*
D03*
X-3568111Y-1402917D02*
D03*
X-2286000Y-1651000D02*
D03*
X-1663111Y-1402917D02*
D03*
X-381000Y-1651000D02*
D03*
X241889Y-1402917D02*
D03*
X1524000Y-1651000D02*
D03*
X2146889Y-1402917D02*
D03*
X3429000Y-1651000D02*
D03*
X4051889Y-1402917D02*
D03*
X5334000Y-1651000D02*
D03*
X5956889Y-1402917D02*
D03*
X7239000Y-1651000D02*
D03*
X7861889Y-1402917D02*
D03*
X9144000Y-1651000D02*
D03*
X9766889Y-1402917D02*
D03*
X13430251Y254000D02*
D03*
X14053139Y502083D02*
D03*
X-14192250Y254000D02*
D03*
X-13569360Y502083D02*
D03*
D18*
X2846000Y-4723000D02*
D03*
D19*
Y-4977000D02*
D03*
X3100000Y-4723000D02*
D03*
Y-4977000D02*
D03*
X3354000Y-4723000D02*
D03*
Y-4977000D02*
D03*
D20*
X-13684250Y-4318000D02*
D03*
X-13938251D02*
D03*
D21*
X-875000Y-1175000D02*
D03*
Y-675000D02*
D03*
X-1400000Y-3150000D02*
D03*
X-1625000Y-3025000D02*
D03*
X-1025000Y-1775000D02*
D03*
X-825000Y-2000000D02*
D03*
X-925000D02*
D03*
X7100000Y-6825000D02*
D03*
X-2925000Y-6225000D02*
D03*
X-1125000Y-1125000D02*
D03*
X-1050000Y-400000D02*
D03*
X2350000Y-927500D02*
D03*
X3225000Y-2150000D02*
D03*
X3300000Y-2250000D02*
D03*
X3075000Y-2325000D02*
D03*
X4850000Y-2625000D02*
D03*
X975000Y-2547500D02*
D03*
X2975000Y-2725000D02*
D03*
X1000000Y-2275000D02*
D03*
X850000Y-2250000D02*
D03*
X925000Y-2175000D02*
D03*
X825000Y-2100000D02*
D03*
X3350000Y-4200000D02*
D03*
X-1125000Y-1919613D02*
D03*
X-1225000Y-3300000D02*
D03*
X-1175000Y-3900000D02*
D03*
X-975000Y-3400000D02*
D03*
X-1004801Y-4029801D02*
D03*
X-850000Y-4075000D02*
D03*
X-675845Y-3650000D02*
D03*
X-525000Y-3197500D02*
D03*
X-675000Y-3400000D02*
D03*
X194244Y-2900000D02*
D03*
X475000Y-2700000D02*
D03*
X1075000Y-4050000D02*
D03*
X-12550000Y-1350000D02*
D03*
X-12350000D02*
D03*
X-12375000Y-4200708D02*
D03*
X-12650000Y-4200000D02*
D03*
X-12849251Y-6524251D02*
D03*
X-12800000Y-6825000D02*
D03*
X-6422509Y-7097509D02*
D03*
X12200000Y-4425000D02*
D03*
X12450000Y-1375000D02*
D03*
X12502500Y-2346880D02*
D03*
X900000Y-675000D02*
D03*
X325000D02*
D03*
X-10357500Y-2432380D02*
D03*
X-8452500Y-2520806D02*
D03*
X-6547500Y-2573179D02*
D03*
X-4642500Y-2652501D02*
D03*
X-208937Y-2375000D02*
D03*
X-700000Y-2125000D02*
D03*
X-1222145Y-2222145D02*
D03*
X900000Y-2800000D02*
D03*
X950000Y-2700000D02*
D03*
X-391538Y-2866538D02*
D03*
X875000Y-2425000D02*
D03*
X-1425000D02*
D03*
X-2350000Y-2675000D02*
D03*
X-2725000Y-2676756D02*
D03*
X-2150000Y-2525000D02*
D03*
X-2050000Y-2450000D02*
D03*
X-1650000Y-2625000D02*
D03*
X-2250000Y-2600000D02*
D03*
X-1800000Y-2225000D02*
D03*
X-1975000Y-2375000D02*
D03*
X-1900000Y-2300000D02*
D03*
X8675000Y-2500000D02*
D03*
X11850000Y-4200000D02*
D03*
X12825000Y-4300000D02*
D03*
X-9123750Y-781250D02*
D03*
X-6266250D02*
D03*
X-2456250D02*
D03*
X3258750D02*
D03*
X9926250D02*
D03*
X7068750D02*
D03*
X12800000Y-725000D02*
D03*
X-3350000Y-852500D02*
D03*
X-11925000Y-775000D02*
D03*
X-10032500Y-875000D02*
D03*
X-7175000D02*
D03*
X-11857500Y-975000D02*
D03*
X-9000000D02*
D03*
X-6050000Y-950000D02*
D03*
X-2325000D02*
D03*
X-12800000Y-1125000D02*
D03*
X-9975000D02*
D03*
X-7075000D02*
D03*
X-3300000D02*
D03*
X6175000Y-900000D02*
D03*
X3325000Y-1000000D02*
D03*
X9075000Y-900000D02*
D03*
X7200000Y-950000D02*
D03*
X10050000D02*
D03*
X11925000Y-900000D02*
D03*
X12626250Y-4198750D02*
D03*
X-6750000Y-7075000D02*
D03*
X-8325000Y-6925000D02*
D03*
X-9126250Y-6501250D02*
D03*
X-9375000Y-7075000D02*
D03*
X-9950000Y-6825000D02*
D03*
X-2675000Y-7075000D02*
D03*
X-3225000Y-6325000D02*
D03*
X3101250Y-7023750D02*
D03*
X2575000Y-6325000D02*
D03*
X6775000Y-7000000D02*
D03*
X6429394Y-6300000D02*
D03*
X10050000Y-6675000D02*
D03*
X9075000Y-6450000D02*
D03*
X12750000Y-6650000D02*
D03*
X11975000Y-2875000D02*
D03*
X12300000Y-3400000D02*
D03*
X12625000Y-2700000D02*
D03*
X12275000Y-3100000D02*
D03*
X9775000Y-6275000D02*
D03*
X7125000D02*
D03*
X3101250Y-6126250D02*
D03*
X-2606250Y-6131250D02*
D03*
X-6425000Y-6125000D02*
D03*
X-11976250Y-6501250D02*
D03*
X12626250Y-6276250D02*
D03*
X2425000Y-6225000D02*
D03*
X9082500Y-1117500D02*
D03*
X6232500D02*
D03*
X2425000Y-1125000D02*
D03*
X11942500Y-1117500D02*
D03*
X11850000Y-6825000D02*
D03*
X9075000D02*
D03*
X-7104367D02*
D03*
X-150000Y-2475000D02*
D03*
X6750000Y-2550000D02*
D03*
X10575000Y-2400000D02*
D03*
X14525000Y-2150000D02*
D03*
X-11925000Y-4100000D02*
D03*
X-12550000Y-3375000D02*
D03*
X-1650000Y-2525000D02*
D03*
X-13050000Y-2373279D02*
D03*
X-1125000Y-2025000D02*
D03*
D22*
X-735000Y-2965000D02*
D03*
Y-2855000D02*
D03*
Y-2745000D02*
D03*
Y-2635000D02*
D03*
X-845000Y-2965000D02*
D03*
Y-2855000D02*
D03*
Y-2745000D02*
D03*
Y-2635000D02*
D03*
X-955000Y-2965000D02*
D03*
Y-2855000D02*
D03*
Y-2745000D02*
D03*
Y-2635000D02*
D03*
X-1065000Y-2965000D02*
D03*
Y-2855000D02*
D03*
Y-2745000D02*
D03*
Y-2635000D02*
D03*
D23*
X160000Y410000D02*
D03*
X80000D02*
D03*
X-80000D02*
D03*
X-160000D02*
D03*
X0D02*
D03*
D24*
X400000Y460000D02*
D03*
X-400000D02*
D03*
D25*
X210000Y860000D02*
D03*
X-200000D02*
D03*
D26*
X1072500Y-4762500D02*
D03*
X832500D02*
D03*
X-2205000Y-2975000D02*
D03*
X-2445000D02*
D03*
X-2977500Y-2857500D02*
D03*
X-2737500D02*
D03*
X2970000Y-5550000D02*
D03*
X2730000D02*
D03*
X-4680000Y-5200000D02*
D03*
X-4920000D02*
D03*
X-6530000D02*
D03*
X-6770000D02*
D03*
X-10380000D02*
D03*
X-10620000D02*
D03*
X-8480000D02*
D03*
X-8720000D02*
D03*
X-1072500Y-4762500D02*
D03*
X-832500D02*
D03*
X8452500D02*
D03*
X8692500D02*
D03*
X4642500D02*
D03*
X4882500D02*
D03*
X6547500D02*
D03*
X6787500D02*
D03*
X-3795000Y-950000D02*
D03*
X-3555000D02*
D03*
X830000Y-3225000D02*
D03*
X1070000D02*
D03*
X832500Y-952500D02*
D03*
X1072500D02*
D03*
X-120000D02*
D03*
X120000D02*
D03*
X14407500Y-6667500D02*
D03*
X14167500D02*
D03*
X-4882500Y-2857500D02*
D03*
X-4642500D02*
D03*
X-6787500D02*
D03*
X-6547500D02*
D03*
X-8692500Y-952500D02*
D03*
X-8452500D02*
D03*
X-10597500D02*
D03*
X-10357500D02*
D03*
X-13455000D02*
D03*
X-13214999D02*
D03*
X-2025000D02*
D03*
X-1785000D02*
D03*
X-4882500D02*
D03*
X-4642500D02*
D03*
X-7740000D02*
D03*
X-7500000D02*
D03*
X10357500D02*
D03*
X10597500D02*
D03*
X8692500D02*
D03*
X8452500D02*
D03*
X5595000D02*
D03*
X5835000D02*
D03*
X4642500D02*
D03*
X4882500D02*
D03*
X1785000D02*
D03*
X2025000D02*
D03*
X-8692500Y-2857500D02*
D03*
X-8452500D02*
D03*
X-10597500D02*
D03*
X-10357500D02*
D03*
X-13455000D02*
D03*
X-13214999D02*
D03*
X14167500Y-952500D02*
D03*
X14407500D02*
D03*
X11310000D02*
D03*
X11550000D02*
D03*
X4642500Y-6667500D02*
D03*
X4882500D02*
D03*
X1785000D02*
D03*
X2025000D02*
D03*
X832500D02*
D03*
X1072500D02*
D03*
X-1072500D02*
D03*
X-832500D02*
D03*
X-4882500D02*
D03*
X-4642500D02*
D03*
X-7500000D02*
D03*
X-7740000D02*
D03*
X-10597500D02*
D03*
X-10357500D02*
D03*
X-13455000D02*
D03*
X-13214999D02*
D03*
X14167500Y-4762500D02*
D03*
X14407500D02*
D03*
X12262500D02*
D03*
X12502500D02*
D03*
X10357500D02*
D03*
X10597500D02*
D03*
X-2977500D02*
D03*
X-2737500D02*
D03*
X-13455000D02*
D03*
X-13214999D02*
D03*
X14167500Y-2857500D02*
D03*
X14407500D02*
D03*
X12262500D02*
D03*
X12502500D02*
D03*
X10357500D02*
D03*
X10597500D02*
D03*
X8452500D02*
D03*
X8692500D02*
D03*
X6547500D02*
D03*
X6787500D02*
D03*
X4642500D02*
D03*
X4882500D02*
D03*
X2737500D02*
D03*
X2977500D02*
D03*
D27*
X3102500Y-1117500D02*
D03*
X3102500Y-787500D02*
D03*
X2612500D02*
D03*
X2612500Y-1117500D02*
D03*
X12627500Y-3975000D02*
D03*
X12627500Y-3645000D02*
D03*
X12137500D02*
D03*
X12137500Y-3975000D02*
D03*
Y-1117500D02*
D03*
X12137500Y-787500D02*
D03*
X12627500D02*
D03*
X12627500Y-1117500D02*
D03*
X9770000D02*
D03*
X9770000Y-787500D02*
D03*
X9280000D02*
D03*
X9280000Y-1117500D02*
D03*
X6422500D02*
D03*
X6422500Y-787500D02*
D03*
X6912500D02*
D03*
X6912500Y-1117500D02*
D03*
X-3102500D02*
D03*
X-3102500Y-787500D02*
D03*
X-2612500D02*
D03*
X-2612500Y-1117500D02*
D03*
X-6422500D02*
D03*
X-6422500Y-787500D02*
D03*
X-6912500D02*
D03*
X-6912500Y-1117500D02*
D03*
X-9770000D02*
D03*
X-9770000Y-787500D02*
D03*
X-9280000D02*
D03*
X-9280000Y-1117500D02*
D03*
X-12137500D02*
D03*
X-12137500Y-787500D02*
D03*
X-12627500D02*
D03*
X-12627500Y-1117500D02*
D03*
Y-3975000D02*
D03*
X-12627500Y-3645000D02*
D03*
X-12137500D02*
D03*
X-12137500Y-3975000D02*
D03*
Y-6832500D02*
D03*
X-12137500Y-6502500D02*
D03*
X-12627500D02*
D03*
X-12627500Y-6832500D02*
D03*
X-9770000D02*
D03*
X-9770000Y-6502500D02*
D03*
X-9280000D02*
D03*
X-9280000Y-6832500D02*
D03*
X-6422500D02*
D03*
X-6422500Y-6502500D02*
D03*
X-6912500D02*
D03*
X-6912500Y-6832500D02*
D03*
X-3102500D02*
D03*
X-3102500Y-6502500D02*
D03*
X-2612500D02*
D03*
X-2612500Y-6832500D02*
D03*
X3102500D02*
D03*
X3102500Y-6502500D02*
D03*
X2612500D02*
D03*
X2612500Y-6832500D02*
D03*
X6422500D02*
D03*
X6422500Y-6502500D02*
D03*
X6912500D02*
D03*
X6912500Y-6832500D02*
D03*
X9770000D02*
D03*
X9770000Y-6502500D02*
D03*
X9280000D02*
D03*
X9280000Y-6832500D02*
D03*
X12137500D02*
D03*
X12137500Y-6502500D02*
D03*
X12627500D02*
D03*
X12627500Y-6832500D02*
D03*
D28*
X-25000Y-2375000D02*
D03*
X75000D02*
D03*
X-1525000Y-2225000D02*
D03*
X-1425000D02*
D03*
X-6625000Y-575000D02*
D03*
X-6725000D02*
D03*
X-2800000Y-550000D02*
D03*
X-2900000D02*
D03*
X6700000Y-575000D02*
D03*
X6600000D02*
D03*
X9575000D02*
D03*
X9475000D02*
D03*
X-350000Y-2475000D02*
D03*
X-250000D02*
D03*
X-1425000Y-2525000D02*
D03*
X-1525000D02*
D03*
X-1425000Y-2625000D02*
D03*
X-1525000D02*
D03*
X-675000Y-3300000D02*
D03*
X-575000D02*
D03*
X-1400000Y-3025000D02*
D03*
X-1500000D02*
D03*
X-9525000Y-7050000D02*
D03*
X-9625000D02*
D03*
X2800000Y-550000D02*
D03*
X2900000D02*
D03*
X12250000Y-1375000D02*
D03*
X12350000D02*
D03*
X12100000Y-4200000D02*
D03*
X12200000D02*
D03*
X12325000Y-7050000D02*
D03*
X12425000D02*
D03*
X9450000D02*
D03*
X9550000D02*
D03*
X2800000D02*
D03*
X2900000D02*
D03*
X-2925000D02*
D03*
X-2825000D02*
D03*
X6500000D02*
D03*
X6600000D02*
D03*
X-7025000D02*
D03*
X-6925000D02*
D03*
X-12425000Y-7075000D02*
D03*
X-12325000D02*
D03*
X-9575000Y-575000D02*
D03*
X-9475000D02*
D03*
X-12750000Y-1350000D02*
D03*
X-12650000D02*
D03*
X-12850000Y-4200000D02*
D03*
X-12750000D02*
D03*
D29*
X-970000Y-800000D02*
D03*
X-875000D02*
D03*
X-780000D02*
D03*
Y-1050000D02*
D03*
X-875000D02*
D03*
X-970000D02*
D03*
D30*
X-1100000Y-120000D02*
D03*
Y120000D02*
D03*
X-6667500D02*
D03*
Y-120000D02*
D03*
X2857500Y120000D02*
D03*
Y-120000D02*
D03*
X11430000Y-6787500D02*
D03*
Y-6547500D02*
D03*
X-2857500Y120000D02*
D03*
Y-120000D02*
D03*
X-4762500Y120000D02*
D03*
Y-120000D02*
D03*
X-8572500Y120000D02*
D03*
Y-120000D02*
D03*
X-10477500Y120000D02*
D03*
Y-120000D02*
D03*
X-12850000Y220000D02*
D03*
Y-20000D02*
D03*
X10477500Y120000D02*
D03*
Y-120000D02*
D03*
X8572500Y120000D02*
D03*
Y-120000D02*
D03*
X6667500Y120000D02*
D03*
Y-120000D02*
D03*
X4762500Y120000D02*
D03*
Y-120000D02*
D03*
X14750000Y120000D02*
D03*
Y-120000D02*
D03*
X12382500Y120000D02*
D03*
Y-120000D02*
D03*
X8572500Y-6787500D02*
D03*
Y-6547500D02*
D03*
D31*
X-925000Y-2225000D02*
D03*
Y-2125000D02*
D03*
X-825000Y-2225000D02*
D03*
Y-2125000D02*
D03*
X-1125000Y-2225000D02*
D03*
Y-2125000D02*
D03*
X-275000Y-2600000D02*
D03*
Y-2700000D02*
D03*
Y-2800000D02*
D03*
Y-2900000D02*
D03*
D32*
X-950000Y-1485000D02*
D03*
Y-1315000D02*
D03*
X-775000Y-1485000D02*
D03*
Y-1315000D02*
D03*
D33*
X30000Y-2640000D02*
D03*
Y-2860000D02*
D03*
X-130000D02*
D03*
Y-2640000D02*
D03*
D34*
X325000Y-2900000D02*
D03*
Y-2700000D02*
D03*
D35*
X332500Y-2522500D02*
D03*
Y-2377500D02*
D03*
X667500Y-2522500D02*
D03*
Y-2377500D02*
D03*
D36*
X-900000Y-2800000D02*
D03*
D37*
X-1247500Y-2550000D02*
D03*
Y-2600000D02*
D03*
Y-2650000D02*
D03*
Y-2700000D02*
D03*
Y-2750000D02*
D03*
Y-2800000D02*
D03*
Y-2850000D02*
D03*
Y-2900000D02*
D03*
Y-2950000D02*
D03*
Y-3000000D02*
D03*
Y-3050000D02*
D03*
X-552500D02*
D03*
Y-3000000D02*
D03*
Y-2950000D02*
D03*
Y-2900000D02*
D03*
Y-2850000D02*
D03*
Y-2800000D02*
D03*
Y-2750000D02*
D03*
Y-2700000D02*
D03*
Y-2650000D02*
D03*
Y-2600000D02*
D03*
Y-2550000D02*
D03*
D38*
X-1150000Y-3147500D02*
D03*
X-1100000D02*
D03*
X-1050000D02*
D03*
X-1000000D02*
D03*
X-950000D02*
D03*
X-900000D02*
D03*
X-850000D02*
D03*
X-800000D02*
D03*
X-750000D02*
D03*
X-700000D02*
D03*
X-650000D02*
D03*
Y-2452500D02*
D03*
X-700000D02*
D03*
X-750000D02*
D03*
X-800000D02*
D03*
X-850000D02*
D03*
X-900000D02*
D03*
X-950000D02*
D03*
X-1000000D02*
D03*
X-1050000D02*
D03*
X-1100000D02*
D03*
X-1150000D02*
D03*
D39*
X-1280000Y-645399D02*
X-900000Y-265399D01*
Y350000D02*
X-700000Y550000D01*
X-900000Y-265399D02*
Y350000D01*
X-1280000Y-1745000D02*
Y-645399D01*
X-1127500Y-1900000D02*
Y-1897500D01*
X-1280000Y-1745000D02*
X-1127500Y-1897500D01*
D40*
X780000Y-4195026D02*
Y-4314987D01*
X720020D01*
X700026Y-4294993D01*
Y-4275000D01*
Y-4255006D01*
X720020Y-4235013D01*
X780000D01*
X660039D02*
Y-4294993D01*
X640045Y-4314987D01*
X580065D01*
Y-4334981D01*
X600058Y-4354974D01*
X620052D01*
X580065Y-4314987D02*
Y-4235013D01*
X400123Y-4215019D02*
Y-4235013D01*
X420117D01*
X380130D01*
X400123D01*
Y-4294993D01*
X380130Y-4314987D01*
X320149D02*
X260168D01*
X240175Y-4294993D01*
X260168Y-4275000D01*
X300155D01*
X320149Y-4255006D01*
X300155Y-4235013D01*
X240175D01*
X200188D02*
X120214D01*
X200188Y-4314987D01*
X120214D01*
X60233Y-4235013D02*
X20246D01*
X252Y-4255006D01*
Y-4314987D01*
X60233D01*
X80227Y-4294993D01*
X60233Y-4275000D01*
X252D01*
X-39734Y-4195026D02*
Y-4314987D01*
X-99715D01*
X-119709Y-4294993D01*
Y-4275000D01*
Y-4255006D01*
X-99715Y-4235013D01*
X-39734D01*
X-179689Y-4314987D02*
X-219676D01*
X-239670Y-4294993D01*
Y-4255006D01*
X-219676Y-4235013D01*
X-179689D01*
X-159696Y-4255006D01*
Y-4294993D01*
X-179689Y-4314987D01*
X-299650D02*
X-339637D01*
X-359631Y-4294993D01*
Y-4255006D01*
X-339637Y-4235013D01*
X-299650D01*
X-279657Y-4255006D01*
Y-4294993D01*
X-299650Y-4314987D01*
D41*
X-700000Y550000D02*
D03*
D42*
X687500D02*
D03*
%TF.MD5,7e0c996c757cf68554276962f544297a*%
M02*
