%TF.GenerationSoftware,Altium Limited,Altium Designer,20.2.6 (244)*%
G04 Layer_Color=16711935*
%FSLAX45Y45*%
%MOMM*%
%TF.SameCoordinates,2270FEAA-A680-44EA-805D-832D39C03FB4*%
%TF.FilePolarity,Positive*%
%TF.FileFunction,Other,3D*%
%TF.Part,Single*%
G01*
G75*
%TA.AperFunction,NonConductor*%
%ADD47C,0.10000*%
%ADD74R,1.35000X0.36315*%
%ADD75R,0.36315X1.35000*%
%ADD76R,4.50000X0.72500*%
D47*
X-1117500Y-2532500D02*
G03*
X-1117500Y-2532500I-50000J0D01*
G01*
X-1195000Y-1005000D02*
X-905000D01*
Y-845000D01*
X-1195000D02*
X-905000D01*
X-1195000Y-1005000D02*
Y-845000D01*
X-885000Y-135000D02*
Y135000D01*
X-1020000Y-135000D02*
Y135000D01*
Y-135000D02*
X-885000D01*
X-1020000Y135000D02*
X-885000D01*
X2715000Y-5482500D02*
X2985000D01*
X2715000Y-5617500D02*
X2985000D01*
Y-5482500D01*
X2715000Y-5617500D02*
Y-5482500D01*
X2336000Y-5292500D02*
Y-4407500D01*
X3864000D01*
Y-5292500D02*
Y-4407500D01*
X2336000Y-5292500D02*
X3864000D01*
X-4935000Y-5132500D02*
X-4665000D01*
X-4935000Y-5267500D02*
X-4665000D01*
Y-5132500D01*
X-4935000Y-5267500D02*
Y-5132500D01*
X-6785000D02*
X-6515000D01*
X-6785000Y-5267500D02*
X-6515000D01*
Y-5132500D01*
X-6785000Y-5267500D02*
Y-5132500D01*
X-10635000D02*
X-10365000D01*
X-10635000Y-5267500D02*
X-10365000D01*
Y-5132500D01*
X-10635000Y-5267500D02*
Y-5132500D01*
X-8735000D02*
X-8465000D01*
X-8735000Y-5267500D02*
X-8465000D01*
Y-5132500D01*
X-8735000Y-5267500D02*
Y-5132500D01*
X-900000Y-2225000D02*
Y-2125000D01*
X-950000Y-2225000D02*
Y-2125000D01*
Y-2225000D02*
X-900000D01*
X-950000Y-2125000D02*
X-900000D01*
X-1087500Y-4830000D02*
Y-4695000D01*
X-817500Y-4830000D02*
Y-4695000D01*
X-1087500Y-4830000D02*
X-817500D01*
X-1087500Y-4695000D02*
X-817500D01*
X8437500Y-4830000D02*
Y-4695000D01*
X8707500Y-4830000D02*
Y-4695000D01*
X8437500Y-4830000D02*
X8707500D01*
X8437500Y-4695000D02*
X8707500D01*
X4627500Y-4830000D02*
Y-4695000D01*
X4897500Y-4830000D02*
Y-4695000D01*
X4627500Y-4830000D02*
X4897500D01*
X4627500Y-4695000D02*
X4897500D01*
X6532500Y-4830000D02*
Y-4695000D01*
X6802500Y-4830000D02*
Y-4695000D01*
X6532500Y-4830000D02*
X6802500D01*
X6532500Y-4695000D02*
X6802500D01*
X-6625000Y-600000D02*
Y-550000D01*
X-6725000Y-600000D02*
Y-550000D01*
X-6625000D01*
X-6725000Y-600000D02*
X-6625000D01*
X-6735000Y135000D02*
X-6600000D01*
X-6735000Y-135000D02*
X-6600000D01*
X-6735000D02*
Y135000D01*
X-6600000Y-135000D02*
Y135000D01*
X-3810000Y-1017500D02*
Y-882500D01*
X-3540000Y-1017500D02*
Y-882500D01*
X-3810000Y-1017500D02*
X-3540000D01*
X-3810000Y-882500D02*
X-3540000D01*
X-2800000Y-575000D02*
Y-525000D01*
X-2900000Y-575000D02*
Y-525000D01*
X-2800000D01*
X-2900000Y-575000D02*
X-2800000D01*
X-927500Y-1435000D02*
Y-1265000D01*
X-1022500Y-1435000D02*
Y-1265000D01*
Y-1435000D02*
X-927500D01*
X-1022500Y-1265000D02*
X-927500D01*
X-1077500Y-1435000D02*
Y-1265000D01*
X-1172500Y-1435000D02*
Y-1265000D01*
Y-1435000D02*
X-1077500D01*
X-1172500Y-1265000D02*
X-1077500D01*
X2790000Y135000D02*
X2925000D01*
X2790000Y-135000D02*
X2925000D01*
X2790000D02*
Y135000D01*
X2925000Y-135000D02*
Y135000D01*
X6700000Y-600000D02*
Y-550000D01*
X6600000Y-600000D02*
Y-550000D01*
X6700000D01*
X6600000Y-600000D02*
X6700000D01*
X9575000D02*
Y-550000D01*
X9475000Y-600000D02*
Y-550000D01*
X9575000D01*
X9475000Y-600000D02*
X9575000D01*
X11362500Y-6802500D02*
X11497500D01*
X11362500Y-6532500D02*
X11497500D01*
Y-6802500D02*
Y-6532500D01*
X11362500Y-6802500D02*
Y-6532500D01*
X-350000Y-2500000D02*
X-250000D01*
X-350000Y-2450000D02*
X-250000D01*
X-350000Y-2500000D02*
Y-2450000D01*
X-250000Y-2500000D02*
Y-2450000D01*
X-185000Y-2920000D02*
Y-2580000D01*
Y-2920000D02*
X85000D01*
Y-2580000D01*
X-185000D02*
X85000D01*
X815000Y-3292500D02*
Y-3157500D01*
X1085000Y-3292500D02*
Y-3157500D01*
X815000Y-3292500D02*
X1085000D01*
X815000Y-3157500D02*
X1085000D01*
X255000Y-2907500D02*
X395000D01*
X255000Y-2692500D02*
X395000D01*
Y-2907500D02*
Y-2692500D01*
X255000Y-2907500D02*
Y-2692500D01*
X325000Y-2595000D02*
Y-2305000D01*
X675000D01*
Y-2595000D02*
Y-2305000D01*
X325000Y-2595000D02*
X675000D01*
X817500Y-1020000D02*
Y-885000D01*
X1087500Y-1020000D02*
Y-885000D01*
X817500Y-1020000D02*
X1087500D01*
X817500Y-885000D02*
X1087500D01*
X-135000Y-1020000D02*
Y-885000D01*
X135000Y-1020000D02*
Y-885000D01*
X-135000Y-1020000D02*
X135000D01*
X-135000Y-885000D02*
X135000D01*
X-800000Y-2225000D02*
Y-2125000D01*
X-850000Y-2225000D02*
Y-2125000D01*
Y-2225000D02*
X-800000D01*
X-850000Y-2125000D02*
X-800000D01*
X-1100000Y-2225000D02*
Y-2125000D01*
X-1150000Y-2225000D02*
Y-2125000D01*
Y-2225000D02*
X-1100000D01*
X-1150000Y-2125000D02*
X-1100000D01*
X-1525000Y-2500000D02*
X-1425000D01*
X-1525000Y-2550000D02*
X-1425000D01*
Y-2500000D01*
X-1525000Y-2550000D02*
Y-2500000D01*
Y-2600000D02*
X-1425000D01*
X-1525000Y-2650000D02*
X-1425000D01*
Y-2600000D01*
X-1525000Y-2650000D02*
Y-2600000D01*
X-542500Y-3157500D02*
Y-2442500D01*
X-1257500Y-3157500D02*
Y-2442500D01*
Y-3157500D02*
X-542500D01*
X-1257500Y-2442500D02*
X-542500D01*
X-675000Y-3325000D02*
X-575000D01*
X-675000Y-3275000D02*
X-575000D01*
X-675000Y-3325000D02*
Y-3275000D01*
X-575000Y-3325000D02*
Y-3275000D01*
X-1500000Y-3000000D02*
X-1400000D01*
X-1500000Y-3050000D02*
X-1400000D01*
Y-3000000D01*
X-1500000Y-3050000D02*
Y-3000000D01*
X14152499Y-6600000D02*
X14422501D01*
X14152499Y-6735000D02*
X14422501D01*
Y-6600000D01*
X14152499Y-6735000D02*
Y-6600000D01*
X-2460000Y-3042500D02*
X-2190000D01*
X-2460000Y-2907500D02*
X-2190000D01*
X-2460000Y-3042500D02*
Y-2907500D01*
X-2190000Y-3042500D02*
Y-2907500D01*
X-2992500Y-2790000D02*
X-2722500D01*
X-2992500Y-2925000D02*
X-2722500D01*
Y-2790000D01*
X-2992500Y-2925000D02*
Y-2790000D01*
X-4897500Y-2925000D02*
Y-2790000D01*
X-4627500Y-2925000D02*
Y-2790000D01*
X-4897500Y-2925000D02*
X-4627500D01*
X-4897500Y-2790000D02*
X-4627500D01*
X-2925000Y135000D02*
X-2790000D01*
X-2925000Y-135000D02*
X-2790000D01*
X-2925000D02*
Y135000D01*
X-2790000Y-135000D02*
Y135000D01*
X-4830000D02*
X-4695000D01*
X-4830000Y-135000D02*
X-4695000D01*
X-4830000D02*
Y135000D01*
X-4695000Y-135000D02*
Y135000D01*
X-8640000D02*
X-8505000D01*
X-8640000Y-135000D02*
X-8505000D01*
X-8640000D02*
Y135000D01*
X-8505000Y-135000D02*
Y135000D01*
X-10545000D02*
X-10410000D01*
X-10545000Y-135000D02*
X-10410000D01*
X-10545000D02*
Y135000D01*
X-10410000Y-135000D02*
Y135000D01*
X-12917500Y235000D02*
X-12782500D01*
X-12917500Y-35000D02*
X-12782500D01*
X-12917500D02*
Y235000D01*
X-12782500Y-35000D02*
Y235000D01*
X-6802500Y-2925000D02*
Y-2790000D01*
X-6532500Y-2925000D02*
Y-2790000D01*
X-6802500Y-2925000D02*
X-6532500D01*
X-6802500Y-2790000D02*
X-6532500D01*
X10410000Y135000D02*
X10545000D01*
X10410000Y-135000D02*
X10545000D01*
X10410000D02*
Y135000D01*
X10545000Y-135000D02*
Y135000D01*
X8505000D02*
X8640000D01*
X8505000Y-135000D02*
X8640000D01*
X8505000D02*
Y135000D01*
X8640000Y-135000D02*
Y135000D01*
X6600000D02*
X6735000D01*
X6600000Y-135000D02*
X6735000D01*
X6600000D02*
Y135000D01*
X6735000Y-135000D02*
Y135000D01*
X4695000D02*
X4830000D01*
X4695000Y-135000D02*
X4830000D01*
X4695000D02*
Y135000D01*
X4830000Y-135000D02*
Y135000D01*
X-8707500Y-1020000D02*
Y-885000D01*
X-8437500Y-1020000D02*
Y-885000D01*
X-8707500Y-1020000D02*
X-8437500D01*
X-8707500Y-885000D02*
X-8437500D01*
X-10612500Y-1020000D02*
Y-885000D01*
X-10342500Y-1020000D02*
Y-885000D01*
X-10612500Y-1020000D02*
X-10342500D01*
X-10612500Y-885000D02*
X-10342500D01*
X-13470000Y-1020000D02*
Y-885000D01*
X-13200000Y-1020000D02*
Y-885000D01*
X-13470000Y-1020000D02*
X-13200000D01*
X-13470000Y-885000D02*
X-13200000D01*
X14682500Y135000D02*
X14817500D01*
X14682500Y-135000D02*
X14817500D01*
X14682500D02*
Y135000D01*
X14817500Y-135000D02*
Y135000D01*
X12315000D02*
X12450000D01*
X12315000Y-135000D02*
X12450000D01*
X12315000D02*
Y135000D01*
X12450000Y-135000D02*
Y135000D01*
X-2040000Y-1020000D02*
Y-885000D01*
X-1770000Y-1020000D02*
Y-885000D01*
X-2040000Y-1020000D02*
X-1770000D01*
X-2040000Y-885000D02*
X-1770000D01*
X-4897500Y-1020000D02*
Y-885000D01*
X-4627500Y-1020000D02*
Y-885000D01*
X-4897500Y-1020000D02*
X-4627500D01*
X-4897500Y-885000D02*
X-4627500D01*
X-7755000Y-1020000D02*
Y-885000D01*
X-7485000Y-1020000D02*
Y-885000D01*
X-7755000Y-1020000D02*
X-7485000D01*
X-7755000Y-885000D02*
X-7485000D01*
X10342500Y-1020000D02*
Y-885000D01*
X10612500Y-1020000D02*
Y-885000D01*
X10342500Y-1020000D02*
X10612500D01*
X10342500Y-885000D02*
X10612500D01*
X8437500D02*
X8707500D01*
X8437500Y-1020000D02*
X8707500D01*
Y-885000D01*
X8437500Y-1020000D02*
Y-885000D01*
X5580000Y-1020000D02*
Y-885000D01*
X5850000Y-1020000D02*
Y-885000D01*
X5580000Y-1020000D02*
X5850000D01*
X5580000Y-885000D02*
X5850000D01*
X4627500Y-1020000D02*
Y-885000D01*
X4897500Y-1020000D02*
Y-885000D01*
X4627500Y-1020000D02*
X4897500D01*
X4627500Y-885000D02*
X4897500D01*
X1770000Y-1020000D02*
Y-885000D01*
X2040000Y-1020000D02*
Y-885000D01*
X1770000Y-1020000D02*
X2040000D01*
X1770000Y-885000D02*
X2040000D01*
X-8707500Y-2925000D02*
Y-2790000D01*
X-8437500Y-2925000D02*
Y-2790000D01*
X-8707500Y-2925000D02*
X-8437500D01*
X-8707500Y-2790000D02*
X-8437500D01*
X-10612500Y-2925000D02*
Y-2790000D01*
X-10342500Y-2925000D02*
Y-2790000D01*
X-10612500Y-2925000D02*
X-10342500D01*
X-10612500Y-2790000D02*
X-10342500D01*
X-13470000Y-2925000D02*
Y-2790000D01*
X-13200000Y-2925000D02*
Y-2790000D01*
X-13470000Y-2925000D02*
X-13200000D01*
X-13470000Y-2790000D02*
X-13200000D01*
X14152499Y-1020000D02*
Y-885000D01*
X14422501Y-1020000D02*
Y-885000D01*
X14152499Y-1020000D02*
X14422501D01*
X14152499Y-885000D02*
X14422501D01*
X11295000Y-1020000D02*
Y-885000D01*
X11565000Y-1020000D02*
Y-885000D01*
X11295000Y-1020000D02*
X11565000D01*
X11295000Y-885000D02*
X11565000D01*
X8505000Y-6802500D02*
X8640000D01*
X8505000Y-6532500D02*
X8640000D01*
Y-6802500D02*
Y-6532500D01*
X8505000Y-6802500D02*
Y-6532500D01*
X4627500Y-6735000D02*
Y-6600000D01*
X4897500Y-6735000D02*
Y-6600000D01*
X4627500Y-6735000D02*
X4897500D01*
X4627500Y-6600000D02*
X4897500D01*
X1770000Y-6735000D02*
Y-6600000D01*
X2040000Y-6735000D02*
Y-6600000D01*
X1770000Y-6735000D02*
X2040000D01*
X1770000Y-6600000D02*
X2040000D01*
X817500Y-6735000D02*
Y-6600000D01*
X1087500Y-6735000D02*
Y-6600000D01*
X817500Y-6735000D02*
X1087500D01*
X817500Y-6600000D02*
X1087500D01*
X-1087500Y-6735000D02*
Y-6600000D01*
X-817500Y-6735000D02*
Y-6600000D01*
X-1087500Y-6735000D02*
X-817500D01*
X-1087500Y-6600000D02*
X-817500D01*
X-4897500Y-6735000D02*
Y-6600000D01*
X-4627500Y-6735000D02*
Y-6600000D01*
X-4897500Y-6735000D02*
X-4627500D01*
X-4897500Y-6600000D02*
X-4627500D01*
X-7755000D02*
X-7485000D01*
X-7755000Y-6735000D02*
X-7485000D01*
Y-6600000D01*
X-7755000Y-6735000D02*
Y-6600000D01*
X-10612500Y-6735000D02*
Y-6600000D01*
X-10342500Y-6735000D02*
Y-6600000D01*
X-10612500Y-6735000D02*
X-10342500D01*
X-10612500Y-6600000D02*
X-10342500D01*
X-13470000Y-6735000D02*
Y-6600000D01*
X-13200000Y-6735000D02*
Y-6600000D01*
X-13470000Y-6735000D02*
X-13200000D01*
X-13470000Y-6600000D02*
X-13200000D01*
X14152499Y-4830000D02*
Y-4695000D01*
X14422501Y-4830000D02*
Y-4695000D01*
X14152499Y-4830000D02*
X14422501D01*
X14152499Y-4695000D02*
X14422501D01*
X12247500Y-4830000D02*
Y-4695000D01*
X12517500Y-4830000D02*
Y-4695000D01*
X12247500Y-4830000D02*
X12517500D01*
X12247500Y-4695000D02*
X12517500D01*
X10342500Y-4830000D02*
Y-4695000D01*
X10612500Y-4830000D02*
Y-4695000D01*
X10342500Y-4830000D02*
X10612500D01*
X10342500Y-4695000D02*
X10612500D01*
X817500Y-4830000D02*
Y-4695000D01*
X1087500Y-4830000D02*
Y-4695000D01*
X817500Y-4830000D02*
X1087500D01*
X817500Y-4695000D02*
X1087500D01*
X-2992500Y-4830000D02*
Y-4695000D01*
X-2722500Y-4830000D02*
Y-4695000D01*
X-2992500Y-4830000D02*
X-2722500D01*
X-2992500Y-4695000D02*
X-2722500D01*
X-13470000Y-4830000D02*
Y-4695000D01*
X-13200000Y-4830000D02*
Y-4695000D01*
X-13470000Y-4830000D02*
X-13200000D01*
X-13470000Y-4695000D02*
X-13200000D01*
X14152499Y-2925000D02*
Y-2790000D01*
X14422501Y-2925000D02*
Y-2790000D01*
X14152499Y-2925000D02*
X14422501D01*
X14152499Y-2790000D02*
X14422501D01*
X12247500Y-2925000D02*
Y-2790000D01*
X12517500Y-2925000D02*
Y-2790000D01*
X12247500Y-2925000D02*
X12517500D01*
X12247500Y-2790000D02*
X12517500D01*
X10342500Y-2925000D02*
Y-2790000D01*
X10612500Y-2925000D02*
Y-2790000D01*
X10342500Y-2925000D02*
X10612500D01*
X10342500Y-2790000D02*
X10612500D01*
X8437500Y-2925000D02*
Y-2790000D01*
X8707500Y-2925000D02*
Y-2790000D01*
X8437500Y-2925000D02*
X8707500D01*
X8437500Y-2790000D02*
X8707500D01*
X6532500Y-2925000D02*
Y-2790000D01*
X6802500Y-2925000D02*
Y-2790000D01*
X6532500Y-2925000D02*
X6802500D01*
X6532500Y-2790000D02*
X6802500D01*
X4627500Y-2925000D02*
Y-2790000D01*
X4897500Y-2925000D02*
Y-2790000D01*
X4627500Y-2925000D02*
X4897500D01*
X4627500Y-2790000D02*
X4897500D01*
X2722500Y-2925000D02*
Y-2790000D01*
X2992500Y-2925000D02*
Y-2790000D01*
X2722500Y-2925000D02*
X2992500D01*
X2722500Y-2790000D02*
X2992500D01*
X-9525000Y-7075000D02*
Y-7025000D01*
X-9625000Y-7075000D02*
Y-7025000D01*
X-9525000D01*
X-9625000Y-7075000D02*
X-9525000D01*
X-300000Y-2600000D02*
X-250000D01*
X-300000Y-2700000D02*
X-250000D01*
X-300000D02*
Y-2600000D01*
X-250000Y-2700000D02*
Y-2600000D01*
X-300000Y-2900000D02*
Y-2800000D01*
X-250000Y-2900000D02*
Y-2800000D01*
X-300000D02*
X-250000D01*
X-300000Y-2900000D02*
X-250000D01*
X2800000Y-575000D02*
X2900000D01*
X2800000Y-525000D02*
X2900000D01*
X2800000Y-575000D02*
Y-525000D01*
X2900000Y-575000D02*
Y-525000D01*
X12250000Y-1400000D02*
X12350000D01*
X12250000Y-1350000D02*
X12350000D01*
X12250000Y-1400000D02*
Y-1350000D01*
X12350000Y-1400000D02*
Y-1350000D01*
X12100000Y-4225000D02*
X12200000D01*
X12100000Y-4175000D02*
X12200000D01*
X12100000Y-4225000D02*
Y-4175000D01*
X12200000Y-4225000D02*
Y-4175000D01*
X12325000Y-7075000D02*
X12425000D01*
X12325000Y-7025000D02*
X12425000D01*
X12325000Y-7075000D02*
Y-7025000D01*
X12425000Y-7075000D02*
Y-7025000D01*
X9450000Y-7075000D02*
X9550000D01*
X9450000Y-7025000D02*
X9550000D01*
X9450000Y-7075000D02*
Y-7025000D01*
X9550000Y-7075000D02*
Y-7025000D01*
X2800000Y-7075000D02*
X2900000D01*
X2800000Y-7025000D02*
X2900000D01*
X2800000Y-7075000D02*
Y-7025000D01*
X2900000Y-7075000D02*
Y-7025000D01*
X-2925000Y-7075000D02*
X-2825000D01*
X-2925000Y-7025000D02*
X-2825000D01*
X-2925000Y-7075000D02*
Y-7025000D01*
X-2825000Y-7075000D02*
Y-7025000D01*
X6500000Y-7075000D02*
X6600000D01*
X6500000Y-7025000D02*
X6600000D01*
X6500000Y-7075000D02*
Y-7025000D01*
X6600000Y-7075000D02*
Y-7025000D01*
X-7025000Y-7075000D02*
X-6925000D01*
X-7025000Y-7025000D02*
X-6925000D01*
X-7025000Y-7075000D02*
Y-7025000D01*
X-6925000Y-7075000D02*
Y-7025000D01*
X-12425000Y-7100000D02*
X-12325000D01*
X-12425000Y-7050000D02*
X-12325000D01*
X-12425000Y-7100000D02*
Y-7050000D01*
X-12325000Y-7100000D02*
Y-7050000D01*
X-9575000Y-600000D02*
X-9475000D01*
X-9575000Y-550000D02*
X-9475000D01*
X-9575000Y-600000D02*
Y-550000D01*
X-9475000Y-600000D02*
Y-550000D01*
X-12750000Y-1375000D02*
X-12650000D01*
X-12750000Y-1325000D02*
X-12650000D01*
X-12750000Y-1375000D02*
Y-1325000D01*
X-12650000Y-1375000D02*
Y-1325000D01*
X-12850000Y-4225000D02*
X-12750000D01*
X-12850000Y-4175000D02*
X-12750000D01*
X-12850000Y-4225000D02*
Y-4175000D01*
X-12750000Y-4225000D02*
Y-4175000D01*
D74*
X-952500Y116843D02*
D03*
X-6667501Y116842D02*
D03*
X2857500Y116843D02*
D03*
X11430000Y-6784343D02*
D03*
X-2857500Y116843D02*
D03*
X-4762501Y116842D02*
D03*
X-8572500Y116843D02*
D03*
X-10477501Y116842D02*
D03*
X-12850000Y216842D02*
D03*
X10477501Y116842D02*
D03*
X8572500Y116843D02*
D03*
X6667500D02*
D03*
X4762500D02*
D03*
X14750000D02*
D03*
X12382500D02*
D03*
X8572500Y-6784342D02*
D03*
D75*
X2733157Y-5550000D02*
D03*
X-4916842Y-5200000D02*
D03*
X-6766842D02*
D03*
X-10616843D02*
D03*
X-8716842D02*
D03*
X-1069343Y-4762500D02*
D03*
X8455658D02*
D03*
X4645658D02*
D03*
X6550658D02*
D03*
X-3791843Y-950000D02*
D03*
X833158Y-3225000D02*
D03*
X835657Y-952500D02*
D03*
X-116842D02*
D03*
X14170657Y-6667500D02*
D03*
X-2208157Y-2975000D02*
D03*
X-2974343Y-2857500D02*
D03*
X-4879343D02*
D03*
X-6784342D02*
D03*
X-8689342Y-952501D02*
D03*
X-10594342D02*
D03*
X-13451842D02*
D03*
X-2021843Y-952500D02*
D03*
X-4879343D02*
D03*
X-7736843D02*
D03*
X10360657D02*
D03*
X8455657D02*
D03*
X5598158Y-952501D02*
D03*
X4645658D02*
D03*
X1788158D02*
D03*
X-8689342Y-2857500D02*
D03*
X-10594342D02*
D03*
X-13451842D02*
D03*
X14170657Y-952500D02*
D03*
X11313157D02*
D03*
X4645658Y-6667500D02*
D03*
X1788158D02*
D03*
X835657D02*
D03*
X-1069343D02*
D03*
X-4879343D02*
D03*
X-7736842D02*
D03*
X-10594342D02*
D03*
X-13451842D02*
D03*
X14170657Y-4762500D02*
D03*
X12265657D02*
D03*
X10360657D02*
D03*
X835657D02*
D03*
X-2974343D02*
D03*
X-13451843D02*
D03*
X14170657Y-2857501D02*
D03*
X12265657Y-2857500D02*
D03*
X10360657D02*
D03*
X8455657D02*
D03*
X6550657D02*
D03*
X4645658D02*
D03*
X2740658D02*
D03*
D76*
X3100000Y-4443750D02*
D03*
%TF.MD5,f5adbf00852baf6e3628d51f3eb023b2*%
M02*
