%TF.GenerationSoftware,Altium Limited,Altium Designer,20.2.6 (244)*%
G04 Layer_Color=128*
%FSLAX45Y45*%
%MOMM*%
%TF.SameCoordinates,2F107FE3-984A-4B75-92AE-308BEDE16AF6*%
%TF.FilePolarity,Positive*%
%TF.FileFunction,Paste,Bot*%
%TF.Part,Single*%
G01*
G75*
%TA.AperFunction,SMDPad,CuDef*%
%ADD23R,0.50000X1.60000*%
%ADD24R,2.10000X2.90000*%
%ADD25R,1.30000X1.00000*%
%ADD26R,1.00000X0.80000*%
%ADD27R,1.50000X0.90000*%
%ADD28R,0.60000X0.60000*%
%ADD29R,0.60000X1.10000*%
%ADD30R,0.80000X1.00000*%
%ADD31R,0.60000X0.60000*%
%ADD32R,1.00000X0.90000*%
%ADD33R,1.15000X1.40000*%
%ADD34R,1.40000X1.00000*%
%ADD35R,1.15000X1.05000*%
%ADD36R,5.30000X5.30000*%
%ADD37R,1.05000X0.25000*%
%ADD38R,0.25000X1.05000*%
D23*
X160000Y410000D02*
D03*
X80000D02*
D03*
X-80000D02*
D03*
X-160000D02*
D03*
X0D02*
D03*
D24*
X400000Y460000D02*
D03*
X-400000D02*
D03*
D25*
X210000Y860000D02*
D03*
X-200000D02*
D03*
D26*
X1072500Y-4762500D02*
D03*
X832500D02*
D03*
X-2205000Y-2975000D02*
D03*
X-2445000D02*
D03*
X-2977500Y-2857500D02*
D03*
X-2737500D02*
D03*
X2970000Y-5550000D02*
D03*
X2730000D02*
D03*
X-4680000Y-5200000D02*
D03*
X-4920000D02*
D03*
X-6530000D02*
D03*
X-6770000D02*
D03*
X-10380000D02*
D03*
X-10620000D02*
D03*
X-8480000D02*
D03*
X-8720000D02*
D03*
X-1072500Y-4762500D02*
D03*
X-832500D02*
D03*
X8452500D02*
D03*
X8692500D02*
D03*
X4642500D02*
D03*
X4882500D02*
D03*
X6547500D02*
D03*
X6787500D02*
D03*
X-3795000Y-950000D02*
D03*
X-3555000D02*
D03*
X830000Y-3225000D02*
D03*
X1070000D02*
D03*
X832500Y-952500D02*
D03*
X1072500D02*
D03*
X-120000D02*
D03*
X120000D02*
D03*
X14407500Y-6667500D02*
D03*
X14167500D02*
D03*
X-4882500Y-2857500D02*
D03*
X-4642500D02*
D03*
X-6787500D02*
D03*
X-6547500D02*
D03*
X-8692500Y-952500D02*
D03*
X-8452500D02*
D03*
X-10597500D02*
D03*
X-10357500D02*
D03*
X-13455000D02*
D03*
X-13214999D02*
D03*
X-2025000D02*
D03*
X-1785000D02*
D03*
X-4882500D02*
D03*
X-4642500D02*
D03*
X-7740000D02*
D03*
X-7500000D02*
D03*
X10357500D02*
D03*
X10597500D02*
D03*
X8692500D02*
D03*
X8452500D02*
D03*
X5595000D02*
D03*
X5835000D02*
D03*
X4642500D02*
D03*
X4882500D02*
D03*
X1785000D02*
D03*
X2025000D02*
D03*
X-8692500Y-2857500D02*
D03*
X-8452500D02*
D03*
X-10597500D02*
D03*
X-10357500D02*
D03*
X-13455000D02*
D03*
X-13214999D02*
D03*
X14167500Y-952500D02*
D03*
X14407500D02*
D03*
X11310000D02*
D03*
X11550000D02*
D03*
X4642500Y-6667500D02*
D03*
X4882500D02*
D03*
X1785000D02*
D03*
X2025000D02*
D03*
X832500D02*
D03*
X1072500D02*
D03*
X-1072500D02*
D03*
X-832500D02*
D03*
X-4882500D02*
D03*
X-4642500D02*
D03*
X-7500000D02*
D03*
X-7740000D02*
D03*
X-10597500D02*
D03*
X-10357500D02*
D03*
X-13455000D02*
D03*
X-13214999D02*
D03*
X14167500Y-4762500D02*
D03*
X14407500D02*
D03*
X12262500D02*
D03*
X12502500D02*
D03*
X10357500D02*
D03*
X10597500D02*
D03*
X-2977500D02*
D03*
X-2737500D02*
D03*
X-13455000D02*
D03*
X-13214999D02*
D03*
X14167500Y-2857500D02*
D03*
X14407500D02*
D03*
X12262500D02*
D03*
X12502500D02*
D03*
X10357500D02*
D03*
X10597500D02*
D03*
X8452500D02*
D03*
X8692500D02*
D03*
X6547500D02*
D03*
X6787500D02*
D03*
X4642500D02*
D03*
X4882500D02*
D03*
X2737500D02*
D03*
X2977500D02*
D03*
D27*
X3102500Y-1117500D02*
D03*
X3102500Y-787500D02*
D03*
X2612500D02*
D03*
X2612500Y-1117500D02*
D03*
X12627500Y-3975000D02*
D03*
X12627500Y-3645000D02*
D03*
X12137500D02*
D03*
X12137500Y-3975000D02*
D03*
Y-1117500D02*
D03*
X12137500Y-787500D02*
D03*
X12627500D02*
D03*
X12627500Y-1117500D02*
D03*
X9770000D02*
D03*
X9770000Y-787500D02*
D03*
X9280000D02*
D03*
X9280000Y-1117500D02*
D03*
X6422500D02*
D03*
X6422500Y-787500D02*
D03*
X6912500D02*
D03*
X6912500Y-1117500D02*
D03*
X-3102500D02*
D03*
X-3102500Y-787500D02*
D03*
X-2612500D02*
D03*
X-2612500Y-1117500D02*
D03*
X-6422500D02*
D03*
X-6422500Y-787500D02*
D03*
X-6912500D02*
D03*
X-6912500Y-1117500D02*
D03*
X-9770000D02*
D03*
X-9770000Y-787500D02*
D03*
X-9280000D02*
D03*
X-9280000Y-1117500D02*
D03*
X-12137500D02*
D03*
X-12137500Y-787500D02*
D03*
X-12627500D02*
D03*
X-12627500Y-1117500D02*
D03*
Y-3975000D02*
D03*
X-12627500Y-3645000D02*
D03*
X-12137500D02*
D03*
X-12137500Y-3975000D02*
D03*
Y-6832500D02*
D03*
X-12137500Y-6502500D02*
D03*
X-12627500D02*
D03*
X-12627500Y-6832500D02*
D03*
X-9770000D02*
D03*
X-9770000Y-6502500D02*
D03*
X-9280000D02*
D03*
X-9280000Y-6832500D02*
D03*
X-6422500D02*
D03*
X-6422500Y-6502500D02*
D03*
X-6912500D02*
D03*
X-6912500Y-6832500D02*
D03*
X-3102500D02*
D03*
X-3102500Y-6502500D02*
D03*
X-2612500D02*
D03*
X-2612500Y-6832500D02*
D03*
X3102500D02*
D03*
X3102500Y-6502500D02*
D03*
X2612500D02*
D03*
X2612500Y-6832500D02*
D03*
X6422500D02*
D03*
X6422500Y-6502500D02*
D03*
X6912500D02*
D03*
X6912500Y-6832500D02*
D03*
X9770000D02*
D03*
X9770000Y-6502500D02*
D03*
X9280000D02*
D03*
X9280000Y-6832500D02*
D03*
X12137500D02*
D03*
X12137500Y-6502500D02*
D03*
X12627500D02*
D03*
X12627500Y-6832500D02*
D03*
D28*
X-25000Y-2375000D02*
D03*
X75000D02*
D03*
X-1525000Y-2225000D02*
D03*
X-1425000D02*
D03*
X-6625000Y-575000D02*
D03*
X-6725000D02*
D03*
X-2800000Y-550000D02*
D03*
X-2900000D02*
D03*
X6700000Y-575000D02*
D03*
X6600000D02*
D03*
X9575000D02*
D03*
X9475000D02*
D03*
X-350000Y-2475000D02*
D03*
X-250000D02*
D03*
X-1425000Y-2525000D02*
D03*
X-1525000D02*
D03*
X-1425000Y-2625000D02*
D03*
X-1525000D02*
D03*
X-675000Y-3300000D02*
D03*
X-575000D02*
D03*
X-1400000Y-3025000D02*
D03*
X-1500000D02*
D03*
X-9525000Y-7050000D02*
D03*
X-9625000D02*
D03*
X2800000Y-550000D02*
D03*
X2900000D02*
D03*
X12250000Y-1375000D02*
D03*
X12350000D02*
D03*
X12100000Y-4200000D02*
D03*
X12200000D02*
D03*
X12325000Y-7050000D02*
D03*
X12425000D02*
D03*
X9450000D02*
D03*
X9550000D02*
D03*
X2800000D02*
D03*
X2900000D02*
D03*
X-2925000D02*
D03*
X-2825000D02*
D03*
X6500000D02*
D03*
X6600000D02*
D03*
X-7025000D02*
D03*
X-6925000D02*
D03*
X-12425000Y-7075000D02*
D03*
X-12325000D02*
D03*
X-9575000Y-575000D02*
D03*
X-9475000D02*
D03*
X-12750000Y-1350000D02*
D03*
X-12650000D02*
D03*
X-12850000Y-4200000D02*
D03*
X-12750000D02*
D03*
D29*
X-970000Y-800000D02*
D03*
X-875000D02*
D03*
X-780000D02*
D03*
Y-1050000D02*
D03*
X-875000D02*
D03*
X-970000D02*
D03*
D30*
X-1100000Y-120000D02*
D03*
Y120000D02*
D03*
X-6667500D02*
D03*
Y-120000D02*
D03*
X2857500Y120000D02*
D03*
Y-120000D02*
D03*
X11430000Y-6787500D02*
D03*
Y-6547500D02*
D03*
X-2857500Y120000D02*
D03*
Y-120000D02*
D03*
X-4762500Y120000D02*
D03*
Y-120000D02*
D03*
X-8572500Y120000D02*
D03*
Y-120000D02*
D03*
X-10477500Y120000D02*
D03*
Y-120000D02*
D03*
X-12850000Y220000D02*
D03*
Y-20000D02*
D03*
X10477500Y120000D02*
D03*
Y-120000D02*
D03*
X8572500Y120000D02*
D03*
Y-120000D02*
D03*
X6667500Y120000D02*
D03*
Y-120000D02*
D03*
X4762500Y120000D02*
D03*
Y-120000D02*
D03*
X14750000Y120000D02*
D03*
Y-120000D02*
D03*
X12382500Y120000D02*
D03*
Y-120000D02*
D03*
X8572500Y-6787500D02*
D03*
Y-6547500D02*
D03*
D31*
X-925000Y-2225000D02*
D03*
Y-2125000D02*
D03*
X-825000Y-2225000D02*
D03*
Y-2125000D02*
D03*
X-1125000Y-2225000D02*
D03*
Y-2125000D02*
D03*
X-275000Y-2600000D02*
D03*
Y-2700000D02*
D03*
Y-2800000D02*
D03*
Y-2900000D02*
D03*
D32*
X-950000Y-1485000D02*
D03*
Y-1315000D02*
D03*
X-775000Y-1485000D02*
D03*
Y-1315000D02*
D03*
D33*
X30000Y-2640000D02*
D03*
Y-2860000D02*
D03*
X-130000D02*
D03*
Y-2640000D02*
D03*
D34*
X325000Y-2900000D02*
D03*
Y-2700000D02*
D03*
D35*
X332500Y-2522500D02*
D03*
Y-2377500D02*
D03*
X667500Y-2522500D02*
D03*
Y-2377500D02*
D03*
D36*
X-900000Y-2800000D02*
D03*
D37*
X-1247500Y-2550000D02*
D03*
Y-2600000D02*
D03*
Y-2650000D02*
D03*
Y-2700000D02*
D03*
Y-2750000D02*
D03*
Y-2800000D02*
D03*
Y-2850000D02*
D03*
Y-2900000D02*
D03*
Y-2950000D02*
D03*
Y-3000000D02*
D03*
Y-3050000D02*
D03*
X-552500D02*
D03*
Y-3000000D02*
D03*
Y-2950000D02*
D03*
Y-2900000D02*
D03*
Y-2850000D02*
D03*
Y-2800000D02*
D03*
Y-2750000D02*
D03*
Y-2700000D02*
D03*
Y-2650000D02*
D03*
Y-2600000D02*
D03*
Y-2550000D02*
D03*
D38*
X-1150000Y-3147500D02*
D03*
X-1100000D02*
D03*
X-1050000D02*
D03*
X-1000000D02*
D03*
X-950000D02*
D03*
X-900000D02*
D03*
X-850000D02*
D03*
X-800000D02*
D03*
X-750000D02*
D03*
X-700000D02*
D03*
X-650000D02*
D03*
Y-2452500D02*
D03*
X-700000D02*
D03*
X-750000D02*
D03*
X-800000D02*
D03*
X-850000D02*
D03*
X-900000D02*
D03*
X-950000D02*
D03*
X-1000000D02*
D03*
X-1050000D02*
D03*
X-1100000D02*
D03*
X-1150000D02*
D03*
%TF.MD5,12c1b3e39180ff7c71e0c7ce709609c2*%
M02*
