%TF.GenerationSoftware,Altium Limited,Altium Designer,20.2.6 (244)*%
G04 Layer_Physical_Order=1*
G04 Layer_Color=255*
%FSLAX45Y45*%
%MOMM*%
%TF.SameCoordinates,2F107FE3-984A-4B75-92AE-308BEDE16AF6*%
%TF.FilePolarity,Positive*%
%TF.FileFunction,Copper,L1,Top,Signal*%
%TF.Part,Single*%
G01*
G75*
%TA.AperFunction,Conductor*%
%ADD10C,0.50000*%
%ADD11C,0.40000*%
%ADD12C,0.25000*%
%ADD13R,21.00000X5.60000*%
%ADD14R,8.50000X6.00000*%
%ADD15R,5.00000X5.00000*%
%TA.AperFunction,ComponentPad*%
%ADD16O,1.70000X2.40000*%
%ADD17C,2.54000*%
%ADD18R,1.60000X1.60000*%
%ADD19C,1.60000*%
%ADD20C,1.77800*%
%TA.AperFunction,ViaPad*%
%ADD21C,0.75000*%
%ADD22C,0.70000*%
G36*
X-775000Y-1950214D02*
X-787700Y-1955769D01*
X-802565Y-1945836D01*
X-815000Y-1943363D01*
Y-2000000D01*
Y-2056637D01*
X-802565Y-2054164D01*
X-787700Y-2044232D01*
X-775000Y-2049786D01*
Y-2150000D01*
X-725000Y-2200000D01*
X-500000D01*
X-325000Y-2375000D01*
X-262465D01*
X-258391Y-2395484D01*
X-246787Y-2412850D01*
X-229421Y-2424454D01*
X-208937Y-2428529D01*
X-202525Y-2427253D01*
X-194888Y-2438683D01*
X-204164Y-2452565D01*
X-206637Y-2465000D01*
X-93363D01*
X-95836Y-2452565D01*
X-108545Y-2433545D01*
X-116119Y-2428484D01*
X-112267Y-2415784D01*
X383107D01*
X434217Y-2466893D01*
Y-2666539D01*
X425546Y-2679516D01*
X421472Y-2700000D01*
X425546Y-2720484D01*
X434217Y-2733460D01*
Y-2908107D01*
X308107Y-3034216D01*
X-24999D01*
X-25000Y-3034216D01*
X-40607Y-3037321D01*
X-53838Y-3046162D01*
X-53839Y-3046162D01*
X-241893Y-3234217D01*
X-466908D01*
X-472895Y-3223016D01*
X-470836Y-3219935D01*
X-468363Y-3207500D01*
X-581637D01*
X-579164Y-3219935D01*
X-566948Y-3238217D01*
X-578838Y-3246162D01*
X-578839Y-3246162D01*
X-680178Y-3347502D01*
X-695484Y-3350546D01*
X-708460Y-3359217D01*
X-941540D01*
X-954516Y-3350546D01*
X-975000Y-3346472D01*
X-995484Y-3350546D01*
X-1008461Y-3359217D01*
X-1187267D01*
X-1191120Y-3346517D01*
X-1183545Y-3341455D01*
X-1170836Y-3322435D01*
X-1168363Y-3310000D01*
X-1281638D01*
X-1279719Y-3319644D01*
X-1289284Y-3326743D01*
X-1290193Y-3327130D01*
X-1350000Y-3267323D01*
Y-3167739D01*
X-1346472Y-3150000D01*
X-1350000Y-3132261D01*
Y-3125000D01*
X-1360738Y-3114262D01*
X-1362150Y-3112150D01*
X-1364262Y-3110739D01*
X-1375000Y-3100000D01*
X-1382262D01*
X-1400000Y-3096472D01*
X-1417738Y-3100000D01*
X-1825000D01*
X-1850000Y-3075000D01*
Y-2475000D01*
X-1625000Y-2250000D01*
X-1424270D01*
X-1419410Y-2261734D01*
X-1453838Y-2296162D01*
X-1462679Y-2309393D01*
X-1465784Y-2325000D01*
X-1465783Y-2325001D01*
Y-2391540D01*
X-1474454Y-2404516D01*
X-1478528Y-2425000D01*
X-1474454Y-2445484D01*
X-1462850Y-2462850D01*
X-1445484Y-2474454D01*
X-1425000Y-2478528D01*
X-1404516Y-2474454D01*
X-1387150Y-2462850D01*
X-1375546Y-2445484D01*
X-1371471Y-2425000D01*
X-1375546Y-2404516D01*
X-1384216Y-2391540D01*
Y-2341893D01*
X-1302397Y-2260074D01*
X-1259878D01*
X-1242629Y-2271599D01*
X-1222145Y-2275674D01*
X-1201661Y-2271599D01*
X-1184295Y-2259995D01*
X-1177616Y-2250000D01*
X-1175000D01*
Y-2246085D01*
X-1172691Y-2242629D01*
X-1168617Y-2222145D01*
X-1172691Y-2201661D01*
X-1175000Y-2198205D01*
X-1175000Y-2074786D01*
X-1162300Y-2069232D01*
X-1147435Y-2079164D01*
X-1135000Y-2081637D01*
Y-2025000D01*
X-1125000D01*
Y-2015000D01*
X-1068363D01*
X-1070836Y-2002565D01*
X-1083545Y-1983545D01*
X-1090861Y-1978656D01*
Y-1965956D01*
X-1083545Y-1961068D01*
X-1070836Y-1942048D01*
X-1068363Y-1929613D01*
X-1125000D01*
Y-1909613D01*
X-1068154D01*
X-1060265Y-1900000D01*
X-775000D01*
Y-1950214D01*
D02*
G37*
%LPC*%
G36*
X-835000Y-1943363D02*
X-847435Y-1945836D01*
X-866455Y-1958545D01*
X-868650Y-1961830D01*
X-881350D01*
X-883545Y-1958545D01*
X-902565Y-1945836D01*
X-915000Y-1943363D01*
Y-2000000D01*
Y-2056637D01*
X-902565Y-2054164D01*
X-883545Y-2041455D01*
X-881350Y-2038170D01*
X-868650D01*
X-866455Y-2041455D01*
X-847435Y-2054164D01*
X-835000Y-2056637D01*
Y-2000000D01*
Y-1943363D01*
D02*
G37*
G36*
X-935000D02*
X-947435Y-1945836D01*
X-966455Y-1958545D01*
X-979164Y-1977565D01*
X-981637Y-1990000D01*
X-935000D01*
Y-1943363D01*
D02*
G37*
G36*
Y-2010000D02*
X-981637D01*
X-979164Y-2022435D01*
X-966455Y-2041455D01*
X-947435Y-2054164D01*
X-935000Y-2056637D01*
Y-2010000D01*
D02*
G37*
G36*
X-1068363Y-2035000D02*
X-1115000D01*
Y-2081637D01*
X-1102565Y-2079164D01*
X-1083545Y-2066455D01*
X-1070836Y-2047435D01*
X-1068363Y-2035000D01*
D02*
G37*
G36*
X-1640000Y-2468363D02*
Y-2515000D01*
X-1593363D01*
X-1595836Y-2502565D01*
X-1608545Y-2483545D01*
X-1627565Y-2470836D01*
X-1640000Y-2468363D01*
D02*
G37*
G36*
X-1660000D02*
X-1672435Y-2470836D01*
X-1691455Y-2483545D01*
X-1704164Y-2502565D01*
X-1706637Y-2515000D01*
X-1660000D01*
Y-2468363D01*
D02*
G37*
G36*
X-93363Y-2485000D02*
X-140000D01*
Y-2531637D01*
X-127565Y-2529164D01*
X-108545Y-2516455D01*
X-95836Y-2497435D01*
X-93363Y-2485000D01*
D02*
G37*
G36*
X-160000D02*
X-206637D01*
X-204164Y-2497435D01*
X-191455Y-2516455D01*
X-172435Y-2529164D01*
X-160000Y-2531637D01*
Y-2485000D01*
D02*
G37*
G36*
X-745000Y-2580912D02*
X-756460Y-2583191D01*
X-774653Y-2595347D01*
X-782508Y-2607104D01*
X-797491D01*
X-805347Y-2595347D01*
X-823540Y-2583191D01*
X-835000Y-2580912D01*
Y-2635000D01*
X-855000D01*
Y-2580912D01*
X-866460Y-2583191D01*
X-884653Y-2595347D01*
X-892508Y-2607104D01*
X-907491D01*
X-915347Y-2595347D01*
X-933540Y-2583191D01*
X-945000Y-2580912D01*
Y-2635000D01*
X-965000D01*
Y-2580912D01*
X-976460Y-2583191D01*
X-994653Y-2595347D01*
X-1002508Y-2607104D01*
X-1017491D01*
X-1025347Y-2595347D01*
X-1043540Y-2583191D01*
X-1055000Y-2580912D01*
Y-2635000D01*
X-1065000D01*
Y-2645000D01*
X-1119088D01*
X-1116809Y-2656460D01*
X-1104653Y-2674653D01*
X-1092896Y-2682508D01*
Y-2697491D01*
X-1104653Y-2705347D01*
X-1116809Y-2723540D01*
X-1119088Y-2735000D01*
X-1065000D01*
Y-2755000D01*
X-1119088D01*
X-1116809Y-2766460D01*
X-1104653Y-2784653D01*
X-1092896Y-2792508D01*
Y-2807491D01*
X-1104653Y-2815347D01*
X-1116809Y-2833540D01*
X-1119088Y-2845000D01*
X-1065000D01*
Y-2865000D01*
X-1119088D01*
X-1116809Y-2876460D01*
X-1104653Y-2894653D01*
X-1092896Y-2902508D01*
Y-2917491D01*
X-1104653Y-2925347D01*
X-1116809Y-2943540D01*
X-1119088Y-2955000D01*
X-1065000D01*
Y-2965000D01*
X-1055000D01*
Y-3019088D01*
X-1043540Y-3016809D01*
X-1025347Y-3004653D01*
X-1017491Y-2992896D01*
X-1002508D01*
X-994653Y-3004653D01*
X-976460Y-3016809D01*
X-965000Y-3019088D01*
Y-2965000D01*
X-945000D01*
Y-3019088D01*
X-933540Y-3016809D01*
X-915347Y-3004653D01*
X-907491Y-2992896D01*
X-892508D01*
X-884653Y-3004653D01*
X-866460Y-3016809D01*
X-855000Y-3019088D01*
Y-2965000D01*
X-835000D01*
Y-3019088D01*
X-823540Y-3016809D01*
X-805347Y-3004653D01*
X-797491Y-2992896D01*
X-782508D01*
X-774653Y-3004653D01*
X-756460Y-3016809D01*
X-745000Y-3019088D01*
Y-2965000D01*
X-735000D01*
Y-2955000D01*
X-680912D01*
X-683191Y-2943540D01*
X-695347Y-2925347D01*
X-707104Y-2917491D01*
Y-2902508D01*
X-695347Y-2894653D01*
X-683191Y-2876460D01*
X-680912Y-2865000D01*
X-735000D01*
Y-2845000D01*
X-680912D01*
X-683191Y-2833540D01*
X-695347Y-2815347D01*
X-707104Y-2807491D01*
Y-2792508D01*
X-695347Y-2784653D01*
X-683191Y-2766460D01*
X-680912Y-2755000D01*
X-735000D01*
Y-2735000D01*
X-680912D01*
X-683191Y-2723540D01*
X-695347Y-2705347D01*
X-707104Y-2697491D01*
Y-2682508D01*
X-695347Y-2674653D01*
X-683191Y-2656460D01*
X-680912Y-2645000D01*
X-735000D01*
Y-2635000D01*
X-745000D01*
Y-2580912D01*
D02*
G37*
G36*
X-1593363Y-2535000D02*
X-1706637D01*
X-1704164Y-2547435D01*
X-1691455Y-2566455D01*
X-1688170Y-2568650D01*
Y-2581350D01*
X-1691455Y-2583545D01*
X-1704164Y-2602565D01*
X-1706637Y-2615000D01*
X-1593363D01*
X-1595836Y-2602565D01*
X-1608545Y-2583545D01*
X-1611830Y-2581350D01*
Y-2568650D01*
X-1608545Y-2566455D01*
X-1595836Y-2547435D01*
X-1593363Y-2535000D01*
D02*
G37*
G36*
X-725000Y-2580912D02*
Y-2625000D01*
X-680912D01*
X-683191Y-2613540D01*
X-695347Y-2595347D01*
X-713540Y-2583191D01*
X-725000Y-2580912D01*
D02*
G37*
G36*
X-1075000D02*
X-1086460Y-2583191D01*
X-1104653Y-2595347D01*
X-1116809Y-2613540D01*
X-1119088Y-2625000D01*
X-1075000D01*
Y-2580912D01*
D02*
G37*
G36*
X-1593363Y-2635000D02*
X-1640000D01*
Y-2681638D01*
X-1627565Y-2679164D01*
X-1608545Y-2666455D01*
X-1595836Y-2647435D01*
X-1593363Y-2635000D01*
D02*
G37*
G36*
X-1660000D02*
X-1706637D01*
X-1704164Y-2647435D01*
X-1691455Y-2666455D01*
X-1672435Y-2679164D01*
X-1660000Y-2681638D01*
Y-2635000D01*
D02*
G37*
G36*
X-381538Y-2809901D02*
Y-2856538D01*
X-334901D01*
X-337374Y-2844103D01*
X-350083Y-2825083D01*
X-369103Y-2812374D01*
X-381538Y-2809901D01*
D02*
G37*
G36*
X-401538D02*
X-413973Y-2812374D01*
X-432993Y-2825083D01*
X-445702Y-2844103D01*
X-448175Y-2856538D01*
X-401538D01*
Y-2809901D01*
D02*
G37*
G36*
X204244Y-2843363D02*
Y-2890000D01*
X250882D01*
X248408Y-2877565D01*
X235700Y-2858545D01*
X216680Y-2845836D01*
X204244Y-2843363D01*
D02*
G37*
G36*
X184244D02*
X171809Y-2845836D01*
X152789Y-2858545D01*
X140081Y-2877565D01*
X137607Y-2890000D01*
X184244D01*
Y-2843363D01*
D02*
G37*
G36*
X-334901Y-2876538D02*
X-381538D01*
Y-2923176D01*
X-369103Y-2920702D01*
X-350083Y-2907993D01*
X-337374Y-2888973D01*
X-334901Y-2876538D01*
D02*
G37*
G36*
X-401538D02*
X-448175D01*
X-445702Y-2888973D01*
X-432993Y-2907993D01*
X-413973Y-2920702D01*
X-401538Y-2923176D01*
Y-2876538D01*
D02*
G37*
G36*
X250882Y-2910000D02*
X204244D01*
Y-2956637D01*
X216680Y-2954164D01*
X235700Y-2941455D01*
X248408Y-2922435D01*
X250882Y-2910000D01*
D02*
G37*
G36*
X184244D02*
X137607D01*
X140081Y-2922435D01*
X152789Y-2941455D01*
X171809Y-2954164D01*
X184244Y-2956637D01*
Y-2910000D01*
D02*
G37*
G36*
X-1615000Y-2968363D02*
Y-3015000D01*
X-1568363D01*
X-1570836Y-3002565D01*
X-1583545Y-2983545D01*
X-1602565Y-2970836D01*
X-1615000Y-2968363D01*
D02*
G37*
G36*
X-1635000D02*
X-1647435Y-2970836D01*
X-1666455Y-2983545D01*
X-1679164Y-3002565D01*
X-1681637Y-3015000D01*
X-1635000D01*
Y-2968363D01*
D02*
G37*
G36*
X-680912Y-2975000D02*
X-725000D01*
Y-3019088D01*
X-713540Y-3016809D01*
X-695347Y-3004653D01*
X-683191Y-2986460D01*
X-680912Y-2975000D01*
D02*
G37*
G36*
X-1075000D02*
X-1119088D01*
X-1116809Y-2986460D01*
X-1104653Y-3004653D01*
X-1086460Y-3016809D01*
X-1075000Y-3019088D01*
Y-2975000D01*
D02*
G37*
G36*
X-1568363Y-3035000D02*
X-1615000D01*
Y-3081637D01*
X-1602565Y-3079164D01*
X-1583545Y-3066455D01*
X-1570836Y-3047435D01*
X-1568363Y-3035000D01*
D02*
G37*
G36*
X-1635000D02*
X-1681637D01*
X-1679164Y-3047435D01*
X-1666455Y-3066455D01*
X-1647435Y-3079164D01*
X-1635000Y-3081637D01*
Y-3035000D01*
D02*
G37*
G36*
X-515000Y-3140863D02*
Y-3187500D01*
X-468363D01*
X-470836Y-3175065D01*
X-483545Y-3156045D01*
X-502565Y-3143336D01*
X-515000Y-3140863D01*
D02*
G37*
G36*
X-535000D02*
X-547435Y-3143336D01*
X-566455Y-3156045D01*
X-579164Y-3175065D01*
X-581637Y-3187500D01*
X-535000D01*
Y-3140863D01*
D02*
G37*
G36*
X-1215000Y-3243363D02*
Y-3290000D01*
X-1168363D01*
X-1170836Y-3277565D01*
X-1183545Y-3258545D01*
X-1202565Y-3245836D01*
X-1215000Y-3243363D01*
D02*
G37*
G36*
X-1235000D02*
X-1247435Y-3245836D01*
X-1266455Y-3258545D01*
X-1279164Y-3277565D01*
X-1281638Y-3290000D01*
X-1235000D01*
Y-3243363D01*
D02*
G37*
%LPD*%
D10*
X-925000Y-1125000D02*
X-875000Y-1175000D01*
X-1125000Y-1125000D02*
X-925000D01*
X-825000D02*
X2425000D01*
X-3300000D02*
X-1125000D01*
X-875000Y-1175000D02*
X-825000Y-1125000D01*
X-1050000Y-500000D02*
X-875000Y-675000D01*
X-1050000Y-500000D02*
Y-400000D01*
X-1400000Y-3275000D02*
Y-3150000D01*
X-1225000Y-1829289D02*
X-1170711Y-1775000D01*
X-1025000D01*
X-2925000Y-6225000D02*
X2425000D01*
X-6504367D02*
X-2925000D01*
X-1225000Y-2219290D02*
Y-1829289D01*
X-7075000Y-1125000D02*
X-3300000D01*
X-11925000Y-775000D02*
X-2456250D01*
X2292717Y-932283D02*
X2345217D01*
X2275000Y-950000D02*
X2292717Y-932283D01*
X-2456250Y-781250D02*
X-2387500Y-850000D01*
X3190000D02*
X3258750Y-781250D01*
Y-775000D02*
X12450001D01*
X-2387500Y-850000D02*
X3190000D01*
X2345217Y-932283D02*
X2350000Y-927500D01*
X3350000Y-4200000D02*
X11850000D01*
X-724999D02*
X3350000D01*
X-950000Y-4425000D02*
X2625000D01*
Y-4502000D02*
X2846000Y-4723000D01*
X2625000Y-4502000D02*
Y-4425000D01*
X12200000D01*
X-975000Y-3400000D02*
X-675000D01*
X-1275000D02*
X-975000D01*
X-1175000Y-4200000D02*
X-950000Y-4425000D01*
X-1175000Y-4200000D02*
Y-3900000D01*
X-1593000Y-4318000D02*
X-1175000Y-3900000D01*
X-1004801Y-4170199D02*
X-850000Y-4325000D01*
X-1004801Y-4170199D02*
Y-4029801D01*
X-849999Y-4075000D02*
X-724999Y-4200000D01*
X-850000Y-4075000D02*
X-849999D01*
X-1319290Y-2219290D02*
X-1225000D01*
X-1425000Y-2325000D02*
X-1319290Y-2219290D01*
X-1425000Y-2425000D02*
Y-2325000D01*
X-1400000Y-3275000D02*
X-1275000Y-3400000D01*
X-675000D02*
X-550000Y-3275000D01*
X-225000D01*
X-25000Y-3075000D01*
X325000D01*
X475000Y-2925000D02*
Y-2700000D01*
X325000Y-3075000D02*
X475000Y-2925000D01*
Y-2700000D02*
Y-2450000D01*
X400000Y-2375000D02*
X475000Y-2450000D01*
X-208937Y-2375000D02*
X400000D01*
X-700000Y-2125000D02*
X-238226D01*
X-208937Y-2375000D02*
Y-2154290D01*
X-238226Y-2125000D02*
X-208937Y-2154290D01*
X6851250Y-6276250D02*
X12626250D01*
X12200000Y-4425000D02*
X12700000D01*
X-6425000Y-6125000D02*
X6700000D01*
X-11976250Y-6500000D02*
X-6950000D01*
X9082500Y-1117500D02*
X11942500D01*
X6232500D02*
X9082500D01*
X-12550000Y-1350000D02*
X-12350000D01*
X-12649292Y-4200708D02*
X-12375000D01*
X-12650000Y-4200000D02*
X-12649292Y-4200708D01*
X-12950000Y-6875000D02*
X-12875000Y-6950000D01*
X-12950000Y-6875000D02*
Y-6625000D01*
X-12875000Y-6950000D02*
X-11775000D01*
X-11625000Y-6800000D01*
X-12950000Y-6625000D02*
X-12850000Y-6525000D01*
X-12800000Y-6825000D02*
X-12638245Y-6663245D01*
X-10111754D01*
X-9950000Y-6825000D01*
X-11625000Y-6800000D02*
X-10200000D01*
X-6547509Y-7097509D02*
X-6422509D01*
X-6650000Y-7200000D02*
X-6547509Y-7097509D01*
X12450001Y-775000D02*
X12750000D01*
X12450000Y-1375000D02*
Y-775000D01*
X12450001Y-775000D01*
X-2723244Y-2675000D02*
X-2350000D01*
X-2725000Y-2676756D02*
X-2723244Y-2675000D01*
X12700000Y-4425000D02*
X12825000Y-4300000D01*
X-850000Y-4325000D02*
X12500000D01*
X12626250Y-4198750D01*
X-3352500Y-852500D02*
X-3350000D01*
X-3450000Y-950000D02*
X-3352500Y-852500D01*
X12750000Y-775000D02*
X12800000Y-725000D01*
X-10132500Y-975000D02*
X-10032500Y-875000D01*
X-11857500Y-975000D02*
X-10132500D01*
X-7275000D02*
X-7175000Y-875000D01*
X-9000000Y-975000D02*
X-7275000D01*
X-6050000Y-950000D02*
X-3450000D01*
X-2325000D02*
X2275000D01*
X-9975000Y-1125000D02*
X-7075000D01*
X-12800000D02*
X-9975000D01*
X3325000Y-1000000D02*
X6075000D01*
X6175000Y-900000D01*
X9025000Y-950000D02*
X9075000Y-900000D01*
X7200000Y-950000D02*
X9025000D01*
X10050000D02*
X11875000D01*
X11925000Y-900000D01*
X-13684250Y-4318000D02*
X-1593000D01*
X-7375000Y-6925000D02*
X-7100000Y-7200000D01*
X-8325000Y-6925000D02*
X-7375000D01*
X-7100000Y-7200000D02*
X-6650000D01*
X-6750000Y-7075000D02*
Y-6700000D01*
X-10200000Y-6800000D02*
X-9925000Y-7075000D01*
X-9375000D01*
X-9950000Y-6825000D02*
X-7104367D01*
X-6375000Y-6325000D02*
X-4775000D01*
X-6750000Y-6700000D02*
X-6375000Y-6325000D01*
X-4775000D02*
X-3875000Y-7225000D01*
X-2825000D02*
X-2675000Y-7075000D01*
X-3875000Y-7225000D02*
X-2825000D01*
X-3225000Y-6325000D02*
X2402500D01*
X3101250Y-7023750D01*
X6125000Y-6325000D02*
X6770217Y-6970216D01*
X2575000Y-6325000D02*
X6125000D01*
X6770217Y-6995217D02*
X6775000Y-7000000D01*
X6770217Y-6995217D02*
Y-6970216D01*
X6775000Y-6825000D02*
X9075000D01*
X6175000Y-6225000D02*
X6775000Y-6825000D01*
X9075000D02*
X11850000D01*
X6429394Y-6300000D02*
X6625000D01*
X6400000D02*
X6429394D01*
X6700000Y-6125000D02*
X6851250Y-6276250D01*
X2425000Y-6225000D02*
X6175000D01*
X7000000Y-6675000D02*
X10050000D01*
X6625000Y-6300000D02*
X7000000Y-6675000D01*
X9075000Y-6450000D02*
X10125001D01*
X10325000Y-6650000D02*
X12750000D01*
X10125001Y-6450000D02*
X10325000Y-6650000D01*
X11975000Y-3075000D02*
X12300000Y-3400000D01*
X11975000Y-3075000D02*
Y-2875000D01*
X12275000Y-3100000D02*
X12625000Y-2750000D01*
Y-2700000D01*
X-6575000Y-6125000D02*
X-6425000D01*
X-6950000Y-6500000D02*
X-6575000Y-6125000D01*
X2432500Y-1117500D02*
X6232500D01*
X-7104367Y-6825000D02*
X-6504367Y-6225000D01*
X-12550000Y-3475000D02*
X-11925000Y-4100000D01*
X-12550000Y-3475000D02*
Y-3375000D01*
D11*
X3225000Y-2150000D02*
X3450000D01*
X3100000D02*
X3225000D01*
X3075000Y-2175000D02*
X3100000Y-2150000D01*
X3450000D02*
X3500000Y-2200000D01*
X3265529Y-2250000D02*
X3300000D01*
X3425000D01*
X1200000D02*
X3265529D01*
X3425000D02*
X3450000Y-2275000D01*
X1125000Y-2175000D02*
X1200000Y-2250000D01*
X1063530Y-2325000D02*
X3075000D01*
X1225000Y-2100000D02*
X1300000Y-2175000D01*
X3075000D01*
X975000Y-2400000D02*
X10575000D01*
X856697Y-2281697D02*
X975000Y-2400000D01*
X1038530Y-2300000D02*
X1063530Y-2325000D01*
X977500Y-2550000D02*
X6750000D01*
X975000Y-2547500D02*
X977500Y-2550000D01*
X4840529Y-2625000D02*
X4850000D01*
X4815529Y-2650000D02*
X4840529Y-2625000D01*
X1000000Y-2650000D02*
X4815529D01*
X8665529Y-2500000D02*
X8675000D01*
X934471Y-2475000D02*
X8640529D01*
X884471Y-2425000D02*
X934471Y-2475000D01*
X8640529D02*
X8665529Y-2500000D01*
X950000Y-2700000D02*
X1000000Y-2650000D01*
X1105000Y-2705000D02*
X1125000Y-2725000D01*
X1000000Y-2800000D02*
X1095000Y-2705000D01*
X1105000D01*
X1125000Y-2725000D02*
X2975000D01*
X856697Y-2281697D02*
Y-2256697D01*
X850000Y-2250000D02*
X856697Y-2256697D01*
X875000Y-2425000D02*
X884471D01*
X925000Y-2175000D02*
X1125000D01*
X825000Y-2100000D02*
X1225000D01*
X3450000Y-2275000D02*
X12430620D01*
X3500000Y-2200000D02*
X14475000D01*
X-725000Y-3699155D02*
X-675845Y-3650000D01*
X-725000Y-3925760D02*
Y-3699155D01*
X-675845Y-3650000D02*
Y-3650000D01*
X-725000Y-3925760D02*
X-525760Y-4125000D01*
X1000000D01*
X1075000Y-4050000D01*
X12430620Y-2275000D02*
X12502500Y-2346880D01*
X12502500D01*
X325000Y-675000D02*
X900000D01*
X-10357500Y-2432380D02*
X-10332380D01*
X-10275000Y-2375000D01*
X-8452500Y-2520806D02*
X-8420806D01*
X-8350000Y-2450000D01*
X-6547500Y-2573179D02*
X-6498179D01*
X-6450000Y-2525000D01*
X-4642500Y-2652501D02*
X-4642500D01*
X-4589998Y-2600000D02*
X-2250000D01*
X-4642500Y-2652501D02*
X-4589998Y-2600000D01*
X900000Y-2800000D02*
X1000000D01*
X-6450000Y-2525000D02*
X-2150000D01*
X-8350000Y-2450000D02*
X-2050000D01*
X-14200000Y-2225000D02*
X-1800000D01*
X-4191000Y-3556000D02*
X-2286000D01*
X-381000D01*
X1524000D01*
X-6096000D02*
X-4191000D01*
X14475000Y-2200000D02*
X14525000Y-2150000D01*
X-14192250Y-3556000D02*
X-13006000D01*
X-12142000Y-3225000D02*
X-11811000Y-3556000D01*
X-12675000Y-3225000D02*
X-12142000D01*
X-13006000Y-3556000D02*
X-12675000Y-3225000D01*
X-10275000Y-2375000D02*
X-1975000D01*
X-13050000Y-2373279D02*
X-12976721Y-2300000D01*
X-1900000D01*
X-14357001Y-4318000D02*
X-13938251D01*
X-14600000Y-4075000D02*
X-14357001Y-4318000D01*
X-14600000Y-4075000D02*
Y-2625000D01*
X-14200000Y-2225000D01*
X10572750Y-7366000D02*
X13430251D01*
X7715250D02*
X10572750D01*
X4381500D02*
X7715250D01*
X1524000D02*
X4381500D01*
X-381000D02*
X1524000D01*
X-2286000D02*
X-381000D01*
X-5143500D02*
X-2286000D01*
X-8477250D02*
X-5143500D01*
X-11334750D02*
X-8477250D01*
X-14192250D02*
X-11334750D01*
X11049000Y-5461000D02*
X13430251D01*
X9144000D02*
X11049000D01*
X7239000D02*
X9144000D01*
X5334000D02*
X7239000D01*
X3429000D02*
X5334000D01*
X1524000D02*
X3429000D01*
X-381000D02*
X1524000D01*
X-2286000D02*
X-381000D01*
X-4191000D02*
X-2286000D01*
X-6096000D02*
X-4191000D01*
X-8001000D02*
X-6096000D01*
X-9906000D02*
X-8001000D01*
X-11811000D02*
X-9906000D01*
X-14192250D02*
X-11811000D01*
X11049000Y-3556000D02*
X13430251D01*
X9144000D02*
X11049000D01*
X7239000D02*
X9144000D01*
X5334000D02*
X7239000D01*
X3429000D02*
X5334000D01*
X1524000D02*
X3429000D01*
X-8001000D02*
X-6096000D01*
X-9906000D02*
X-8001000D01*
X-11811000D02*
X-9906000D01*
X11049000Y-1651000D02*
X13430251D01*
X9144000D02*
X11049000D01*
X7239000D02*
X9144000D01*
X5334000D02*
X7239000D01*
X3429000D02*
X5334000D01*
X1524000D02*
X3429000D01*
X-381000D02*
X1524000D01*
X-2286000D02*
X-381000D01*
X-4191000D02*
X-2286000D01*
X-6096000D02*
X-4191000D01*
X-8001000D02*
X-6096000D01*
X-9906000D02*
X-8001000D01*
X-11811000D02*
X-9906000D01*
X-14192250D02*
X-11811000D01*
X-4191000Y254000D02*
X-2286000D01*
X-6096000D02*
X-4191000D01*
X-8001000D02*
X-6096000D01*
X-9906000D02*
X-8001000D01*
X-11811000D02*
X-9906000D01*
X-14192250D02*
X-11811000D01*
X-2286000D02*
X-2282000Y250000D01*
X-1350000D01*
X-846000Y-254000D02*
X381000D01*
X-1350000Y250000D02*
X-846000Y-254000D01*
X381000D02*
X646000D01*
X1154000Y254000D02*
X1524000D01*
X646000Y-254000D02*
X1154000Y254000D01*
X5334000D02*
X7239000D01*
X3429000D02*
X5334000D01*
X1524000D02*
X3429000D01*
X7239000D02*
X9144000D01*
X11049000D01*
X13430251D01*
D12*
X1000000Y-2275000D02*
X1013530D01*
X1038530Y-2300000D01*
D13*
X0Y550000D02*
D03*
D14*
Y625000D02*
D03*
D15*
X-925000Y-2825000D02*
D03*
D16*
X-365000Y720000D02*
D03*
X365000D02*
D03*
D17*
X5956889Y-5212917D02*
D03*
X5334000Y-5461000D02*
D03*
X-241889Y-502083D02*
D03*
X381000Y-254000D02*
D03*
X11049000Y254000D02*
D03*
X11671889Y502083D02*
D03*
Y-1402917D02*
D03*
X11049000Y-1651000D02*
D03*
X-14192250Y-3556000D02*
D03*
X-13569360Y-3307917D02*
D03*
X11049000Y-3556000D02*
D03*
X11671889Y-3307917D02*
D03*
X13430251Y-3556000D02*
D03*
X14053139Y-3307917D02*
D03*
X1524000Y-7366000D02*
D03*
X2146889Y-7117917D02*
D03*
X5004389D02*
D03*
X4381500Y-7366000D02*
D03*
X14053139Y-7117917D02*
D03*
X13430251Y-7366000D02*
D03*
X14053139Y-1402917D02*
D03*
X13430251Y-1651000D02*
D03*
X-5143500Y-7366000D02*
D03*
X-4520611Y-7117917D02*
D03*
X-11811000Y254000D02*
D03*
X-11188111Y502083D02*
D03*
X-9283111D02*
D03*
X-9906000Y254000D02*
D03*
X-8001000D02*
D03*
X-7378111Y502083D02*
D03*
X-5473111D02*
D03*
X-6096000Y254000D02*
D03*
X-4191000D02*
D03*
X-3568111Y502083D02*
D03*
X-1663111D02*
D03*
X-2286000Y254000D02*
D03*
X1524000D02*
D03*
X2146889Y502083D02*
D03*
X4051889D02*
D03*
X3429000Y254000D02*
D03*
X5334000D02*
D03*
X5956889Y502083D02*
D03*
X7861889D02*
D03*
X7239000Y254000D02*
D03*
X9144000D02*
D03*
X9766889Y502083D02*
D03*
X10572750Y-7366000D02*
D03*
X11195639Y-7117917D02*
D03*
X7715250Y-7366000D02*
D03*
X8338139Y-7117917D02*
D03*
X241889D02*
D03*
X-381000Y-7366000D02*
D03*
X-1663111Y-7117917D02*
D03*
X-2286000Y-7366000D02*
D03*
X-8477250D02*
D03*
X-7854361Y-7117917D02*
D03*
X-11334750Y-7366000D02*
D03*
X-10711861Y-7117917D02*
D03*
X-14192250Y-7366000D02*
D03*
X-13569360Y-7117917D02*
D03*
X-14192250Y-5461000D02*
D03*
X-13569360Y-5212917D02*
D03*
X-11188111D02*
D03*
X-11811000Y-5461000D02*
D03*
X-9283111Y-5212917D02*
D03*
X-9906000Y-5461000D02*
D03*
X-7378111Y-5212917D02*
D03*
X-8001000Y-5461000D02*
D03*
X-5473111Y-5212917D02*
D03*
X-6096000Y-5461000D02*
D03*
X-3568111Y-5212917D02*
D03*
X-4191000Y-5461000D02*
D03*
X-1663111Y-5212917D02*
D03*
X-2286000Y-5461000D02*
D03*
X241889Y-5212917D02*
D03*
X-381000Y-5461000D02*
D03*
X2146889Y-5212917D02*
D03*
X1524000Y-5461000D02*
D03*
X4051889Y-5212917D02*
D03*
X3429000Y-5461000D02*
D03*
X7861889Y-5212917D02*
D03*
X7239000Y-5461000D02*
D03*
X9766889Y-5212917D02*
D03*
X9144000Y-5461000D02*
D03*
X11671889Y-5212917D02*
D03*
X11049000Y-5461000D02*
D03*
X13430251D02*
D03*
X14053139Y-5212917D02*
D03*
X9766889Y-3307917D02*
D03*
X9144000Y-3556000D02*
D03*
X7861889Y-3307917D02*
D03*
X7239000Y-3556000D02*
D03*
X5956889Y-3307917D02*
D03*
X5334000Y-3556000D02*
D03*
X4051889Y-3307917D02*
D03*
X3429000Y-3556000D02*
D03*
X2146889Y-3307917D02*
D03*
X1524000Y-3556000D02*
D03*
X241889Y-3307917D02*
D03*
X-381000Y-3556000D02*
D03*
X-1663111Y-3307917D02*
D03*
X-2286000Y-3556000D02*
D03*
X-3568111Y-3307917D02*
D03*
X-4191000Y-3556000D02*
D03*
X-5473111Y-3307917D02*
D03*
X-6096000Y-3556000D02*
D03*
X-7378111Y-3307917D02*
D03*
X-8001000Y-3556000D02*
D03*
X-9283111Y-3307917D02*
D03*
X-9906000Y-3556000D02*
D03*
X-11188111Y-3307917D02*
D03*
X-11811000Y-3556000D02*
D03*
X-14192250Y-1651000D02*
D03*
X-13569360Y-1402917D02*
D03*
X-11811000Y-1651000D02*
D03*
X-11188111Y-1402917D02*
D03*
X-9906000Y-1651000D02*
D03*
X-9283111Y-1402917D02*
D03*
X-8001000Y-1651000D02*
D03*
X-7378111Y-1402917D02*
D03*
X-6096000Y-1651000D02*
D03*
X-5473111Y-1402917D02*
D03*
X-4191000Y-1651000D02*
D03*
X-3568111Y-1402917D02*
D03*
X-2286000Y-1651000D02*
D03*
X-1663111Y-1402917D02*
D03*
X-381000Y-1651000D02*
D03*
X241889Y-1402917D02*
D03*
X1524000Y-1651000D02*
D03*
X2146889Y-1402917D02*
D03*
X3429000Y-1651000D02*
D03*
X4051889Y-1402917D02*
D03*
X5334000Y-1651000D02*
D03*
X5956889Y-1402917D02*
D03*
X7239000Y-1651000D02*
D03*
X7861889Y-1402917D02*
D03*
X9144000Y-1651000D02*
D03*
X9766889Y-1402917D02*
D03*
X13430251Y254000D02*
D03*
X14053139Y502083D02*
D03*
X-14192250Y254000D02*
D03*
X-13569360Y502083D02*
D03*
D18*
X2846000Y-4723000D02*
D03*
D19*
Y-4977000D02*
D03*
X3100000Y-4723000D02*
D03*
Y-4977000D02*
D03*
X3354000Y-4723000D02*
D03*
Y-4977000D02*
D03*
D20*
X-13684250Y-4318000D02*
D03*
X-13938251D02*
D03*
D21*
X-875000Y-1175000D02*
D03*
Y-675000D02*
D03*
X-1400000Y-3150000D02*
D03*
X-1625000Y-3025000D02*
D03*
X-1025000Y-1775000D02*
D03*
X-825000Y-2000000D02*
D03*
X-925000D02*
D03*
X7100000Y-6825000D02*
D03*
X-2925000Y-6225000D02*
D03*
X-1125000Y-1125000D02*
D03*
X-1050000Y-400000D02*
D03*
X2350000Y-927500D02*
D03*
X3225000Y-2150000D02*
D03*
X3300000Y-2250000D02*
D03*
X3075000Y-2325000D02*
D03*
X4850000Y-2625000D02*
D03*
X975000Y-2547500D02*
D03*
X2975000Y-2725000D02*
D03*
X1000000Y-2275000D02*
D03*
X850000Y-2250000D02*
D03*
X925000Y-2175000D02*
D03*
X825000Y-2100000D02*
D03*
X3350000Y-4200000D02*
D03*
X-1125000Y-1919613D02*
D03*
X-1225000Y-3300000D02*
D03*
X-1175000Y-3900000D02*
D03*
X-975000Y-3400000D02*
D03*
X-1004801Y-4029801D02*
D03*
X-850000Y-4075000D02*
D03*
X-675845Y-3650000D02*
D03*
X-525000Y-3197500D02*
D03*
X-675000Y-3400000D02*
D03*
X194244Y-2900000D02*
D03*
X475000Y-2700000D02*
D03*
X1075000Y-4050000D02*
D03*
X-12550000Y-1350000D02*
D03*
X-12350000D02*
D03*
X-12375000Y-4200708D02*
D03*
X-12650000Y-4200000D02*
D03*
X-12849251Y-6524251D02*
D03*
X-12800000Y-6825000D02*
D03*
X-6422509Y-7097509D02*
D03*
X12200000Y-4425000D02*
D03*
X12450000Y-1375000D02*
D03*
X12502500Y-2346880D02*
D03*
X900000Y-675000D02*
D03*
X325000D02*
D03*
X-10357500Y-2432380D02*
D03*
X-8452500Y-2520806D02*
D03*
X-6547500Y-2573179D02*
D03*
X-4642500Y-2652501D02*
D03*
X-208937Y-2375000D02*
D03*
X-700000Y-2125000D02*
D03*
X-1222145Y-2222145D02*
D03*
X900000Y-2800000D02*
D03*
X950000Y-2700000D02*
D03*
X-391538Y-2866538D02*
D03*
X875000Y-2425000D02*
D03*
X-1425000D02*
D03*
X-2350000Y-2675000D02*
D03*
X-2725000Y-2676756D02*
D03*
X-2150000Y-2525000D02*
D03*
X-2050000Y-2450000D02*
D03*
X-1650000Y-2625000D02*
D03*
X-2250000Y-2600000D02*
D03*
X-1800000Y-2225000D02*
D03*
X-1975000Y-2375000D02*
D03*
X-1900000Y-2300000D02*
D03*
X8675000Y-2500000D02*
D03*
X11850000Y-4200000D02*
D03*
X12825000Y-4300000D02*
D03*
X-9123750Y-781250D02*
D03*
X-6266250D02*
D03*
X-2456250D02*
D03*
X3258750D02*
D03*
X9926250D02*
D03*
X7068750D02*
D03*
X12800000Y-725000D02*
D03*
X-3350000Y-852500D02*
D03*
X-11925000Y-775000D02*
D03*
X-10032500Y-875000D02*
D03*
X-7175000D02*
D03*
X-11857500Y-975000D02*
D03*
X-9000000D02*
D03*
X-6050000Y-950000D02*
D03*
X-2325000D02*
D03*
X-12800000Y-1125000D02*
D03*
X-9975000D02*
D03*
X-7075000D02*
D03*
X-3300000D02*
D03*
X6175000Y-900000D02*
D03*
X3325000Y-1000000D02*
D03*
X9075000Y-900000D02*
D03*
X7200000Y-950000D02*
D03*
X10050000D02*
D03*
X11925000Y-900000D02*
D03*
X12626250Y-4198750D02*
D03*
X-6750000Y-7075000D02*
D03*
X-8325000Y-6925000D02*
D03*
X-9126250Y-6501250D02*
D03*
X-9375000Y-7075000D02*
D03*
X-9950000Y-6825000D02*
D03*
X-2675000Y-7075000D02*
D03*
X-3225000Y-6325000D02*
D03*
X3101250Y-7023750D02*
D03*
X2575000Y-6325000D02*
D03*
X6775000Y-7000000D02*
D03*
X6429394Y-6300000D02*
D03*
X10050000Y-6675000D02*
D03*
X9075000Y-6450000D02*
D03*
X12750000Y-6650000D02*
D03*
X11975000Y-2875000D02*
D03*
X12300000Y-3400000D02*
D03*
X12625000Y-2700000D02*
D03*
X12275000Y-3100000D02*
D03*
X9775000Y-6275000D02*
D03*
X7125000D02*
D03*
X3101250Y-6126250D02*
D03*
X-2606250Y-6131250D02*
D03*
X-6425000Y-6125000D02*
D03*
X-11976250Y-6501250D02*
D03*
X12626250Y-6276250D02*
D03*
X2425000Y-6225000D02*
D03*
X9082500Y-1117500D02*
D03*
X6232500D02*
D03*
X2425000Y-1125000D02*
D03*
X11942500Y-1117500D02*
D03*
X11850000Y-6825000D02*
D03*
X9075000D02*
D03*
X-7104367D02*
D03*
X-150000Y-2475000D02*
D03*
X6750000Y-2550000D02*
D03*
X10575000Y-2400000D02*
D03*
X14525000Y-2150000D02*
D03*
X-11925000Y-4100000D02*
D03*
X-12550000Y-3375000D02*
D03*
X-1650000Y-2525000D02*
D03*
X-13050000Y-2373279D02*
D03*
X-1125000Y-2025000D02*
D03*
D22*
X-735000Y-2965000D02*
D03*
Y-2855000D02*
D03*
Y-2745000D02*
D03*
Y-2635000D02*
D03*
X-845000Y-2965000D02*
D03*
Y-2855000D02*
D03*
Y-2745000D02*
D03*
Y-2635000D02*
D03*
X-955000Y-2965000D02*
D03*
Y-2855000D02*
D03*
Y-2745000D02*
D03*
Y-2635000D02*
D03*
X-1065000Y-2965000D02*
D03*
Y-2855000D02*
D03*
Y-2745000D02*
D03*
Y-2635000D02*
D03*
%TF.MD5,a2c0f3146fc0a51126fa85047b19c2ac*%
M02*
