%TF.GenerationSoftware,Altium Limited,Altium Designer,20.2.6 (244)*%
G04 Layer_Color=8388736*
%FSLAX45Y45*%
%MOMM*%
%TF.SameCoordinates,2F107FE3-984A-4B75-92AE-308BEDE16AF6*%
%TF.FilePolarity,Negative*%
%TF.FileFunction,Soldermask,Top*%
%TF.Part,Single*%
G01*
G75*
%TA.AperFunction,ComponentPad*%
%ADD66O,1.90000X2.60000*%
%ADD67C,2.74000*%
%ADD68C,0.20000*%
%ADD69R,1.80000X1.80000*%
%ADD70C,1.80000*%
%ADD71C,1.97800*%
%TA.AperFunction,ViaPad*%
%ADD72C,0.95000*%
%ADD73C,0.90000*%
D66*
X-365000Y720000D02*
D03*
X365000D02*
D03*
D67*
X5956889Y-5212917D02*
D03*
X5334000Y-5461000D02*
D03*
X-241889Y-502083D02*
D03*
X381000Y-254000D02*
D03*
X11049000Y254000D02*
D03*
X11671889Y502083D02*
D03*
Y-1402917D02*
D03*
X11049000Y-1651000D02*
D03*
X-14192250Y-3556000D02*
D03*
X-13569360Y-3307917D02*
D03*
X11049000Y-3556000D02*
D03*
X11671889Y-3307917D02*
D03*
X13430251Y-3556000D02*
D03*
X14053139Y-3307917D02*
D03*
X1524000Y-7366000D02*
D03*
X2146889Y-7117917D02*
D03*
X5004389D02*
D03*
X4381500Y-7366000D02*
D03*
X14053139Y-7117917D02*
D03*
X13430251Y-7366000D02*
D03*
X14053139Y-1402917D02*
D03*
X13430251Y-1651000D02*
D03*
X-5143500Y-7366000D02*
D03*
X-4520611Y-7117917D02*
D03*
X-11811000Y254000D02*
D03*
X-11188111Y502083D02*
D03*
X-9283111D02*
D03*
X-9906000Y254000D02*
D03*
X-8001000D02*
D03*
X-7378111Y502083D02*
D03*
X-5473111D02*
D03*
X-6096000Y254000D02*
D03*
X-4191000D02*
D03*
X-3568111Y502083D02*
D03*
X-1663111D02*
D03*
X-2286000Y254000D02*
D03*
X1524000D02*
D03*
X2146889Y502083D02*
D03*
X4051889D02*
D03*
X3429000Y254000D02*
D03*
X5334000D02*
D03*
X5956889Y502083D02*
D03*
X7861889D02*
D03*
X7239000Y254000D02*
D03*
X9144000D02*
D03*
X9766889Y502083D02*
D03*
X10572750Y-7366000D02*
D03*
X11195639Y-7117917D02*
D03*
X7715250Y-7366000D02*
D03*
X8338139Y-7117917D02*
D03*
X241889D02*
D03*
X-381000Y-7366000D02*
D03*
X-1663111Y-7117917D02*
D03*
X-2286000Y-7366000D02*
D03*
X-8477250D02*
D03*
X-7854361Y-7117917D02*
D03*
X-11334750Y-7366000D02*
D03*
X-10711861Y-7117917D02*
D03*
X-14192250Y-7366000D02*
D03*
X-13569360Y-7117917D02*
D03*
X-14192250Y-5461000D02*
D03*
X-13569360Y-5212917D02*
D03*
X-11188111D02*
D03*
X-11811000Y-5461000D02*
D03*
X-9283111Y-5212917D02*
D03*
X-9906000Y-5461000D02*
D03*
X-7378111Y-5212917D02*
D03*
X-8001000Y-5461000D02*
D03*
X-5473111Y-5212917D02*
D03*
X-6096000Y-5461000D02*
D03*
X-3568111Y-5212917D02*
D03*
X-4191000Y-5461000D02*
D03*
X-1663111Y-5212917D02*
D03*
X-2286000Y-5461000D02*
D03*
X241889Y-5212917D02*
D03*
X-381000Y-5461000D02*
D03*
X2146889Y-5212917D02*
D03*
X1524000Y-5461000D02*
D03*
X4051889Y-5212917D02*
D03*
X3429000Y-5461000D02*
D03*
X7861889Y-5212917D02*
D03*
X7239000Y-5461000D02*
D03*
X9766889Y-5212917D02*
D03*
X9144000Y-5461000D02*
D03*
X11671889Y-5212917D02*
D03*
X11049000Y-5461000D02*
D03*
X13430251D02*
D03*
X14053139Y-5212917D02*
D03*
X9766889Y-3307917D02*
D03*
X9144000Y-3556000D02*
D03*
X7861889Y-3307917D02*
D03*
X7239000Y-3556000D02*
D03*
X5956889Y-3307917D02*
D03*
X5334000Y-3556000D02*
D03*
X4051889Y-3307917D02*
D03*
X3429000Y-3556000D02*
D03*
X2146889Y-3307917D02*
D03*
X1524000Y-3556000D02*
D03*
X241889Y-3307917D02*
D03*
X-381000Y-3556000D02*
D03*
X-1663111Y-3307917D02*
D03*
X-2286000Y-3556000D02*
D03*
X-3568111Y-3307917D02*
D03*
X-4191000Y-3556000D02*
D03*
X-5473111Y-3307917D02*
D03*
X-6096000Y-3556000D02*
D03*
X-7378111Y-3307917D02*
D03*
X-8001000Y-3556000D02*
D03*
X-9283111Y-3307917D02*
D03*
X-9906000Y-3556000D02*
D03*
X-11188111Y-3307917D02*
D03*
X-11811000Y-3556000D02*
D03*
X-14192250Y-1651000D02*
D03*
X-13569360Y-1402917D02*
D03*
X-11811000Y-1651000D02*
D03*
X-11188111Y-1402917D02*
D03*
X-9906000Y-1651000D02*
D03*
X-9283111Y-1402917D02*
D03*
X-8001000Y-1651000D02*
D03*
X-7378111Y-1402917D02*
D03*
X-6096000Y-1651000D02*
D03*
X-5473111Y-1402917D02*
D03*
X-4191000Y-1651000D02*
D03*
X-3568111Y-1402917D02*
D03*
X-2286000Y-1651000D02*
D03*
X-1663111Y-1402917D02*
D03*
X-381000Y-1651000D02*
D03*
X241889Y-1402917D02*
D03*
X1524000Y-1651000D02*
D03*
X2146889Y-1402917D02*
D03*
X3429000Y-1651000D02*
D03*
X4051889Y-1402917D02*
D03*
X5334000Y-1651000D02*
D03*
X5956889Y-1402917D02*
D03*
X7239000Y-1651000D02*
D03*
X7861889Y-1402917D02*
D03*
X9144000Y-1651000D02*
D03*
X9766889Y-1402917D02*
D03*
X13430251Y254000D02*
D03*
X14053139Y502083D02*
D03*
X-14192250Y254000D02*
D03*
X-13569360Y502083D02*
D03*
D68*
X6223000Y-5715000D02*
D03*
X5207000D02*
D03*
X5715000D02*
D03*
X-508000Y0D02*
D03*
X508000D02*
D03*
X0D02*
D03*
X11430000D02*
D03*
X10922000D02*
D03*
X11938000D02*
D03*
Y-1905000D02*
D03*
X10922000D02*
D03*
X11430000D02*
D03*
X-13811250Y-3810000D02*
D03*
X-14319250D02*
D03*
X-13303250D02*
D03*
X11430000D02*
D03*
X10922000D02*
D03*
X11938000D02*
D03*
X13811250D02*
D03*
X13303250D02*
D03*
X14319250D02*
D03*
X1905000Y-7620000D02*
D03*
X1397000D02*
D03*
X2413000D02*
D03*
X5270500D02*
D03*
X4254500D02*
D03*
X4762500D02*
D03*
X3568700Y-8318500D02*
D03*
Y-6794500D02*
D03*
X5956300Y-8318500D02*
D03*
Y-6794500D02*
D03*
X14319250Y-7620000D02*
D03*
X13303250D02*
D03*
X13811250D02*
D03*
X14319250Y-1905000D02*
D03*
X13303250D02*
D03*
X13811250D02*
D03*
X-3568700Y-6794500D02*
D03*
Y-8318500D02*
D03*
X-5956300Y-6794500D02*
D03*
Y-8318500D02*
D03*
X-4762500Y-7620000D02*
D03*
X-5270500D02*
D03*
X-4254500D02*
D03*
X-11430000Y0D02*
D03*
X-11938000D02*
D03*
X-10922000D02*
D03*
X-9017000D02*
D03*
X-10033000D02*
D03*
X-9525000D02*
D03*
X-7620000D02*
D03*
X-8128000D02*
D03*
X-7112000D02*
D03*
X-5207000D02*
D03*
X-6223000D02*
D03*
X-5715000D02*
D03*
X-3810000D02*
D03*
X-4318000D02*
D03*
X-3302000D02*
D03*
X-1397000D02*
D03*
X-2413000D02*
D03*
X-1905000D02*
D03*
X1905000D02*
D03*
X1397000D02*
D03*
X2413000D02*
D03*
X4318000D02*
D03*
X3302000D02*
D03*
X3810000D02*
D03*
X5715000D02*
D03*
X5207000D02*
D03*
X6223000D02*
D03*
X8128000D02*
D03*
X7112000D02*
D03*
X7620000D02*
D03*
X9525000D02*
D03*
X9017000D02*
D03*
X10033000D02*
D03*
X10953750Y-7620000D02*
D03*
X10445750D02*
D03*
X11461750D02*
D03*
X8096250D02*
D03*
X7588250D02*
D03*
X8604250D02*
D03*
X508000D02*
D03*
X-508000D02*
D03*
X0D02*
D03*
X-1397000D02*
D03*
X-2413000D02*
D03*
X-1905000D02*
D03*
X-8096250D02*
D03*
X-8604250D02*
D03*
X-7588250D02*
D03*
X-10953750D02*
D03*
X-11461750D02*
D03*
X-10445750D02*
D03*
X-13811250D02*
D03*
X-14319250D02*
D03*
X-13303250D02*
D03*
X-13811250Y-5715000D02*
D03*
X-14319250D02*
D03*
X-13303250D02*
D03*
X-10922000D02*
D03*
X-11938000D02*
D03*
X-11430000D02*
D03*
X-9017000D02*
D03*
X-10033000D02*
D03*
X-9525000D02*
D03*
X-7112000D02*
D03*
X-8128000D02*
D03*
X-7620000D02*
D03*
X-5207000D02*
D03*
X-6223000D02*
D03*
X-5715000D02*
D03*
X-3302000D02*
D03*
X-4318000D02*
D03*
X-3810000D02*
D03*
X-1397000D02*
D03*
X-2413000D02*
D03*
X-1905000D02*
D03*
X508000D02*
D03*
X-508000D02*
D03*
X0D02*
D03*
X2413000D02*
D03*
X1397000D02*
D03*
X1905000D02*
D03*
X4318000D02*
D03*
X3302000D02*
D03*
X3810000D02*
D03*
X8128000D02*
D03*
X7112000D02*
D03*
X7620000D02*
D03*
X10033000D02*
D03*
X9017000D02*
D03*
X9525000D02*
D03*
X11938000D02*
D03*
X10922000D02*
D03*
X11430000D02*
D03*
X13811250D02*
D03*
X13303250D02*
D03*
X14319250D02*
D03*
X10033000Y-3810000D02*
D03*
X9017000D02*
D03*
X9525000D02*
D03*
X8128000D02*
D03*
X7112000D02*
D03*
X7620000D02*
D03*
X6223000D02*
D03*
X5207000D02*
D03*
X5715000D02*
D03*
X4318000D02*
D03*
X3302000D02*
D03*
X3810000D02*
D03*
X2413000D02*
D03*
X1397000D02*
D03*
X1905000D02*
D03*
X508000D02*
D03*
X-508000D02*
D03*
X0D02*
D03*
X-1397000D02*
D03*
X-2413000D02*
D03*
X-1905000D02*
D03*
X-3302000D02*
D03*
X-4318000D02*
D03*
X-3810000D02*
D03*
X-5207000D02*
D03*
X-6223000D02*
D03*
X-5715000D02*
D03*
X-7112000D02*
D03*
X-8128000D02*
D03*
X-7620000D02*
D03*
X-9017000D02*
D03*
X-10033000D02*
D03*
X-9525000D02*
D03*
X-10922000D02*
D03*
X-11938000D02*
D03*
X-11430000D02*
D03*
X-13811250Y-1905000D02*
D03*
X-14319250D02*
D03*
X-13303250D02*
D03*
X-11430000D02*
D03*
X-11938000D02*
D03*
X-10922000D02*
D03*
X-9525000D02*
D03*
X-10033000D02*
D03*
X-9017000D02*
D03*
X-7620000D02*
D03*
X-8128000D02*
D03*
X-7112000D02*
D03*
X-5715000D02*
D03*
X-6223000D02*
D03*
X-5207000D02*
D03*
X-3810000D02*
D03*
X-4318000D02*
D03*
X-3302000D02*
D03*
X-1905000D02*
D03*
X-2413000D02*
D03*
X-1397000D02*
D03*
X0D02*
D03*
X-508000D02*
D03*
X508000D02*
D03*
X1905000D02*
D03*
X1397000D02*
D03*
X2413000D02*
D03*
X3810000D02*
D03*
X3302000D02*
D03*
X4318000D02*
D03*
X5715000D02*
D03*
X5207000D02*
D03*
X6223000D02*
D03*
X7620000D02*
D03*
X7112000D02*
D03*
X8128000D02*
D03*
X9525000D02*
D03*
X9017000D02*
D03*
X10033000D02*
D03*
X13811250Y0D02*
D03*
X13303250D02*
D03*
X14319250D02*
D03*
X-13811250D02*
D03*
X-14319250D02*
D03*
X-13303250D02*
D03*
D69*
X2846000Y-4723000D02*
D03*
D70*
Y-4977000D02*
D03*
X3100000Y-4723000D02*
D03*
Y-4977000D02*
D03*
X3354000Y-4723000D02*
D03*
Y-4977000D02*
D03*
D71*
X-13684250Y-4318000D02*
D03*
X-13938251D02*
D03*
D72*
X-875000Y-1175000D02*
D03*
Y-675000D02*
D03*
X-1400000Y-3150000D02*
D03*
X-1625000Y-3025000D02*
D03*
X-1025000Y-1775000D02*
D03*
X-825000Y-2000000D02*
D03*
X-925000D02*
D03*
X7100000Y-6825000D02*
D03*
X-2925000Y-6225000D02*
D03*
X-1125000Y-1125000D02*
D03*
X-1050000Y-400000D02*
D03*
X2350000Y-927500D02*
D03*
X3225000Y-2150000D02*
D03*
X3300000Y-2250000D02*
D03*
X3075000Y-2325000D02*
D03*
X4850000Y-2625000D02*
D03*
X975000Y-2547500D02*
D03*
X2975000Y-2725000D02*
D03*
X1000000Y-2275000D02*
D03*
X850000Y-2250000D02*
D03*
X925000Y-2175000D02*
D03*
X825000Y-2100000D02*
D03*
X3350000Y-4200000D02*
D03*
X-1125000Y-1919613D02*
D03*
X-1225000Y-3300000D02*
D03*
X-1175000Y-3900000D02*
D03*
X-975000Y-3400000D02*
D03*
X-1004801Y-4029801D02*
D03*
X-850000Y-4075000D02*
D03*
X-675845Y-3650000D02*
D03*
X-525000Y-3197500D02*
D03*
X-675000Y-3400000D02*
D03*
X194244Y-2900000D02*
D03*
X475000Y-2700000D02*
D03*
X1075000Y-4050000D02*
D03*
X-12550000Y-1350000D02*
D03*
X-12350000D02*
D03*
X-12375000Y-4200708D02*
D03*
X-12650000Y-4200000D02*
D03*
X-12849251Y-6524251D02*
D03*
X-12800000Y-6825000D02*
D03*
X-6422509Y-7097509D02*
D03*
X12200000Y-4425000D02*
D03*
X12450000Y-1375000D02*
D03*
X12502500Y-2346880D02*
D03*
X900000Y-675000D02*
D03*
X325000D02*
D03*
X-10357500Y-2432380D02*
D03*
X-8452500Y-2520806D02*
D03*
X-6547500Y-2573179D02*
D03*
X-4642500Y-2652501D02*
D03*
X-208937Y-2375000D02*
D03*
X-700000Y-2125000D02*
D03*
X-1222145Y-2222145D02*
D03*
X900000Y-2800000D02*
D03*
X950000Y-2700000D02*
D03*
X-391538Y-2866538D02*
D03*
X875000Y-2425000D02*
D03*
X-1425000D02*
D03*
X-2350000Y-2675000D02*
D03*
X-2725000Y-2676756D02*
D03*
X-2150000Y-2525000D02*
D03*
X-2050000Y-2450000D02*
D03*
X-1650000Y-2625000D02*
D03*
X-2250000Y-2600000D02*
D03*
X-1800000Y-2225000D02*
D03*
X-1975000Y-2375000D02*
D03*
X-1900000Y-2300000D02*
D03*
X8675000Y-2500000D02*
D03*
X11850000Y-4200000D02*
D03*
X12825000Y-4300000D02*
D03*
X-9123750Y-781250D02*
D03*
X-6266250D02*
D03*
X-2456250D02*
D03*
X3258750D02*
D03*
X9926250D02*
D03*
X7068750D02*
D03*
X12800000Y-725000D02*
D03*
X-3350000Y-852500D02*
D03*
X-11925000Y-775000D02*
D03*
X-10032500Y-875000D02*
D03*
X-7175000D02*
D03*
X-11857500Y-975000D02*
D03*
X-9000000D02*
D03*
X-6050000Y-950000D02*
D03*
X-2325000D02*
D03*
X-12800000Y-1125000D02*
D03*
X-9975000D02*
D03*
X-7075000D02*
D03*
X-3300000D02*
D03*
X6175000Y-900000D02*
D03*
X3325000Y-1000000D02*
D03*
X9075000Y-900000D02*
D03*
X7200000Y-950000D02*
D03*
X10050000D02*
D03*
X11925000Y-900000D02*
D03*
X12626250Y-4198750D02*
D03*
X-6750000Y-7075000D02*
D03*
X-8325000Y-6925000D02*
D03*
X-9126250Y-6501250D02*
D03*
X-9375000Y-7075000D02*
D03*
X-9950000Y-6825000D02*
D03*
X-2675000Y-7075000D02*
D03*
X-3225000Y-6325000D02*
D03*
X3101250Y-7023750D02*
D03*
X2575000Y-6325000D02*
D03*
X6775000Y-7000000D02*
D03*
X6429394Y-6300000D02*
D03*
X10050000Y-6675000D02*
D03*
X9075000Y-6450000D02*
D03*
X12750000Y-6650000D02*
D03*
X11975000Y-2875000D02*
D03*
X12300000Y-3400000D02*
D03*
X12625000Y-2700000D02*
D03*
X12275000Y-3100000D02*
D03*
X9775000Y-6275000D02*
D03*
X7125000D02*
D03*
X3101250Y-6126250D02*
D03*
X-2606250Y-6131250D02*
D03*
X-6425000Y-6125000D02*
D03*
X-11976250Y-6501250D02*
D03*
X12626250Y-6276250D02*
D03*
X2425000Y-6225000D02*
D03*
X9082500Y-1117500D02*
D03*
X6232500D02*
D03*
X2425000Y-1125000D02*
D03*
X11942500Y-1117500D02*
D03*
X11850000Y-6825000D02*
D03*
X9075000D02*
D03*
X-7104367D02*
D03*
X-150000Y-2475000D02*
D03*
X6750000Y-2550000D02*
D03*
X10575000Y-2400000D02*
D03*
X14525000Y-2150000D02*
D03*
X-11925000Y-4100000D02*
D03*
X-12550000Y-3375000D02*
D03*
X-1650000Y-2525000D02*
D03*
X-13050000Y-2373279D02*
D03*
X-1125000Y-2025000D02*
D03*
D73*
X-735000Y-2965000D02*
D03*
Y-2855000D02*
D03*
Y-2745000D02*
D03*
Y-2635000D02*
D03*
X-845000Y-2965000D02*
D03*
Y-2855000D02*
D03*
Y-2745000D02*
D03*
Y-2635000D02*
D03*
X-955000Y-2965000D02*
D03*
Y-2855000D02*
D03*
Y-2745000D02*
D03*
Y-2635000D02*
D03*
X-1065000Y-2965000D02*
D03*
Y-2855000D02*
D03*
Y-2745000D02*
D03*
Y-2635000D02*
D03*
%TF.MD5,db50ea4f1193bf532e9e4c44e38a90ac*%
M02*
