%TF.GenerationSoftware,Altium Limited,Altium Designer,20.2.6 (244)*%
G04 Layer_Color=0*
%FSLAX45Y45*%
%MOMM*%
%TF.SameCoordinates,2270FEAA-A680-44EA-805D-832D39C03FB4*%
%TF.FilePolarity,Positive*%
%TF.FileFunction,Profile,NP*%
%TF.Part,Single*%
G01*
G75*
%TA.AperFunction,Profile*%
%ADD80C,0.02540*%
D80*
X-14877499Y-8509750D02*
X-14571815D01*
Y-8509750D01*
D02*
G03*
X-14508263Y-8486958I0J100000D01*
G01*
X-14508263Y-8486958D01*
D02*
G02*
X-13872737Y-8486958I317763J-386040D01*
G01*
Y-8486958D01*
D02*
G03*
X-13809184Y-8509750I63553J77208D01*
G01*
Y-8509750D01*
X-5571815D01*
Y-8509750D01*
D02*
G03*
X-5508263Y-8486958I0J100000D01*
G01*
X-5508263Y-8486958D01*
D02*
G02*
X-4872737Y-8486958I317763J-386040D01*
G01*
Y-8486958D01*
D02*
G03*
X-4809185Y-8509750I63553J77208D01*
G01*
X-4809184Y-8509750D01*
X4809190D01*
Y-8509750D01*
D02*
G03*
X4872743Y-8486958I0J100000D01*
G01*
Y-8486958D01*
D02*
G02*
X5508269Y-8486958I317763J-386040D01*
G01*
X5508268Y-8486958D01*
D02*
G03*
X5571821Y-8509750I63553J77208D01*
G01*
X5571821Y-8509750D01*
X13809190D01*
X13809190Y-8509750D01*
D02*
G03*
X13872743Y-8486958I0J100000D01*
G01*
Y-8486958D01*
D02*
G02*
X14508269Y-8486958I317763J-386040D01*
G01*
X14508269Y-8486958D01*
D02*
G03*
X14571822Y-8509750I63553J77208D01*
G01*
X14571820Y-8509750D01*
X14877499D01*
D02*
G03*
X15177499Y-8209750I0J300000D01*
G01*
X15177499Y-8209750D01*
Y590000D01*
X15177499D01*
D02*
G03*
X14877499Y890000I-300000J0D01*
G01*
X14572122D01*
D02*
G03*
X14508519Y867167I0J-100000D01*
G01*
X14508519D01*
D02*
G02*
X13872491Y867167I-318014J385833D01*
G01*
D02*
G03*
X13808888Y890000I-63603J-77167D01*
G01*
X5572122D01*
D02*
G03*
X5508519Y867167I0J-100000D01*
G01*
X5508519D01*
D02*
G02*
X4872492Y867167I-318014J385833D01*
G01*
D02*
G03*
X4808889Y890000I-63603J-77167D01*
G01*
X482498D01*
Y911999D01*
X482498Y911999D01*
D02*
G03*
X432498Y962000I-50001J0D01*
G01*
X432499Y962000D01*
X-432499D01*
D02*
G03*
X-482499Y911999I1J-50001D01*
G01*
X-482498D01*
Y890000D01*
X-4808884D01*
D02*
G03*
X-4872487Y867167I0J-100000D01*
G01*
D02*
G02*
X-5508514Y867167I-318014J385833D01*
G01*
X-5508513D01*
D02*
G03*
X-5572116Y890000I-63603J-77167D01*
G01*
X-13808884D01*
D02*
G03*
X-13872487Y867167I0J-100000D01*
G01*
D02*
G02*
X-14508514Y867167I-318014J385833D01*
G01*
X-14508514D01*
D02*
G03*
X-14572116Y890000I-63603J-77167D01*
G01*
X-14877499D01*
D02*
G03*
X-15177499Y590000I0J-300000D01*
G01*
Y-8209750D01*
D02*
G03*
X-14877499Y-8509750I300000J0D01*
G01*
%TF.MD5,18ff44420522685ba3414da118d37dec*%
M02*
