%TF.GenerationSoftware,Altium Limited,Altium Designer,20.2.6 (244)*%
G04 Layer_Color=65535*
%FSLAX45Y45*%
%MOMM*%
%TF.SameCoordinates,5881816B-C68B-4CD5-A74A-5D75E061FB32*%
%TF.FilePolarity,Positive*%
%TF.FileFunction,Legend,Top*%
%TF.Part,Single*%
G01*
G75*
%TA.AperFunction,NonConductor*%
%ADD40C,0.20000*%
D40*
X5172105Y-5205427D02*
X5155444Y-5188766D01*
X5122121D01*
X5105460Y-5205427D01*
Y-5222089D01*
X5122121Y-5238750D01*
X5155444D01*
X5172105Y-5255411D01*
Y-5272073D01*
X5155444Y-5288734D01*
X5122121D01*
X5105460Y-5272073D01*
X5272073Y-5188766D02*
X5205427D01*
Y-5238750D01*
X5238750Y-5222089D01*
X5255411D01*
X5272073Y-5238750D01*
Y-5272073D01*
X5255411Y-5288734D01*
X5222089D01*
X5205427Y-5272073D01*
X5372040Y-5188766D02*
X5338718Y-5205427D01*
X5305395Y-5238750D01*
Y-5272073D01*
X5322057Y-5288734D01*
X5355379D01*
X5372040Y-5272073D01*
Y-5255411D01*
X5355379Y-5238750D01*
X5305395D01*
X12792105Y-1395427D02*
X12775444Y-1378766D01*
X12742121D01*
X12725460Y-1395427D01*
Y-1412089D01*
X12742121Y-1428750D01*
X12775444D01*
X12792105Y-1445411D01*
Y-1462073D01*
X12775444Y-1478734D01*
X12742121D01*
X12725460Y-1462073D01*
X12825427Y-1395427D02*
X12842088Y-1378766D01*
X12875410D01*
X12892073Y-1395427D01*
Y-1412089D01*
X12875410Y-1428750D01*
X12858749D01*
X12875410D01*
X12892073Y-1445411D01*
Y-1462073D01*
X12875410Y-1478734D01*
X12842088D01*
X12825427Y-1462073D01*
X12925395Y-1395427D02*
X12942056Y-1378766D01*
X12975378D01*
X12992039Y-1395427D01*
Y-1462073D01*
X12975378Y-1478734D01*
X12942056D01*
X12925395Y-1462073D01*
Y-1395427D01*
X-14822066D02*
X-14838725Y-1378766D01*
X-14872047D01*
X-14888710Y-1395427D01*
Y-1412089D01*
X-14872047Y-1428750D01*
X-14838725D01*
X-14822066Y-1445411D01*
Y-1462073D01*
X-14838725Y-1478734D01*
X-14872047D01*
X-14888710Y-1462073D01*
X-14788742Y-1478734D02*
X-14755418D01*
X-14772079D01*
Y-1378766D01*
X-14788742Y-1395427D01*
X-14638789Y-1378766D02*
X-14672113Y-1395427D01*
X-14705435Y-1428750D01*
Y-1462073D01*
X-14688774Y-1478734D01*
X-14655452D01*
X-14638789Y-1462073D01*
Y-1445411D01*
X-14655452Y-1428750D01*
X-14705435D01*
X12800435Y509573D02*
X12783774Y526234D01*
X12750452D01*
X12733790Y509573D01*
Y492911D01*
X12750452Y476250D01*
X12783774D01*
X12800435Y459589D01*
Y442927D01*
X12783774Y426266D01*
X12750452D01*
X12733790Y442927D01*
X12833759Y426266D02*
X12867081D01*
X12850420D01*
Y526234D01*
X12833759Y509573D01*
X12983710Y526234D02*
X12917065D01*
Y476250D01*
X12950388Y492911D01*
X12967049D01*
X12983710Y476250D01*
Y442927D01*
X12967049Y426266D01*
X12933727D01*
X12917065Y442927D01*
X-14763750Y509573D02*
X-14780411Y526234D01*
X-14813734D01*
X-14830396Y509573D01*
Y492911D01*
X-14813734Y476250D01*
X-14780411D01*
X-14763750Y459589D01*
Y442927D01*
X-14780411Y426266D01*
X-14813734D01*
X-14830396Y442927D01*
X-14730428Y426266D02*
X-14697105D01*
X-14713766D01*
Y526234D01*
X-14730428Y509573D01*
X12808766Y-7110427D02*
X12792105Y-7093766D01*
X12758782D01*
X12742121Y-7110427D01*
Y-7127089D01*
X12758782Y-7143750D01*
X12792105D01*
X12808766Y-7160411D01*
Y-7177073D01*
X12792105Y-7193734D01*
X12758782D01*
X12742121Y-7177073D01*
X12842088Y-7093766D02*
X12908734D01*
Y-7110427D01*
X12842088Y-7177073D01*
Y-7193734D01*
X12942056D02*
X12975378D01*
X12958717D01*
Y-7093766D01*
X12942056Y-7110427D01*
X9934605D02*
X9917944Y-7093766D01*
X9884621D01*
X9867960Y-7110427D01*
Y-7127089D01*
X9884621Y-7143750D01*
X9917944D01*
X9934605Y-7160411D01*
Y-7177073D01*
X9917944Y-7193734D01*
X9884621D01*
X9867960Y-7177073D01*
X9967927Y-7093766D02*
X10034573D01*
Y-7110427D01*
X9967927Y-7177073D01*
Y-7193734D01*
X10067895Y-7110427D02*
X10084557Y-7093766D01*
X10117879D01*
X10134540Y-7110427D01*
Y-7177073D01*
X10117879Y-7193734D01*
X10084557D01*
X10067895Y-7177073D01*
Y-7110427D01*
X7077105D02*
X7060444Y-7093766D01*
X7027121D01*
X7010460Y-7110427D01*
Y-7127089D01*
X7027121Y-7143750D01*
X7060444D01*
X7077105Y-7160411D01*
Y-7177073D01*
X7060444Y-7193734D01*
X7027121D01*
X7010460Y-7177073D01*
X7177073Y-7093766D02*
X7143750Y-7110427D01*
X7110427Y-7143750D01*
Y-7177073D01*
X7127089Y-7193734D01*
X7160411D01*
X7177073Y-7177073D01*
Y-7160411D01*
X7160411Y-7143750D01*
X7110427D01*
X7210395Y-7177073D02*
X7227057Y-7193734D01*
X7260379D01*
X7277040Y-7177073D01*
Y-7110427D01*
X7260379Y-7093766D01*
X7227057D01*
X7210395Y-7110427D01*
Y-7127089D01*
X7227057Y-7143750D01*
X7277040D01*
X6257895Y-8129573D02*
X6274556Y-8146234D01*
X6307878D01*
X6324540Y-8129573D01*
Y-8112912D01*
X6307878Y-8096251D01*
X6274556D01*
X6257895Y-8079589D01*
Y-8062928D01*
X6274556Y-8046267D01*
X6307878D01*
X6324540Y-8062928D01*
X6157927Y-8146234D02*
X6191249Y-8129573D01*
X6224572Y-8096251D01*
Y-8062928D01*
X6207911Y-8046267D01*
X6174588D01*
X6157927Y-8062928D01*
Y-8079589D01*
X6174588Y-8096251D01*
X6224572D01*
X6124604Y-8129573D02*
X6107943Y-8146234D01*
X6074620D01*
X6057959Y-8129573D01*
Y-8112912D01*
X6074620Y-8096251D01*
X6057959Y-8079589D01*
Y-8062928D01*
X6074620Y-8046267D01*
X6107943D01*
X6124604Y-8062928D01*
Y-8079589D01*
X6107943Y-8096251D01*
X6124604Y-8112912D01*
Y-8129573D01*
X6107943Y-8096251D02*
X6074620D01*
X1362105Y-7110427D02*
X1345444Y-7093766D01*
X1312121D01*
X1295460Y-7110427D01*
Y-7127089D01*
X1312121Y-7143750D01*
X1345444D01*
X1362105Y-7160411D01*
Y-7177073D01*
X1345444Y-7193734D01*
X1312121D01*
X1295460Y-7177073D01*
X1462073Y-7093766D02*
X1428750Y-7110427D01*
X1395427Y-7143750D01*
Y-7177073D01*
X1412089Y-7193734D01*
X1445411D01*
X1462073Y-7177073D01*
Y-7160411D01*
X1445411Y-7143750D01*
X1395427D01*
X1495395Y-7093766D02*
X1562040D01*
Y-7110427D01*
X1495395Y-7177073D01*
Y-7193734D01*
X-542895Y-7110427D02*
X-559556Y-7093766D01*
X-592879D01*
X-609540Y-7110427D01*
Y-7127089D01*
X-592879Y-7143750D01*
X-559556D01*
X-542895Y-7160411D01*
Y-7177073D01*
X-559556Y-7193734D01*
X-592879D01*
X-609540Y-7177073D01*
X-442927Y-7093766D02*
X-476250Y-7110427D01*
X-509573Y-7143750D01*
Y-7177073D01*
X-492911Y-7193734D01*
X-459589D01*
X-442927Y-7177073D01*
Y-7160411D01*
X-459589Y-7143750D01*
X-509573D01*
X-342960Y-7093766D02*
X-376282Y-7110427D01*
X-409605Y-7143750D01*
Y-7177073D01*
X-392943Y-7193734D01*
X-359621D01*
X-342960Y-7177073D01*
Y-7160411D01*
X-359621Y-7143750D01*
X-409605D01*
X-2447895Y-7110427D02*
X-2464556Y-7093766D01*
X-2497879D01*
X-2514540Y-7110427D01*
Y-7127089D01*
X-2497879Y-7143750D01*
X-2464556D01*
X-2447895Y-7160411D01*
Y-7177073D01*
X-2464556Y-7193734D01*
X-2497879D01*
X-2514540Y-7177073D01*
X-2347927Y-7093766D02*
X-2381250Y-7110427D01*
X-2414573Y-7143750D01*
Y-7177073D01*
X-2397911Y-7193734D01*
X-2364589D01*
X-2347927Y-7177073D01*
Y-7160411D01*
X-2364589Y-7143750D01*
X-2414573D01*
X-2247960Y-7093766D02*
X-2314605D01*
Y-7143750D01*
X-2281282Y-7127089D01*
X-2264621D01*
X-2247960Y-7143750D01*
Y-7177073D01*
X-2264621Y-7193734D01*
X-2297943D01*
X-2314605Y-7177073D01*
X-3267105Y-8129573D02*
X-3250444Y-8146234D01*
X-3217122D01*
X-3200460Y-8129573D01*
Y-8112912D01*
X-3217122Y-8096251D01*
X-3250444D01*
X-3267105Y-8079589D01*
Y-8062928D01*
X-3250444Y-8046267D01*
X-3217122D01*
X-3200460Y-8062928D01*
X-3367073Y-8146234D02*
X-3333751Y-8129573D01*
X-3300428Y-8096251D01*
Y-8062928D01*
X-3317089Y-8046267D01*
X-3350412D01*
X-3367073Y-8062928D01*
Y-8079589D01*
X-3350412Y-8096251D01*
X-3300428D01*
X-3450380Y-8046267D02*
Y-8146234D01*
X-3400396Y-8096251D01*
X-3467041D01*
X-9115395Y-7110427D02*
X-9132056Y-7093766D01*
X-9165379D01*
X-9182040Y-7110427D01*
Y-7127089D01*
X-9165379Y-7143750D01*
X-9132056D01*
X-9115395Y-7160411D01*
Y-7177073D01*
X-9132056Y-7193734D01*
X-9165379D01*
X-9182040Y-7177073D01*
X-9015427Y-7093766D02*
X-9048750Y-7110427D01*
X-9082073Y-7143750D01*
Y-7177073D01*
X-9065411Y-7193734D01*
X-9032089D01*
X-9015427Y-7177073D01*
Y-7160411D01*
X-9032089Y-7143750D01*
X-9082073D01*
X-8982105Y-7110427D02*
X-8965443Y-7093766D01*
X-8932121D01*
X-8915460Y-7110427D01*
Y-7127089D01*
X-8932121Y-7143750D01*
X-8948782D01*
X-8932121D01*
X-8915460Y-7160411D01*
Y-7177073D01*
X-8932121Y-7193734D01*
X-8965443D01*
X-8982105Y-7177073D01*
X-11972895Y-7110427D02*
X-11989556Y-7093766D01*
X-12022879D01*
X-12039540Y-7110427D01*
Y-7127089D01*
X-12022879Y-7143750D01*
X-11989556D01*
X-11972895Y-7160411D01*
Y-7177073D01*
X-11989556Y-7193734D01*
X-12022879D01*
X-12039540Y-7177073D01*
X-11872927Y-7093766D02*
X-11906250Y-7110427D01*
X-11939573Y-7143750D01*
Y-7177073D01*
X-11922911Y-7193734D01*
X-11889589D01*
X-11872927Y-7177073D01*
Y-7160411D01*
X-11889589Y-7143750D01*
X-11939573D01*
X-11772960Y-7193734D02*
X-11839605D01*
X-11772960Y-7127089D01*
Y-7110427D01*
X-11789621Y-7093766D01*
X-11822943D01*
X-11839605Y-7110427D01*
X-14813734D02*
X-14830396Y-7093766D01*
X-14863718D01*
X-14880379Y-7110427D01*
Y-7127089D01*
X-14863718Y-7143750D01*
X-14830396D01*
X-14813734Y-7160411D01*
Y-7177073D01*
X-14830396Y-7193734D01*
X-14863718D01*
X-14880379Y-7177073D01*
X-14713766Y-7093766D02*
X-14747089Y-7110427D01*
X-14780411Y-7143750D01*
Y-7177073D01*
X-14763750Y-7193734D01*
X-14730428D01*
X-14713766Y-7177073D01*
Y-7160411D01*
X-14730428Y-7143750D01*
X-14780411D01*
X-14680443Y-7193734D02*
X-14647121D01*
X-14663782D01*
Y-7093766D01*
X-14680443Y-7110427D01*
X12792105Y-5205427D02*
X12775444Y-5188766D01*
X12742121D01*
X12725460Y-5205427D01*
Y-5222089D01*
X12742121Y-5238750D01*
X12775444D01*
X12792105Y-5255411D01*
Y-5272073D01*
X12775444Y-5288734D01*
X12742121D01*
X12725460Y-5272073D01*
X12892073Y-5188766D02*
X12858749Y-5205427D01*
X12825427Y-5238750D01*
Y-5272073D01*
X12842088Y-5288734D01*
X12875410D01*
X12892073Y-5272073D01*
Y-5255411D01*
X12875410Y-5238750D01*
X12825427D01*
X12925395Y-5205427D02*
X12942056Y-5188766D01*
X12975378D01*
X12992039Y-5205427D01*
Y-5272073D01*
X12975378Y-5288734D01*
X12942056D01*
X12925395Y-5272073D01*
Y-5205427D01*
X10887105D02*
X10870444Y-5188766D01*
X10837121D01*
X10820460Y-5205427D01*
Y-5222089D01*
X10837121Y-5238750D01*
X10870444D01*
X10887105Y-5255411D01*
Y-5272073D01*
X10870444Y-5288734D01*
X10837121D01*
X10820460Y-5272073D01*
X10987073Y-5188766D02*
X10920427D01*
Y-5238750D01*
X10953750Y-5222089D01*
X10970411D01*
X10987073Y-5238750D01*
Y-5272073D01*
X10970411Y-5288734D01*
X10937089D01*
X10920427Y-5272073D01*
X11020395D02*
X11037057Y-5288734D01*
X11070379D01*
X11087040Y-5272073D01*
Y-5205427D01*
X11070379Y-5188766D01*
X11037057D01*
X11020395Y-5205427D01*
Y-5222089D01*
X11037057Y-5238750D01*
X11087040D01*
X8982105Y-5205427D02*
X8965444Y-5188766D01*
X8932121D01*
X8915460Y-5205427D01*
Y-5222089D01*
X8932121Y-5238750D01*
X8965444D01*
X8982105Y-5255411D01*
Y-5272073D01*
X8965444Y-5288734D01*
X8932121D01*
X8915460Y-5272073D01*
X9082073Y-5188766D02*
X9015427D01*
Y-5238750D01*
X9048750Y-5222089D01*
X9065411D01*
X9082073Y-5238750D01*
Y-5272073D01*
X9065411Y-5288734D01*
X9032089D01*
X9015427Y-5272073D01*
X9115395Y-5205427D02*
X9132057Y-5188766D01*
X9165379D01*
X9182040Y-5205427D01*
Y-5222089D01*
X9165379Y-5238750D01*
X9182040Y-5255411D01*
Y-5272073D01*
X9165379Y-5288734D01*
X9132057D01*
X9115395Y-5272073D01*
Y-5255411D01*
X9132057Y-5238750D01*
X9115395Y-5222089D01*
Y-5205427D01*
X9132057Y-5238750D02*
X9165379D01*
X7077105Y-5205427D02*
X7060444Y-5188766D01*
X7027121D01*
X7010460Y-5205427D01*
Y-5222089D01*
X7027121Y-5238750D01*
X7060444D01*
X7077105Y-5255411D01*
Y-5272073D01*
X7060444Y-5288734D01*
X7027121D01*
X7010460Y-5272073D01*
X7177073Y-5188766D02*
X7110427D01*
Y-5238750D01*
X7143750Y-5222089D01*
X7160411D01*
X7177073Y-5238750D01*
Y-5272073D01*
X7160411Y-5288734D01*
X7127089D01*
X7110427Y-5272073D01*
X7210395Y-5188766D02*
X7277040D01*
Y-5205427D01*
X7210395Y-5272073D01*
Y-5288734D01*
X3267105Y-5205427D02*
X3250444Y-5188766D01*
X3217121D01*
X3200460Y-5205427D01*
Y-5222089D01*
X3217121Y-5238750D01*
X3250444D01*
X3267105Y-5255411D01*
Y-5272073D01*
X3250444Y-5288734D01*
X3217121D01*
X3200460Y-5272073D01*
X3367073Y-5188766D02*
X3300427D01*
Y-5238750D01*
X3333750Y-5222089D01*
X3350411D01*
X3367073Y-5238750D01*
Y-5272073D01*
X3350411Y-5288734D01*
X3317089D01*
X3300427Y-5272073D01*
X3467040Y-5188766D02*
X3400395D01*
Y-5238750D01*
X3433718Y-5222089D01*
X3450379D01*
X3467040Y-5238750D01*
Y-5272073D01*
X3450379Y-5288734D01*
X3417057D01*
X3400395Y-5272073D01*
X1362105Y-5205427D02*
X1345444Y-5188766D01*
X1312121D01*
X1295460Y-5205427D01*
Y-5222089D01*
X1312121Y-5238750D01*
X1345444D01*
X1362105Y-5255411D01*
Y-5272073D01*
X1345444Y-5288734D01*
X1312121D01*
X1295460Y-5272073D01*
X1462073Y-5188766D02*
X1395427D01*
Y-5238750D01*
X1428750Y-5222089D01*
X1445411D01*
X1462073Y-5238750D01*
Y-5272073D01*
X1445411Y-5288734D01*
X1412089D01*
X1395427Y-5272073D01*
X1545379Y-5288734D02*
Y-5188766D01*
X1495395Y-5238750D01*
X1562040D01*
X-542895Y-5205427D02*
X-559556Y-5188766D01*
X-592879D01*
X-609540Y-5205427D01*
Y-5222089D01*
X-592879Y-5238750D01*
X-559556D01*
X-542895Y-5255411D01*
Y-5272073D01*
X-559556Y-5288734D01*
X-592879D01*
X-609540Y-5272073D01*
X-442927Y-5188766D02*
X-509573D01*
Y-5238750D01*
X-476250Y-5222089D01*
X-459589D01*
X-442927Y-5238750D01*
Y-5272073D01*
X-459589Y-5288734D01*
X-492911D01*
X-509573Y-5272073D01*
X-409605Y-5205427D02*
X-392943Y-5188766D01*
X-359621D01*
X-342960Y-5205427D01*
Y-5222089D01*
X-359621Y-5238750D01*
X-376282D01*
X-359621D01*
X-342960Y-5255411D01*
Y-5272073D01*
X-359621Y-5288734D01*
X-392943D01*
X-409605Y-5272073D01*
X-2447895Y-5205427D02*
X-2464556Y-5188766D01*
X-2497879D01*
X-2514540Y-5205427D01*
Y-5222089D01*
X-2497879Y-5238750D01*
X-2464556D01*
X-2447895Y-5255411D01*
Y-5272073D01*
X-2464556Y-5288734D01*
X-2497879D01*
X-2514540Y-5272073D01*
X-2347927Y-5188766D02*
X-2414573D01*
Y-5238750D01*
X-2381250Y-5222089D01*
X-2364589D01*
X-2347927Y-5238750D01*
Y-5272073D01*
X-2364589Y-5288734D01*
X-2397911D01*
X-2414573Y-5272073D01*
X-2247960Y-5288734D02*
X-2314605D01*
X-2247960Y-5222089D01*
Y-5205427D01*
X-2264621Y-5188766D01*
X-2297943D01*
X-2314605Y-5205427D01*
X-4336234D02*
X-4352895Y-5188766D01*
X-4386218D01*
X-4402879Y-5205427D01*
Y-5222089D01*
X-4386218Y-5238750D01*
X-4352895D01*
X-4336234Y-5255411D01*
Y-5272073D01*
X-4352895Y-5288734D01*
X-4386218D01*
X-4402879Y-5272073D01*
X-4236266Y-5188766D02*
X-4302911D01*
Y-5238750D01*
X-4269589Y-5222089D01*
X-4252927D01*
X-4236266Y-5238750D01*
Y-5272073D01*
X-4252927Y-5288734D01*
X-4286250D01*
X-4302911Y-5272073D01*
X-4202943Y-5288734D02*
X-4169621D01*
X-4186282D01*
Y-5188766D01*
X-4202943Y-5205427D01*
X-6257895D02*
X-6274556Y-5188766D01*
X-6307879D01*
X-6324540Y-5205427D01*
Y-5222089D01*
X-6307879Y-5238750D01*
X-6274556D01*
X-6257895Y-5255411D01*
Y-5272073D01*
X-6274556Y-5288734D01*
X-6307879D01*
X-6324540Y-5272073D01*
X-6157927Y-5188766D02*
X-6224573D01*
Y-5238750D01*
X-6191250Y-5222089D01*
X-6174589D01*
X-6157927Y-5238750D01*
Y-5272073D01*
X-6174589Y-5288734D01*
X-6207911D01*
X-6224573Y-5272073D01*
X-6124605Y-5205427D02*
X-6107943Y-5188766D01*
X-6074621D01*
X-6057960Y-5205427D01*
Y-5272073D01*
X-6074621Y-5288734D01*
X-6107943D01*
X-6124605Y-5272073D01*
Y-5205427D01*
X-8162895D02*
X-8179556Y-5188766D01*
X-8212879D01*
X-8229540Y-5205427D01*
Y-5222089D01*
X-8212879Y-5238750D01*
X-8179556D01*
X-8162895Y-5255411D01*
Y-5272073D01*
X-8179556Y-5288734D01*
X-8212879D01*
X-8229540Y-5272073D01*
X-8079589Y-5288734D02*
Y-5188766D01*
X-8129573Y-5238750D01*
X-8062927D01*
X-8029605Y-5272073D02*
X-8012943Y-5288734D01*
X-7979621D01*
X-7962960Y-5272073D01*
Y-5205427D01*
X-7979621Y-5188766D01*
X-8012943D01*
X-8029605Y-5205427D01*
Y-5222089D01*
X-8012943Y-5238750D01*
X-7962960D01*
X-10067895Y-5205427D02*
X-10084556Y-5188766D01*
X-10117879D01*
X-10134540Y-5205427D01*
Y-5222089D01*
X-10117879Y-5238750D01*
X-10084556D01*
X-10067895Y-5255411D01*
Y-5272073D01*
X-10084556Y-5288734D01*
X-10117879D01*
X-10134540Y-5272073D01*
X-9984589Y-5288734D02*
Y-5188766D01*
X-10034573Y-5238750D01*
X-9967927D01*
X-9934605Y-5205427D02*
X-9917943Y-5188766D01*
X-9884621D01*
X-9867960Y-5205427D01*
Y-5222089D01*
X-9884621Y-5238750D01*
X-9867960Y-5255411D01*
Y-5272073D01*
X-9884621Y-5288734D01*
X-9917943D01*
X-9934605Y-5272073D01*
Y-5255411D01*
X-9917943Y-5238750D01*
X-9934605Y-5222089D01*
Y-5205427D01*
X-9917943Y-5238750D02*
X-9884621D01*
X-11972895Y-5205427D02*
X-11989556Y-5188766D01*
X-12022879D01*
X-12039540Y-5205427D01*
Y-5222089D01*
X-12022879Y-5238750D01*
X-11989556D01*
X-11972895Y-5255411D01*
Y-5272073D01*
X-11989556Y-5288734D01*
X-12022879D01*
X-12039540Y-5272073D01*
X-11889589Y-5288734D02*
Y-5188766D01*
X-11939573Y-5238750D01*
X-11872927D01*
X-11839605Y-5188766D02*
X-11772960D01*
Y-5205427D01*
X-11839605Y-5272073D01*
Y-5288734D01*
X-14830396Y-5205427D02*
X-14847057Y-5188766D01*
X-14880379D01*
X-14897040Y-5205427D01*
Y-5222089D01*
X-14880379Y-5238750D01*
X-14847057D01*
X-14830396Y-5255411D01*
Y-5272073D01*
X-14847057Y-5288734D01*
X-14880379D01*
X-14897040Y-5272073D01*
X-14747089Y-5288734D02*
Y-5188766D01*
X-14797073Y-5238750D01*
X-14730428D01*
X-14630460Y-5188766D02*
X-14663782Y-5205427D01*
X-14697105Y-5238750D01*
Y-5272073D01*
X-14680443Y-5288734D01*
X-14647121D01*
X-14630460Y-5272073D01*
Y-5255411D01*
X-14647121Y-5238750D01*
X-14697105D01*
X12792105Y-3300427D02*
X12775444Y-3283766D01*
X12742121D01*
X12725460Y-3300427D01*
Y-3317089D01*
X12742121Y-3333750D01*
X12775444D01*
X12792105Y-3350411D01*
Y-3367073D01*
X12775444Y-3383734D01*
X12742121D01*
X12725460Y-3367073D01*
X12875410Y-3383734D02*
Y-3283766D01*
X12825427Y-3333750D01*
X12892073D01*
X12992039Y-3283766D02*
X12925395D01*
Y-3333750D01*
X12958717Y-3317089D01*
X12975378D01*
X12992039Y-3333750D01*
Y-3367073D01*
X12975378Y-3383734D01*
X12942056D01*
X12925395Y-3367073D01*
X10887105Y-3300427D02*
X10870444Y-3283766D01*
X10837121D01*
X10820460Y-3300427D01*
Y-3317089D01*
X10837121Y-3333750D01*
X10870444D01*
X10887105Y-3350411D01*
Y-3367073D01*
X10870444Y-3383734D01*
X10837121D01*
X10820460Y-3367073D01*
X10970411Y-3383734D02*
Y-3283766D01*
X10920427Y-3333750D01*
X10987073D01*
X11070379Y-3383734D02*
Y-3283766D01*
X11020395Y-3333750D01*
X11087040D01*
X8982105Y-3300427D02*
X8965444Y-3283766D01*
X8932121D01*
X8915460Y-3300427D01*
Y-3317089D01*
X8932121Y-3333750D01*
X8965444D01*
X8982105Y-3350411D01*
Y-3367073D01*
X8965444Y-3383734D01*
X8932121D01*
X8915460Y-3367073D01*
X9065411Y-3383734D02*
Y-3283766D01*
X9015427Y-3333750D01*
X9082073D01*
X9115395Y-3300427D02*
X9132057Y-3283766D01*
X9165379D01*
X9182040Y-3300427D01*
Y-3317089D01*
X9165379Y-3333750D01*
X9148718D01*
X9165379D01*
X9182040Y-3350411D01*
Y-3367073D01*
X9165379Y-3383734D01*
X9132057D01*
X9115395Y-3367073D01*
X7077105Y-3300427D02*
X7060444Y-3283766D01*
X7027121D01*
X7010460Y-3300427D01*
Y-3317089D01*
X7027121Y-3333750D01*
X7060444D01*
X7077105Y-3350411D01*
Y-3367073D01*
X7060444Y-3383734D01*
X7027121D01*
X7010460Y-3367073D01*
X7160411Y-3383734D02*
Y-3283766D01*
X7110427Y-3333750D01*
X7177073D01*
X7277040Y-3383734D02*
X7210395D01*
X7277040Y-3317089D01*
Y-3300427D01*
X7260379Y-3283766D01*
X7227057D01*
X7210395Y-3300427D01*
X5188766D02*
X5172105Y-3283766D01*
X5138782D01*
X5122121Y-3300427D01*
Y-3317089D01*
X5138782Y-3333750D01*
X5172105D01*
X5188766Y-3350411D01*
Y-3367073D01*
X5172105Y-3383734D01*
X5138782D01*
X5122121Y-3367073D01*
X5272073Y-3383734D02*
Y-3283766D01*
X5222089Y-3333750D01*
X5288734D01*
X5322057Y-3383734D02*
X5355379D01*
X5338718D01*
Y-3283766D01*
X5322057Y-3300427D01*
X3267105D02*
X3250444Y-3283766D01*
X3217121D01*
X3200460Y-3300427D01*
Y-3317089D01*
X3217121Y-3333750D01*
X3250444D01*
X3267105Y-3350411D01*
Y-3367073D01*
X3250444Y-3383734D01*
X3217121D01*
X3200460Y-3367073D01*
X3350411Y-3383734D02*
Y-3283766D01*
X3300427Y-3333750D01*
X3367073D01*
X3400395Y-3300427D02*
X3417057Y-3283766D01*
X3450379D01*
X3467040Y-3300427D01*
Y-3367073D01*
X3450379Y-3383734D01*
X3417057D01*
X3400395Y-3367073D01*
Y-3300427D01*
X1362105D02*
X1345444Y-3283766D01*
X1312121D01*
X1295460Y-3300427D01*
Y-3317089D01*
X1312121Y-3333750D01*
X1345444D01*
X1362105Y-3350411D01*
Y-3367073D01*
X1345444Y-3383734D01*
X1312121D01*
X1295460Y-3367073D01*
X1395427Y-3300427D02*
X1412089Y-3283766D01*
X1445411D01*
X1462073Y-3300427D01*
Y-3317089D01*
X1445411Y-3333750D01*
X1428750D01*
X1445411D01*
X1462073Y-3350411D01*
Y-3367073D01*
X1445411Y-3383734D01*
X1412089D01*
X1395427Y-3367073D01*
X1495395D02*
X1512057Y-3383734D01*
X1545379D01*
X1562040Y-3367073D01*
Y-3300427D01*
X1545379Y-3283766D01*
X1512057D01*
X1495395Y-3300427D01*
Y-3317089D01*
X1512057Y-3333750D01*
X1562040D01*
X-542895Y-3300427D02*
X-559556Y-3283766D01*
X-592879D01*
X-609540Y-3300427D01*
Y-3317089D01*
X-592879Y-3333750D01*
X-559556D01*
X-542895Y-3350411D01*
Y-3367073D01*
X-559556Y-3383734D01*
X-592879D01*
X-609540Y-3367073D01*
X-509573Y-3300427D02*
X-492911Y-3283766D01*
X-459589D01*
X-442927Y-3300427D01*
Y-3317089D01*
X-459589Y-3333750D01*
X-476250D01*
X-459589D01*
X-442927Y-3350411D01*
Y-3367073D01*
X-459589Y-3383734D01*
X-492911D01*
X-509573Y-3367073D01*
X-409605Y-3300427D02*
X-392943Y-3283766D01*
X-359621D01*
X-342960Y-3300427D01*
Y-3317089D01*
X-359621Y-3333750D01*
X-342960Y-3350411D01*
Y-3367073D01*
X-359621Y-3383734D01*
X-392943D01*
X-409605Y-3367073D01*
Y-3350411D01*
X-392943Y-3333750D01*
X-409605Y-3317089D01*
Y-3300427D01*
X-392943Y-3333750D02*
X-359621D01*
X-2447895Y-3300427D02*
X-2464556Y-3283766D01*
X-2497879D01*
X-2514540Y-3300427D01*
Y-3317089D01*
X-2497879Y-3333750D01*
X-2464556D01*
X-2447895Y-3350411D01*
Y-3367073D01*
X-2464556Y-3383734D01*
X-2497879D01*
X-2514540Y-3367073D01*
X-2414573Y-3300427D02*
X-2397911Y-3283766D01*
X-2364589D01*
X-2347927Y-3300427D01*
Y-3317089D01*
X-2364589Y-3333750D01*
X-2381250D01*
X-2364589D01*
X-2347927Y-3350411D01*
Y-3367073D01*
X-2364589Y-3383734D01*
X-2397911D01*
X-2414573Y-3367073D01*
X-2314605Y-3283766D02*
X-2247960D01*
Y-3300427D01*
X-2314605Y-3367073D01*
Y-3383734D01*
X-4352895Y-3300427D02*
X-4369556Y-3283766D01*
X-4402879D01*
X-4419540Y-3300427D01*
Y-3317089D01*
X-4402879Y-3333750D01*
X-4369556D01*
X-4352895Y-3350411D01*
Y-3367073D01*
X-4369556Y-3383734D01*
X-4402879D01*
X-4419540Y-3367073D01*
X-4319573Y-3300427D02*
X-4302911Y-3283766D01*
X-4269589D01*
X-4252927Y-3300427D01*
Y-3317089D01*
X-4269589Y-3333750D01*
X-4286250D01*
X-4269589D01*
X-4252927Y-3350411D01*
Y-3367073D01*
X-4269589Y-3383734D01*
X-4302911D01*
X-4319573Y-3367073D01*
X-4152960Y-3283766D02*
X-4186282Y-3300427D01*
X-4219605Y-3333750D01*
Y-3367073D01*
X-4202943Y-3383734D01*
X-4169621D01*
X-4152960Y-3367073D01*
Y-3350411D01*
X-4169621Y-3333750D01*
X-4219605D01*
X-6257895Y-3300427D02*
X-6274556Y-3283766D01*
X-6307879D01*
X-6324540Y-3300427D01*
Y-3317089D01*
X-6307879Y-3333750D01*
X-6274556D01*
X-6257895Y-3350411D01*
Y-3367073D01*
X-6274556Y-3383734D01*
X-6307879D01*
X-6324540Y-3367073D01*
X-6224573Y-3300427D02*
X-6207911Y-3283766D01*
X-6174589D01*
X-6157927Y-3300427D01*
Y-3317089D01*
X-6174589Y-3333750D01*
X-6191250D01*
X-6174589D01*
X-6157927Y-3350411D01*
Y-3367073D01*
X-6174589Y-3383734D01*
X-6207911D01*
X-6224573Y-3367073D01*
X-6057960Y-3283766D02*
X-6124605D01*
Y-3333750D01*
X-6091282Y-3317089D01*
X-6074621D01*
X-6057960Y-3333750D01*
Y-3367073D01*
X-6074621Y-3383734D01*
X-6107943D01*
X-6124605Y-3367073D01*
X-8162895Y-3300427D02*
X-8179556Y-3283766D01*
X-8212879D01*
X-8229540Y-3300427D01*
Y-3317089D01*
X-8212879Y-3333750D01*
X-8179556D01*
X-8162895Y-3350411D01*
Y-3367073D01*
X-8179556Y-3383734D01*
X-8212879D01*
X-8229540Y-3367073D01*
X-8129573Y-3300427D02*
X-8112911Y-3283766D01*
X-8079589D01*
X-8062927Y-3300427D01*
Y-3317089D01*
X-8079589Y-3333750D01*
X-8096250D01*
X-8079589D01*
X-8062927Y-3350411D01*
Y-3367073D01*
X-8079589Y-3383734D01*
X-8112911D01*
X-8129573Y-3367073D01*
X-7979621Y-3383734D02*
Y-3283766D01*
X-8029605Y-3333750D01*
X-7962960D01*
X-10067895Y-3300427D02*
X-10084556Y-3283766D01*
X-10117879D01*
X-10134540Y-3300427D01*
Y-3317089D01*
X-10117879Y-3333750D01*
X-10084556D01*
X-10067895Y-3350411D01*
Y-3367073D01*
X-10084556Y-3383734D01*
X-10117879D01*
X-10134540Y-3367073D01*
X-10034573Y-3300427D02*
X-10017911Y-3283766D01*
X-9984589D01*
X-9967927Y-3300427D01*
Y-3317089D01*
X-9984589Y-3333750D01*
X-10001250D01*
X-9984589D01*
X-9967927Y-3350411D01*
Y-3367073D01*
X-9984589Y-3383734D01*
X-10017911D01*
X-10034573Y-3367073D01*
X-9934605Y-3300427D02*
X-9917943Y-3283766D01*
X-9884621D01*
X-9867960Y-3300427D01*
Y-3317089D01*
X-9884621Y-3333750D01*
X-9901282D01*
X-9884621D01*
X-9867960Y-3350411D01*
Y-3367073D01*
X-9884621Y-3383734D01*
X-9917943D01*
X-9934605Y-3367073D01*
X-11972895Y-3300427D02*
X-11989556Y-3283766D01*
X-12022879D01*
X-12039540Y-3300427D01*
Y-3317089D01*
X-12022879Y-3333750D01*
X-11989556D01*
X-11972895Y-3350411D01*
Y-3367073D01*
X-11989556Y-3383734D01*
X-12022879D01*
X-12039540Y-3367073D01*
X-11939573Y-3300427D02*
X-11922911Y-3283766D01*
X-11889589D01*
X-11872927Y-3300427D01*
Y-3317089D01*
X-11889589Y-3333750D01*
X-11906250D01*
X-11889589D01*
X-11872927Y-3350411D01*
Y-3367073D01*
X-11889589Y-3383734D01*
X-11922911D01*
X-11939573Y-3367073D01*
X-11772960Y-3383734D02*
X-11839605D01*
X-11772960Y-3317089D01*
Y-3300427D01*
X-11789621Y-3283766D01*
X-11822943D01*
X-11839605Y-3300427D01*
X-14813734D02*
X-14830396Y-3283766D01*
X-14863718D01*
X-14880379Y-3300427D01*
Y-3317089D01*
X-14863718Y-3333750D01*
X-14830396D01*
X-14813734Y-3350411D01*
Y-3367073D01*
X-14830396Y-3383734D01*
X-14863718D01*
X-14880379Y-3367073D01*
X-14780411Y-3300427D02*
X-14763750Y-3283766D01*
X-14730428D01*
X-14713766Y-3300427D01*
Y-3317089D01*
X-14730428Y-3333750D01*
X-14747089D01*
X-14730428D01*
X-14713766Y-3350411D01*
Y-3367073D01*
X-14730428Y-3383734D01*
X-14763750D01*
X-14780411Y-3367073D01*
X-14680443Y-3383734D02*
X-14647121D01*
X-14663782D01*
Y-3283766D01*
X-14680443Y-3300427D01*
X10887105Y-1395427D02*
X10870444Y-1378766D01*
X10837121D01*
X10820460Y-1395427D01*
Y-1412089D01*
X10837121Y-1428750D01*
X10870444D01*
X10887105Y-1445411D01*
Y-1462073D01*
X10870444Y-1478734D01*
X10837121D01*
X10820460Y-1462073D01*
X10987073Y-1478734D02*
X10920427D01*
X10987073Y-1412089D01*
Y-1395427D01*
X10970411Y-1378766D01*
X10937089D01*
X10920427Y-1395427D01*
X11020395Y-1462073D02*
X11037057Y-1478734D01*
X11070379D01*
X11087040Y-1462073D01*
Y-1395427D01*
X11070379Y-1378766D01*
X11037057D01*
X11020395Y-1395427D01*
Y-1412089D01*
X11037057Y-1428750D01*
X11087040D01*
X8982105Y-1395427D02*
X8965444Y-1378766D01*
X8932121D01*
X8915460Y-1395427D01*
Y-1412089D01*
X8932121Y-1428750D01*
X8965444D01*
X8982105Y-1445411D01*
Y-1462073D01*
X8965444Y-1478734D01*
X8932121D01*
X8915460Y-1462073D01*
X9082073Y-1478734D02*
X9015427D01*
X9082073Y-1412089D01*
Y-1395427D01*
X9065411Y-1378766D01*
X9032089D01*
X9015427Y-1395427D01*
X9115395D02*
X9132057Y-1378766D01*
X9165379D01*
X9182040Y-1395427D01*
Y-1412089D01*
X9165379Y-1428750D01*
X9182040Y-1445411D01*
Y-1462073D01*
X9165379Y-1478734D01*
X9132057D01*
X9115395Y-1462073D01*
Y-1445411D01*
X9132057Y-1428750D01*
X9115395Y-1412089D01*
Y-1395427D01*
X9132057Y-1428750D02*
X9165379D01*
X7077105Y-1395427D02*
X7060444Y-1378766D01*
X7027121D01*
X7010460Y-1395427D01*
Y-1412089D01*
X7027121Y-1428750D01*
X7060444D01*
X7077105Y-1445411D01*
Y-1462073D01*
X7060444Y-1478734D01*
X7027121D01*
X7010460Y-1462073D01*
X7177073Y-1478734D02*
X7110427D01*
X7177073Y-1412089D01*
Y-1395427D01*
X7160411Y-1378766D01*
X7127089D01*
X7110427Y-1395427D01*
X7210395Y-1378766D02*
X7277040D01*
Y-1395427D01*
X7210395Y-1462073D01*
Y-1478734D01*
X5172105Y-1395427D02*
X5155444Y-1378766D01*
X5122121D01*
X5105460Y-1395427D01*
Y-1412089D01*
X5122121Y-1428750D01*
X5155444D01*
X5172105Y-1445411D01*
Y-1462073D01*
X5155444Y-1478734D01*
X5122121D01*
X5105460Y-1462073D01*
X5272073Y-1478734D02*
X5205427D01*
X5272073Y-1412089D01*
Y-1395427D01*
X5255411Y-1378766D01*
X5222089D01*
X5205427Y-1395427D01*
X5372040Y-1378766D02*
X5338718Y-1395427D01*
X5305395Y-1428750D01*
Y-1462073D01*
X5322057Y-1478734D01*
X5355379D01*
X5372040Y-1462073D01*
Y-1445411D01*
X5355379Y-1428750D01*
X5305395D01*
X3267105Y-1395427D02*
X3250444Y-1378766D01*
X3217121D01*
X3200460Y-1395427D01*
Y-1412089D01*
X3217121Y-1428750D01*
X3250444D01*
X3267105Y-1445411D01*
Y-1462073D01*
X3250444Y-1478734D01*
X3217121D01*
X3200460Y-1462073D01*
X3367073Y-1478734D02*
X3300427D01*
X3367073Y-1412089D01*
Y-1395427D01*
X3350411Y-1378766D01*
X3317089D01*
X3300427Y-1395427D01*
X3467040Y-1378766D02*
X3400395D01*
Y-1428750D01*
X3433718Y-1412089D01*
X3450379D01*
X3467040Y-1428750D01*
Y-1462073D01*
X3450379Y-1478734D01*
X3417057D01*
X3400395Y-1462073D01*
X1362105Y-1395427D02*
X1345444Y-1378766D01*
X1312121D01*
X1295460Y-1395427D01*
Y-1412089D01*
X1312121Y-1428750D01*
X1345444D01*
X1362105Y-1445411D01*
Y-1462073D01*
X1345444Y-1478734D01*
X1312121D01*
X1295460Y-1462073D01*
X1462073Y-1478734D02*
X1395427D01*
X1462073Y-1412089D01*
Y-1395427D01*
X1445411Y-1378766D01*
X1412089D01*
X1395427Y-1395427D01*
X1545379Y-1478734D02*
Y-1378766D01*
X1495395Y-1428750D01*
X1562040D01*
X-542895Y-1395427D02*
X-559556Y-1378766D01*
X-592879D01*
X-609540Y-1395427D01*
Y-1412089D01*
X-592879Y-1428750D01*
X-559556D01*
X-542895Y-1445411D01*
Y-1462073D01*
X-559556Y-1478734D01*
X-592879D01*
X-609540Y-1462073D01*
X-442927Y-1478734D02*
X-509573D01*
X-442927Y-1412089D01*
Y-1395427D01*
X-459589Y-1378766D01*
X-492911D01*
X-509573Y-1395427D01*
X-409605D02*
X-392943Y-1378766D01*
X-359621D01*
X-342960Y-1395427D01*
Y-1412089D01*
X-359621Y-1428750D01*
X-376282D01*
X-359621D01*
X-342960Y-1445411D01*
Y-1462073D01*
X-359621Y-1478734D01*
X-392943D01*
X-409605Y-1462073D01*
X-2447895Y-1395427D02*
X-2464556Y-1378766D01*
X-2497879D01*
X-2514540Y-1395427D01*
Y-1412089D01*
X-2497879Y-1428750D01*
X-2464556D01*
X-2447895Y-1445411D01*
Y-1462073D01*
X-2464556Y-1478734D01*
X-2497879D01*
X-2514540Y-1462073D01*
X-2347927Y-1478734D02*
X-2414573D01*
X-2347927Y-1412089D01*
Y-1395427D01*
X-2364589Y-1378766D01*
X-2397911D01*
X-2414573Y-1395427D01*
X-2247960Y-1478734D02*
X-2314605D01*
X-2247960Y-1412089D01*
Y-1395427D01*
X-2264621Y-1378766D01*
X-2297943D01*
X-2314605Y-1395427D01*
X-4336234D02*
X-4352895Y-1378766D01*
X-4386218D01*
X-4402879Y-1395427D01*
Y-1412089D01*
X-4386218Y-1428750D01*
X-4352895D01*
X-4336234Y-1445411D01*
Y-1462073D01*
X-4352895Y-1478734D01*
X-4386218D01*
X-4402879Y-1462073D01*
X-4236266Y-1478734D02*
X-4302911D01*
X-4236266Y-1412089D01*
Y-1395427D01*
X-4252927Y-1378766D01*
X-4286250D01*
X-4302911Y-1395427D01*
X-4202943Y-1478734D02*
X-4169621D01*
X-4186282D01*
Y-1378766D01*
X-4202943Y-1395427D01*
X-6257895D02*
X-6274556Y-1378766D01*
X-6307879D01*
X-6324540Y-1395427D01*
Y-1412089D01*
X-6307879Y-1428750D01*
X-6274556D01*
X-6257895Y-1445411D01*
Y-1462073D01*
X-6274556Y-1478734D01*
X-6307879D01*
X-6324540Y-1462073D01*
X-6157927Y-1478734D02*
X-6224573D01*
X-6157927Y-1412089D01*
Y-1395427D01*
X-6174589Y-1378766D01*
X-6207911D01*
X-6224573Y-1395427D01*
X-6124605D02*
X-6107943Y-1378766D01*
X-6074621D01*
X-6057960Y-1395427D01*
Y-1462073D01*
X-6074621Y-1478734D01*
X-6107943D01*
X-6124605Y-1462073D01*
Y-1395427D01*
X-8154565D02*
X-8171226Y-1378766D01*
X-8204548D01*
X-8221210Y-1395427D01*
Y-1412089D01*
X-8204548Y-1428750D01*
X-8171226D01*
X-8154565Y-1445411D01*
Y-1462073D01*
X-8171226Y-1478734D01*
X-8204548D01*
X-8221210Y-1462073D01*
X-8121242Y-1478734D02*
X-8087919D01*
X-8104580D01*
Y-1378766D01*
X-8121242Y-1395427D01*
X-8037935Y-1462073D02*
X-8021274Y-1478734D01*
X-7987952D01*
X-7971290Y-1462073D01*
Y-1395427D01*
X-7987952Y-1378766D01*
X-8021274D01*
X-8037935Y-1395427D01*
Y-1412089D01*
X-8021274Y-1428750D01*
X-7971290D01*
X-10059565Y-1395427D02*
X-10076226Y-1378766D01*
X-10109548D01*
X-10126210Y-1395427D01*
Y-1412089D01*
X-10109548Y-1428750D01*
X-10076226D01*
X-10059565Y-1445411D01*
Y-1462073D01*
X-10076226Y-1478734D01*
X-10109548D01*
X-10126210Y-1462073D01*
X-10026242Y-1478734D02*
X-9992919D01*
X-10009580D01*
Y-1378766D01*
X-10026242Y-1395427D01*
X-9942935D02*
X-9926274Y-1378766D01*
X-9892952D01*
X-9876290Y-1395427D01*
Y-1412089D01*
X-9892952Y-1428750D01*
X-9876290Y-1445411D01*
Y-1462073D01*
X-9892952Y-1478734D01*
X-9926274D01*
X-9942935Y-1462073D01*
Y-1445411D01*
X-9926274Y-1428750D01*
X-9942935Y-1412089D01*
Y-1395427D01*
X-9926274Y-1428750D02*
X-9892952D01*
X-11964565Y-1395427D02*
X-11981226Y-1378766D01*
X-12014548D01*
X-12031210Y-1395427D01*
Y-1412089D01*
X-12014548Y-1428750D01*
X-11981226D01*
X-11964565Y-1445411D01*
Y-1462073D01*
X-11981226Y-1478734D01*
X-12014548D01*
X-12031210Y-1462073D01*
X-11931242Y-1478734D02*
X-11897919D01*
X-11914580D01*
Y-1378766D01*
X-11931242Y-1395427D01*
X-11847935Y-1378766D02*
X-11781290D01*
Y-1395427D01*
X-11847935Y-1462073D01*
Y-1478734D01*
X10895435Y509573D02*
X10878774Y526234D01*
X10845452D01*
X10828790Y509573D01*
Y492911D01*
X10845452Y476250D01*
X10878774D01*
X10895435Y459589D01*
Y442927D01*
X10878774Y426266D01*
X10845452D01*
X10828790Y442927D01*
X10928758Y426266D02*
X10962081D01*
X10945420D01*
Y526234D01*
X10928758Y509573D01*
X11062048Y426266D02*
Y526234D01*
X11012065Y476250D01*
X11078710D01*
X8990435Y509573D02*
X8973774Y526234D01*
X8940452D01*
X8923790Y509573D01*
Y492911D01*
X8940452Y476250D01*
X8973774D01*
X8990435Y459589D01*
Y442927D01*
X8973774Y426266D01*
X8940452D01*
X8923790Y442927D01*
X9023758Y426266D02*
X9057081D01*
X9040420D01*
Y526234D01*
X9023758Y509573D01*
X9107065D02*
X9123726Y526234D01*
X9157048D01*
X9173710Y509573D01*
Y492911D01*
X9157048Y476250D01*
X9140387D01*
X9157048D01*
X9173710Y459589D01*
Y442927D01*
X9157048Y426266D01*
X9123726D01*
X9107065Y442927D01*
X7085435Y509573D02*
X7068774Y526234D01*
X7035452D01*
X7018790Y509573D01*
Y492911D01*
X7035452Y476250D01*
X7068774D01*
X7085435Y459589D01*
Y442927D01*
X7068774Y426266D01*
X7035452D01*
X7018790Y442927D01*
X7118758Y426266D02*
X7152081D01*
X7135420D01*
Y526234D01*
X7118758Y509573D01*
X7268710Y426266D02*
X7202065D01*
X7268710Y492911D01*
Y509573D01*
X7252048Y526234D01*
X7218726D01*
X7202065Y509573D01*
X5197097D02*
X5180436Y526234D01*
X5147113D01*
X5130452Y509573D01*
Y492911D01*
X5147113Y476250D01*
X5180436D01*
X5197097Y459589D01*
Y442927D01*
X5180436Y426266D01*
X5147113D01*
X5130452Y442927D01*
X5230420Y426266D02*
X5263742D01*
X5247081D01*
Y526234D01*
X5230420Y509573D01*
X5313726Y426266D02*
X5347048D01*
X5330387D01*
Y526234D01*
X5313726Y509573D01*
X3275435D02*
X3258774Y526234D01*
X3225452D01*
X3208790Y509573D01*
Y492911D01*
X3225452Y476250D01*
X3258774D01*
X3275435Y459589D01*
Y442927D01*
X3258774Y426266D01*
X3225452D01*
X3208790Y442927D01*
X3308758Y426266D02*
X3342081D01*
X3325420D01*
Y526234D01*
X3308758Y509573D01*
X3392065D02*
X3408726Y526234D01*
X3442048D01*
X3458710Y509573D01*
Y442927D01*
X3442048Y426266D01*
X3408726D01*
X3392065Y442927D01*
Y509573D01*
X1412089D02*
X1395427Y526234D01*
X1362105D01*
X1345444Y509573D01*
Y492911D01*
X1362105Y476250D01*
X1395427D01*
X1412089Y459589D01*
Y442927D01*
X1395427Y426266D01*
X1362105D01*
X1345444Y442927D01*
X1445411D02*
X1462073Y426266D01*
X1495395D01*
X1512056Y442927D01*
Y509573D01*
X1495395Y526234D01*
X1462073D01*
X1445411Y509573D01*
Y492911D01*
X1462073Y476250D01*
X1512056D01*
X-492911Y509573D02*
X-509573Y526234D01*
X-542895D01*
X-559556Y509573D01*
Y492911D01*
X-542895Y476250D01*
X-509573D01*
X-492911Y459589D01*
Y442927D01*
X-509573Y426266D01*
X-542895D01*
X-559556Y442927D01*
X-459589Y509573D02*
X-442927Y526234D01*
X-409605D01*
X-392944Y509573D01*
Y492911D01*
X-409605Y476250D01*
X-392944Y459589D01*
Y442927D01*
X-409605Y426266D01*
X-442927D01*
X-459589Y442927D01*
Y459589D01*
X-442927Y476250D01*
X-459589Y492911D01*
Y509573D01*
X-442927Y476250D02*
X-409605D01*
X-2397911Y509573D02*
X-2414573Y526234D01*
X-2447895D01*
X-2464556Y509573D01*
Y492911D01*
X-2447895Y476250D01*
X-2414573D01*
X-2397911Y459589D01*
Y442927D01*
X-2414573Y426266D01*
X-2447895D01*
X-2464556Y442927D01*
X-2364589Y526234D02*
X-2297944D01*
Y509573D01*
X-2364589Y442927D01*
Y426266D01*
X-4302911Y509573D02*
X-4319573Y526234D01*
X-4352895D01*
X-4369556Y509573D01*
Y492911D01*
X-4352895Y476250D01*
X-4319573D01*
X-4302911Y459589D01*
Y442927D01*
X-4319573Y426266D01*
X-4352895D01*
X-4369556Y442927D01*
X-4202944Y526234D02*
X-4236266Y509573D01*
X-4269589Y476250D01*
Y442927D01*
X-4252927Y426266D01*
X-4219605D01*
X-4202944Y442927D01*
Y459589D01*
X-4219605Y476250D01*
X-4269589D01*
X-6207911Y509573D02*
X-6224573Y526234D01*
X-6257895D01*
X-6274556Y509573D01*
Y492911D01*
X-6257895Y476250D01*
X-6224573D01*
X-6207911Y459589D01*
Y442927D01*
X-6224573Y426266D01*
X-6257895D01*
X-6274556Y442927D01*
X-6107944Y526234D02*
X-6174589D01*
Y476250D01*
X-6141266Y492911D01*
X-6124605D01*
X-6107944Y476250D01*
Y442927D01*
X-6124605Y426266D01*
X-6157927D01*
X-6174589Y442927D01*
X-8112911Y509573D02*
X-8129573Y526234D01*
X-8162895D01*
X-8179556Y509573D01*
Y492911D01*
X-8162895Y476250D01*
X-8129573D01*
X-8112911Y459589D01*
Y442927D01*
X-8129573Y426266D01*
X-8162895D01*
X-8179556Y442927D01*
X-8029605Y426266D02*
Y526234D01*
X-8079589Y476250D01*
X-8012944D01*
X-10017911Y509573D02*
X-10034573Y526234D01*
X-10067895D01*
X-10084556Y509573D01*
Y492911D01*
X-10067895Y476250D01*
X-10034573D01*
X-10017911Y459589D01*
Y442927D01*
X-10034573Y426266D01*
X-10067895D01*
X-10084556Y442927D01*
X-9984589Y509573D02*
X-9967927Y526234D01*
X-9934605D01*
X-9917944Y509573D01*
Y492911D01*
X-9934605Y476250D01*
X-9951266D01*
X-9934605D01*
X-9917944Y459589D01*
Y442927D01*
X-9934605Y426266D01*
X-9967927D01*
X-9984589Y442927D01*
X-11922911Y509573D02*
X-11939573Y526234D01*
X-11972895D01*
X-11989556Y509573D01*
Y492911D01*
X-11972895Y476250D01*
X-11939573D01*
X-11922911Y459589D01*
Y442927D01*
X-11939573Y426266D01*
X-11972895D01*
X-11989556Y442927D01*
X-11822944Y426266D02*
X-11889589D01*
X-11822944Y492911D01*
Y509573D01*
X-11839605Y526234D01*
X-11872927D01*
X-11889589Y509573D01*
%TF.MD5,37bbf37b8e14a3de492480ad04201ff5*%
M02*
