%TF.GenerationSoftware,Altium Limited,Altium Designer,20.2.6 (244)*%
G04 Layer_Color=32768*
%FSLAX45Y45*%
%MOMM*%
%TF.SameCoordinates,2F107FE3-984A-4B75-92AE-308BEDE16AF6*%
%TF.FilePolarity,Positive*%
%TF.FileFunction,Other,Courtyard*%
%TF.Part,Single*%
G01*
G75*
%TA.AperFunction,NonConductor*%
%ADD40C,0.20000*%
%ADD46C,0.30000*%
%ADD47C,0.10000*%
%ADD79C,0.05000*%
D40*
X475000Y335000D02*
Y1060000D01*
X-475000Y335000D02*
X475000D01*
X-475000Y1060000D02*
X475000D01*
X-475000Y335000D02*
Y1060000D01*
X-50000Y960000D02*
X50000D01*
X0Y910000D02*
Y1010000D01*
D46*
X2857500Y-1002500D02*
Y-902500D01*
X2807500Y-952500D02*
X2907500D01*
X2582500Y-1202500D02*
Y-702500D01*
X3132500D01*
Y-1202500D02*
Y-702500D01*
X2582500Y-1202500D02*
X3132500D01*
X12382500Y-3860000D02*
Y-3760000D01*
X12332500Y-3810000D02*
X12432500D01*
X12107500Y-4060000D02*
Y-3560000D01*
X12657500D01*
Y-4060000D02*
Y-3560000D01*
X12107500Y-4060000D02*
X12657500D01*
X12107500Y-1202500D02*
X12657500D01*
Y-702500D01*
X12107500D02*
X12657500D01*
X12107500Y-1202500D02*
Y-702500D01*
X12332500Y-952500D02*
X12432500D01*
X12382500Y-1002500D02*
Y-902500D01*
X9525000Y-1002500D02*
Y-902500D01*
X9475000Y-952500D02*
X9575000D01*
X9250000Y-1202500D02*
Y-702500D01*
X9800000D01*
Y-1202500D02*
Y-702500D01*
X9250000Y-1202500D02*
X9800000D01*
X6392500D02*
X6942500D01*
Y-702500D01*
X6392500D02*
X6942500D01*
X6392500Y-1202500D02*
Y-702500D01*
X6617500Y-952500D02*
X6717500D01*
X6667500Y-1002500D02*
Y-902500D01*
X-3132500Y-1202500D02*
X-2582500D01*
Y-702500D01*
X-3132500D02*
X-2582500D01*
X-3132500Y-1202500D02*
Y-702500D01*
X-2907500Y-952500D02*
X-2807500D01*
X-2857500Y-1002500D02*
Y-902500D01*
X-6667500Y-1002500D02*
Y-902500D01*
X-6717500Y-952500D02*
X-6617500D01*
X-6942500Y-1202500D02*
Y-702500D01*
X-6392500D01*
Y-1202500D02*
Y-702500D01*
X-6942500Y-1202500D02*
X-6392500D01*
X-9800000D02*
X-9250000D01*
Y-702500D01*
X-9800000D02*
X-9250000D01*
X-9800000Y-1202500D02*
Y-702500D01*
X-9575000Y-952500D02*
X-9475000D01*
X-9525000Y-1002500D02*
Y-902500D01*
X-12382500Y-1002500D02*
Y-902500D01*
X-12432500Y-952500D02*
X-12332500D01*
X-12657500Y-1202500D02*
Y-702500D01*
X-12107500D01*
Y-1202500D02*
Y-702500D01*
X-12657500Y-1202500D02*
X-12107500D01*
X-12657500Y-4060000D02*
X-12107500D01*
Y-3560000D01*
X-12657500D02*
X-12107500D01*
X-12657500Y-4060000D02*
Y-3560000D01*
X-12432500Y-3810000D02*
X-12332500D01*
X-12382500Y-3860000D02*
Y-3760000D01*
Y-6717500D02*
Y-6617500D01*
X-12432500Y-6667500D02*
X-12332500D01*
X-12657500Y-6917500D02*
Y-6417500D01*
X-12107500D01*
Y-6917500D02*
Y-6417500D01*
X-12657500Y-6917500D02*
X-12107500D01*
X-9800000D02*
X-9250000D01*
Y-6417500D01*
X-9800000D02*
X-9250000D01*
X-9800000Y-6917500D02*
Y-6417500D01*
X-9575000Y-6667500D02*
X-9475000D01*
X-9525000Y-6717500D02*
Y-6617500D01*
X-6667500Y-6717500D02*
Y-6617500D01*
X-6717500Y-6667500D02*
X-6617500D01*
X-6942500Y-6917500D02*
Y-6417500D01*
X-6392500D01*
Y-6917500D02*
Y-6417500D01*
X-6942500Y-6917500D02*
X-6392500D01*
X-3132500D02*
X-2582500D01*
Y-6417500D01*
X-3132500D02*
X-2582500D01*
X-3132500Y-6917500D02*
Y-6417500D01*
X-2907500Y-6667500D02*
X-2807500D01*
X-2857500Y-6717500D02*
Y-6617500D01*
X2857500Y-6717500D02*
Y-6617500D01*
X2807500Y-6667500D02*
X2907500D01*
X2582500Y-6917500D02*
Y-6417500D01*
X3132500D01*
Y-6917500D02*
Y-6417500D01*
X2582500Y-6917500D02*
X3132500D01*
X6392500D02*
X6942500D01*
Y-6417500D01*
X6392500D02*
X6942500D01*
X6392500Y-6917500D02*
Y-6417500D01*
X6617500Y-6667500D02*
X6717500D01*
X6667500Y-6717500D02*
Y-6617500D01*
X9525000Y-6717500D02*
Y-6617500D01*
X9475000Y-6667500D02*
X9575000D01*
X9250000Y-6917500D02*
Y-6417500D01*
X9800000D01*
Y-6917500D02*
Y-6417500D01*
X9250000Y-6917500D02*
X9800000D01*
X12107500D02*
X12657500D01*
Y-6417500D01*
X12107500D02*
X12657500D01*
X12107500Y-6917500D02*
Y-6417500D01*
X12332500Y-6667500D02*
X12432500D01*
X12382500Y-6717500D02*
Y-6617500D01*
D47*
X952500Y-4812500D02*
Y-4712500D01*
X902500Y-4762500D02*
X1002500D01*
X736600Y-4660900D02*
X1168400D01*
X736600Y-4864100D02*
X1168400D01*
Y-4660900D01*
X736600Y-4864100D02*
Y-4660900D01*
X-2109100Y-3076600D02*
Y-2873400D01*
X-2540900Y-3076600D02*
Y-2873400D01*
X-2109100D01*
X-2540900Y-3076600D02*
X-2109100D01*
X-2375000Y-2975000D02*
X-2275000D01*
X-2325000Y-3025000D02*
Y-2925000D01*
X-3073400Y-2959100D02*
Y-2755900D01*
X-2641600Y-2959100D02*
Y-2755900D01*
X-3073400Y-2959100D02*
X-2641600D01*
X-3073400Y-2755900D02*
X-2641600D01*
X-2907500Y-2857500D02*
X-2807500D01*
X-2857500Y-2907500D02*
Y-2807500D01*
X5000Y-2375000D02*
X45000D01*
X-75000Y-2425000D02*
X125000D01*
X-75000Y-2325000D02*
X125000D01*
X-75000Y-2425000D02*
Y-2325000D01*
X125000Y-2425000D02*
Y-2325000D01*
X25000Y-2395000D02*
Y-2355000D01*
X-1150000Y0D02*
X-1050000D01*
X-1100000Y-50000D02*
Y50000D01*
X-998400Y-215900D02*
Y215900D01*
X-1201600Y-215900D02*
Y215900D01*
Y-215900D02*
X-998400D01*
X-1201600Y215900D02*
X-998400D01*
X2850000Y-5600000D02*
Y-5500000D01*
X2800000Y-5550000D02*
X2900000D01*
X2634100Y-5448400D02*
X3065900D01*
X2634100Y-5651600D02*
X3065900D01*
Y-5448400D01*
X2634100Y-5651600D02*
Y-5448400D01*
X-4800000Y-5250000D02*
Y-5150000D01*
X-4850000Y-5200000D02*
X-4750000D01*
X-5015900Y-5098400D02*
X-4584100D01*
X-5015900Y-5301600D02*
X-4584100D01*
Y-5098400D01*
X-5015900Y-5301600D02*
Y-5098400D01*
X-6650000Y-5250000D02*
Y-5150000D01*
X-6700000Y-5200000D02*
X-6600000D01*
X-6865900Y-5098400D02*
X-6434100D01*
X-6865900Y-5301600D02*
X-6434100D01*
Y-5098400D01*
X-6865900Y-5301600D02*
Y-5098400D01*
X-10500000Y-5250000D02*
Y-5150000D01*
X-10550000Y-5200000D02*
X-10450000D01*
X-10715900Y-5098400D02*
X-10284100D01*
X-10715900Y-5301600D02*
X-10284100D01*
Y-5098400D01*
X-10715900Y-5301600D02*
Y-5098400D01*
X-8600000Y-5250000D02*
Y-5150000D01*
X-8650000Y-5200000D02*
X-8550000D01*
X-8815900Y-5098400D02*
X-8384100D01*
X-8815900Y-5301600D02*
X-8384100D01*
Y-5098400D01*
X-8815900Y-5301600D02*
Y-5098400D01*
X-1495000Y-2225000D02*
X-1455000D01*
X-1575000Y-2275000D02*
X-1375000D01*
X-1575000Y-2175000D02*
X-1375000D01*
X-1575000Y-2275000D02*
Y-2175000D01*
X-1375000Y-2275000D02*
Y-2175000D01*
X-1475000Y-2245000D02*
Y-2205000D01*
X-955011Y-2175008D02*
X-895011D01*
X-925011Y-2205008D02*
Y-2145008D01*
X-875000Y-2275000D02*
Y-2075000D01*
X-975000Y-2275000D02*
Y-2075000D01*
Y-2275000D02*
X-875000D01*
X-975000Y-2075000D02*
X-875000D01*
X-1168400Y-4864100D02*
Y-4660900D01*
X-736600Y-4864100D02*
Y-4660900D01*
X-1168400Y-4864100D02*
X-736600D01*
X-1168400Y-4660900D02*
X-736600D01*
X-1002500Y-4762500D02*
X-902500D01*
X-952500Y-4812500D02*
Y-4712500D01*
X8356600Y-4864100D02*
Y-4660900D01*
X8788400Y-4864100D02*
Y-4660900D01*
X8356600Y-4864100D02*
X8788400D01*
X8356600Y-4660900D02*
X8788400D01*
X8522500Y-4762500D02*
X8622500D01*
X8572500Y-4812500D02*
Y-4712500D01*
X4546600Y-4864100D02*
Y-4660900D01*
X4978400Y-4864100D02*
Y-4660900D01*
X4546600Y-4864100D02*
X4978400D01*
X4546600Y-4660900D02*
X4978400D01*
X4712500Y-4762500D02*
X4812500D01*
X4762500Y-4812500D02*
Y-4712500D01*
X6451600Y-4864100D02*
Y-4660900D01*
X6883400Y-4864100D02*
Y-4660900D01*
X6451600Y-4864100D02*
X6883400D01*
X6451600Y-4660900D02*
X6883400D01*
X6617500Y-4762500D02*
X6717500D01*
X6667500Y-4812500D02*
Y-4712500D01*
X-6575000Y-625000D02*
Y-525000D01*
X-6775000Y-625000D02*
Y-525000D01*
X-6575000D01*
X-6775000Y-625000D02*
X-6575000D01*
X-6705008Y-574989D02*
X-6645008D01*
X-6675008Y-604989D02*
Y-544989D01*
X-6769100Y215900D02*
X-6565900D01*
X-6769100Y-215900D02*
X-6565900D01*
X-6769100D02*
Y215900D01*
X-6565900Y-215900D02*
Y215900D01*
X-6667500Y-50000D02*
Y50000D01*
X-6717500Y0D02*
X-6617500D01*
X-3890900Y-1051600D02*
Y-848400D01*
X-3459100Y-1051600D02*
Y-848400D01*
X-3890900Y-1051600D02*
X-3459100D01*
X-3890900Y-848400D02*
X-3459100D01*
X-3725000Y-950000D02*
X-3625000D01*
X-3675000Y-1000000D02*
Y-900000D01*
X-2750000Y-600000D02*
Y-500000D01*
X-2950000Y-600000D02*
Y-500000D01*
X-2750000D01*
X-2950000Y-600000D02*
X-2750000D01*
X-2880008Y-549988D02*
X-2820008D01*
X-2850008Y-579988D02*
Y-519989D01*
X-997500Y-1400000D02*
X-902500D01*
X-950000Y-1447500D02*
Y-1352500D01*
X-875000Y-1555000D02*
Y-1245000D01*
X-1025000Y-1555000D02*
Y-1245000D01*
Y-1555000D02*
X-875000D01*
X-1025000Y-1245000D02*
X-875000D01*
X-822500Y-1400000D02*
X-727500D01*
X-775000Y-1447500D02*
Y-1352500D01*
X-700000Y-1555000D02*
Y-1245000D01*
X-850000Y-1555000D02*
Y-1245000D01*
Y-1555000D02*
X-700000D01*
X-850000Y-1245000D02*
X-700000D01*
X2755900Y215900D02*
X2959100D01*
X2755900Y-215900D02*
X2959100D01*
X2755900D02*
Y215900D01*
X2959100Y-215900D02*
Y215900D01*
X2857500Y-50000D02*
Y50000D01*
X2807500Y0D02*
X2907500D01*
X6750000Y-625000D02*
Y-525000D01*
X6550000Y-625000D02*
Y-525000D01*
X6750000D01*
X6550000Y-625000D02*
X6750000D01*
X6619992Y-574989D02*
X6679992D01*
X6649992Y-604989D02*
Y-544989D01*
X9625000Y-625000D02*
Y-525000D01*
X9425000Y-625000D02*
Y-525000D01*
X9625000D01*
X9425000Y-625000D02*
X9625000D01*
X9494992Y-574989D02*
X9554992D01*
X9524992Y-604989D02*
Y-544989D01*
X11328400Y-6883400D02*
X11531600D01*
X11328400Y-6451600D02*
X11531600D01*
Y-6883400D02*
Y-6451600D01*
X11328400Y-6883400D02*
Y-6451600D01*
X11430000Y-6717500D02*
Y-6617500D01*
X11380000Y-6667500D02*
X11480000D01*
X-300008Y-2504988D02*
Y-2444989D01*
X-330008Y-2474988D02*
X-270008D01*
X-400000Y-2525000D02*
X-200000D01*
X-400000Y-2425000D02*
X-200000D01*
X-400000Y-2525000D02*
Y-2425000D01*
X-200000Y-2525000D02*
Y-2425000D01*
X734100Y-3326600D02*
Y-3123400D01*
X1165900Y-3326600D02*
Y-3123400D01*
X734100Y-3326600D02*
X1165900D01*
X734100Y-3123400D02*
X1165900D01*
X900000Y-3225000D02*
X1000000D01*
X950000Y-3275000D02*
Y-3175000D01*
X230000Y-2975000D02*
X420000D01*
X230000Y-2625000D02*
X420000D01*
Y-2975000D02*
Y-2625000D01*
X230000Y-2975000D02*
Y-2625000D01*
X325000Y-2850000D02*
Y-2750000D01*
X275000Y-2800000D02*
X375000D01*
X736600Y-1054100D02*
Y-850900D01*
X1168400Y-1054100D02*
Y-850900D01*
X736600Y-1054100D02*
X1168400D01*
X736600Y-850900D02*
X1168400D01*
X902500Y-952500D02*
X1002500D01*
X952500Y-1002500D02*
Y-902500D01*
X-215900Y-1054100D02*
Y-850900D01*
X215900Y-1054100D02*
Y-850900D01*
X-215900Y-1054100D02*
X215900D01*
X-215900Y-850900D02*
X215900D01*
X-50000Y-952500D02*
X50000D01*
X0Y-1002500D02*
Y-902500D01*
X-855011Y-2175008D02*
X-795011D01*
X-825011Y-2205008D02*
Y-2145008D01*
X-775000Y-2275000D02*
Y-2075000D01*
X-875000Y-2275000D02*
Y-2075000D01*
Y-2275000D02*
X-775000D01*
X-875000Y-2075000D02*
X-775000D01*
X-1155011Y-2175008D02*
X-1095012D01*
X-1125011Y-2205008D02*
Y-2145008D01*
X-1075000Y-2275000D02*
Y-2075000D01*
X-1175000Y-2275000D02*
Y-2075000D01*
Y-2275000D02*
X-1075000D01*
X-1175000Y-2075000D02*
X-1075000D01*
X-1474992Y-2555011D02*
Y-2495012D01*
X-1504992Y-2525011D02*
X-1444992D01*
X-1575000Y-2475000D02*
X-1375000D01*
X-1575000Y-2575000D02*
X-1375000D01*
Y-2475000D01*
X-1575000Y-2575000D02*
Y-2475000D01*
X-1474992Y-2655011D02*
Y-2595012D01*
X-1504992Y-2625012D02*
X-1444992D01*
X-1575000Y-2575000D02*
X-1375000D01*
X-1575000Y-2675000D02*
X-1375000D01*
Y-2575000D01*
X-1575000Y-2675000D02*
Y-2575000D01*
X-950000Y-2800000D02*
X-850000D01*
X-900000Y-2850000D02*
Y-2750000D01*
X-625008Y-3329989D02*
Y-3269989D01*
X-655008Y-3299989D02*
X-595008D01*
X-725000Y-3350000D02*
X-525000D01*
X-725000Y-3250000D02*
X-525000D01*
X-725000Y-3350000D02*
Y-3250000D01*
X-525000Y-3350000D02*
Y-3250000D01*
X-1449992Y-3055011D02*
Y-2995012D01*
X-1479992Y-3025011D02*
X-1419992D01*
X-1550000Y-2975000D02*
X-1350000D01*
X-1550000Y-3075000D02*
X-1350000D01*
Y-2975000D01*
X-1550000Y-3075000D02*
Y-2975000D01*
X14287500Y-6717500D02*
Y-6617500D01*
X14237500Y-6667500D02*
X14337500D01*
X14071600Y-6565900D02*
X14503400D01*
X14071600Y-6769100D02*
X14503400D01*
Y-6565900D01*
X14071600Y-6769100D02*
Y-6565900D01*
X-4978400Y-2959100D02*
Y-2755900D01*
X-4546600Y-2959100D02*
Y-2755900D01*
X-4978400Y-2959100D02*
X-4546600D01*
X-4978400Y-2755900D02*
X-4546600D01*
X-4812500Y-2857500D02*
X-4712500D01*
X-4762500Y-2907500D02*
Y-2807500D01*
X-2959100Y215900D02*
X-2755900D01*
X-2959100Y-215900D02*
X-2755900D01*
X-2959100D02*
Y215900D01*
X-2755900Y-215900D02*
Y215900D01*
X-2857500Y-50000D02*
Y50000D01*
X-2907500Y0D02*
X-2807500D01*
X-4864100Y215900D02*
X-4660900D01*
X-4864100Y-215900D02*
X-4660900D01*
X-4864100D02*
Y215900D01*
X-4660900Y-215900D02*
Y215900D01*
X-4762500Y-50000D02*
Y50000D01*
X-4812500Y0D02*
X-4712500D01*
X-8674100Y215900D02*
X-8470900D01*
X-8674100Y-215900D02*
X-8470900D01*
X-8674100D02*
Y215900D01*
X-8470900Y-215900D02*
Y215900D01*
X-8572500Y-50000D02*
Y50000D01*
X-8622500Y0D02*
X-8522500D01*
X-10579100Y215900D02*
X-10375900D01*
X-10579100Y-215900D02*
X-10375900D01*
X-10579100D02*
Y215900D01*
X-10375900Y-215900D02*
Y215900D01*
X-10477500Y-50000D02*
Y50000D01*
X-10527500Y0D02*
X-10427500D01*
X-12951601Y315900D02*
X-12748400D01*
X-12951601Y-115900D02*
X-12748400D01*
X-12951601D02*
Y315900D01*
X-12748400Y-115900D02*
Y315900D01*
X-12850000Y50000D02*
Y150000D01*
X-12900000Y100000D02*
X-12800000D01*
X-6883400Y-2959100D02*
Y-2755900D01*
X-6451600Y-2959100D02*
Y-2755900D01*
X-6883400Y-2959100D02*
X-6451600D01*
X-6883400Y-2755900D02*
X-6451600D01*
X-6717500Y-2857500D02*
X-6617500D01*
X-6667500Y-2907500D02*
Y-2807500D01*
X10375900Y215900D02*
X10579100D01*
X10375900Y-215900D02*
X10579100D01*
X10375900D02*
Y215900D01*
X10579100Y-215900D02*
Y215900D01*
X10477500Y-50000D02*
Y50000D01*
X10427500Y0D02*
X10527500D01*
X8470900Y215900D02*
X8674100D01*
X8470900Y-215900D02*
X8674100D01*
X8470900D02*
Y215900D01*
X8674100Y-215900D02*
Y215900D01*
X8572500Y-50000D02*
Y50000D01*
X8522500Y0D02*
X8622500D01*
X6565900Y215900D02*
X6769100D01*
X6565900Y-215900D02*
X6769100D01*
X6565900D02*
Y215900D01*
X6769100Y-215900D02*
Y215900D01*
X6667500Y-50000D02*
Y50000D01*
X6617500Y0D02*
X6717500D01*
X4660900Y215900D02*
X4864100D01*
X4660900Y-215900D02*
X4864100D01*
X4660900D02*
Y215900D01*
X4864100Y-215900D02*
Y215900D01*
X4762500Y-50000D02*
Y50000D01*
X4712500Y0D02*
X4812500D01*
X-8788400Y-1054100D02*
Y-850900D01*
X-8356600Y-1054100D02*
Y-850900D01*
X-8788400Y-1054100D02*
X-8356600D01*
X-8788400Y-850900D02*
X-8356600D01*
X-8622500Y-952500D02*
X-8522500D01*
X-8572500Y-1002500D02*
Y-902500D01*
X-10693400Y-1054100D02*
Y-850900D01*
X-10261600Y-1054100D02*
Y-850900D01*
X-10693400Y-1054100D02*
X-10261600D01*
X-10693400Y-850900D02*
X-10261600D01*
X-10527500Y-952500D02*
X-10427500D01*
X-10477500Y-1002500D02*
Y-902500D01*
X-13550900Y-1054100D02*
Y-850900D01*
X-13119099Y-1054100D02*
Y-850900D01*
X-13550900Y-1054100D02*
X-13119099D01*
X-13550900Y-850900D02*
X-13119099D01*
X-13385001Y-952500D02*
X-13285001D01*
X-13335001Y-1002500D02*
Y-902500D01*
X14648399Y215900D02*
X14851601D01*
X14648399Y-215900D02*
X14851601D01*
X14648399D02*
Y215900D01*
X14851601Y-215900D02*
Y215900D01*
X14750000Y-50000D02*
Y50000D01*
X14700000Y0D02*
X14800000D01*
X12280900Y215900D02*
X12484100D01*
X12280900Y-215900D02*
X12484100D01*
X12280900D02*
Y215900D01*
X12484100Y-215900D02*
Y215900D01*
X12382500Y-50000D02*
Y50000D01*
X12332500Y0D02*
X12432500D01*
X-2120900Y-1054100D02*
Y-850900D01*
X-1689100Y-1054100D02*
Y-850900D01*
X-2120900Y-1054100D02*
X-1689100D01*
X-2120900Y-850900D02*
X-1689100D01*
X-1955000Y-952500D02*
X-1855000D01*
X-1905000Y-1002500D02*
Y-902500D01*
X-4978400Y-1054100D02*
Y-850900D01*
X-4546600Y-1054100D02*
Y-850900D01*
X-4978400Y-1054100D02*
X-4546600D01*
X-4978400Y-850900D02*
X-4546600D01*
X-4812500Y-952500D02*
X-4712500D01*
X-4762500Y-1002500D02*
Y-902500D01*
X-7835900Y-1054100D02*
Y-850900D01*
X-7404100Y-1054100D02*
Y-850900D01*
X-7835900Y-1054100D02*
X-7404100D01*
X-7835900Y-850900D02*
X-7404100D01*
X-7670000Y-952500D02*
X-7570000D01*
X-7620000Y-1002500D02*
Y-902500D01*
X10261600Y-1054100D02*
Y-850900D01*
X10693400Y-1054100D02*
Y-850900D01*
X10261600Y-1054100D02*
X10693400D01*
X10261600Y-850900D02*
X10693400D01*
X10427500Y-952500D02*
X10527500D01*
X10477500Y-1002500D02*
Y-902500D01*
X8572500Y-1002500D02*
Y-902500D01*
X8522500Y-952500D02*
X8622500D01*
X8356600Y-850900D02*
X8788400D01*
X8356600Y-1054100D02*
X8788400D01*
Y-850900D01*
X8356600Y-1054100D02*
Y-850900D01*
X5499100Y-1054100D02*
Y-850900D01*
X5930900Y-1054100D02*
Y-850900D01*
X5499100Y-1054100D02*
X5930900D01*
X5499100Y-850900D02*
X5930900D01*
X5665000Y-952500D02*
X5765000D01*
X5715000Y-1002500D02*
Y-902500D01*
X4546600Y-1054100D02*
Y-850900D01*
X4978400Y-1054100D02*
Y-850900D01*
X4546600Y-1054100D02*
X4978400D01*
X4546600Y-850900D02*
X4978400D01*
X4712500Y-952500D02*
X4812500D01*
X4762500Y-1002500D02*
Y-902500D01*
X1689100Y-1054100D02*
Y-850900D01*
X2120900Y-1054100D02*
Y-850900D01*
X1689100Y-1054100D02*
X2120900D01*
X1689100Y-850900D02*
X2120900D01*
X1855000Y-952500D02*
X1955000D01*
X1905000Y-1002500D02*
Y-902500D01*
X-8788400Y-2959100D02*
Y-2755900D01*
X-8356600Y-2959100D02*
Y-2755900D01*
X-8788400Y-2959100D02*
X-8356600D01*
X-8788400Y-2755900D02*
X-8356600D01*
X-8622500Y-2857500D02*
X-8522500D01*
X-8572500Y-2907500D02*
Y-2807500D01*
X-10693400Y-2959100D02*
Y-2755900D01*
X-10261600Y-2959100D02*
Y-2755900D01*
X-10693400Y-2959100D02*
X-10261600D01*
X-10693400Y-2755900D02*
X-10261600D01*
X-10527500Y-2857500D02*
X-10427500D01*
X-10477500Y-2907500D02*
Y-2807500D01*
X-13550900Y-2959100D02*
Y-2755900D01*
X-13119099Y-2959100D02*
Y-2755900D01*
X-13550900Y-2959100D02*
X-13119099D01*
X-13550900Y-2755900D02*
X-13119099D01*
X-13385001Y-2857500D02*
X-13285001D01*
X-13335001Y-2907500D02*
Y-2807500D01*
X14071600Y-1054100D02*
Y-850900D01*
X14503400Y-1054100D02*
Y-850900D01*
X14071600Y-1054100D02*
X14503400D01*
X14071600Y-850900D02*
X14503400D01*
X14237500Y-952500D02*
X14337500D01*
X14287500Y-1002500D02*
Y-902500D01*
X11214100Y-1054100D02*
Y-850900D01*
X11645900Y-1054100D02*
Y-850900D01*
X11214100Y-1054100D02*
X11645900D01*
X11214100Y-850900D02*
X11645900D01*
X11380000Y-952500D02*
X11480000D01*
X11430000Y-1002500D02*
Y-902500D01*
X8470900Y-6883400D02*
X8674100D01*
X8470900Y-6451600D02*
X8674100D01*
Y-6883400D02*
Y-6451600D01*
X8470900Y-6883400D02*
Y-6451600D01*
X8572500Y-6717500D02*
Y-6617500D01*
X8522500Y-6667500D02*
X8622500D01*
X4546600Y-6769100D02*
Y-6565900D01*
X4978400Y-6769100D02*
Y-6565900D01*
X4546600Y-6769100D02*
X4978400D01*
X4546600Y-6565900D02*
X4978400D01*
X4712500Y-6667500D02*
X4812500D01*
X4762500Y-6717500D02*
Y-6617500D01*
X1689100Y-6769100D02*
Y-6565900D01*
X2120900Y-6769100D02*
Y-6565900D01*
X1689100Y-6769100D02*
X2120900D01*
X1689100Y-6565900D02*
X2120900D01*
X1855000Y-6667500D02*
X1955000D01*
X1905000Y-6717500D02*
Y-6617500D01*
X736600Y-6769100D02*
Y-6565900D01*
X1168400Y-6769100D02*
Y-6565900D01*
X736600Y-6769100D02*
X1168400D01*
X736600Y-6565900D02*
X1168400D01*
X902500Y-6667500D02*
X1002500D01*
X952500Y-6717500D02*
Y-6617500D01*
X-1168400Y-6769100D02*
Y-6565900D01*
X-736600Y-6769100D02*
Y-6565900D01*
X-1168400Y-6769100D02*
X-736600D01*
X-1168400Y-6565900D02*
X-736600D01*
X-1002500Y-6667500D02*
X-902500D01*
X-952500Y-6717500D02*
Y-6617500D01*
X-4978400Y-6769100D02*
Y-6565900D01*
X-4546600Y-6769100D02*
Y-6565900D01*
X-4978400Y-6769100D02*
X-4546600D01*
X-4978400Y-6565900D02*
X-4546600D01*
X-4812500Y-6667500D02*
X-4712500D01*
X-4762500Y-6717500D02*
Y-6617500D01*
X-7620000Y-6717500D02*
Y-6617500D01*
X-7670000Y-6667500D02*
X-7570000D01*
X-7835900Y-6565900D02*
X-7404100D01*
X-7835900Y-6769100D02*
X-7404100D01*
Y-6565900D01*
X-7835900Y-6769100D02*
Y-6565900D01*
X-10693400Y-6769100D02*
Y-6565900D01*
X-10261600Y-6769100D02*
Y-6565900D01*
X-10693400Y-6769100D02*
X-10261600D01*
X-10693400Y-6565900D02*
X-10261600D01*
X-10527500Y-6667500D02*
X-10427500D01*
X-10477500Y-6717500D02*
Y-6617500D01*
X-13550900Y-6769100D02*
Y-6565900D01*
X-13119099Y-6769100D02*
Y-6565900D01*
X-13550900Y-6769100D02*
X-13119099D01*
X-13550900Y-6565900D02*
X-13119099D01*
X-13385001Y-6667500D02*
X-13285001D01*
X-13335001Y-6717500D02*
Y-6617500D01*
X14071600Y-4864100D02*
Y-4660900D01*
X14503400Y-4864100D02*
Y-4660900D01*
X14071600Y-4864100D02*
X14503400D01*
X14071600Y-4660900D02*
X14503400D01*
X14237500Y-4762500D02*
X14337500D01*
X14287500Y-4812500D02*
Y-4712500D01*
X12166600Y-4864100D02*
Y-4660900D01*
X12598400Y-4864100D02*
Y-4660900D01*
X12166600Y-4864100D02*
X12598400D01*
X12166600Y-4660900D02*
X12598400D01*
X12332500Y-4762500D02*
X12432500D01*
X12382500Y-4812500D02*
Y-4712500D01*
X10261600Y-4864100D02*
Y-4660900D01*
X10693400Y-4864100D02*
Y-4660900D01*
X10261600Y-4864100D02*
X10693400D01*
X10261600Y-4660900D02*
X10693400D01*
X10427500Y-4762500D02*
X10527500D01*
X10477500Y-4812500D02*
Y-4712500D01*
X-3073400Y-4864100D02*
Y-4660900D01*
X-2641600Y-4864100D02*
Y-4660900D01*
X-3073400Y-4864100D02*
X-2641600D01*
X-3073400Y-4660900D02*
X-2641600D01*
X-2907500Y-4762500D02*
X-2807500D01*
X-2857500Y-4812500D02*
Y-4712500D01*
X-13550900Y-4864100D02*
Y-4660900D01*
X-13119099Y-4864100D02*
Y-4660900D01*
X-13550900Y-4864100D02*
X-13119099D01*
X-13550900Y-4660900D02*
X-13119099D01*
X-13385001Y-4762500D02*
X-13285001D01*
X-13335001Y-4812500D02*
Y-4712500D01*
X14071600Y-2959100D02*
Y-2755900D01*
X14503400Y-2959100D02*
Y-2755900D01*
X14071600Y-2959100D02*
X14503400D01*
X14071600Y-2755900D02*
X14503400D01*
X14237500Y-2857500D02*
X14337500D01*
X14287500Y-2907500D02*
Y-2807500D01*
X12166600Y-2959100D02*
Y-2755900D01*
X12598400Y-2959100D02*
Y-2755900D01*
X12166600Y-2959100D02*
X12598400D01*
X12166600Y-2755900D02*
X12598400D01*
X12332500Y-2857500D02*
X12432500D01*
X12382500Y-2907500D02*
Y-2807500D01*
X10261600Y-2959100D02*
Y-2755900D01*
X10693400Y-2959100D02*
Y-2755900D01*
X10261600Y-2959100D02*
X10693400D01*
X10261600Y-2755900D02*
X10693400D01*
X10427500Y-2857500D02*
X10527500D01*
X10477500Y-2907500D02*
Y-2807500D01*
X8356600Y-2959100D02*
Y-2755900D01*
X8788400Y-2959100D02*
Y-2755900D01*
X8356600Y-2959100D02*
X8788400D01*
X8356600Y-2755900D02*
X8788400D01*
X8522500Y-2857500D02*
X8622500D01*
X8572500Y-2907500D02*
Y-2807500D01*
X6451600Y-2959100D02*
Y-2755900D01*
X6883400Y-2959100D02*
Y-2755900D01*
X6451600Y-2959100D02*
X6883400D01*
X6451600Y-2755900D02*
X6883400D01*
X6617500Y-2857500D02*
X6717500D01*
X6667500Y-2907500D02*
Y-2807500D01*
X4546600Y-2959100D02*
Y-2755900D01*
X4978400Y-2959100D02*
Y-2755900D01*
X4546600Y-2959100D02*
X4978400D01*
X4546600Y-2755900D02*
X4978400D01*
X4712500Y-2857500D02*
X4812500D01*
X4762500Y-2907500D02*
Y-2807500D01*
X2641600Y-2959100D02*
Y-2755900D01*
X3073400Y-2959100D02*
Y-2755900D01*
X2641600Y-2959100D02*
X3073400D01*
X2641600Y-2755900D02*
X3073400D01*
X2807500Y-2857500D02*
X2907500D01*
X2857500Y-2907500D02*
Y-2807500D01*
X-9475000Y-7100000D02*
Y-7000000D01*
X-9675000Y-7100000D02*
Y-7000000D01*
X-9475000D01*
X-9675000Y-7100000D02*
X-9475000D01*
X-9605008Y-7049989D02*
X-9545008D01*
X-9575008Y-7079989D02*
Y-7019989D01*
X-325000Y-2550000D02*
X-225000D01*
X-325000Y-2750000D02*
X-225000D01*
X-325000D02*
Y-2550000D01*
X-225000Y-2750000D02*
Y-2550000D01*
X-275011Y-2680008D02*
Y-2620008D01*
X-305011Y-2650008D02*
X-245011D01*
X-304988Y-2849992D02*
X-244989D01*
X-274989Y-2879992D02*
Y-2819992D01*
X-325000Y-2950000D02*
Y-2750000D01*
X-225000Y-2950000D02*
Y-2750000D01*
X-325000D02*
X-225000D01*
X-325000Y-2950000D02*
X-225000D01*
X2849992Y-579988D02*
Y-519989D01*
X2819992Y-549988D02*
X2879992D01*
X2750000Y-600000D02*
X2950000D01*
X2750000Y-500000D02*
X2950000D01*
X2750000Y-600000D02*
Y-500000D01*
X2950000Y-600000D02*
Y-500000D01*
X12299992Y-1404989D02*
Y-1344989D01*
X12269992Y-1374989D02*
X12329992D01*
X12200000Y-1425000D02*
X12400000D01*
X12200000Y-1325000D02*
X12400000D01*
X12200000Y-1425000D02*
Y-1325000D01*
X12400000Y-1425000D02*
Y-1325000D01*
X12149992Y-4229988D02*
Y-4169989D01*
X12119992Y-4199989D02*
X12179992D01*
X12050000Y-4250000D02*
X12250000D01*
X12050000Y-4150000D02*
X12250000D01*
X12050000Y-4250000D02*
Y-4150000D01*
X12250000Y-4250000D02*
Y-4150000D01*
X12374992Y-7079989D02*
Y-7019989D01*
X12344992Y-7049989D02*
X12404992D01*
X12275000Y-7100000D02*
X12475000D01*
X12275000Y-7000000D02*
X12475000D01*
X12275000Y-7100000D02*
Y-7000000D01*
X12475000Y-7100000D02*
Y-7000000D01*
X9499992Y-7079989D02*
Y-7019989D01*
X9469992Y-7049989D02*
X9529992D01*
X9400000Y-7100000D02*
X9600000D01*
X9400000Y-7000000D02*
X9600000D01*
X9400000Y-7100000D02*
Y-7000000D01*
X9600000Y-7100000D02*
Y-7000000D01*
X2849992Y-7079989D02*
Y-7019989D01*
X2819992Y-7049989D02*
X2879992D01*
X2750000Y-7100000D02*
X2950000D01*
X2750000Y-7000000D02*
X2950000D01*
X2750000Y-7100000D02*
Y-7000000D01*
X2950000Y-7100000D02*
Y-7000000D01*
X-2875008Y-7079989D02*
Y-7019989D01*
X-2905008Y-7049989D02*
X-2845008D01*
X-2975000Y-7100000D02*
X-2775000D01*
X-2975000Y-7000000D02*
X-2775000D01*
X-2975000Y-7100000D02*
Y-7000000D01*
X-2775000Y-7100000D02*
Y-7000000D01*
X6549992Y-7079989D02*
Y-7019989D01*
X6519992Y-7049989D02*
X6579992D01*
X6450000Y-7100000D02*
X6650000D01*
X6450000Y-7000000D02*
X6650000D01*
X6450000Y-7100000D02*
Y-7000000D01*
X6650000Y-7100000D02*
Y-7000000D01*
X-6975008Y-7079989D02*
Y-7019989D01*
X-7005008Y-7049989D02*
X-6945008D01*
X-7075000Y-7100000D02*
X-6875000D01*
X-7075000Y-7000000D02*
X-6875000D01*
X-7075000Y-7100000D02*
Y-7000000D01*
X-6875000Y-7100000D02*
Y-7000000D01*
X-12375008Y-7104989D02*
Y-7044989D01*
X-12405008Y-7074989D02*
X-12345008D01*
X-12475000Y-7125000D02*
X-12275000D01*
X-12475000Y-7025000D02*
X-12275000D01*
X-12475000Y-7125000D02*
Y-7025000D01*
X-12275000Y-7125000D02*
Y-7025000D01*
X-9525008Y-604989D02*
Y-544989D01*
X-9555008Y-574989D02*
X-9495008D01*
X-9625000Y-625000D02*
X-9425000D01*
X-9625000Y-525000D02*
X-9425000D01*
X-9625000Y-625000D02*
Y-525000D01*
X-9425000Y-625000D02*
Y-525000D01*
X-12700008Y-1379989D02*
Y-1319989D01*
X-12730008Y-1349989D02*
X-12670008D01*
X-12800000Y-1400000D02*
X-12600000D01*
X-12800000Y-1300000D02*
X-12600000D01*
X-12800000Y-1400000D02*
Y-1300000D01*
X-12600000Y-1400000D02*
Y-1300000D01*
X-12800008Y-4229988D02*
Y-4169989D01*
X-12830008Y-4199989D02*
X-12770008D01*
X-12900000Y-4250000D02*
X-12700000D01*
X-12900000Y-4150000D02*
X-12700000D01*
X-12900000Y-4250000D02*
Y-4150000D01*
X-12700000Y-4250000D02*
Y-4150000D01*
D79*
X2306000Y-5335000D02*
X3894000D01*
Y-4380000D01*
X2306000D02*
X3894000D01*
X2306000Y-5335000D02*
Y-4380000D01*
X3050000Y-4850000D02*
X3150000D01*
X3100000Y-4900000D02*
Y-4800000D01*
X-100000Y-2750000D02*
X-0D01*
X-50000Y-2800000D02*
Y-2700000D01*
X-207500Y-2950000D02*
Y-2550000D01*
Y-2950000D02*
X107500D01*
Y-2550000D01*
X-207500D02*
X107500D01*
X450000Y-2450000D02*
X550000D01*
X500000Y-2500000D02*
Y-2400000D01*
X255000Y-2615000D02*
X745000D01*
Y-2285000D01*
X255000D02*
X745000D01*
X255000Y-2615000D02*
Y-2285000D01*
X-450000Y-3250000D02*
Y-2350000D01*
X-1331800Y-3250000D02*
Y-2350000D01*
Y-3250000D02*
X-450000D01*
X-1331800Y-2350000D02*
X-450000D01*
%TF.MD5,1aec99327b86f8e4a09568b1ceda0beb*%
M02*
