%TF.GenerationSoftware,Altium Limited,Altium Designer,20.2.6 (244)*%
G04 Layer_Color=32768*
%FSLAX45Y45*%
%MOMM*%
%TF.SameCoordinates,5881816B-C68B-4CD5-A74A-5D75E061FB32*%
%TF.FilePolarity,Positive*%
%TF.FileFunction,Other,Mechanical_11*%
%TF.Part,Single*%
G01*
G75*
%TA.AperFunction,NonConductor*%
%ADD47C,0.10000*%
%ADD77C,0.12000*%
D47*
X60000Y-2625000D02*
G03*
X60000Y-2625000I-20000J0D01*
G01*
X-185000Y-2580000D02*
X85000D01*
Y-2920000D02*
Y-2580000D01*
X-185000Y-2920000D02*
X85000D01*
X-185000D02*
Y-2580000D01*
X325000Y-2595000D02*
X675000D01*
Y-2305000D01*
X325000D02*
X675000D01*
X325000Y-2595000D02*
Y-2305000D01*
X-102468Y-2635001D02*
X-85807D01*
X-52484Y-2668323D01*
X-85807Y-2701646D01*
X-102468D01*
X-52484Y-2668323D02*
X-2500D01*
Y-2734968D02*
Y-2768291D01*
Y-2751630D01*
X-102468D01*
X-85807Y-2734968D01*
D77*
X439974Y-2489968D02*
X419981Y-2509961D01*
X379994D01*
X360000Y-2489968D01*
Y-2469974D01*
X379994Y-2449981D01*
X419981D01*
X439974Y-2429987D01*
Y-2409994D01*
X419981Y-2390000D01*
X379994D01*
X360000Y-2409994D01*
X479961Y-2509961D02*
X559935D01*
Y-2489968D01*
X479961Y-2409994D01*
Y-2390000D01*
X679897D02*
X599922D01*
X679897Y-2469974D01*
Y-2489968D01*
X659903Y-2509961D01*
X619916D01*
X599922Y-2489968D01*
%TF.MD5,297bc38b4b4b4e3d7af08c9a79ba6c12*%
M02*
