G04*
G04 #@! TF.GenerationSoftware,Altium Limited,Altium Designer,21.0.9 (235)*
G04*
G04 Layer_Color=2441676*
%FSLAX44Y44*%
%MOMM*%
G71*
G04*
G04 #@! TF.SameCoordinates,F6D2CE4B-E6D3-410A-ABB6-A428521ED5E6*
G04*
G04*
G04 #@! TF.FilePolarity,Positive*
G04*
G01*
G75*
%ADD10C,0.1000*%
%ADD11C,0.2000*%
%ADD12C,0.1524*%
D10*
X1599999Y139002D02*
G03*
X1519999Y219002I-80000J0D01*
G01*
X1169999D02*
G03*
X1149999Y199002I0J-20000D01*
G01*
X1416999Y144002D02*
G03*
X1416999Y144002I-17000J0D01*
G01*
X1519999Y-980998D02*
G03*
X1599999Y-900999I0J80000D01*
G01*
X-1050001Y-930999D02*
G03*
X-1150001Y-930999I-50000J0D01*
G01*
X16999Y-905999D02*
G03*
X16999Y-905999I-17000J0D01*
G01*
X299999Y219002D02*
G03*
X259999Y179002I0J-40000D01*
G01*
X-1150001Y169002D02*
G03*
X-1050001Y169002I50000J0D01*
G01*
X219999Y94002D02*
G03*
X259999Y134002I0J40000D01*
G01*
X1049999Y169002D02*
G03*
X1149999Y169002I50000J0D01*
G01*
X-1150001Y199002D02*
G03*
X-1170001Y219002I-20000J0D01*
G01*
X-260001Y134002D02*
G03*
X-220001Y94002I40000J0D01*
G01*
X1029999Y-980999D02*
G03*
X1049999Y-960999I0J20000D01*
G01*
X1149999Y-930999D02*
G03*
X1049999Y-930999I-50000J0D01*
G01*
X-260001Y179002D02*
G03*
X-300001Y219002I-40000J0D01*
G01*
X1149999Y-960999D02*
G03*
X1169999Y-980999I20000J0D01*
G01*
X1049999Y199002D02*
G03*
X1029999Y219002I-20000J0D01*
G01*
X-1520001D02*
G03*
X-1600001Y139002I0J-80000D01*
G01*
Y-900999D02*
G03*
X-1520001Y-980998I80000J0D01*
G01*
X-1170001Y-980999D02*
G03*
X-1150001Y-960999I0J20000D01*
G01*
X-1050001D02*
G03*
X-1030001Y-980999I20000J0D01*
G01*
X-1383001Y-905999D02*
G03*
X-1383001Y-905999I-17000J0D01*
G01*
X-1030001Y219002D02*
G03*
X-1050001Y199002I0J-20000D01*
G01*
Y-960999D02*
G03*
X-1030001Y-980999I20000J0D01*
G01*
X-1600001Y-900999D02*
G03*
X-1520001Y-980998I80000J0D01*
G01*
X-1170001Y-980999D02*
G03*
X-1150001Y-960999I0J20000D01*
G01*
X-1383001Y-905999D02*
G03*
X-1383001Y-905999I-17000J0D01*
G01*
X-1520001Y219002D02*
G03*
X-1600001Y139002I0J-80000D01*
G01*
X-1030001Y219002D02*
G03*
X-1050001Y199002I0J-20000D01*
G01*
X-1150001D02*
G03*
X-1170001Y219002I-20000J0D01*
G01*
X-260001Y134002D02*
G03*
X-220001Y94002I40000J0D01*
G01*
X-260001Y179002D02*
G03*
X-300001Y219002I-40000J0D01*
G01*
X-1150001Y169002D02*
G03*
X-1050001Y169002I50000J0D01*
G01*
Y-930999D02*
G03*
X-1150001Y-930999I-50000J0D01*
G01*
X219999Y94002D02*
G03*
X259999Y134002I0J40000D01*
G01*
X1049999Y199002D02*
G03*
X1029999Y219002I-20000J0D01*
G01*
Y-980999D02*
G03*
X1049999Y-960999I0J20000D01*
G01*
X16999Y-905999D02*
G03*
X16999Y-905999I-17000J0D01*
G01*
X299999Y219002D02*
G03*
X259999Y179002I0J-40000D01*
G01*
X1049999Y169002D02*
G03*
X1149999Y169002I50000J0D01*
G01*
X1169999Y219002D02*
G03*
X1149999Y199002I0J-20000D01*
G01*
X1416999Y144002D02*
G03*
X1416999Y144002I-17000J0D01*
G01*
X1149999Y-930999D02*
G03*
X1049999Y-930999I-50000J0D01*
G01*
X1149999Y-960999D02*
G03*
X1169999Y-980999I20000J0D01*
G01*
X1519999Y-980998D02*
G03*
X1599999Y-900999I0J80000D01*
G01*
Y139002D02*
G03*
X1519999Y219002I-80000J0D01*
G01*
X-1383001Y144002D02*
G03*
X-1383001Y144002I-17000J0D01*
G01*
D02*
G03*
X-1383001Y144002I-17000J0D01*
G01*
X1416999Y-905999D02*
G03*
X1416999Y-905999I-17000J0D01*
G01*
D02*
G03*
X1416999Y-905999I-17000J0D01*
G01*
X1399999Y144002D02*
X1424999D01*
X-1600001Y-900999D02*
Y139002D01*
X-1030001Y-980998D02*
X1029999D01*
X1169999Y219002D02*
X1519999D01*
X-25001Y-905999D02*
X-1D01*
X24999D01*
X1399999Y119002D02*
Y144002D01*
X-1050001Y169002D02*
Y199002D01*
X-220001Y94002D02*
X219999D01*
X-1Y-930999D02*
Y-905999D01*
X1357999Y144002D02*
X1374999D01*
X-1150001Y169002D02*
Y199002D01*
X-1520001Y219002D02*
X-1170001D01*
X24999Y-905999D02*
X41999D01*
X-1030001Y-980998D02*
X1029999D01*
X1049999Y169002D02*
Y199002D01*
X-1400001Y-947999D02*
Y-930999D01*
X-1Y-905999D02*
X24999D01*
X1169999Y-980998D02*
X1519999D01*
X1374999Y144002D02*
X1399999D01*
X-1400001Y-905999D02*
X-1375001D01*
X-1400001Y-880999D02*
Y-863998D01*
X-1425001Y-905999D02*
X-1400001D01*
X1049999Y-960999D02*
Y-930999D01*
X1169999Y-980998D02*
X1519999D01*
X1399999Y169002D02*
Y186001D01*
X-1Y-905999D02*
Y-880999D01*
X-1442001Y-905999D02*
X-1425001D01*
X1149999Y169002D02*
Y199002D01*
X1424999Y144002D02*
X1441999D01*
X-1400001Y-905999D02*
Y-880999D01*
X-260001Y134002D02*
Y179002D01*
X299999Y219002D02*
X1029999D01*
X1149999Y-960999D02*
Y-930999D01*
X-1400001D02*
Y-905999D01*
X259999Y134002D02*
Y179002D01*
X-42001Y-905999D02*
X-25001D01*
X1374999Y144002D02*
X1399999D01*
X-1Y-947999D02*
Y-930999D01*
X299999Y219002D02*
X1029999D01*
X1169999D02*
X1519999D01*
X1399999Y144002D02*
X1424999D01*
X1399999D02*
Y169002D01*
X-1030001Y219002D02*
X-300001D01*
X1399999Y169002D02*
Y186001D01*
X-1600001Y-900999D02*
Y139002D01*
X-1442001Y-905999D02*
X-1425001D01*
X1399999Y102001D02*
Y119002D01*
X1049999Y-960999D02*
Y-930999D01*
X-1150001Y169002D02*
Y199002D01*
X-1050001Y-960999D02*
Y-930999D01*
X-1030001Y219002D02*
X-300001D01*
X-1Y-947999D02*
Y-930999D01*
X-1400001Y-905999D02*
Y-880999D01*
X-25001Y-905999D02*
X-1D01*
X-1520001Y-980998D02*
X-1170001D01*
X1399999Y119002D02*
Y144002D01*
X-1Y-880999D02*
Y-863998D01*
X-1150001Y-960999D02*
Y-930999D01*
X259999Y134002D02*
Y179002D01*
X1149999Y169002D02*
Y199002D01*
X1599999Y-900999D02*
Y139002D01*
X-1400001Y-905999D02*
X-1375001D01*
X24999D02*
X41999D01*
X-1D02*
Y-880999D01*
X-1425001Y-905999D02*
X-1400001D01*
X1049999Y169002D02*
Y199002D01*
X-1375001Y-905999D02*
X-1358001D01*
X-1400001Y-880999D02*
Y-863998D01*
X1149999Y-960999D02*
Y-930999D01*
X-1400001D02*
Y-905999D01*
X1357999Y144002D02*
X1374999D01*
X-1050001Y169002D02*
Y199002D01*
X-42001Y-905999D02*
X-25001D01*
X-260001Y134002D02*
Y179002D01*
X1424999Y144002D02*
X1441999D01*
X1399999D02*
Y169002D01*
X-1Y-930999D02*
Y-905999D01*
X-1520001Y219002D02*
X-1170001D01*
X-1400001Y-947999D02*
Y-930999D01*
X-1375001Y-905999D02*
X-1358001D01*
X-1050001Y-960999D02*
Y-930999D01*
X-1150001Y-960999D02*
Y-930999D01*
X-1520001Y-980998D02*
X-1170001D01*
X-1400001Y144002D02*
X-1375001D01*
X-1358001D01*
X-1375001D02*
X-1358001D01*
X-1400001D02*
X-1375001D01*
X-1400001Y119002D02*
Y144002D01*
X-1442001D02*
X-1425001D01*
X-1442001D02*
X-1425001D01*
X-1400001Y102001D02*
Y119002D01*
X-1425001Y144002D02*
X-1400001D01*
X-1425001D02*
X-1400001D01*
Y169002D02*
Y186001D01*
Y102001D02*
Y119002D01*
Y144002D01*
Y169002D01*
Y186001D01*
Y144002D02*
Y169002D01*
X1399999Y-930999D02*
Y-905999D01*
X1374999D02*
X1399999D01*
X1357999D02*
X1374999D01*
X1399999D02*
X1424999D01*
X1441999D01*
X1399999Y-880999D02*
Y-863998D01*
Y-880999D02*
Y-863998D01*
Y-905999D02*
Y-880999D01*
Y-905999D02*
Y-880999D01*
Y-930999D02*
Y-905999D01*
Y-947999D02*
Y-930999D01*
X1374999Y-905999D02*
X1399999D01*
X1357999D02*
X1374999D01*
X1424999D02*
X1441999D01*
X1399999D02*
X1424999D01*
X1399999Y-947999D02*
Y-930999D01*
D11*
X501500Y-641500D02*
Y-501500D01*
X641500Y-641500D02*
Y-501500D01*
X501500D02*
X641500D01*
X501500Y-641500D02*
X641500D01*
X70000Y-70000D02*
Y70000D01*
X-70000Y-70000D02*
Y70000D01*
Y-70000D02*
X70000D01*
X-70000Y70000D02*
X70000D01*
X1073000Y-70000D02*
X1213000D01*
X1073000Y70000D02*
X1213000D01*
Y-70000D02*
Y70000D01*
X1073000Y-70000D02*
Y70000D01*
Y-260500D02*
Y-120500D01*
X1213000Y-260500D02*
Y-120500D01*
X1073000D02*
X1213000D01*
X1073000Y-260500D02*
X1213000D01*
X-1451125Y-451000D02*
X-1311125D01*
X-1451125Y-311000D02*
X-1311125D01*
Y-451000D02*
Y-311000D01*
X-1451125Y-451000D02*
Y-311000D01*
X1073000Y-451000D02*
X1213000D01*
X1073000Y-311000D02*
X1213000D01*
Y-451000D02*
Y-311000D01*
X1073000Y-451000D02*
Y-311000D01*
X1311125Y-451000D02*
Y-311000D01*
X1451125Y-451000D02*
Y-311000D01*
X1311125D02*
X1451125D01*
X1311125Y-451000D02*
X1451125D01*
X120500Y-832000D02*
X260500D01*
X120500Y-692000D02*
X260500D01*
Y-832000D02*
Y-692000D01*
X120500Y-832000D02*
Y-692000D01*
X1311125Y-832000D02*
X1451125D01*
X1311125Y-692000D02*
X1451125D01*
Y-832000D02*
Y-692000D01*
X1311125Y-832000D02*
Y-692000D01*
Y-260500D02*
X1451125D01*
X1311125Y-120500D02*
X1451125D01*
Y-260500D02*
Y-120500D01*
X1311125Y-260500D02*
Y-120500D01*
X-1213000Y-70000D02*
X-1073000D01*
X-1213000Y70000D02*
X-1073000D01*
Y-70000D02*
Y70000D01*
X-1213000Y-70000D02*
Y70000D01*
X-1022500Y-70000D02*
Y70000D01*
X-882500Y-70000D02*
Y70000D01*
X-1022500D02*
X-882500D01*
X-1022500Y-70000D02*
X-882500D01*
X-832000D02*
X-692000D01*
X-832000Y70000D02*
X-692000D01*
Y-70000D02*
Y70000D01*
X-832000Y-70000D02*
Y70000D01*
X-641500Y-70000D02*
Y70000D01*
X-501500Y-70000D02*
Y70000D01*
X-641500D02*
X-501500D01*
X-641500Y-70000D02*
X-501500D01*
X-451000D02*
X-311000D01*
X-451000Y70000D02*
X-311000D01*
Y-70000D02*
Y70000D01*
X-451000Y-70000D02*
Y70000D01*
X-260500Y-70000D02*
Y70000D01*
X-120500Y-70000D02*
Y70000D01*
X-260500D02*
X-120500D01*
X-260500Y-70000D02*
X-120500D01*
X120500D02*
X260500D01*
X120500Y70000D02*
X260500D01*
Y-70000D02*
Y70000D01*
X120500Y-70000D02*
Y70000D01*
X311000Y-70000D02*
Y70000D01*
X451000Y-70000D02*
Y70000D01*
X311000D02*
X451000D01*
X311000Y-70000D02*
X451000D01*
X501500D02*
X641500D01*
X501500Y70000D02*
X641500D01*
Y-70000D02*
Y70000D01*
X501500Y-70000D02*
Y70000D01*
X692000Y-70000D02*
Y70000D01*
X832000Y-70000D02*
Y70000D01*
X692000D02*
X832000D01*
X692000Y-70000D02*
X832000D01*
X882500D02*
X1022500D01*
X882500Y70000D02*
X1022500D01*
Y-70000D02*
Y70000D01*
X882500Y-70000D02*
Y70000D01*
X1025375Y-832000D02*
Y-692000D01*
X1165375Y-832000D02*
Y-692000D01*
X1025375D02*
X1165375D01*
X1025375Y-832000D02*
X1165375D01*
X739625D02*
Y-692000D01*
X879625Y-832000D02*
Y-692000D01*
X739625D02*
X879625D01*
X739625Y-832000D02*
X879625D01*
X-70000D02*
Y-692000D01*
X70000Y-832000D02*
Y-692000D01*
X-70000D02*
X70000D01*
X-70000Y-832000D02*
X70000D01*
X-260500D02*
Y-692000D01*
X-120500Y-832000D02*
Y-692000D01*
X-260500D02*
X-120500D01*
X-260500Y-832000D02*
X-120500D01*
X-879625D02*
Y-692000D01*
X-739625Y-832000D02*
Y-692000D01*
X-879625D02*
X-739625D01*
X-879625Y-832000D02*
X-739625D01*
X-1165375D02*
Y-692000D01*
X-1025375Y-832000D02*
Y-692000D01*
X-1165375D02*
X-1025375D01*
X-1165375Y-832000D02*
X-1025375D01*
X-1451125D02*
Y-692000D01*
X-1311125Y-832000D02*
Y-692000D01*
X-1451125D02*
X-1311125D01*
X-1451125Y-832000D02*
X-1311125D01*
X-1451125Y-641500D02*
Y-501500D01*
X-1311125Y-641500D02*
Y-501500D01*
X-1451125D02*
X-1311125D01*
X-1451125Y-641500D02*
X-1311125D01*
X-1213000D02*
Y-501500D01*
X-1073000Y-641500D02*
Y-501500D01*
X-1213000D02*
X-1073000D01*
X-1213000Y-641500D02*
X-1073000D01*
X-1022500D02*
Y-501500D01*
X-882500Y-641500D02*
Y-501500D01*
X-1022500D02*
X-882500D01*
X-1022500Y-641500D02*
X-882500D01*
X-832000D02*
Y-501500D01*
X-692000Y-641500D02*
Y-501500D01*
X-832000D02*
X-692000D01*
X-832000Y-641500D02*
X-692000D01*
X-641500D02*
Y-501500D01*
X-501500Y-641500D02*
Y-501500D01*
X-641500D02*
X-501500D01*
X-641500Y-641500D02*
X-501500D01*
X-451000D02*
Y-501500D01*
X-311000Y-641500D02*
Y-501500D01*
X-451000D02*
X-311000D01*
X-451000Y-641500D02*
X-311000D01*
X-260500D02*
Y-501500D01*
X-120500Y-641500D02*
Y-501500D01*
X-260500D02*
X-120500D01*
X-260500Y-641500D02*
X-120500D01*
X-70000D02*
Y-501500D01*
X70000Y-641500D02*
Y-501500D01*
X-70000D02*
X70000D01*
X-70000Y-641500D02*
X70000D01*
X120500D02*
Y-501500D01*
X260500Y-641500D02*
Y-501500D01*
X120500D02*
X260500D01*
X120500Y-641500D02*
X260500D01*
X311000D02*
Y-501500D01*
X451000Y-641500D02*
Y-501500D01*
X311000D02*
X451000D01*
X311000Y-641500D02*
X451000D01*
X692000D02*
Y-501500D01*
X832000Y-641500D02*
Y-501500D01*
X692000D02*
X832000D01*
X692000Y-641500D02*
X832000D01*
X882500D02*
Y-501500D01*
X1022500Y-641500D02*
Y-501500D01*
X882500D02*
X1022500D01*
X882500Y-641500D02*
X1022500D01*
X1073000D02*
Y-501500D01*
X1213000Y-641500D02*
Y-501500D01*
X1073000D02*
X1213000D01*
X1073000Y-641500D02*
X1213000D01*
X1311125D02*
Y-501500D01*
X1451125Y-641500D02*
Y-501500D01*
X1311125D02*
X1451125D01*
X1311125Y-641500D02*
X1451125D01*
X882500Y-451000D02*
Y-311000D01*
X1022500Y-451000D02*
Y-311000D01*
X882500D02*
X1022500D01*
X882500Y-451000D02*
X1022500D01*
X692000D02*
Y-311000D01*
X832000Y-451000D02*
Y-311000D01*
X692000D02*
X832000D01*
X692000Y-451000D02*
X832000D01*
X501500D02*
Y-311000D01*
X641500Y-451000D02*
Y-311000D01*
X501500D02*
X641500D01*
X501500Y-451000D02*
X641500D01*
X311000D02*
Y-311000D01*
X451000Y-451000D02*
Y-311000D01*
X311000D02*
X451000D01*
X311000Y-451000D02*
X451000D01*
X120500D02*
Y-311000D01*
X260500Y-451000D02*
Y-311000D01*
X120500D02*
X260500D01*
X120500Y-451000D02*
X260500D01*
X-70000D02*
Y-311000D01*
X70000Y-451000D02*
Y-311000D01*
X-70000D02*
X70000D01*
X-70000Y-451000D02*
X70000D01*
X-260500D02*
Y-311000D01*
X-120500Y-451000D02*
Y-311000D01*
X-260500D02*
X-120500D01*
X-260500Y-451000D02*
X-120500D01*
X-451000D02*
Y-311000D01*
X-311000Y-451000D02*
Y-311000D01*
X-451000D02*
X-311000D01*
X-451000Y-451000D02*
X-311000D01*
X-641500D02*
Y-311000D01*
X-501500Y-451000D02*
Y-311000D01*
X-641500D02*
X-501500D01*
X-641500Y-451000D02*
X-501500D01*
X-832000D02*
Y-311000D01*
X-692000Y-451000D02*
Y-311000D01*
X-832000D02*
X-692000D01*
X-832000Y-451000D02*
X-692000D01*
X-1022500D02*
Y-311000D01*
X-882500Y-451000D02*
Y-311000D01*
X-1022500D02*
X-882500D01*
X-1022500Y-451000D02*
X-882500D01*
X-1213000D02*
Y-311000D01*
X-1073000Y-451000D02*
Y-311000D01*
X-1213000D02*
X-1073000D01*
X-1213000Y-451000D02*
X-1073000D01*
X-1451125Y-260500D02*
Y-120500D01*
X-1311125Y-260500D02*
Y-120500D01*
X-1451125D02*
X-1311125D01*
X-1451125Y-260500D02*
X-1311125D01*
X-1213000D02*
X-1073000D01*
X-1213000Y-120500D02*
X-1073000D01*
Y-260500D02*
Y-120500D01*
X-1213000Y-260500D02*
Y-120500D01*
X-1022500Y-260500D02*
X-882500D01*
X-1022500Y-120500D02*
X-882500D01*
Y-260500D02*
Y-120500D01*
X-1022500Y-260500D02*
Y-120500D01*
X-832000Y-260500D02*
X-692000D01*
X-832000Y-120500D02*
X-692000D01*
Y-260500D02*
Y-120500D01*
X-832000Y-260500D02*
Y-120500D01*
X-641500Y-260500D02*
X-501500D01*
X-641500Y-120500D02*
X-501500D01*
Y-260500D02*
Y-120500D01*
X-641500Y-260500D02*
Y-120500D01*
X-451000Y-260500D02*
X-311000D01*
X-451000Y-120500D02*
X-311000D01*
Y-260500D02*
Y-120500D01*
X-451000Y-260500D02*
Y-120500D01*
X-260500Y-260500D02*
X-120500D01*
X-260500Y-120500D02*
X-120500D01*
Y-260500D02*
Y-120500D01*
X-260500Y-260500D02*
Y-120500D01*
X-70000Y-260500D02*
X70000D01*
X-70000Y-120500D02*
X70000D01*
Y-260500D02*
Y-120500D01*
X-70000Y-260500D02*
Y-120500D01*
X120500Y-260500D02*
X260500D01*
X120500Y-120500D02*
X260500D01*
Y-260500D02*
Y-120500D01*
X120500Y-260500D02*
Y-120500D01*
X311000Y-260500D02*
X451000D01*
X311000Y-120500D02*
X451000D01*
Y-260500D02*
Y-120500D01*
X311000Y-260500D02*
Y-120500D01*
X501500Y-260500D02*
X641500D01*
X501500Y-120500D02*
X641500D01*
Y-260500D02*
Y-120500D01*
X501500Y-260500D02*
Y-120500D01*
X692000Y-260500D02*
X832000D01*
X692000Y-120500D02*
X832000D01*
Y-260500D02*
Y-120500D01*
X692000Y-260500D02*
Y-120500D01*
X882500Y-260500D02*
X1022500D01*
X882500Y-120500D02*
X1022500D01*
Y-260500D02*
Y-120500D01*
X882500Y-260500D02*
Y-120500D01*
X1311125Y-70000D02*
Y70000D01*
X1451125Y-70000D02*
Y70000D01*
X1311125D02*
X1451125D01*
X1311125Y-70000D02*
X1451125D01*
X-1451125D02*
Y70000D01*
X-1311125Y-70000D02*
Y70000D01*
X-1451125D02*
X-1311125D01*
X-1451125Y-70000D02*
X-1311125D01*
D12*
X314960Y-784860D02*
Y-756920D01*
X572770Y-695960D02*
Y-684276D01*
X314960Y-784860D02*
X323596D01*
X390144Y-703834D02*
X406400D01*
X390144Y-810768D02*
X406400D01*
Y-831850D02*
Y-810768D01*
X628904Y-756920D02*
Y-695960D01*
Y-756920D02*
X637540D01*
X628904Y-818896D02*
Y-784860D01*
X546100Y-810768D02*
X562356D01*
X334010Y-695960D02*
Y-684276D01*
X562356Y-703834D02*
Y-695960D01*
X379730D02*
Y-684276D01*
X406400Y-692150D02*
X546100D01*
X390144Y-703834D02*
Y-695960D01*
X562356Y-818896D02*
X628904D01*
X323596Y-756920D02*
Y-695960D01*
X314960Y-756920D02*
X323596D01*
X637540Y-784860D02*
Y-756920D01*
X546100Y-831850D02*
Y-810768D01*
X406400Y-831850D02*
X546100D01*
X572770Y-684276D02*
X618490D01*
X562356Y-695960D02*
X572770D01*
X546100Y-703834D02*
Y-692150D01*
X334010Y-684276D02*
X379730D01*
X562356Y-818896D02*
Y-810768D01*
X618490Y-695960D02*
Y-684276D01*
X323596Y-818896D02*
Y-784860D01*
X379730Y-695960D02*
X390144D01*
X618490D02*
X628904D01*
Y-784860D02*
X637540D01*
X323596Y-818896D02*
X390144D01*
Y-810768D01*
X406400Y-703834D02*
Y-692150D01*
X323596Y-695960D02*
X334010D01*
X546100Y-703834D02*
X562356D01*
X-406400D02*
X-390144D01*
X-628904Y-695960D02*
X-618490D01*
X-546100Y-703834D02*
Y-692150D01*
X-562356Y-818896D02*
Y-810768D01*
X-628904Y-818896D02*
X-562356D01*
X-323596Y-784860D02*
X-314960D01*
X-334010Y-695960D02*
X-323596D01*
X-572770D02*
X-562356D01*
X-628904Y-818896D02*
Y-784860D01*
X-334010Y-695960D02*
Y-684276D01*
X-390144Y-818896D02*
Y-810768D01*
X-618490Y-684276D02*
X-572770D01*
X-406400Y-703834D02*
Y-692150D01*
X-390144Y-695960D02*
X-379730D01*
Y-684276D02*
X-334010D01*
X-546100Y-831850D02*
X-406400D01*
Y-810768D01*
X-314960Y-784860D02*
Y-756920D01*
X-637540D02*
X-628904D01*
Y-695960D01*
X-390144Y-818896D02*
X-323596D01*
X-562356Y-703834D02*
Y-695960D01*
X-546100Y-692150D02*
X-406400D01*
X-572770Y-695960D02*
Y-684276D01*
X-390144Y-703834D02*
Y-695960D01*
X-618490D02*
Y-684276D01*
X-406400Y-810768D02*
X-390144D01*
X-323596Y-818896D02*
Y-784860D01*
Y-756920D02*
X-314960D01*
X-323596D02*
Y-695960D01*
X-546100Y-831850D02*
Y-810768D01*
X-562356D02*
X-546100D01*
X-562356Y-703834D02*
X-546100D01*
X-637540Y-784860D02*
X-628904D01*
X-379730Y-695960D02*
Y-684276D01*
X-637540Y-784860D02*
Y-756920D01*
M02*
