M48
;Layer_Color=9474304
;FILE_FORMAT=4:4
METRIC,LZ
;TYPE=PLATED
T1F00S00C0.3000
T2F00S00C0.4000
T4F00S00C0.9906
T5F00S00C1.1000
T6F00S00C1.4986
;TYPE=NON_PLATED
T7F00S00C1.7018
T8F00S00C3.0000
T9F00S00C3.9878
T10F00S00C4.0000
%
T01
X-001065Y-002965
X-000955
X-000845
X-000735
Y-002855
Y-002745
Y-002635
X-000845
Y-002745
Y-002855
X-000955
Y-002745
Y-002635
X-001065
Y-002745
Y-002855
T02
X01005Y-006675
X009775Y-006275
X01185Y-006825
X01275Y-00665
X01262625Y-00627625
Y-00419875
X012825Y-0043
X0122Y-004425
X01185Y-0042
X009075Y-00645
Y-006825
X0071
X006775Y-007
X00642939Y-0063
X007125Y-006275
X00310125Y-00612625
X002575Y-006325
X002425Y-006225
X00310125Y-00702375
X00335Y-0042
X001075Y-00405
X-00085Y-004075
X-0010048Y-0040298
X-001175Y-0039
X-00067585Y-00365
X-00260625Y-00613125
X-002925Y-006225
X-003225Y-006325
X-002675Y-007075
X-00642251Y-00709751
X-00675Y-007075
X-00710437Y-006825
X-008325Y-006925
X-009375Y-007075
X-00912625Y-00650125
X-00995Y-006825
X-006425Y-006125
X-01197625Y-00650125
X-01284925Y-00652425
X-0128Y-006825
X-01265Y-0042
X-012375Y-00420071
X-011925Y-0041
X-01255Y-003375
X-01305Y-00237328
X-0128Y-001125
X-01255Y-00135
X-01235
X-0118575Y-000975
X-011925Y-000775
X-0103575Y-00243238
X-009975Y-001125
X-0100325Y-000875
X-00912375Y-00078125
X-009Y-000975
X-007175Y-000875
X-007075Y-001125
X-00626625Y-00078125
X-0065475Y-00257318
X-0084525Y-00252081
X-0046425Y-0026525
X-002725Y-00267676
X-00235Y-002675
X-00225Y-0026
X-002325Y-00095
X-00245625Y-00078125
X-00335Y-0008525
X-0033Y-001125
X-00605Y-00095
X-001125Y-001125
X-000875Y-001175
Y-000675
X-00105Y-0004
X-001025Y-001775
X-001125Y-00191961
Y-002025
X-000925Y-002
X-000825
X-0007Y-002125
X-00122214Y-00222215
X-001425Y-002425
X-00165Y-002525
Y-002625
X-001625Y-003025
X-0014Y-00315
X-001225Y-0033
X-000975Y-0034
X-000675
X-000525Y-0031975
X-00039154Y-00286654
X00019424Y-0029
X000475Y-0027
X00095
X0009Y-0028
X000975Y-0025475
X000875Y-002425
X00085Y-00225
X000925Y-002175
X000825Y-0021
X001Y-002275
X-00020894Y-002375
X-00015Y-002475
X-0018Y-002225
X-0019Y-0023
X-001975Y-002375
X-00205Y-00245
X-00215Y-002525
X000325Y-000675
X0009
X00235Y-0009275
X002425Y-001125
X003325Y-001
X00325875Y-00078125
X003225Y-00215
X0033Y-00225
X003075Y-002325
X002975Y-002725
X00485Y-002625
X00675Y-00255
X0062325Y-0011175
X006175Y-0009
X00706875Y-00078125
X0072Y-00095
X009075Y-0009
X0090825Y-0011175
X008675Y-0025
X010575Y-0024
X011975Y-002875
X012275Y-0031
X0123Y-0034
X012625Y-0027
X0125025Y-00234688
X01245Y-001375
X0119425Y-0011175
X011925Y-0009
X0128Y-000725
X00992625Y-00078125
X01005Y-00095
X014525Y-00215
T04
X-01393825Y-004318
X-01368425
T05
X002846Y-004977
Y-004723
X0031
Y-004977
X003354
Y-004723
T06
X01405314Y-00711792
Y-00521292
X01343025Y-005461
Y-003556
X011049
Y-005461
X01167189Y-00521292
X00976689
X01057275Y-007366
X01119564Y-00711792
X01343025Y-007366
X00833814Y-00711792
X00771525Y-007366
X00786189Y-00521292
X007239Y-005461
X00595689Y-00521292
X007239Y-003556
X009144
Y-005461
X005334
X00405189Y-00521292
X003429Y-005461
X00214689Y-00521292
Y-00711792
X0043815Y-007366
X00500439Y-00711792
X005334Y-003556
X003429
X001524
Y-005461
X00024189Y-00521292
X-000381Y-005461
X-00166311Y-00521292
Y-00711792
X-000381Y-007366
X00024189Y-00711792
X001524Y-007366
X-000381Y-003556
X-002286
Y-005461
X-00356811Y-00521292
X-004191Y-005461
X-00547311Y-00521292
X-006096Y-005461
Y-003556
X-004191
X-00452061Y-00711792
X-0051435Y-007366
X-002286
X-00785436Y-00711792
X-00847725Y-007366
X-008001Y-005461
X-00737811Y-00521292
X-00928311
X-009906Y-005461
Y-003556
X-008001
X-011811
Y-005461
X-01118811Y-00521292
X-01133475Y-007366
X-01071186Y-00711792
X-01356936
Y-00521292
X-01419225Y-005461
Y-003556
Y-007366
Y-001651
Y000254
X-01356936Y00050208
Y-00140292
Y-00330792
X-01118811
Y-00140292
X-011811Y-001651
Y000254
X-01118811Y00050208
X-009906Y000254
X-00928311Y00050208
X-008001Y000254
X-00737811Y00050208
Y-00140292
X-008001Y-001651
X-00928311Y-00140292
X-009906Y-001651
X-00928311Y-00330792
X-00737811
X-00547311
X-00356811
Y-00140292
X-004191Y-001651
X-00547311Y-00140292
X-006096Y-001651
Y000254
X-00547311Y00050208
X-004191Y000254
X-00356811Y00050208
X-002286Y000254
Y-001651
X-00166311Y-00140292
X-000381Y-001651
X00024189Y-00140292
X000381Y-000254
X-00024189Y-00050208
X-00166311Y00050208
X001524Y000254
Y-001651
X00024189Y-00330792
X-00166311
X00214689
X00405189
Y-00140292
X003429Y-001651
X00214689Y-00140292
Y00050208
X003429Y000254
X00405189Y00050208
X005334Y000254
Y-001651
X00595689Y-00140292
X007239Y-001651
X00786189Y-00140292
X009144Y-001651
Y000254
X00786189Y00050208
X007239Y000254
X00595689Y00050208
Y-00330792
X00786189
X00976689
X01167189
Y-00140292
X011049Y-001651
X00976689Y-00140292
Y00050208
X011049Y000254
X01167189Y00050208
X01343025Y000254
Y-001651
X01405314Y-00140292
Y-00330792
Y00050208
T07
X-01431925Y-00762
X-01330325
X-01146175
X-01044575
X-00860425
X-00758825
X-0052705
X-0042545
X-002413
X-001397
X-000508
X000508
X001397
X002413
X0042545
X0052705
X00758825
X00860425
X01044575
X01146175
X01330325
X01431925
Y-005715
Y-00381
X01330325
X011938
X010922
X010033
Y-005715
X010922
X011938
X01330325
X009017
X008128
X007112
X006223
Y-00381
X007112
X008128
X009017
X005207
X004318
X003302
X002413
Y-005715
X003302
X004318
X005207
X001397
X000508
X-000508
X-001397
Y-00381
X-000508
X000508
X001397
X-002413
X-003302
X-004318
X-005207
Y-005715
X-004318
X-003302
X-002413
X-006223
X-007112
X-008128
X-009017
X-010033
Y-00381
X-009017
X-008128
X-007112
X-006223
X-010922
X-011938
X-01330325
Y-005715
X-011938
X-010922
X-01431925
Y-00381
Y-001905
Y0
X-01330325
X-011938
X-010922
Y-001905
X-011938
X-01330325
X-010033
X-009017
X-008128
X-007112
X-006223
Y0
X-007112
X-008128
X-009017
X-010033
X-005207
X-004318
X-003302
X-002413
Y-001905
X-003302
X-004318
X-005207
X-001397
X-000508
X000508
X001397
Y0
X000508
X-000508
X-001397
X002413
X003302
X004318
X005207
Y-001905
X004318
X003302
X002413
X006223
X007112
X008128
X009017
Y0
X008128
X007112
X006223
X010033
X010922
X011938
X01330325
Y-001905
X011938
X010922
X010033
X01431925
Y0
T08
X-0059563Y-0083185
X-0035687
X0035687
X0059563
T09
X-01381125Y-00762
X-01095375
X-00809625
X-0047625
X-001905
X0
X001905
X0047625
X00809625
X01095375
X01381125
Y-005715
Y-00381
X01143
Y-005715
X009525
X00762
Y-00381
X009525
X005715
Y-005715
X00381
X001905
Y-00381
X00381
X0
Y-005715
X-001905
Y-00381
X-00381
Y-005715
X-005715
Y-00381
X-00762
Y-005715
X-009525
Y-00381
X-01143
Y-005715
X-01381125
Y-00381
Y-001905
Y0
X-01143
Y-001905
X-009525
Y0
X-00762
Y-001905
X-005715
Y0
X-00381
Y-001905
X-001905
Y0
X0
Y-001905
X001905
Y0
X00381
X005715
Y-001905
X00381
X00762
Y0
X009525
Y-001905
X01143
Y0
X01381125
Y-001905
T10
X0059563Y-0067945
X0035687
X-0035687
X-0059563
M30
